<svg width="112" height="30" viewBox="0 0 112 30" fill="none" xmlns="http://www.w3.org/2000/svg">
<path d="M27.3983 16.8495H29.593C29.7519 18.3407 31.1323 19.3209 33.0192 19.3209C34.8266 19.3209 36.1276 18.3407 36.1276 16.9955C36.1276 15.8276 35.343 15.1289 33.4859 14.6492L31.6289 14.18C28.9972 13.5126 27.7757 12.2195 27.7757 10.1235C27.7757 7.52698 29.9307 5.74381 32.9894 5.74381C36.0183 5.74381 38.0939 7.52698 38.1634 10.1235H35.9985C35.8694 8.62191 34.6876 7.71468 32.9596 7.71468C31.2316 7.71468 30.0499 8.63234 30.0499 9.96711C30.0499 11.0308 30.8046 11.6564 32.6518 12.1361L34.2308 12.5428C37.1703 13.2728 38.3918 14.5137 38.3918 16.714C38.3918 19.5295 36.2567 21.2918 32.8603 21.2918C29.6824 21.2918 27.5373 19.5712 27.3983 16.8495Z" fill="white"/>
<path d="M41.7639 14.7744L45.9846 10.0714H48.507L44.1772 14.7952L48.6758 21.0415H46.1832L42.6379 16.1717L41.7441 17.0998V21.0415H39.599V5.99408H41.7441V14.7744H41.7639Z" fill="white"/>
<path d="M50.2108 25.1293C50.0419 25.1293 49.4957 25.1084 49.3368 25.0771V23.2523C49.4957 23.294 49.8532 23.294 50.032 23.294C51.035 23.294 51.5614 22.856 51.8891 21.7298C51.8891 21.7089 52.0778 21.0624 52.0778 21.052L48.304 10.0714H50.6279L53.2794 18.9977H53.3092L55.9608 10.0714H58.225L54.3023 21.6151C53.4085 24.2742 52.3856 25.1293 50.2108 25.1293Z" fill="white"/>
<path d="M70.8285 9.69598L67.74 21.0415H65.6346L61.7715 5.99408H64.0854L66.737 17.7776H66.8164L69.8453 5.99408H71.911L74.9498 17.7776H75.0293L77.6808 5.99408H79.9947L76.1217 21.0415H74.0262L70.9278 9.69598H70.8285Z" fill="white"/>
<path d="M83.1782 19.4461C84.6777 19.4461 85.8496 18.3616 85.8496 16.9329V16.0674L83.2775 16.2343C81.9964 16.3281 81.2714 16.9225 81.2714 17.861C81.2714 18.8204 82.0262 19.4461 83.1782 19.4461ZM82.5823 21.2292C80.5365 21.2292 79.1065 19.8945 79.1065 17.9236C79.1065 16.0049 80.5067 14.8265 82.9895 14.6805L85.8496 14.5032V13.6586C85.8496 12.4385 85.065 11.7086 83.7542 11.7086C82.5128 11.7086 81.7382 12.3342 81.5495 13.3145H79.5236C79.6428 11.3332 81.2516 9.87326 83.8336 9.87326C86.366 9.87326 87.9847 11.281 87.9847 13.4813V21.0415H85.929V19.2375H85.8794C85.2736 20.4576 83.9528 21.2292 82.5823 21.2292Z" fill="white"/>
<path d="M89.5395 21.0415V5.99408H91.6846V21.0415H89.5395Z" fill="white"/>
<path d="M93.3585 21.0415V5.99408H95.5036V21.0415H93.3585Z" fill="white"/>
<path d="M101.468 11.6877C99.9681 11.6877 98.9155 12.8869 98.8062 14.545H104.03C103.98 12.8661 102.967 11.6877 101.468 11.6877ZM104.02 17.8193H106.056C105.758 19.8215 103.95 21.2501 101.557 21.2501C98.4884 21.2501 96.6313 19.0707 96.6313 15.6086C96.6313 12.1674 98.5182 9.87326 101.468 9.87326C104.368 9.87326 106.175 12.0214 106.175 15.3479V16.1196H98.7963V16.2551C98.7963 18.1634 99.8887 19.4252 101.607 19.4252C102.828 19.4252 103.732 18.7787 104.02 17.8193Z" fill="white"/>
<path d="M107.859 7.47484H110.014V10.0714H112V11.8546H110.014V17.9027C110.014 18.8517 110.411 19.2792 111.285 19.2792C111.503 19.2792 111.851 19.2584 111.99 19.2271V21.0103C111.752 21.0728 111.275 21.1145 110.798 21.1145C108.683 21.1145 107.859 20.2699 107.859 18.153V11.8546H106.339V10.0714H107.859V7.47484Z" fill="white"/>
<path d="M18.8289 16.3408C18.6776 13.4801 16.4712 11.8169 13.8363 12.0699C12.1501 12.0609 9.4491 12.0475 7.76926 12.0296L12.2311 4.72321C12.3718 4.49936 12.0563 4.25985 11.8943 4.46579L5.08749 12.437C4.50978 13.0794 5.02141 14.2188 5.85919 14.1718C5.91675 14.1718 12.5231 14.1203 13.8406 14.1136C14.3543 14.1315 14.9853 14.0419 15.4671 14.2613C17.0659 14.8858 17.4283 17.1668 16.1216 18.3196C13.4739 21.0618 9.97139 24.6746 7.30667 27.4145H7.30027C6.69698 28.0928 5.61617 27.9741 5.07683 27.269C4.3435 26.4251 5.02354 25.3507 5.35823 24.4866C5.98497 22.96 6.64582 21.449 7.36423 19.9649C7.43884 19.8217 7.32799 19.6291 7.17024 19.6336H5.19408C5.08323 19.6336 4.97451 19.6694 4.88284 19.7388C4.79117 19.8082 4.72296 19.9045 4.68672 20.0142C4.57586 20.3589 3.35009 23.8173 2.85978 25.2029C1.88343 28.1398 5.15571 31.0632 7.765 29.6194C8.15298 29.4224 8.48767 29.1046 8.79252 28.7889C9.221 28.3435 16.0576 21.1894 16.0576 21.1894C17.4198 19.7567 18.9312 18.5927 18.8247 16.3431L18.8289 16.3408Z" fill="url(#paint0_linear_130_186)"/>
<path d="M0.00106751 13.6592C0.152424 16.5199 2.35881 18.1831 4.99369 17.9302C6.67992 17.9391 9.38088 17.9525 11.0607 17.9704L6.59891 25.2768C6.45822 25.5006 6.77372 25.7402 6.93574 25.5342L13.7425 17.563C14.3202 16.9206 13.8086 15.7812 12.9708 15.8282C12.9132 15.8282 6.30686 15.8797 4.98942 15.8864C4.47567 15.8685 3.84466 15.9581 3.36288 15.7387C1.76405 15.1142 1.40164 12.8332 2.70842 11.6804C5.35609 8.93824 8.8586 5.32536 11.5233 2.58547H11.5297C12.133 1.90722 13.2138 2.02586 13.7532 2.73097C14.4865 3.57488 13.8064 4.64934 13.4718 5.51339C12.845 7.04002 12.1842 8.55098 11.4658 10.0351C11.3911 10.1783 11.502 10.3709 11.6598 10.3664H13.6359C13.7468 10.3664 13.8555 10.3306 13.9471 10.2612C14.0388 10.1918 14.107 10.0955 14.1433 9.98584C14.2541 9.64112 15.4799 6.18269 15.9702 4.79708C16.9466 1.86021 13.6743 -1.06322 11.065 0.380586C10.677 0.577571 10.3423 0.895433 10.0375 1.21106C9.60898 1.65651 2.77238 8.81065 2.77238 8.81065C1.41017 10.2433 -0.101258 11.4073 0.00533117 13.6569L0.00106751 13.6592Z" fill="url(#paint1_linear_130_186)"/>
<defs>
<linearGradient id="paint0_linear_130_186" x1="22.5968" y1="-3.80539" x2="8.13205" y2="45.2971" gradientUnits="userSpaceOnUse">
<stop stop-color="#055DF5"/>
<stop offset="1" stop-color="#06F4EE"/>
</linearGradient>
<linearGradient id="paint1_linear_130_186" x1="22.5968" y1="-3.80539" x2="8.13205" y2="45.2971" gradientUnits="userSpaceOnUse">
<stop stop-color="#055DF5"/>
<stop offset="1" stop-color="#06F4EE"/>
</linearGradient>
</defs>
</svg>
