<svg width="89" height="75" viewBox="0 0 89 75" fill="none" xmlns="http://www.w3.org/2000/svg">
<path d="M0 66.6001H2.30883C2.47598 68.113 3.92814 69.1074 5.91311 69.1074C7.8145 69.1074 9.18308 68.113 9.18308 66.7483C9.18308 65.5634 8.35775 64.8546 6.40413 64.3679L4.4505 63.8919C1.682 63.2148 0.396993 61.903 0.396993 59.7766C0.396993 57.1424 2.66403 55.3333 5.88177 55.3333C9.06816 55.3333 11.2516 57.1424 11.3248 59.7766H9.04726C8.91145 58.2532 7.66824 57.3328 5.85043 57.3328C4.03261 57.3328 2.7894 58.2638 2.7894 59.6179C2.7894 60.697 3.58339 61.3317 5.52656 61.8184L7.18766 62.2309C10.28 62.9715 11.565 64.2304 11.565 66.4626C11.565 69.319 9.31889 71.1069 5.74595 71.1069C2.40285 71.1069 0.146261 69.3613 0 66.6001Z" fill="white"/>
<path d="M15.1125 64.4949L19.5525 59.7237H22.2061L17.6511 64.5161L22.3837 70.853H19.7615L16.0318 65.9125L15.0916 66.854V70.853H12.835V55.5872H15.0916V64.4949H15.1125Z" fill="white"/>
<path d="M23.9984 75C23.8208 75 23.2462 74.9788 23.0791 74.9471V73.0958C23.2462 73.1381 23.6223 73.1381 23.8104 73.1381C24.8656 73.1381 25.4193 72.6937 25.764 71.5512C25.764 71.53 25.9625 70.8741 25.9625 70.8635L21.9926 59.7237H24.4372L27.2266 68.7794H27.258L30.0474 59.7237H32.4293L28.3027 71.4348C27.3624 74.1325 26.2864 75 23.9984 75Z" fill="white"/>
<path d="M45.6881 59.3428L42.439 70.853H40.2242L36.1602 55.5872H38.5944L41.3838 67.5417H41.4674L44.6538 55.5872H46.8268L50.0236 67.5417H50.1072L52.8966 55.5872H55.3308L51.2564 70.853H49.0521L45.7925 59.3428H45.6881Z" fill="white"/>
<path d="M58.6798 69.2344C60.2573 69.2344 61.4901 68.1341 61.4901 66.6848V65.8067L58.7842 65.976C57.4365 66.0712 56.6739 66.6742 56.6739 67.6263C56.6739 68.5996 57.4679 69.2344 58.6798 69.2344ZM58.0529 71.0434C55.9008 71.0434 54.3964 69.6893 54.3964 67.6898C54.3964 65.7432 55.8695 64.5478 58.4813 64.3997L61.4901 64.2198V63.3629C61.4901 62.1252 60.6647 61.3846 59.2857 61.3846C57.9798 61.3846 57.1649 62.0194 56.9664 63.0138H54.8352C54.9606 61.0038 56.653 59.5227 59.3693 59.5227C62.0333 59.5227 63.7362 60.9509 63.7362 63.1831V70.853H61.5736V69.0228H61.5214C60.8841 70.2605 59.4946 71.0434 58.0529 71.0434Z" fill="white"/>
<path d="M65.3718 70.853V55.5872H67.6284V70.853H65.3718Z" fill="white"/>
<path d="M69.3894 70.853V55.5872H71.646V70.853H69.3894Z" fill="white"/>
<path d="M77.9201 61.3635C76.3426 61.3635 75.2352 62.5801 75.1203 64.2622H80.6155C80.5633 62.5589 79.4977 61.3635 77.9201 61.3635ZM80.6051 67.584H82.7467C82.4333 69.6152 80.5319 71.0646 78.0142 71.0646C74.786 71.0646 72.8324 68.8535 72.8324 65.3412C72.8324 61.8501 74.8173 59.5227 77.9201 59.5227C80.9707 59.5227 82.8721 61.702 82.8721 65.0768V65.8596H75.1098V65.9971C75.1098 67.9331 76.259 69.2132 78.0664 69.2132C79.3514 69.2132 80.3021 68.5573 80.6051 67.584Z" fill="white"/>
<path d="M84.6435 57.0895H86.9106V59.7237H89V61.5327H86.9106V67.6686C86.9106 68.6313 87.3285 69.0651 88.2478 69.0651C88.4776 69.0651 88.8433 69.0439 88.9896 69.0122V70.8212C88.7388 70.8847 88.2374 70.927 87.7359 70.927C85.5107 70.927 84.6435 70.0701 84.6435 67.9225V61.5327H83.0451V59.7237H84.6435V57.0895Z" fill="white"/>
<path d="M59.1083 24.3334C58.8717 20.0734 55.4217 17.5967 51.3017 17.9734C48.665 17.9601 44.4417 17.9401 41.815 17.9134L48.7917 7.0334C49.0117 6.70007 48.5183 6.3434 48.265 6.65007L37.6217 18.5201C36.7183 19.4767 37.5183 21.1734 38.8283 21.1034C38.9183 21.1034 49.2483 21.0267 51.3083 21.0167C52.1117 21.0434 53.0983 20.9101 53.8517 21.2367C56.3517 22.1667 56.9183 25.5634 54.875 27.2801C50.735 31.3634 45.2583 36.7434 41.0917 40.8234H41.0817C40.1383 41.8334 38.4483 41.6567 37.605 40.6067C36.4583 39.3501 37.5217 37.7501 38.045 36.4634C39.025 34.1901 40.0583 31.9401 41.1817 29.7301C41.2983 29.5167 41.125 29.2301 40.8783 29.2367H37.7883C37.615 29.2367 37.445 29.2901 37.3017 29.3934C37.1583 29.4967 37.0517 29.6401 36.995 29.8034C36.8217 30.3167 34.905 35.4667 34.1383 37.5301C32.6117 41.9034 37.7283 46.2567 41.8083 44.1067C42.415 43.8134 42.9383 43.3401 43.415 42.8701C44.085 42.2067 54.775 31.5534 54.775 31.5534C56.905 29.4201 59.2683 27.6867 59.1017 24.3367L59.1083 24.3334Z" fill="url(#paint0_linear_130_176)"/>
<path d="M29.6683 20.3401C29.905 24.6001 33.355 27.0767 37.475 26.7001C40.1117 26.7134 44.335 26.7334 46.9617 26.7601L39.985 37.6401C39.765 37.9734 40.2583 38.3301 40.5117 38.0234L51.155 26.1534C52.0583 25.1967 51.2583 23.5001 49.9483 23.5701C49.8583 23.5701 39.5283 23.6467 37.4683 23.6567C36.665 23.6301 35.6783 23.7634 34.925 23.4367C32.425 22.5067 31.8583 19.1101 33.9017 17.3934C38.0417 13.3101 43.5183 7.93007 47.685 3.85007H47.695C48.6383 2.84007 50.3283 3.01674 51.1717 4.06674C52.3183 5.3234 51.255 6.9234 50.7317 8.21007C49.7517 10.4834 48.7183 12.7334 47.595 14.9434C47.4783 15.1567 47.6517 15.4434 47.8983 15.4367H50.9883C51.1617 15.4367 51.3317 15.3834 51.475 15.2801C51.6183 15.1767 51.725 15.0334 51.7817 14.8701C51.955 14.3567 53.8717 9.20674 54.6383 7.1434C56.165 2.77007 51.0483 -1.58326 46.9683 0.566737C46.3617 0.86007 45.8383 1.3334 45.3617 1.8034C44.6917 2.46674 34.0017 13.1201 34.0017 13.1201C31.8717 15.2534 29.5083 16.9867 29.675 20.3367L29.6683 20.3401Z" fill="url(#paint1_linear_130_176)"/>
<defs>
<linearGradient id="paint0_linear_130_176" x1="65" y1="-5.66666" x2="44.3333" y2="68" gradientUnits="userSpaceOnUse">
<stop stop-color="#055DF5"/>
<stop offset="1" stop-color="#06F4EE"/>
</linearGradient>
<linearGradient id="paint1_linear_130_176" x1="65" y1="-5.66666" x2="44.3333" y2="68" gradientUnits="userSpaceOnUse">
<stop stop-color="#055DF5"/>
<stop offset="1" stop-color="#06F4EE"/>
</linearGradient>
</defs>
</svg>
