<svg width="20" height="31" viewBox="0 0 20 31" fill="none" xmlns="http://www.w3.org/2000/svg">
<path d="M19.9989 16.8855C19.8381 13.9294 17.4946 12.2108 14.696 12.4722C12.905 12.4629 10.0362 12.449 8.25201 12.4305L12.9911 4.88065C13.1405 4.64934 12.8054 4.40184 12.6333 4.61465L5.4036 12.8515C4.79 13.5154 5.33342 14.6927 6.22326 14.6442C6.28439 14.6442 13.3013 14.591 14.7006 14.584C15.2462 14.6025 15.9164 14.51 16.4282 14.7367C18.1263 15.382 18.5113 17.7391 17.1233 18.9303C14.3111 21.7638 10.591 25.4971 7.76067 28.3283H7.75388C7.1131 29.0292 5.96514 28.9066 5.39228 28.178C4.61339 27.306 5.33568 26.1957 5.69116 25.3028C6.35685 23.7253 7.05876 22.164 7.82181 20.6304C7.90106 20.4824 7.78331 20.2835 7.61576 20.2881H5.51682C5.39908 20.2881 5.2836 20.3251 5.18624 20.3968C5.08888 20.4685 5.01642 20.568 4.97793 20.6813C4.86019 21.0375 3.55825 24.6112 3.03748 26.043C2.00046 29.0778 5.47606 32.0987 8.24749 30.6067C8.65958 30.4032 9.01506 30.0747 9.33884 29.7486C9.79396 29.2883 17.0554 21.8957 17.0554 21.8957C18.5022 20.4153 20.1075 19.2125 19.9943 16.8878L19.9989 16.8855Z" fill="url(#paint0_linear_130_422)"/>
<path d="M0.00113298 14.1145C0.161894 17.0706 2.50538 18.7892 5.30397 18.5278C7.09498 18.5371 9.96377 18.551 11.748 18.5695L7.00894 26.1194C6.8595 26.3507 7.19461 26.5982 7.36669 26.3854L14.5964 18.1485C15.21 17.4846 14.6666 16.3073 13.7767 16.3558C13.7156 16.3558 6.69874 16.409 5.29945 16.416C4.75377 16.3975 4.08355 16.49 3.57183 16.2633C1.87366 15.618 1.48874 13.2609 2.87671 12.0697C5.6889 9.23618 9.40903 5.50287 12.2393 2.67166H12.2461C12.8869 1.97079 14.0349 2.09339 14.6077 2.82201C15.3866 3.69404 14.6643 4.80432 14.3088 5.69717C13.6432 7.27469 12.9412 8.83602 12.1782 10.3696C12.0989 10.5176 12.2167 10.7165 12.3842 10.7119H14.4832C14.6009 10.7119 14.7164 10.6749 14.8138 10.6032C14.9111 10.5315 14.9836 10.432 15.0221 10.3187C15.1398 9.96249 16.4417 6.38878 16.9625 4.95698C17.9995 1.92222 14.5239 -1.09866 11.7525 0.393272C11.3404 0.596824 10.9849 0.925281 10.6612 1.25143C10.206 1.71173 2.94464 9.10433 2.94464 9.10433C1.49779 10.5847 -0.107549 11.7875 0.00566242 14.1122L0.00113298 14.1145Z" fill="url(#paint1_linear_130_422)"/>
<defs>
<linearGradient id="paint0_linear_130_422" x1="24.0008" y1="-3.93223" x2="9.39684" y2="47.0247" gradientUnits="userSpaceOnUse">
<stop stop-color="#055DF5"/>
<stop offset="1" stop-color="#06F4EE"/>
</linearGradient>
<linearGradient id="paint1_linear_130_422" x1="24.0008" y1="-3.93223" x2="9.39684" y2="47.0247" gradientUnits="userSpaceOnUse">
<stop stop-color="#055DF5"/>
<stop offset="1" stop-color="#06F4EE"/>
</linearGradient>
</defs>
</svg>
