<svg width="776" height="202" viewBox="0 0 776 202" fill="none" xmlns="http://www.w3.org/2000/svg"><g clip-path="url(#a)"><path d="M763.115.711H12.579C5.632.711 0 6.333 0 13.267v175.771c0 6.934 5.632 12.555 12.579 12.555h750.536c6.947 0 12.579-5.621 12.579-12.555V13.267c0-6.934-5.632-12.556-12.579-12.556Z" fill="#161B24"/><path d="M0 13.267C0 6.333 5.632.71 12.579.71h750.536c6.947 0 12.579 5.622 12.579 12.556V37.33H0V13.267Z" fill="#1B212C"/><path d="M33.4 23.73h-1.093v-8.847h1.075l4.852 6.946h.055v-6.946h1.093v8.846h-1.074l-4.853-6.921H33.4v6.921Zm9.459-.798c1.007 0 1.781-.705 1.781-1.624v-.521l-1.708.104c-.86.055-1.35.435-1.35 1.036 0 .607.51 1.005 1.277 1.005Zm-.24.908c-1.271 0-2.125-.767-2.125-1.913 0-1.091.842-1.778 2.316-1.864l1.83-.104v-.533c0-.779-.516-1.245-1.4-1.245-.823 0-1.34.386-1.474 1.012h-1.032c.073-1.104 1.02-1.95 2.53-1.95 1.499 0 2.445.81 2.445 2.078v4.408h-1.014v-1.097h-.024c-.381.73-1.192 1.208-2.052 1.208Zm4.447-.11v-6.377h1.007v1.018h.025c.301-.674.952-1.128 1.812-1.128.872 0 1.517.442 1.793 1.214h.025c.356-.76 1.105-1.214 2.002-1.214 1.265 0 2.082.822 2.082 2.085v4.401h-1.068v-4.156c0-.87-.486-1.386-1.327-1.386-.848 0-1.443.626-1.443 1.49v4.052h-1.07v-4.273c0-.766-.515-1.269-1.307-1.269-.848 0-1.462.662-1.462 1.545v3.997h-1.069Zm12.671-5.561c-1.001 0-1.701.766-1.769 1.827h3.47c-.024-1.067-.694-1.827-1.7-1.827Zm1.677 3.733h1.05c-.184 1.116-1.265 1.938-2.66 1.938-1.83 0-2.941-1.27-2.941-3.274 0-1.98 1.13-3.323 2.893-3.323 1.725 0 2.788 1.25 2.788 3.182v.404h-4.582v.062c0 1.22.719 2.023 1.867 2.023.811 0 1.407-.41 1.585-1.012Z" fill="#5E6F8D"/><path d="M82.99 68.718h-3.555v-8.846h3.537c1.573 0 2.605.87 2.605 2.207 0 .938-.694 1.778-1.579 1.925v.05c1.204.134 2.015.986 2.015 2.163 0 1.557-1.137 2.501-3.022 2.501Zm-2.18-7.724v2.642h1.542c1.192 0 1.849-.49 1.849-1.367 0-.821-.565-1.275-1.56-1.275h-1.83Zm0 6.602h1.898c1.24 0 1.898-.508 1.898-1.465 0-.956-.675-1.447-1.978-1.447H80.81v2.912Zm6.271 1.122V62.27h1.327v6.45h-1.327Zm.664-7.393a.76.76 0 0 1-.768-.754c0-.423.344-.76.768-.76.43 0 .774.337.774.76a.762.762 0 0 1-.774.754Zm2.407-.582h1.333v1.526h1.229v1.048h-1.229v3.556c0 .558.246.81.786.81.135 0 .35-.013.436-.031V68.7a3.658 3.658 0 0 1-.737.061c-1.308 0-1.818-.496-1.818-1.74v-3.704h-.94V62.27h.94v-1.526Zm9.041 3.745h-1.265c-.135-.686-.65-1.232-1.517-1.232-1.026 0-1.701.852-1.701 2.238 0 1.416.681 2.237 1.713 2.237.817 0 1.352-.447 1.505-1.195h1.278c-.142 1.373-1.241 2.305-2.795 2.305-1.849 0-3.052-1.263-3.052-3.347 0-2.048 1.203-3.341 3.04-3.341 1.664 0 2.678 1.066 2.794 2.335Zm3.729 4.353c-1.849 0-3.065-1.27-3.065-3.347 0-2.072 1.222-3.341 3.065-3.341 1.842 0 3.064 1.269 3.064 3.34 0 2.079-1.216 3.348-3.064 3.348Zm0-1.091c1.044 0 1.713-.822 1.713-2.256 0-1.429-.675-2.25-1.713-2.25s-1.714.821-1.714 2.25c0 1.434.676 2.256 1.714 2.256Zm4.133.968V62.27h1.327v6.45h-1.327Zm.664-7.393a.761.761 0 0 1-.769-.754c0-.423.344-.76.769-.76.43 0 .773.337.773.76a.761.761 0 0 1-.773.754Zm2.02 7.393V62.27h1.265v1.08h.031c.351-.736 1.038-1.19 2.033-1.19 1.426 0 2.242.907 2.242 2.384v4.175h-1.333v-3.917c0-.969-.454-1.502-1.376-1.502-.934 0-1.535.662-1.535 1.661v3.758h-1.327Z" fill="#fff"/><path d="M119.64 65.242c0-2.145.565-3.874 1.775-5.37h1.167c-.884 1.03-1.578 3.347-1.578 5.364s.694 4.34 1.578 5.37h-1.167c-1.21-1.501-1.775-3.23-1.775-5.364Zm7.549 3.476h-3.557v-8.846h3.538c1.572 0 2.605.87 2.605 2.207 0 .938-.694 1.778-1.579 1.925v.05c1.203.134 2.015.986 2.015 2.163 0 1.557-1.137 2.501-3.022 2.501Zm-2.181-7.724v2.642h1.542c1.191 0 1.848-.49 1.848-1.367 0-.821-.565-1.275-1.559-1.275h-1.831Zm0 6.603h1.898c1.241 0 1.898-.51 1.898-1.466s-.676-1.447-1.978-1.447h-1.818v2.913Zm9.963 1.121h-1.377v-7.663h-2.714v-1.183h6.799v1.183h-2.708v7.663Zm7.044.147c-2.487 0-4.06-1.753-4.06-4.573 0-2.801 1.585-4.567 4.06-4.567 2.008 0 3.526 1.232 3.759 3.078h-1.363c-.246-1.135-1.192-1.876-2.396-1.876-1.609 0-2.653 1.318-2.653 3.365 0 2.066 1.032 3.372 2.659 3.372 1.235 0 2.114-.632 2.39-1.698h1.369c-.337 1.827-1.725 2.9-3.765 2.9Zm7.365-3.623c0 2.68-.872 4.249-1.776 5.365h-1.167c.615-.712 1.579-2.722 1.579-5.37 0-2.65-.971-4.66-1.579-5.365h1.167c.904 1.11 1.776 2.68 1.776 5.37Z" fill="#FF7816"/><path d="M282.719 68.884c-1.978 0-3.354-1.06-3.354-2.557 0-1.127.798-2.029 1.972-2.274v-.03c-.983-.27-1.615-1.037-1.615-1.987 0-1.342 1.259-2.33 2.997-2.33 1.744 0 2.99.981 2.99 2.336 0 .938-.626 1.698-1.609 1.98v.031c1.179.245 1.972 1.153 1.972 2.274 0 1.502-1.388 2.557-3.353 2.557Zm0-1.104c1.13 0 1.928-.65 1.928-1.55 0-.914-.798-1.564-1.928-1.564s-1.936.656-1.936 1.563c0 .901.806 1.551 1.936 1.551Zm0-4.217c.951 0 1.634-.577 1.634-1.38 0-.809-.676-1.385-1.634-1.385-.965 0-1.635.576-1.635 1.385 0 .803.67 1.38 1.635 1.38Zm5.067 5.155 3.937-7.657v-.03h-4.674v-1.159h6.031v1.19l-3.851 7.656h-1.443Zm8.991-6.253c0-1.594 1.285-2.758 3.047-2.758 1.689 0 2.948 1.072 2.948 2.476 0 1.03-.553 1.797-1.849 3.12l-2.217 2.226v.03h4.208v1.16h-6.063v-.932l3.2-3.256c1.081-1.122 1.364-1.588 1.364-2.28 0-.785-.713-1.41-1.634-1.41-.97 0-1.702.699-1.702 1.618v.019h-1.302v-.013Zm7.285 0c0-1.594 1.284-2.758 3.047-2.758 1.689 0 2.948 1.072 2.948 2.476 0 1.03-.553 1.797-1.85 3.12l-2.217 2.226v.03h4.208v1.16h-6.062v-.932l3.199-3.256c1.082-1.122 1.364-1.588 1.364-2.28 0-.785-.713-1.41-1.633-1.41-.971 0-1.702.699-1.702 1.618v.019h-1.302v-.013Zm7.285 0c0-1.594 1.283-2.758 3.046-2.758 1.689 0 2.948 1.072 2.948 2.476 0 1.03-.553 1.797-1.848 3.12l-2.218 2.226v.03h4.207v1.16h-6.062v-.932l3.201-3.256c1.08-1.122 1.362-1.588 1.362-2.28 0-.785-.712-1.41-1.633-1.41-.971 0-1.701.699-1.701 1.618v.019h-1.302v-.013Zm8.322 6.32a.799.799 0 0 1-.805-.802c0-.448.356-.803.805-.803a.8.8 0 0 1 .805.803.8.8 0 0 1-.805.803Zm6.603-.067v-1.747h-4.435V65.77c.762-1.429 1.769-3.017 3.765-5.898h1.99v5.947h1.216v1.152h-1.216v1.747h-1.32Zm-3.151-2.912v.031h3.163v-4.904h-.025c-1.536 2.213-2.432 3.592-3.138 4.873Zm10.963 2.912v-1.747h-4.435V65.77c.762-1.429 1.769-3.017 3.765-5.898h1.991v5.947h1.216v1.152h-1.216v1.747h-1.321Zm-3.151-2.912v.031h3.164v-4.904h-.025c-1.536 2.213-2.432 3.592-3.139 4.873Zm10.811-5.934v5.622c0 1.263.797 2.151 2.21 2.151 1.413 0 2.217-.888 2.217-2.151v-5.622h1.37v5.738c0 1.907-1.363 3.255-3.587 3.255-2.223 0-3.587-1.348-3.587-3.255v-5.738h1.377Zm7.037 6.382h1.358c.098.876.953 1.453 2.119 1.453 1.118 0 1.923-.576 1.923-1.367 0-.687-.485-1.098-1.634-1.38l-1.148-.275c-1.628-.393-2.384-1.153-2.384-2.385 0-1.527 1.334-2.575 3.225-2.575 1.873 0 3.157 1.048 3.2 2.575h-1.339c-.08-.883-.811-1.416-1.879-1.416-1.069 0-1.8.54-1.8 1.324 0 .625.466.993 1.609 1.275l.977.239c1.818.43 2.573 1.159 2.573 2.452 0 1.655-1.32 2.691-3.421 2.691-1.966 0-3.293-1.011-3.379-2.611Zm8.034-6.382h3.127c2.635 0 4.195 1.619 4.195 4.408 0 2.795-1.554 4.438-4.195 4.438h-3.127v-8.846Zm1.376 1.183v6.474h1.622c1.88 0 2.917-1.146 2.917-3.237 0-2.084-1.044-3.237-2.917-3.237h-1.622Z" fill="#fff"/><path d="M449.388 68.884c-1.978 0-3.353-1.06-3.353-2.557 0-1.127.797-2.029 1.971-2.274v-.03c-.983-.27-1.615-1.037-1.615-1.987 0-1.342 1.259-2.33 2.997-2.33 1.744 0 2.991.981 2.991 2.336 0 .938-.626 1.698-1.609 1.98v.031c1.179.245 1.971 1.153 1.971 2.274 0 1.502-1.388 2.557-3.353 2.557Zm0-1.104c1.13 0 1.929-.65 1.929-1.55 0-.914-.799-1.564-1.929-1.564s-1.935.656-1.935 1.563c0 .902.805 1.551 1.935 1.551Zm0-4.217c.952 0 1.634-.577 1.634-1.38 0-.809-.676-1.385-1.634-1.385-.964 0-1.634.576-1.634 1.385 0 .803.67 1.38 1.634 1.38Zm5.325 6.976h-1.057l.554-3.237h1.338l-.835 3.237Zm4.251-5.824v-1.079h1.068c.958 0 1.615-.6 1.615-1.434 0-.822-.565-1.367-1.615-1.367-.958 0-1.597.551-1.676 1.422h-1.297c.105-1.551 1.278-2.55 3.035-2.55 1.676 0 2.899.95 2.899 2.31 0 1.104-.725 1.895-1.825 2.091v.025c1.333.092 2.193.907 2.193 2.145 0 1.545-1.407 2.606-3.255 2.606-1.911 0-3.139-1.049-3.225-2.575h1.321c.085.846.786 1.428 1.904 1.428 1.081 0 1.855-.612 1.855-1.477 0-.956-.725-1.545-1.893-1.545h-1.104Zm8.918 4.169c-2.126 0-3.385-1.778-3.385-4.598 0-2.802 1.272-4.58 3.385-4.58 2.118 0 3.371 1.772 3.371 4.574 0 2.82-1.246 4.604-3.371 4.604Zm0-1.153c1.265 0 1.983-1.305 1.983-3.445 0-2.109-.73-3.427-1.983-3.427-1.254 0-1.991 1.324-1.991 3.427 0 2.133.726 3.445 1.991 3.445Zm6.535-3.016v-1.079h1.068c.959 0 1.615-.6 1.615-1.434 0-.822-.565-1.367-1.615-1.367-.958 0-1.597.551-1.676 1.422h-1.296c.104-1.551 1.277-2.55 3.034-2.55 1.677 0 2.899.95 2.899 2.31 0 1.104-.725 1.895-1.825 2.091v.025c1.333.092 2.193.907 2.193 2.145 0 1.545-1.407 2.606-3.255 2.606-1.91 0-3.138-1.049-3.224-2.575h1.32c.086.846.786 1.428 1.904 1.428 1.081 0 1.855-.612 1.855-1.477 0-.956-.725-1.545-1.891-1.545h-1.106Zm8.918 4.169c-2.126 0-3.385-1.778-3.385-4.598 0-2.802 1.272-4.58 3.385-4.58 2.119 0 3.372 1.772 3.372 4.574 0 2.82-1.247 4.604-3.372 4.604Zm0-1.153c1.265 0 1.983-1.305 1.983-3.445 0-2.109-.73-3.427-1.983-3.427-1.254 0-1.991 1.324-1.991 3.427 0 2.133.726 3.445 1.991 3.445Zm8.82.987v-1.747h-4.435V65.77c.762-1.429 1.769-3.017 3.765-5.898h1.991v5.947h1.216v1.152h-1.216v1.747h-1.321Zm-3.151-2.912v.031h3.163v-4.904h-.025c-1.535 2.213-2.432 3.592-3.138 4.873Zm8.678-1.09v-1.08h1.069c.959 0 1.616-.6 1.616-1.434 0-.822-.565-1.367-1.616-1.367-.958 0-1.597.551-1.677 1.422h-1.295c.103-1.551 1.277-2.55 3.033-2.55 1.677 0 2.9.95 2.9 2.31 0 1.104-.725 1.895-1.824 2.091v.025c1.332.092 2.193.907 2.193 2.145 0 1.545-1.407 2.606-3.256 2.606-1.91 0-3.139-1.049-3.225-2.575h1.321c.086.846.786 1.428 1.904 1.428 1.081 0 1.855-.612 1.855-1.477 0-.956-.725-1.545-1.892-1.545h-1.106Zm9.902 4.002v-1.747h-4.435V65.77c.762-1.429 1.769-3.017 3.765-5.898h1.99v5.947h1.216v1.152h-1.216v1.747h-1.32Zm-3.151-2.912v.031h3.162v-4.904h-.024c-1.535 2.213-2.432 3.592-3.138 4.873Zm12.99 2.912h-3.556v-8.846h3.538c1.572 0 2.604.87 2.604 2.207 0 .938-.694 1.778-1.579 1.925v.05c1.204.134 2.015.986 2.015 2.163 0 1.557-1.137 2.501-3.022 2.501Zm-2.181-7.724v2.642h1.542c1.192 0 1.849-.49 1.849-1.367 0-.821-.565-1.275-1.56-1.275h-1.831Zm0 6.602h1.899c1.24 0 1.897-.508 1.897-1.465 0-.956-.675-1.447-1.977-1.447h-1.819v2.912Zm9.963 1.122h-1.376v-7.663h-2.714v-1.183h6.798v1.183h-2.708v7.663Zm7.045.147c-2.488 0-4.06-1.753-4.06-4.573 0-2.801 1.584-4.567 4.06-4.567 2.008 0 3.525 1.232 3.759 3.078h-1.364c-.245-1.135-1.192-1.877-2.395-1.877-1.609 0-2.653 1.319-2.653 3.366 0 2.066 1.031 3.372 2.659 3.372 1.234 0 2.112-.632 2.389-1.698h1.37c-.338 1.827-1.726 2.9-3.765 2.9Z" fill="#FF7816"/><path d="M615.099 68.718v-7.485h-.03l-2.316 1.643v-1.349l2.334-1.655h1.357v8.846h-1.345Zm3.433-6.253c0-1.594 1.284-2.758 3.048-2.758 1.688 0 2.947 1.072 2.947 2.476 0 1.03-.552 1.797-1.849 3.12l-2.217 2.226v.03h4.208v1.16h-6.062v-.932l3.199-3.256c1.082-1.122 1.364-1.588 1.364-2.28 0-.785-.713-1.41-1.633-1.41-.971 0-1.703.699-1.703 1.618v.019h-1.302v-.013Zm9.288 2.25v-1.079h1.068c.958 0 1.615-.6 1.615-1.434 0-.822-.565-1.367-1.615-1.367-.958 0-1.597.551-1.676 1.422h-1.297c.105-1.551 1.278-2.55 3.035-2.55 1.676 0 2.898.95 2.898 2.31 0 1.104-.724 1.895-1.824 2.091v.025c1.334.092 2.193.907 2.193 2.145 0 1.545-1.407 2.606-3.255 2.606-1.911 0-3.139-1.049-3.225-2.575h1.321c.086.846.786 1.428 1.904 1.428 1.081 0 1.855-.612 1.855-1.477 0-.956-.725-1.545-1.892-1.545h-1.105Zm12.455 4.003v-1.747h-4.434V65.77c.762-1.429 1.769-3.017 3.765-5.898h1.99v5.947h1.216v1.152h-1.216v1.747h-1.321Zm-3.15-2.912v.031h3.162v-4.904h-.024c-1.535 2.213-2.433 3.592-3.138 4.873Zm8.678-1.09v-1.08h1.068c.959 0 1.616-.6 1.616-1.434 0-.822-.565-1.367-1.616-1.367-.958 0-1.596.551-1.676 1.422H643.9c.103-1.551 1.276-2.55 3.033-2.55 1.677 0 2.9.95 2.9 2.31 0 1.104-.726 1.895-1.825 2.091v.025c1.333.092 2.193.907 2.193 2.145 0 1.545-1.407 2.606-3.255 2.606-1.91 0-3.139-1.049-3.225-2.575h1.32c.086.846.786 1.428 1.905 1.428 1.081 0 1.854-.612 1.854-1.477 0-.956-.724-1.545-1.891-1.545h-1.106Zm9.901 4.002v-1.747h-4.434V65.77c.761-1.429 1.768-3.017 3.765-5.898h1.99v5.947h1.216v1.152h-1.216v1.747h-1.321Zm-3.151-2.912v.031h3.163v-4.904h-.024c-1.535 2.213-2.433 3.592-3.139 4.873Zm7.715 2.98a.799.799 0 0 1-.805-.803c0-.448.356-.803.805-.803a.8.8 0 0 1 .804.803.8.8 0 0 1-.804.803Zm6.603-.068v-1.747h-4.435V65.77c.762-1.429 1.769-3.017 3.765-5.898h1.989v5.947h1.217v1.152h-1.217v1.747h-1.319Zm-3.151-2.912v.031h3.162v-4.904h-.024c-1.536 2.213-2.432 3.592-3.138 4.873Zm9.98 3.078c-2.125 0-3.384-1.778-3.384-4.598 0-2.802 1.272-4.58 3.384-4.58 2.119 0 3.372 1.772 3.372 4.574 0 2.82-1.246 4.604-3.372 4.604Zm0-1.153c1.265 0 1.984-1.305 1.984-3.445 0-2.109-.73-3.427-1.984-3.427-1.253 0-1.99 1.324-1.99 3.427 0 2.133.725 3.445 1.99 3.445Zm8.667-7.859v5.622c0 1.263.798 2.151 2.21 2.151 1.413 0 2.217-.888 2.217-2.151v-5.622h1.37v5.738c0 1.907-1.363 3.255-3.587 3.255-2.223 0-3.587-1.348-3.587-3.255v-5.738h1.377Zm7.039 6.382h1.357c.098.876.952 1.453 2.119 1.453 1.117 0 1.922-.576 1.922-1.367 0-.687-.485-1.098-1.634-1.38l-1.148-.275c-1.628-.393-2.384-1.153-2.384-2.385 0-1.527 1.334-2.575 3.225-2.575 1.874 0 3.157 1.048 3.2 2.575h-1.339c-.079-.883-.811-1.416-1.879-1.416-1.069 0-1.8.54-1.8 1.324 0 .625.467.993 1.609 1.275l.977.239c1.818.43 2.574 1.159 2.574 2.452 0 1.655-1.321 2.691-3.422 2.691-1.965 0-3.291-1.011-3.377-2.611Zm8.033-6.382h3.126c2.635 0 4.195 1.619 4.195 4.408 0 2.795-1.553 4.438-4.195 4.438h-3.126v-8.846Zm1.376 1.183v6.474h1.621c1.88 0 2.917-1.146 2.917-3.237 0-2.084-1.044-3.237-2.917-3.237h-1.621Z" fill="#fff"/><path d="M63.943 64.533c0 9.246-7.51 16.74-16.772 16.74-9.263 0-16.772-7.494-16.772-16.74 0-9.245 7.509-16.74 16.772-16.74 9.263 0 16.772 7.495 16.772 16.74Z" fill="#FF7816" fill-opacity=".44"/><path d="M42.663 67.312c-.083.2-.295.502-.771.386.017.025-1.223-.294-1.223-.294l-.836 1.867 2.19.529c.407.1.807.203 1.2.3l-.697 2.712 1.682.406.69-2.682c.459.121.904.232 1.34.337l-.687 2.67 1.683.407.697-2.707c2.87.528 5.028.314 5.936-2.202.732-2.025-.036-3.194-1.546-3.957 1.1-.246 1.928-.947 2.149-2.395.305-1.979-1.249-3.043-3.374-3.753l.69-2.681-1.684-.406-.67 2.61a67.22 67.22 0 0 0-1.35-.308l.677-2.627-1.682-.407-.69 2.68a53.55 53.55 0 0 1-1.075-.245l.002-.009-2.321-.561-.448 1.743s1.249.277 1.222.294c.682.165.805.602.785.949l-1.889 7.344Zm7.961.604c-.52 2.026-4.039.93-5.18.657l.924-3.593c1.141.277 4.8.823 4.256 2.936Zm.521-5.257c-.475 1.843-3.404.906-4.354.678l.838-3.258c.95.229 4.01.657 3.516 2.58Z" fill="#fff"/><path d="M59.75 64.533c0 6.934-5.632 12.555-12.58 12.555-6.947 0-12.578-5.62-12.578-12.555 0-6.934 5.632-12.555 12.579-12.555 6.947 0 12.578 5.621 12.578 12.555Z" fill="#FF7816"/><path d="M43.79 66.617c-.063.15-.221.376-.579.29.013.019-.917-.221-.917-.221l-.627 1.4 1.643.397c.305.075.605.152.9.225l-.523 2.034 1.261.305.518-2.012c.344.091.678.175 1.005.253l-.515 2.003 1.262.305.523-2.03c2.152.395 3.77.235 4.452-1.652.549-1.519-.027-2.396-1.16-2.968.825-.184 1.446-.71 1.612-1.796.229-1.484-.937-2.282-2.53-2.815l.517-2.01-1.263-.305-.503 1.957c-.332-.08-.673-.156-1.011-.23l.507-1.97-1.262-.306-.517 2.01c-.275-.06-.545-.12-.806-.184l.001-.006-1.74-.421-.337 1.307s.937.208.917.22c.511.124.604.452.588.712l-1.416 5.508Zm5.97.453c-.39 1.52-3.029.698-3.884.493l.693-2.695c.856.208 3.6.617 3.192 2.202Zm.391-3.942c-.356 1.382-2.552.68-3.265.508l.628-2.444c.713.172 3.008.493 2.637 1.935ZM85.06 176.34v1.189h-5.625v-8.846h5.626v1.184h-4.25v2.586h4.022v1.14H80.81v2.747h4.25Zm1.64-6.786h1.333v1.526h1.229v1.049h-1.229v3.555c0 .558.246.81.787.81.135 0 .35-.013.436-.032v1.049a3.648 3.648 0 0 1-.737.061c-1.309 0-1.819-.497-1.819-1.741v-3.702h-.94v-1.049h.94v-1.526Zm3.704 7.975v-8.846h1.315v3.476h.03c.357-.754 1.063-1.19 2.046-1.19 1.418 0 2.266.945 2.266 2.404v4.156h-1.333v-3.899c0-.95-.479-1.52-1.412-1.52-.983 0-1.585.675-1.585 1.693v3.726h-1.327Zm9.643-5.499c-.927 0-1.578.705-1.646 1.681h3.231c-.031-.988-.657-1.681-1.585-1.681Zm1.579 3.605h1.259c-.185 1.177-1.302 2.017-2.783 2.017-1.898 0-3.046-1.281-3.046-3.317 0-2.022 1.167-3.371 2.991-3.371 1.794 0 2.911 1.263 2.911 3.218v.453h-4.563v.081c0 1.122.675 1.863 1.738 1.863.756 0 1.315-.379 1.493-.944Zm2.364 1.894v-6.449h1.265v1.098h.031c.215-.755.792-1.202 1.554-1.202.19 0 .357.031.454.049v1.232c-.104-.043-.337-.073-.595-.073-.853 0-1.382.57-1.382 1.484v3.861h-1.327Zm6.548-5.499c-.928 0-1.579.705-1.646 1.681h3.23c-.03-.988-.657-1.681-1.584-1.681Zm1.578 3.605h1.259c-.184 1.177-1.302 2.017-2.782 2.017-1.898 0-3.046-1.281-3.046-3.317 0-2.022 1.167-3.371 2.991-3.371 1.793 0 2.911 1.263 2.911 3.218v.453h-4.564v.081c0 1.122.677 1.863 1.738 1.863.756 0 1.315-.379 1.493-.944Zm7.905-4.555v6.449h-1.272v-1.091h-.03c-.356.772-1.014 1.207-2.002 1.207-1.407 0-2.266-.913-2.266-2.39v-4.175h1.326v3.917c0 .982.467 1.508 1.382 1.508.958 0 1.535-.661 1.535-1.667v-3.758h1.327Zm1.314 6.449v-6.449h1.266v1.085h.03c.289-.717.964-1.196 1.837-1.196.897 0 1.548.461 1.806 1.264h.03c.332-.785 1.093-1.264 2.015-1.264 1.278 0 2.113.847 2.113 2.128v4.432h-1.333v-4.114c0-.833-.449-1.312-1.235-1.312s-1.333.583-1.333 1.398v4.028h-1.301v-4.211c0-.742-.473-1.215-1.223-1.215-.786 0-1.345.614-1.345 1.441v3.985h-1.327Z" fill="#fff"/><path d="M134.762 174.054c0-2.146.565-3.875 1.775-5.371h1.167c-.885 1.03-1.579 3.347-1.579 5.364 0 2.018.694 4.34 1.579 5.371h-1.167c-1.21-1.503-1.775-3.231-1.775-5.364Zm9.618 2.286v1.189h-5.626v-8.846h5.626v1.184h-4.25v2.586h4.023v1.14h-4.023v2.747h4.25Zm4.987 1.189h-1.375v-7.662h-2.715v-1.184h6.799v1.184h-2.709v7.662Zm11.136 0h-1.376v-3.917h-4.551v3.917H153.2v-8.846h1.376v3.74h4.551v-3.74h1.376v8.846Zm3.986-3.475c0 2.678-.872 4.247-1.775 5.364h-1.167c.614-.712 1.578-2.723 1.578-5.371 0-2.648-.97-4.659-1.578-5.364h1.167c.903 1.109 1.775 2.679 1.775 5.371Z" fill="#5F6DB6"/><path d="M282.719 177.695c-1.978 0-3.354-1.06-3.354-2.556 0-1.128.798-2.03 1.972-2.275v-.03c-.983-.27-1.615-1.037-1.615-1.987 0-1.342 1.259-2.329 2.997-2.329 1.744 0 2.99.98 2.99 2.335 0 .939-.626 1.698-1.609 1.981v.03c1.179.245 1.972 1.153 1.972 2.275 0 1.501-1.388 2.556-3.353 2.556Zm0-1.103c1.13 0 1.928-.651 1.928-1.552 0-.913-.798-1.563-1.928-1.563s-1.936.656-1.936 1.563c0 .901.806 1.552 1.936 1.552Zm0-4.219c.951 0 1.634-.576 1.634-1.379 0-.809-.676-1.385-1.634-1.385-.965 0-1.635.576-1.635 1.385 0 .803.67 1.379 1.635 1.379Zm5.067 5.156 3.937-7.656v-.032h-4.674v-1.158h6.031v1.19l-3.851 7.656h-1.443Zm8.991-6.253c0-1.594 1.285-2.758 3.047-2.758 1.689 0 2.948 1.072 2.948 2.476 0 1.03-.553 1.797-1.849 3.12l-2.217 2.226v.031h4.208v1.158h-6.063v-.932l3.2-3.255c1.081-1.121 1.364-1.588 1.364-2.281 0-.784-.713-1.409-1.634-1.409-.97 0-1.702.699-1.702 1.619v.017h-1.302v-.012Zm7.285 0c0-1.594 1.284-2.758 3.047-2.758 1.689 0 2.948 1.072 2.948 2.476 0 1.03-.553 1.797-1.85 3.12l-2.217 2.226v.031h4.208v1.158h-6.062v-.932l3.199-3.255c1.082-1.121 1.364-1.588 1.364-2.281 0-.784-.713-1.409-1.633-1.409-.971 0-1.702.699-1.702 1.619v.017h-1.302v-.012Zm7.285 0c0-1.594 1.283-2.758 3.046-2.758 1.689 0 2.948 1.072 2.948 2.476 0 1.03-.553 1.797-1.848 3.12l-2.218 2.226v.031h4.207v1.158h-6.062v-.932l3.201-3.255c1.08-1.121 1.362-1.588 1.362-2.281 0-.784-.712-1.409-1.633-1.409-.971 0-1.701.699-1.701 1.619v.017h-1.302v-.012Zm8.322 6.32a.798.798 0 0 1-.805-.802.8.8 0 0 1 .805-.804.8.8 0 0 1 .805.804.798.798 0 0 1-.805.802Zm6.603-.067v-1.747h-4.435v-1.201c.762-1.429 1.769-3.016 3.765-5.898h1.99v5.947h1.216v1.152h-1.216v1.747h-1.32Zm-3.151-2.911v.03h3.163v-4.904h-.025c-1.536 2.213-2.432 3.592-3.138 4.874Zm10.963 2.911v-1.747h-4.435v-1.201c.762-1.429 1.769-3.016 3.765-5.898h1.991v5.947h1.216v1.152h-1.216v1.747h-1.321Zm-3.151-2.911v.03h3.164v-4.904h-.025c-1.536 2.213-2.432 3.592-3.139 4.874Zm10.811-5.935v5.622c0 1.263.797 2.152 2.21 2.152 1.413 0 2.217-.889 2.217-2.152v-5.622h1.37v5.738c0 1.907-1.363 3.256-3.587 3.256-2.223 0-3.587-1.349-3.587-3.256v-5.738h1.377Zm7.037 6.382h1.358c.098.876.953 1.453 2.119 1.453 1.118 0 1.923-.577 1.923-1.367 0-.687-.485-1.097-1.634-1.38l-1.148-.275c-1.628-.392-2.384-1.153-2.384-2.385 0-1.527 1.334-2.575 3.225-2.575 1.873 0 3.157 1.048 3.2 2.575h-1.339c-.08-.884-.811-1.416-1.879-1.416-1.069 0-1.8.539-1.8 1.323 0 .626.466.994 1.609 1.276l.977.239c1.818.429 2.573 1.159 2.573 2.452 0 1.655-1.32 2.692-3.421 2.692-1.966 0-3.293-1.012-3.379-2.612Zm8.034-6.382h3.127c2.635 0 4.195 1.619 4.195 4.408 0 2.796-1.554 4.438-4.195 4.438h-3.127v-8.846Zm1.376 1.184v6.473h1.622c1.88 0 2.917-1.146 2.917-3.236 0-2.086-1.044-3.237-2.917-3.237h-1.622Z" fill="#fff"/><path d="M449.388 177.695c-1.978 0-3.353-1.06-3.353-2.556 0-1.128.797-2.03 1.971-2.275v-.03c-.983-.27-1.615-1.037-1.615-1.987 0-1.342 1.259-2.329 2.997-2.329 1.744 0 2.991.98 2.991 2.335 0 .939-.626 1.698-1.609 1.981v.03c1.179.245 1.971 1.153 1.971 2.275 0 1.501-1.388 2.556-3.353 2.556Zm0-1.103c1.13 0 1.929-.651 1.929-1.552 0-.913-.799-1.563-1.929-1.563s-1.935.656-1.935 1.563c0 .901.805 1.552 1.935 1.552Zm0-4.219c.952 0 1.634-.576 1.634-1.379 0-.809-.676-1.385-1.634-1.385-.964 0-1.634.576-1.634 1.385 0 .803.67 1.379 1.634 1.379Zm5.325 6.977h-1.057l.554-3.237h1.338l-.835 3.237Zm4.251-5.824v-1.078h1.068c.958 0 1.615-.602 1.615-1.436 0-.821-.565-1.366-1.615-1.366-.958 0-1.597.551-1.676 1.422h-1.297c.105-1.551 1.278-2.55 3.035-2.55 1.676 0 2.899.95 2.899 2.311 0 1.103-.725 1.894-1.825 2.09v.025c1.333.092 2.193.907 2.193 2.145 0 1.546-1.407 2.606-3.255 2.606-1.911 0-3.139-1.049-3.225-2.575h1.321c.085.846.786 1.428 1.904 1.428 1.081 0 1.855-.612 1.855-1.477 0-.957-.725-1.545-1.893-1.545h-1.104Zm8.918 4.169c-2.126 0-3.385-1.778-3.385-4.598 0-2.802 1.272-4.579 3.385-4.579 2.118 0 3.371 1.771 3.371 4.573 0 2.82-1.246 4.604-3.371 4.604Zm0-1.152c1.265 0 1.983-1.306 1.983-3.446 0-2.109-.73-3.427-1.983-3.427-1.254 0-1.991 1.324-1.991 3.427 0 2.134.726 3.446 1.991 3.446Zm6.535-3.017v-1.078h1.068c.959 0 1.615-.602 1.615-1.436 0-.821-.565-1.366-1.615-1.366-.958 0-1.597.551-1.676 1.422h-1.296c.104-1.551 1.277-2.55 3.034-2.55 1.677 0 2.899.95 2.899 2.311 0 1.103-.725 1.894-1.825 2.09v.025c1.333.092 2.193.907 2.193 2.145 0 1.546-1.407 2.606-3.255 2.606-1.91 0-3.138-1.049-3.224-2.575h1.32c.086.846.786 1.428 1.904 1.428 1.081 0 1.855-.612 1.855-1.477 0-.957-.725-1.545-1.891-1.545h-1.106Zm8.918 4.169c-2.126 0-3.385-1.778-3.385-4.598 0-2.802 1.272-4.579 3.385-4.579 2.119 0 3.372 1.771 3.372 4.573 0 2.82-1.247 4.604-3.372 4.604Zm0-1.152c1.265 0 1.983-1.306 1.983-3.446 0-2.109-.73-3.427-1.983-3.427-1.254 0-1.991 1.324-1.991 3.427 0 2.134.726 3.446 1.991 3.446Zm8.82.986v-1.747h-4.435v-1.201c.762-1.429 1.769-3.016 3.765-5.898h1.991v5.947h1.216v1.152h-1.216v1.747h-1.321Zm-3.151-2.911v.03h3.163v-4.904h-.025c-1.535 2.213-2.432 3.592-3.138 4.874Zm8.678-1.092v-1.078h1.069c.959 0 1.616-.602 1.616-1.436 0-.821-.565-1.366-1.616-1.366-.958 0-1.597.551-1.677 1.422h-1.295c.103-1.551 1.277-2.55 3.033-2.55 1.677 0 2.9.95 2.9 2.311 0 1.103-.725 1.894-1.824 2.09v.025c1.332.092 2.193.907 2.193 2.145 0 1.546-1.407 2.606-3.256 2.606-1.91 0-3.139-1.049-3.225-2.575h1.321c.086.846.786 1.428 1.904 1.428 1.081 0 1.855-.612 1.855-1.477 0-.957-.725-1.545-1.892-1.545h-1.106Zm9.902 4.003v-1.747h-4.435v-1.201c.762-1.429 1.769-3.016 3.765-5.898h1.99v5.947h1.216v1.152h-1.216v1.747h-1.32Zm-3.151-2.911v.03h3.162v-4.904h-.024c-1.535 2.213-2.432 3.592-3.138 4.874Zm15.06 1.722v1.189h-5.626v-8.846h5.626v1.184h-4.251v2.586h4.023v1.14h-4.023v2.747h4.251Zm4.987 1.189h-1.376v-7.662h-2.715v-1.184h6.8v1.184h-2.709v7.662Zm11.136 0h-1.377v-3.917h-4.551v3.917h-1.375v-8.846h1.375v3.74h4.551v-3.74h1.377v8.846Z" fill="#5F6DB6"/><path d="M615.099 177.529v-7.485h-.03l-2.316 1.643v-1.349l2.334-1.655h1.357v8.846h-1.345Zm3.433-6.253c0-1.594 1.284-2.758 3.048-2.758 1.688 0 2.947 1.072 2.947 2.476 0 1.03-.552 1.797-1.849 3.12l-2.217 2.226v.031h4.208v1.158h-6.062v-.932l3.199-3.255c1.082-1.121 1.364-1.588 1.364-2.281 0-.784-.713-1.409-1.633-1.409-.971 0-1.703.699-1.703 1.619v.017h-1.302v-.012Zm9.288 2.25v-1.078h1.068c.958 0 1.615-.602 1.615-1.436 0-.821-.565-1.366-1.615-1.366-.958 0-1.597.551-1.676 1.422h-1.297c.105-1.551 1.278-2.55 3.035-2.55 1.676 0 2.898.95 2.898 2.311 0 1.103-.724 1.894-1.824 2.09v.025c1.334.092 2.193.907 2.193 2.145 0 1.546-1.407 2.606-3.255 2.606-1.911 0-3.139-1.049-3.225-2.575h1.321c.086.846.786 1.428 1.904 1.428 1.081 0 1.855-.612 1.855-1.477 0-.957-.725-1.545-1.892-1.545h-1.105Zm12.455 4.003v-1.747h-4.434v-1.201c.762-1.429 1.769-3.016 3.765-5.898h1.99v5.947h1.216v1.152h-1.216v1.747h-1.321Zm-3.15-2.911v.03h3.162v-4.904h-.024c-1.535 2.213-2.433 3.592-3.138 4.874Zm8.678-1.092v-1.078h1.068c.959 0 1.616-.602 1.616-1.436 0-.821-.565-1.366-1.616-1.366-.958 0-1.596.551-1.676 1.422H643.9c.103-1.551 1.276-2.55 3.033-2.55 1.677 0 2.9.95 2.9 2.311 0 1.103-.726 1.894-1.825 2.09v.025c1.333.092 2.193.907 2.193 2.145 0 1.546-1.407 2.606-3.255 2.606-1.91 0-3.139-1.049-3.225-2.575h1.32c.086.846.786 1.428 1.905 1.428 1.081 0 1.854-.612 1.854-1.477 0-.957-.724-1.545-1.891-1.545h-1.106Zm9.901 4.003v-1.747h-4.434v-1.201c.761-1.429 1.768-3.016 3.765-5.898h1.99v5.947h1.216v1.152h-1.216v1.747h-1.321Zm-3.151-2.911v.03h3.163v-4.904h-.024c-1.535 2.213-2.433 3.592-3.139 4.874Zm7.715 2.978a.798.798 0 0 1-.805-.802.8.8 0 0 1 .805-.804.8.8 0 0 1 .804.804.798.798 0 0 1-.804.802Zm6.603-.067v-1.747h-4.435v-1.201c.762-1.429 1.769-3.016 3.765-5.898h1.989v5.947h1.217v1.152h-1.217v1.747h-1.319Zm-3.151-2.911v.03h3.162v-4.904h-.024c-1.536 2.213-2.432 3.592-3.138 4.874Zm9.98 3.077c-2.125 0-3.384-1.778-3.384-4.598 0-2.802 1.272-4.579 3.384-4.579 2.119 0 3.372 1.771 3.372 4.573 0 2.82-1.246 4.604-3.372 4.604Zm0-1.152c1.265 0 1.984-1.306 1.984-3.446 0-2.109-.73-3.427-1.984-3.427-1.253 0-1.99 1.324-1.99 3.427 0 2.134.725 3.446 1.99 3.446Zm8.667-7.86v5.622c0 1.263.798 2.152 2.21 2.152 1.413 0 2.217-.889 2.217-2.152v-5.622h1.37v5.738c0 1.907-1.363 3.256-3.587 3.256-2.223 0-3.587-1.349-3.587-3.256v-5.738h1.377Zm7.039 6.382h1.357c.098.876.952 1.453 2.119 1.453 1.117 0 1.922-.577 1.922-1.367 0-.687-.485-1.097-1.634-1.38l-1.148-.275c-1.628-.392-2.384-1.153-2.384-2.385 0-1.527 1.334-2.575 3.225-2.575 1.874 0 3.157 1.048 3.2 2.575h-1.339c-.079-.884-.811-1.416-1.879-1.416-1.069 0-1.8.539-1.8 1.323 0 .626.467.994 1.609 1.276l.977.239c1.818.429 2.574 1.159 2.574 2.452 0 1.655-1.321 2.692-3.422 2.692-1.965 0-3.291-1.012-3.377-2.612Zm8.033-6.382h3.126c2.635 0 4.195 1.619 4.195 4.408 0 2.796-1.553 4.438-4.195 4.438h-3.126v-8.846Zm1.376 1.184v6.473h1.621c1.88 0 2.917-1.146 2.917-3.236 0-2.086-1.044-3.237-2.917-3.237h-1.621Z" fill="#fff"/><path d="M775.694 91.736H0v54.406h775.694V91.736Z" fill="#1B212C"/><path d="M83.01 123.124h-1.377v-7.663H78.92v-1.183h6.799v1.183H83.01v7.663Zm6.375-5.499c-.928 0-1.579.705-1.646 1.68h3.23c-.03-.988-.657-1.68-1.584-1.68Zm1.578 3.604h1.26c-.185 1.177-1.303 2.017-2.783 2.017-1.898 0-3.046-1.28-3.046-3.316 0-2.023 1.166-3.371 2.99-3.371 1.794 0 2.912 1.262 2.912 3.218v.453h-4.564v.08c0 1.122.676 1.864 1.739 1.864.755 0 1.314-.38 1.492-.945Zm2.752-6.081h1.333v1.527h1.228v1.048h-1.228v3.555c0 .559.245.81.786.81.135 0 .35-.013.436-.031v1.048c-.148.038-.442.062-.737.062-1.308 0-1.818-.497-1.818-1.741v-3.703h-.94v-1.048h.94v-1.527Zm3.703 7.976v-8.846h1.315v3.475h.03c.357-.754 1.063-1.189 2.046-1.189 1.419 0 2.266.945 2.266 2.403v4.157h-1.333v-3.9c0-.95-.479-1.52-1.412-1.52-.983 0-1.585.675-1.585 1.693v3.727h-1.327Zm9.644-5.499c-.928 0-1.579.705-1.647 1.68h3.231c-.031-.988-.657-1.68-1.584-1.68Zm1.578 3.604h1.259c-.184 1.177-1.302 2.017-2.782 2.017-1.898 0-3.047-1.28-3.047-3.316 0-2.023 1.168-3.371 2.992-3.371 1.793 0 2.911 1.262 2.911 3.218v.453h-4.563v.08c0 1.122.675 1.864 1.738 1.864.755 0 1.314-.38 1.492-.945Zm2.364 1.895v-6.449h1.266v1.097h.031c.215-.754.792-1.202 1.553-1.202.191 0 .357.031.455.049v1.233c-.105-.043-.337-.074-.596-.074-.854 0-1.382.571-1.382 1.484v3.862h-1.327Z" fill="#fff"/><path d="M118.178 119.648c0-2.146.565-3.874 1.776-5.37h1.166c-.884 1.029-1.578 3.347-1.578 5.364s.694 4.34 1.578 5.37h-1.166c-1.211-1.502-1.776-3.231-1.776-5.364Zm5.368-5.37v5.621c0 1.263.799 2.152 2.212 2.152 1.412 0 2.217-.889 2.217-2.152v-5.621h1.37v5.737c0 1.908-1.364 3.256-3.587 3.256-2.224 0-3.587-1.348-3.587-3.256v-5.737h1.375Zm7.039 6.382h1.357c.099.876.952 1.452 2.12 1.452 1.117 0 1.922-.576 1.922-1.366 0-.688-.485-1.098-1.634-1.38l-1.149-.275c-1.627-.393-2.382-1.153-2.382-2.386 0-1.526 1.332-2.575 3.224-2.575 1.873 0 3.157 1.049 3.2 2.575h-1.339c-.08-.883-.811-1.416-1.88-1.416-1.068 0-1.799.539-1.799 1.324 0 .626.467.994 1.609 1.275l.976.24c1.819.429 2.574 1.158 2.574 2.451 0 1.656-1.32 2.692-3.421 2.692-1.965 0-3.292-1.011-3.378-2.611Zm8.034-6.382h3.126c2.635 0 4.195 1.618 4.195 4.408 0 2.795-1.554 4.438-4.195 4.438h-3.126v-8.846Zm1.376 1.183v6.473h1.622c1.879 0 2.917-1.145 2.917-3.236 0-2.085-1.044-3.237-2.917-3.237h-1.622Zm10.306 7.663h-1.376v-7.663h-2.715v-1.183h6.8v1.183h-2.709v7.663Zm6.191-3.476c0 2.679-.872 4.248-1.775 5.364h-1.167c.614-.711 1.578-2.722 1.578-5.37s-.97-4.659-1.578-5.364h1.167c.903 1.109 1.775 2.678 1.775 5.37Z" fill="#1ACD8D"/><path d="M282.719 123.289c-1.978 0-3.354-1.06-3.354-2.556 0-1.128.798-2.03 1.972-2.274v-.031c-.983-.27-1.615-1.037-1.615-1.987 0-1.342 1.259-2.329 2.997-2.329 1.744 0 2.99.981 2.99 2.336 0 .938-.626 1.698-1.609 1.98v.031c1.179.244 1.972 1.153 1.972 2.274 0 1.502-1.388 2.556-3.353 2.556Zm0-1.103c1.13 0 1.928-.65 1.928-1.551 0-.914-.798-1.563-1.928-1.563s-1.936.656-1.936 1.563c0 .901.806 1.551 1.936 1.551Zm0-4.218c.951 0 1.634-.577 1.634-1.379 0-.81-.676-1.385-1.634-1.385-.965 0-1.635.575-1.635 1.385 0 .802.67 1.379 1.635 1.379Zm5.067 5.156 3.937-7.657v-.031h-4.674v-1.158h6.031v1.189l-3.851 7.657h-1.443Zm8.991-6.254c0-1.593 1.285-2.758 3.047-2.758 1.689 0 2.948 1.073 2.948 2.477 0 1.029-.553 1.796-1.849 3.12l-2.217 2.225v.032h4.208v1.158h-6.063v-.932l3.2-3.255c1.081-1.122 1.364-1.588 1.364-2.281 0-.785-.713-1.409-1.634-1.409-.97 0-1.702.698-1.702 1.618v.018h-1.302v-.013Zm10.59 6.419c-2.126 0-3.385-1.777-3.385-4.597 0-2.802 1.271-4.58 3.385-4.58 2.118 0 3.371 1.772 3.371 4.574 0 2.819-1.246 4.603-3.371 4.603Zm0-1.152c1.265 0 1.983-1.305 1.983-3.445 0-2.109-.731-3.428-1.983-3.428-1.254 0-1.991 1.325-1.991 3.428 0 2.133.726 3.445 1.991 3.445Zm7.836 1.152c-2.124 0-3.383-1.777-3.383-4.597 0-2.802 1.271-4.58 3.383-4.58 2.12 0 3.373 1.772 3.373 4.574 0 2.819-1.247 4.603-3.373 4.603Zm0-1.152c1.266 0 1.985-1.305 1.985-3.445 0-2.109-.731-3.428-1.985-3.428-1.252 0-1.989 1.325-1.989 3.428 0 2.133.724 3.445 1.989 3.445Zm5.301 1.054a.799.799 0 0 1-.805-.803.8.8 0 0 1 .805-.803c.449 0 .804.356.804.803a.798.798 0 0 1-.804.803Zm5.497.098c-2.125 0-3.385-1.777-3.385-4.597 0-2.802 1.272-4.58 3.385-4.58 2.119 0 3.372 1.772 3.372 4.574 0 2.819-1.247 4.603-3.372 4.603Zm0-1.152c1.265 0 1.985-1.305 1.985-3.445 0-2.109-.732-3.428-1.985-3.428-1.252 0-1.989 1.325-1.989 3.428 0 2.133.724 3.445 1.989 3.445Zm7.838 1.152c-2.126 0-3.385-1.777-3.385-4.597 0-2.802 1.272-4.58 3.385-4.58 2.118 0 3.371 1.772 3.371 4.574 0 2.819-1.246 4.603-3.371 4.603Zm0-1.152c1.265 0 1.983-1.305 1.983-3.445 0-2.109-.73-3.428-1.983-3.428-1.254 0-1.991 1.325-1.991 3.428 0 2.133.726 3.445 1.991 3.445Zm8.666-7.859v5.621c0 1.263.798 2.152 2.211 2.152 1.412 0 2.217-.889 2.217-2.152v-5.621h1.369v5.737c0 1.908-1.362 3.256-3.586 3.256-2.224 0-3.587-1.348-3.587-3.256v-5.737h1.376Zm7.039 6.382h1.357c.099.876.952 1.452 2.118 1.452 1.119 0 1.923-.576 1.923-1.366 0-.688-.485-1.098-1.633-1.38l-1.149-.275c-1.628-.393-2.383-1.153-2.383-2.386 0-1.526 1.333-2.575 3.225-2.575 1.873 0 3.157 1.049 3.2 2.575h-1.34c-.079-.883-.81-1.416-1.879-1.416-1.068 0-1.8.539-1.8 1.324 0 .626.467.994 1.61 1.275l.976.24c1.819.429 2.573 1.158 2.573 2.451 0 1.656-1.319 2.692-3.42 2.692-1.965 0-3.292-1.011-3.378-2.611Zm8.033-6.382h3.126c2.635 0 4.195 1.618 4.195 4.408 0 2.795-1.553 4.438-4.195 4.438h-3.126v-8.846Zm1.377 1.183v6.473h1.62c1.88 0 2.918-1.145 2.918-3.236 0-2.085-1.044-3.237-2.918-3.237h-1.62Z" fill="#fff"/><path d="M449.388 123.289c-1.978 0-3.353-1.06-3.353-2.556 0-1.128.797-2.03 1.971-2.274v-.031c-.983-.27-1.615-1.037-1.615-1.987 0-1.342 1.259-2.329 2.997-2.329 1.744 0 2.991.981 2.991 2.336 0 .938-.626 1.698-1.609 1.98v.031c1.179.244 1.971 1.153 1.971 2.274 0 1.502-1.388 2.556-3.353 2.556Zm0-1.103c1.13 0 1.929-.65 1.929-1.551 0-.914-.799-1.563-1.929-1.563s-1.935.656-1.935 1.563c0 .901.805 1.551 1.935 1.551Zm0-4.218c.952 0 1.634-.577 1.634-1.379 0-.81-.676-1.385-1.634-1.385-.964 0-1.634.575-1.634 1.385 0 .802.67 1.379 1.634 1.379Zm5.067 5.156 3.937-7.657v-.031h-4.674v-1.158h6.032v1.189l-3.851 7.657h-1.444Zm8.992-6.254c0-1.593 1.284-2.758 3.046-2.758 1.69 0 2.949 1.073 2.949 2.477 0 1.029-.554 1.796-1.849 3.12l-2.217 2.225v.032h4.207v1.158h-6.063v-.932l3.201-3.255c1.08-1.122 1.363-1.588 1.363-2.281 0-.785-.713-1.409-1.634-1.409-.97 0-1.701.698-1.701 1.618v.018h-1.302v-.013Zm10.589 6.419c-2.126 0-3.385-1.777-3.385-4.597 0-2.802 1.272-4.58 3.385-4.58 2.119 0 3.371 1.772 3.371 4.574 0 2.819-1.246 4.603-3.371 4.603Zm0-1.152c1.265 0 1.983-1.305 1.983-3.445 0-2.109-.73-3.428-1.983-3.428-1.254 0-1.99 1.325-1.99 3.428 0 2.133.725 3.445 1.99 3.445Zm7.837 1.152c-2.125 0-3.384-1.777-3.384-4.597 0-2.802 1.272-4.58 3.384-4.58 2.119 0 3.372 1.772 3.372 4.574 0 2.819-1.246 4.603-3.372 4.603Zm0-1.152c1.265 0 1.984-1.305 1.984-3.445 0-2.109-.731-3.428-1.984-3.428-1.253 0-1.99 1.325-1.99 3.428 0 2.133.725 3.445 1.99 3.445Zm5.245 2.807h-1.056l.553-3.237h1.339l-.836 3.237Zm5.553-1.655c-2.125 0-3.385-1.777-3.385-4.597 0-2.802 1.271-4.58 3.385-4.58 2.118 0 3.372 1.772 3.372 4.574 0 2.819-1.248 4.603-3.372 4.603Zm0-1.152c1.265 0 1.984-1.305 1.984-3.445 0-2.109-.732-3.428-1.984-3.428-1.253 0-1.99 1.325-1.99 3.428 0 2.133.724 3.445 1.99 3.445Zm7.837 1.152c-2.126 0-3.384-1.777-3.384-4.597 0-2.802 1.271-4.58 3.384-4.58 2.119 0 3.371 1.772 3.371 4.574 0 2.819-1.246 4.603-3.371 4.603Zm0-1.152c1.266 0 1.984-1.305 1.984-3.445 0-2.109-.731-3.428-1.984-3.428-1.253 0-1.99 1.325-1.99 3.428 0 2.133.725 3.445 1.99 3.445Zm8.666-7.859v5.621c0 1.263.799 2.152 2.212 2.152 1.412 0 2.217-.889 2.217-2.152v-5.621h1.369v5.737c0 1.908-1.363 3.256-3.586 3.256-2.224 0-3.587-1.348-3.587-3.256v-5.737h1.375Zm7.039 6.382h1.357c.099.876.952 1.452 2.119 1.452 1.118 0 1.922-.576 1.922-1.366 0-.688-.485-1.098-1.633-1.38l-1.149-.275c-1.628-.393-2.382-1.153-2.382-2.386 0-1.526 1.332-2.575 3.224-2.575 1.873 0 3.157 1.049 3.2 2.575h-1.339c-.08-.883-.811-1.416-1.88-1.416-1.068 0-1.8.539-1.8 1.324 0 .626.468.994 1.611 1.275l.975.24c1.819.429 2.574 1.158 2.574 2.451 0 1.656-1.32 2.692-3.421 2.692-1.965 0-3.292-1.011-3.378-2.611Zm8.034-6.382h3.126c2.635 0 4.195 1.618 4.195 4.408 0 2.795-1.554 4.438-4.195 4.438h-3.126v-8.846Zm1.376 1.183v6.473h1.621c1.879 0 2.918-1.145 2.918-3.236 0-2.085-1.044-3.237-2.918-3.237h-1.621Zm10.306 7.663h-1.376v-7.663h-2.715v-1.183h6.8v1.183h-2.709v7.663Z" fill="#1ACD8D"/><path d="M615.099 123.124v-7.485h-.03l-2.316 1.643v-1.349l2.334-1.655h1.357v8.846h-1.345Zm3.433-6.254c0-1.593 1.284-2.758 3.048-2.758 1.688 0 2.947 1.073 2.947 2.477 0 1.029-.552 1.796-1.849 3.12l-2.217 2.225v.032h4.208v1.158h-6.062v-.932l3.199-3.255c1.082-1.122 1.364-1.588 1.364-2.281 0-.785-.713-1.409-1.633-1.409-.971 0-1.703.698-1.703 1.618v.018h-1.302v-.013Zm9.288 2.251v-1.079h1.068c.958 0 1.615-.601 1.615-1.435 0-.822-.565-1.367-1.615-1.367-.958 0-1.597.552-1.676 1.422h-1.297c.105-1.55 1.278-2.55 3.035-2.55 1.676 0 2.898.95 2.898 2.312 0 1.102-.724 1.893-1.824 2.09v.024c1.334.092 2.193.907 2.193 2.146 0 1.545-1.407 2.605-3.255 2.605-1.911 0-3.139-1.048-3.225-2.575h1.321c.086.847.786 1.428 1.904 1.428 1.081 0 1.855-.612 1.855-1.477 0-.956-.725-1.544-1.892-1.544h-1.105Zm12.455 4.003v-1.747h-4.434v-1.202c.762-1.429 1.769-3.016 3.765-5.897h1.99v5.947h1.216v1.152h-1.216v1.747h-1.321Zm-3.15-2.912v.03h3.162v-4.903h-.024c-1.535 2.212-2.433 3.591-3.138 4.873Zm8.678-1.091v-1.079h1.068c.959 0 1.616-.601 1.616-1.435 0-.822-.565-1.367-1.616-1.367-.958 0-1.596.552-1.676 1.422H643.9c.103-1.55 1.276-2.55 3.033-2.55 1.677 0 2.9.95 2.9 2.312 0 1.102-.726 1.893-1.825 2.09v.024c1.333.092 2.193.907 2.193 2.146 0 1.545-1.407 2.605-3.255 2.605-1.91 0-3.139-1.048-3.225-2.575h1.32c.086.847.786 1.428 1.905 1.428 1.081 0 1.854-.612 1.854-1.477 0-.956-.724-1.544-1.891-1.544h-1.106Zm9.901 4.003v-1.747h-4.434v-1.202c.761-1.429 1.768-3.016 3.765-5.897h1.99v5.947h1.216v1.152h-1.216v1.747h-1.321Zm-3.151-2.912v.03h3.163v-4.903h-.024c-1.535 2.212-2.433 3.591-3.139 4.873Zm7.715 2.979a.798.798 0 0 1-.805-.803c0-.447.356-.803.805-.803a.8.8 0 0 1 .804.803.799.799 0 0 1-.804.803Zm6.603-.067v-1.747h-4.435v-1.202c.762-1.429 1.769-3.016 3.765-5.897h1.989v5.947h1.217v1.152h-1.217v1.747h-1.319Zm-3.151-2.912v.03h3.162v-4.903h-.024c-1.536 2.212-2.432 3.591-3.138 4.873Zm9.98 3.077c-2.125 0-3.384-1.777-3.384-4.597 0-2.802 1.272-4.58 3.384-4.58 2.119 0 3.372 1.772 3.372 4.574 0 2.819-1.246 4.603-3.372 4.603Zm0-1.152c1.265 0 1.984-1.305 1.984-3.445 0-2.109-.73-3.428-1.984-3.428-1.253 0-1.99 1.325-1.99 3.428 0 2.133.725 3.445 1.99 3.445Zm8.667-7.859v5.621c0 1.263.798 2.152 2.21 2.152 1.413 0 2.217-.889 2.217-2.152v-5.621h1.37v5.737c0 1.908-1.363 3.256-3.587 3.256-2.223 0-3.587-1.348-3.587-3.256v-5.737h1.377Zm7.039 6.382h1.357c.098.876.952 1.452 2.119 1.452 1.117 0 1.922-.576 1.922-1.366 0-.688-.485-1.098-1.634-1.38l-1.148-.275c-1.628-.393-2.384-1.153-2.384-2.386 0-1.526 1.334-2.575 3.225-2.575 1.874 0 3.157 1.049 3.2 2.575h-1.339c-.079-.883-.811-1.416-1.879-1.416-1.069 0-1.8.539-1.8 1.324 0 .626.467.994 1.609 1.275l.977.24c1.818.429 2.574 1.158 2.574 2.451 0 1.656-1.321 2.692-3.422 2.692-1.965 0-3.291-1.011-3.377-2.611Zm8.033-6.382h3.126c2.635 0 4.195 1.618 4.195 4.408 0 2.795-1.553 4.438-4.195 4.438h-3.126v-8.846Zm1.376 1.183v6.473h1.621c1.88 0 2.917-1.145 2.917-3.236 0-2.085-1.044-3.237-2.917-3.237h-1.621Z" fill="#fff"/><path d="M63.943 118.939c0 9.246-7.51 16.74-16.772 16.74-9.263 0-16.772-7.494-16.772-16.74 0-9.246 7.509-16.74 16.772-16.74 9.263 0 16.772 7.494 16.772 16.74Z" fill="#1ACD8D" fill-opacity=".44"/><path d="M49.135 116.138v-2.161h5.079v-3.408h-14.1v3.408h5.094v2.161c-4.267.199-7.471 1.027-7.471 2.02 0 .993 3.2 1.817 7.471 2.021v7.13h3.927v-7.13c4.267-.197 7.47-1.026 7.47-2.021 0-.995-3.2-1.821-7.47-2.02Zm-1.964 3.395c-4.62 0-8.367-.69-8.367-1.523 0-.717 2.73-1.318 6.401-1.479v2.44a44.345 44.345 0 0 0 3.927 0v-2.44c3.67.161 6.4.762 6.4 1.479.007.841-3.74 1.523-8.36 1.523Z" fill="#fff"/><path d="M59.75 118.939c0 6.933-5.632 12.555-12.58 12.555-6.947 0-12.578-5.622-12.578-12.555 0-6.934 5.632-12.555 12.579-12.555 6.947 0 12.578 5.621 12.578 12.555Z" fill="#1ACD8D"/><path d="M48.643 116.838v-1.62h3.81v-2.557H41.878v2.557h3.82v1.62c-3.2.15-5.603.771-5.603 1.515 0 .745 2.401 1.363 5.604 1.516v5.347h2.944v-5.347c3.201-.148 5.603-.77 5.603-1.516s-2.4-1.365-5.603-1.515Zm-1.472 2.547c-3.465 0-6.275-.518-6.275-1.143 0-.538 2.047-.988 4.8-1.109v1.83a33.287 33.287 0 0 0 2.945 0v-1.83c2.753.121 4.8.571 4.8 1.109.006.631-2.804 1.143-6.27 1.143Z" fill="#fff"/><path d="M279.69 14.883h3.164c1.664 0 2.837 1.165 2.837 2.838 0 1.68-1.185 2.851-2.85 2.851h-2.045v3.157h-1.106v-8.846Zm1.106.98v3.728h1.768c1.267 0 1.991-.693 1.991-1.87 0-1.17-.719-1.857-1.991-1.857h-1.768Zm6.001 7.866v-6.375h1.008v1.042h.024c.208-.705.798-1.153 1.548-1.153.183 0 .344.03.43.043v1.036a2.195 2.195 0 0 0-.572-.061c-.829 0-1.37.595-1.37 1.496v3.972h-1.068Zm3.936 0v-6.375h1.07v6.375h-1.07Zm.535-7.448a.669.669 0 0 1-.664-.662c0-.368.302-.662.664-.662.369 0 .67.294.67.662a.67.67 0 0 1-.67.662Zm7.284 3.163h-1.044c-.153-.693-.694-1.263-1.633-1.263-1.106 0-1.855.914-1.855 2.36 0 1.484.762 2.36 1.866 2.36.874 0 1.444-.46 1.628-1.226h1.051c-.166 1.27-1.235 2.165-2.684 2.165-1.769 0-2.948-1.245-2.948-3.299 0-2.01 1.173-3.298 2.936-3.298 1.596 0 2.549 1.055 2.683 2.201Zm3.557-1.275c-1.001 0-1.702.766-1.769 1.827h3.47c-.024-1.067-.694-1.827-1.701-1.827Zm1.677 3.733h1.05c-.184 1.116-1.265 1.938-2.66 1.938-1.83 0-2.941-1.27-2.941-3.274 0-1.98 1.13-3.323 2.893-3.323 1.725 0 2.788 1.25 2.788 3.182v.404h-4.582v.062c0 1.22.718 2.023 1.867 2.023.81 0 1.407-.41 1.585-1.012Zm151.308 1.828h-1.032v-6.818h-.043l-2.825 6.756h-.934l-2.825-6.756h-.043v6.817h-1.032v-8.846h1.284l3.058 7.381h.05l3.058-7.381h1.284v8.846Zm2.082 2.384c-.129 0-.343-.012-.461-.037v-.895c.118.025.283.03.418.03.596 0 .927-.287 1.173-1.03l.147-.447-2.358-6.381h1.142l1.77 5.309h.017l1.77-5.31h1.124l-2.512 6.824c-.547 1.49-1.076 1.937-2.23 1.937Zm11.682-2.385h-3.347v-8.846h3.359c1.517 0 2.543.883 2.543 2.207 0 .92-.676 1.778-1.529 1.931v.05c1.203.152 1.977.998 1.977 2.175 0 1.558-1.117 2.483-3.003 2.483Zm-2.241-7.871v2.838h1.658c1.308 0 2.02-.52 2.02-1.477 0-.877-.602-1.361-1.676-1.361h-2.002Zm0 6.896h2.075c1.333 0 2.033-.539 2.033-1.563s-.725-1.545-2.138-1.545h-1.97v3.108Zm8.438.178c1.007 0 1.782-.705 1.782-1.624v-.521l-1.708.104c-.86.055-1.351.435-1.351 1.036 0 .607.51 1.005 1.277 1.005Zm-.239.908c-1.271 0-2.126-.767-2.126-1.913 0-1.091.842-1.778 2.316-1.864l1.831-.104v-.533c0-.779-.517-1.245-1.4-1.245-.824 0-1.34.386-1.475 1.012h-1.032c.074-1.104 1.02-1.95 2.531-1.95 1.499 0 2.444.81 2.444 2.078v4.408h-1.013v-1.097h-.025c-.38.73-1.191 1.208-2.051 1.208Zm4.502-.11v-8.847h1.068v8.846h-1.068Zm4.619-.798c1.007 0 1.781-.705 1.781-1.624v-.521l-1.708.104c-.859.055-1.351.435-1.351 1.036 0 .607.51 1.005 1.278 1.005Zm-.24.908c-1.271 0-2.125-.767-2.125-1.913 0-1.091.842-1.778 2.315-1.864l1.831-.104v-.533c0-.779-.516-1.245-1.401-1.245-.823 0-1.338.386-1.474 1.012h-1.031c.073-1.104 1.019-1.95 2.53-1.95 1.498 0 2.445.81 2.445 2.078v4.408h-1.014v-1.097h-.025c-.38.73-1.191 1.208-2.051 1.208Zm4.447-.11v-6.377h1.008v1.018h.024c.356-.686 1.038-1.128 2.027-1.128 1.401 0 2.211.901 2.211 2.348v4.138h-1.069v-3.948c0-1.03-.485-1.594-1.468-1.594-1.007 0-1.664.711-1.664 1.79v3.752h-1.069Zm11.94-4.286h-1.044c-.153-.693-.694-1.263-1.633-1.263-1.106 0-1.856.914-1.856 2.36 0 1.484.762 2.36 1.867 2.36.872 0 1.444-.46 1.628-1.226h1.05c-.165 1.27-1.234 2.165-2.684 2.165-1.769 0-2.948-1.245-2.948-3.299 0-2.01 1.173-3.298 2.936-3.298 1.597 0 2.549 1.055 2.684 2.201Zm3.556-1.275c-1.001 0-1.701.766-1.769 1.827h3.471c-.025-1.067-.694-1.827-1.702-1.827Zm1.677 3.733h1.05c-.184 1.116-1.265 1.938-2.659 1.938-1.831 0-2.942-1.27-2.942-3.274 0-1.98 1.13-3.323 2.892-3.323 1.727 0 2.79 1.25 2.79 3.182v.404h-4.583v.062c0 1.22.719 2.023 1.868 2.023.81 0 1.406-.41 1.584-1.012Zm111.367 1.828h-1.093l-3.268-8.847h1.161l2.635 7.504h.037l2.634-7.504h1.162l-3.268 8.846Zm5.3-.798c1.007 0 1.781-.705 1.781-1.624v-.521l-1.706.104c-.861.055-1.352.435-1.352 1.036 0 .607.51 1.005 1.277 1.005Zm-.239.908c-1.271 0-2.126-.767-2.126-1.913 0-1.091.842-1.778 2.316-1.864l1.83-.104v-.533c0-.779-.516-1.245-1.399-1.245-.824 0-1.34.386-1.475 1.012h-1.032c.074-1.104 1.02-1.95 2.531-1.95 1.499 0 2.444.81 2.444 2.078v4.408h-1.013v-1.097h-.025c-.38.73-1.191 1.208-2.051 1.208Zm4.502-.11v-8.847h1.068v8.846h-1.068Zm7.757-6.377v6.376h-1.013v-1.036h-.025c-.38.736-1.044 1.147-2.027 1.147-1.394 0-2.211-.902-2.211-2.348v-4.139h1.069v3.949c0 1.036.485 1.593 1.474 1.593 1.038 0 1.665-.71 1.665-1.796v-3.745h1.068Zm3.95.816c-1.001 0-1.701.766-1.769 1.827h3.47c-.025-1.067-.694-1.827-1.701-1.827Zm1.676 3.733h1.05c-.184 1.116-1.265 1.938-2.659 1.938-1.83 0-2.942-1.27-2.942-3.274 0-1.98 1.131-3.323 2.893-3.323 1.726 0 2.788 1.25 2.788 3.182v.404h-4.582v.062c0 1.22.719 2.023 1.868 2.023.81 0 1.406-.41 1.584-1.012Z" fill="#5E6F8D"/><path d="M63.943 173.344c0 9.246-7.51 16.74-16.772 16.74-9.263 0-16.772-7.494-16.772-16.74 0-9.246 7.509-16.74 16.772-16.74 9.263 0 16.772 7.494 16.772 16.74Z" fill="#5F6DB6" fill-opacity=".44"/><path d="M59.75 173.344c0 6.934-5.632 12.555-12.58 12.555-6.947 0-12.578-5.621-12.578-12.555 0-6.933 5.632-12.555 12.579-12.555 6.947 0 12.578 5.622 12.578 12.555Z" fill="#5F6DB6"/><path d="m42.977 173.035 4.303-7.015 4.303 7.015-4.303 2.502-4.303-2.502Z" fill="#fff"/><path d="m47.28 176.325 4.165-2.581-4.165 5.91-4.263-5.91 4.263 2.581Z" fill="#fff"/></g><defs><clipPath id="a"><path fill="#fff" transform="translate(0 .711)" d="M0 0h775.694v200.882H0z"/></clipPath></defs></svg>