<svg width="776" height="99" viewBox="0 0 776 99" fill="none" xmlns="http://www.w3.org/2000/svg"><g clip-path="url(#a)"><path d="M763.115 98.161H12.579C5.632 98.161 0 92.56 0 85.648V12.654C0 5.744 5.632.141 12.579.141h750.536c6.947 0 12.579 5.602 12.579 12.513v72.994c0 6.911-5.632 12.513-12.579 12.513Z" fill="#161B24"/><path d="m37.227 27.556-2.046 6.996h-1.044l-2.414-8.817h1.155l1.775 7.198h.05l1.995-7.198h1.118l1.996 7.198h.05l1.774-7.198h1.155l-2.414 8.817h-1.044l-2.045-6.996h-.061Zm7.782 6.202c1.007 0 1.78-.703 1.78-1.62v-.519l-1.707.104c-.86.055-1.351.434-1.351 1.033 0 .605.51 1.002 1.277 1.002Zm-.24.904c-1.271 0-2.125-.764-2.125-1.906 0-1.088.841-1.772 2.315-1.858l1.83-.103v-.532c0-.776-.515-1.24-1.4-1.24-.823 0-1.339.385-1.474 1.008h-1.032c.074-1.1 1.02-1.943 2.53-1.943 1.5 0 2.445.806 2.445 2.071v4.393h-1.013V33.46h-.025c-.38.727-1.191 1.203-2.051 1.203Zm4.502-.11v-8.817h1.069v8.817h-1.07Zm2.567 0v-8.817h1.07v8.817h-1.07Zm5.074-5.542c-1.001 0-1.702.764-1.77 1.821h3.471c-.024-1.063-.694-1.82-1.701-1.82Zm1.677 3.721h1.05c-.184 1.112-1.266 1.931-2.66 1.931-1.83 0-2.942-1.264-2.942-3.262 0-1.974 1.13-3.312 2.893-3.312 1.726 0 2.789 1.246 2.789 3.17v.404h-4.582v.061c0 1.216.718 2.017 1.867 2.017.81 0 1.406-.41 1.585-1.009Zm2.555-6.067h1.068v1.534h1.24v.873h-1.24v3.776c0 .581.246.844.793.844.122 0 .368-.019.442-.03v.891c-.13.03-.424.05-.676.05-1.173 0-1.627-.477-1.627-1.7v-3.83h-.952v-.874h.952v-1.534Zm9.206 7.998c-.933 0-1.664-.452-2.076-1.185h-.024v1.075h-1.02v-8.817h1.07v3.526h.025c.399-.727 1.142-1.173 2.045-1.173 1.609 0 2.696 1.295 2.696 3.287 0 1.998-1.08 3.287-2.715 3.287Zm-.208-5.64c-1.081 0-1.85.942-1.85 2.353 0 1.417.769 2.352 1.85 2.352 1.13 0 1.83-.898 1.83-2.352 0-1.442-.7-2.352-1.83-2.352Zm6.117 4.736c1.007 0 1.781-.703 1.781-1.62v-.519l-1.707.104c-.86.055-1.352.434-1.352 1.033 0 .605.51 1.002 1.278 1.002Zm-.24.904c-1.27 0-2.125-.764-2.125-1.906 0-1.088.842-1.772 2.316-1.858l1.83-.103v-.532c0-.776-.516-1.24-1.4-1.24-.823 0-1.34.385-1.474 1.008h-1.032c.074-1.1 1.02-1.943 2.53-1.943 1.499 0 2.445.806 2.445 2.071v4.393h-1.013V33.46h-.025c-.38.727-1.192 1.203-2.052 1.203Zm4.503-.11v-8.817h1.068v8.817h-1.068Zm4.618-.794c1.008 0 1.782-.703 1.782-1.62v-.519l-1.708.104c-.86.055-1.351.434-1.351 1.033 0 .605.51 1.002 1.277 1.002Zm-.24.904c-1.27 0-2.124-.764-2.124-1.906 0-1.088.841-1.772 2.315-1.858l1.83-.103v-.532c0-.776-.515-1.24-1.4-1.24-.823 0-1.339.385-1.474 1.008h-1.032c.074-1.1 1.02-1.943 2.53-1.943 1.5 0 2.445.806 2.445 2.071v4.393h-1.013V33.46h-.025c-.38.727-1.191 1.203-2.051 1.203Zm4.448-.11v-6.354h1.007v1.014h.024c.357-.684 1.038-1.124 2.027-1.124 1.4 0 2.212.898 2.212 2.34v4.124h-1.07v-3.935c0-1.026-.484-1.588-1.467-1.588-1.008 0-1.665.709-1.665 1.784v3.74h-1.068Zm11.94-4.27h-1.044c-.154-.691-.694-1.26-1.634-1.26-1.106 0-1.855.911-1.855 2.353 0 1.479.761 2.352 1.867 2.352.872 0 1.443-.458 1.628-1.222h1.05c-.166 1.265-1.235 2.157-2.684 2.157-1.769 0-2.948-1.24-2.948-3.287 0-2.004 1.173-3.287 2.936-3.287 1.597 0 2.549 1.05 2.684 2.193Zm3.556-1.272c-1.001 0-1.701.764-1.769 1.821h3.471c-.025-1.063-.695-1.82-1.702-1.82Zm1.677 3.721h1.05c-.185 1.112-1.265 1.931-2.66 1.931-1.83 0-2.942-1.264-2.942-3.262 0-1.974 1.131-3.312 2.893-3.312 1.727 0 2.789 1.246 2.789 3.17v.404h-4.582v.061c0 1.216.718 2.017 1.867 2.017.811 0 1.406-.41 1.585-1.009Zm85.105 25.695c-.369-.377-.584-.514-.82-.514-.44 0-.686.31-.721.911h-.819c-.005-1.084.588-1.751 1.561-1.751.435 0 .819.193 1.264.636.359.372.579.51.808.51.441 0 .692-.311.728-.912h.813c.005 1.084-.583 1.751-1.555 1.751-.435 0-.815-.188-1.259-.631Zm7.513 3.238v-1.527h-3.71v-.83c.629-1.161 1.493-2.5 3.239-4.99h1.361v5.015h1.044v.805h-1.044v1.527h-.89Zm-2.799-2.352v.02h2.799v-4.251h-.015c-1.398 1.985-2.202 3.213-2.784 4.23Zm8.219 2.474c-1.725 0-2.722-1.476-2.722-3.798 0-2.301 1.008-3.793 2.722-3.793 1.715 0 2.713 1.481 2.713 3.788 0 2.322-.993 3.803-2.713 3.803Zm0-.799c1.152 0 1.787-1.166 1.787-2.999 0-1.807-.646-2.989-1.787-2.989s-1.796 1.192-1.796 2.984c0 1.833.64 3.004 1.796 3.004Zm4.3.728a.576.576 0 0 1-.584-.58c0-.326.257-.58.584-.58.328 0 .584.254.584.58 0 .326-.256.58-.584.58Zm4.514.071c-1.725 0-2.723-1.476-2.723-3.798 0-2.301 1.009-3.793 2.723-3.793s2.713 1.481 2.713 3.788c0 2.322-.993 3.803-2.713 3.803Zm0-.799c1.151 0 1.787-1.166 1.787-2.999 0-1.807-.645-2.989-1.787-2.989-1.141 0-1.796 1.192-1.796 2.984 0 1.833.639 3.004 1.796 3.004Zm5.554.677V55.29h-.021l-1.955 1.4v-.967l1.966-1.405h.9v7.347h-.89Zm9.607-.825v.825h-4.577v-7.347h4.577v.825h-3.655v2.357h3.465v.815h-3.465v2.526h3.655Zm4.007.825h-.921v-6.522h-2.329v-.825h5.579v.825h-2.329v6.522Zm9.198 0h-.922V58.32h-4.053v3.345h-.922v-7.347h.922v3.177h4.053v-3.177h.922v7.347Z" fill="#5E6F8D"/><path d="M32.47 51.277c0-2.647 2.14-4.582 5.078-4.582 2.815 0 4.914 1.782 4.914 4.114 0 1.71-.922 2.984-3.082 5.183l-3.695 3.697v.05h7.012v1.925H32.594v-1.547l5.333-5.408c1.801-1.863 2.272-2.637 2.272-3.788 0-1.303-1.187-2.342-2.723-2.342-1.617 0-2.835 1.16-2.835 2.688v.03h-2.17v-.02ZM50.12 61.94c-3.542 0-5.64-2.953-5.64-7.637 0-4.654 2.118-7.607 5.64-7.607 3.531 0 5.62 2.943 5.62 7.597 0 4.684-2.078 7.647-5.62 7.647Zm0-1.914c2.108 0 3.306-2.17 3.306-5.723 0-3.503-1.218-5.693-3.306-5.693-2.089 0-3.317 2.2-3.317 5.693 0 3.544 1.208 5.723 3.317 5.723Zm8.742 4.664H57.1l.92-5.377h2.232L58.86 64.69Zm10.36-9.674v-1.793H71c1.597 0 2.693-.998 2.693-2.383 0-1.364-.942-2.27-2.693-2.27-1.597 0-2.661.916-2.794 2.362h-2.16c.174-2.576 2.13-4.236 5.057-4.236 2.794 0 4.832 1.578 4.832 3.839 0 1.833-1.208 3.147-3.04 3.472v.041c2.22.153 3.654 1.507 3.654 3.564 0 2.567-2.344 4.328-5.426 4.328-3.183 0-5.23-1.741-5.374-4.277h2.201c.143 1.406 1.31 2.373 3.173 2.373 1.802 0 3.092-1.018 3.092-2.454 0-1.589-1.208-2.566-3.153-2.566H69.22Zm14.863 6.924c-3.542 0-5.64-2.953-5.64-7.637 0-4.654 2.119-7.607 5.64-7.607 3.532 0 5.62 2.943 5.62 7.597 0 4.684-2.078 7.647-5.62 7.647Zm0-1.914c2.109 0 3.306-2.17 3.306-5.723 0-3.503-1.218-5.693-3.306-5.693s-3.317 2.2-3.317 5.693c0 3.544 1.208 5.723 3.317 5.723Zm7.39-8.748c0-2.647 2.14-4.582 5.078-4.582 2.815 0 4.914 1.782 4.914 4.114 0 1.71-.921 2.984-3.081 5.183L94.69 59.69v.05h7.012v1.925H91.598v-1.547l5.333-5.408c1.802-1.863 2.273-2.637 2.273-3.788 0-1.303-1.188-2.342-2.723-2.342-1.618 0-2.836 1.16-2.836 2.688v.03h-2.17v-.02Zm13.871 10.5c-.747 0-1.34-.591-1.34-1.335 0-.743.593-1.334 1.34-1.334.748 0 1.341.59 1.341 1.334 0 .744-.593 1.334-1.341 1.334Zm6.992-6.762v-1.793h1.781c1.598 0 2.693-.998 2.693-2.383 0-1.364-.942-2.27-2.693-2.27-1.596 0-2.661.916-2.794 2.362h-2.16c.174-2.576 2.129-4.236 5.057-4.236 2.794 0 4.831 1.578 4.831 3.839 0 1.833-1.207 3.147-3.04 3.472v.041c2.222.153 3.654 1.507 3.654 3.564 0 2.567-2.343 4.328-5.425 4.328-3.184 0-5.231-1.741-5.374-4.277h2.201c.143 1.406 1.31 2.373 3.173 2.373 1.802 0 3.092-1.018 3.092-2.454 0-1.589-1.208-2.566-3.153-2.566h-1.843Zm14.772 6.924c-2.949 0-5.108-1.792-5.241-4.358h2.191c.163 1.456 1.422 2.454 3.07 2.454 1.864 0 3.153-1.293 3.153-3.136 0-1.844-1.289-3.167-3.132-3.167-1.28 0-2.386.58-2.958 1.547h-2.099l.778-8.31h8.793v1.925h-6.95l-.41 4.512h.051c.645-.927 1.852-1.487 3.296-1.487 2.835 0 4.873 2.067 4.873 4.919 0 3.014-2.232 5.101-5.415 5.101Zm14.044-14.97v9.339c0 2.098 1.331 3.574 3.686 3.574 2.354 0 3.695-1.476 3.695-3.574V46.97h2.283v9.53c0 3.167-2.273 5.408-5.978 5.408-3.706 0-5.978-2.24-5.978-5.408v-9.53h2.292Zm11.732 10.602h2.262c.164 1.456 1.586 2.413 3.532 2.413 1.862 0 3.204-.957 3.204-2.27 0-1.141-.809-1.824-2.723-2.292l-1.914-.458c-2.713-.652-3.972-1.915-3.972-3.962 0-2.535 2.221-4.277 5.374-4.277 3.122 0 5.261 1.742 5.334 4.277h-2.232c-.133-1.466-1.351-2.352-3.133-2.352-1.781 0-2.999.896-2.999 2.2 0 1.038.778 1.65 2.682 2.118l1.627.397c3.031.713 4.289 1.925 4.289 4.073 0 2.75-2.2 4.47-5.701 4.47-3.276 0-5.487-1.68-5.63-4.337Zm13.389-10.601h5.211c4.391 0 6.992 2.688 6.992 7.322 0 4.643-2.59 7.372-6.992 7.372h-5.211V46.97Zm2.294 1.965V59.69h2.702c3.132 0 4.862-1.904 4.862-5.377 0-3.462-1.74-5.377-4.862-5.377h-2.702Z" fill="#fff"/><path d="M449.904 34.552h-1.106v-3.794l-3.145-5.023h1.26l2.419 3.96h.037l2.42-3.96h1.259l-3.144 5.023v3.794Zm5.473.11c-1.77 0-2.961-1.264-2.961-3.287 0-2.029 1.191-3.287 2.961-3.287 1.763 0 2.953 1.258 2.953 3.287 0 2.023-1.19 3.287-2.953 3.287Zm0-.935c1.13 0 1.866-.855 1.866-2.352 0-1.497-.736-2.352-1.866-2.352-1.13 0-1.874.855-1.874 2.352 0 1.497.744 2.352 1.874 2.352Zm9.28-5.53v6.355h-1.013V33.52h-.025c-.381.733-1.044 1.142-2.026 1.142-1.396 0-2.212-.898-2.212-2.34v-4.124h1.069v3.935c0 1.032.485 1.588 1.474 1.588 1.038 0 1.664-.708 1.664-1.79v-3.733h1.069Zm1.388 6.355v-6.354h1.008v1.038h.024c.209-.702.799-1.148 1.548-1.148.184 0 .344.03.43.043v1.032c-.086-.03-.313-.06-.571-.06-.83 0-1.37.592-1.37 1.49v3.96h-1.069Zm8.568-.794c1.007 0 1.782-.703 1.782-1.62v-.519l-1.708.104c-.861.055-1.351.434-1.351 1.033 0 .605.509 1.002 1.277 1.002Zm-.239.904c-1.272 0-2.125-.764-2.125-1.906 0-1.088.841-1.772 2.315-1.858l1.831-.103v-.532c0-.776-.517-1.24-1.401-1.24-.823 0-1.339.385-1.475 1.008h-1.031c.073-1.1 1.02-1.943 2.53-1.943 1.499 0 2.445.806 2.445 2.071v4.393h-1.014V33.46h-.024c-.38.727-1.192 1.203-2.051 1.203Zm6.867 0c-1.628 0-2.734-1.295-2.734-3.287s1.099-3.287 2.709-3.287c.915 0 1.652.446 2.033 1.142h.024v-3.495h1.069v8.817h-1.02v-1.075h-.018c-.411.733-1.142 1.185-2.063 1.185Zm.202-5.64c-1.13 0-1.843.917-1.843 2.353 0 1.442.713 2.352 1.843 2.352 1.1 0 1.836-.928 1.836-2.352 0-1.417-.736-2.352-1.836-2.352Zm4.343 5.53v-6.354h1.007v1.038h.024c.209-.702.799-1.148 1.549-1.148.183 0 .343.03.429.043v1.032c-.086-.03-.313-.06-.571-.06-.829 0-1.37.592-1.37 1.49v3.96h-1.068Zm6.135-5.542c-1.001 0-1.701.764-1.768 1.821h3.469c-.024-1.063-.693-1.82-1.701-1.82Zm1.677 3.721h1.051c-.185 1.112-1.266 1.931-2.66 1.931-1.83 0-2.942-1.264-2.942-3.262 0-1.974 1.13-3.312 2.893-3.312 1.725 0 2.788 1.246 2.788 3.17v.404h-4.582v.061c0 1.216.719 2.017 1.867 2.017.811 0 1.407-.41 1.585-1.009Zm2.101-2.78c0-1.087.976-1.863 2.383-1.863 1.32 0 2.291.782 2.34 1.857h-1.02c-.073-.61-.571-.99-1.357-.99-.78 0-1.296.385-1.296.941 0 .44.338.734 1.062.917l.99.238c1.289.324 1.756.788 1.756 1.723 0 1.106-1.051 1.888-2.542 1.888-1.401 0-2.378-.757-2.488-1.882h1.068c.117.66.621 1.014 1.487 1.014.865 0 1.4-.366 1.4-.94 0-.453-.264-.697-.982-.886l-1.125-.288c-1.124-.287-1.676-.861-1.676-1.729Zm5.86 0c0-1.087.976-1.863 2.382-1.863 1.321 0 2.292.782 2.34 1.857h-1.019c-.074-.61-.571-.99-1.357-.99-.78 0-1.297.385-1.297.941 0 .44.338.734 1.063.917l.989.238c1.29.324 1.756.788 1.756 1.723 0 1.106-1.05 1.888-2.542 1.888-1.4 0-2.377-.757-2.488-1.882h1.069c.116.66.62 1.014 1.486 1.014s1.401-.366 1.401-.94c0-.453-.264-.697-.984-.886l-1.123-.288c-1.124-.287-1.676-.861-1.676-1.729Z" fill="#5E6F8D"/><path d="M448.454 59.245h-.024l-1.542 2.42h-1.186l2.175-3.178-2.137-3.177h1.191l1.536 2.383h.025l1.517-2.383h1.191l-2.156 3.134 2.125 3.22h-1.186l-1.529-2.42Zm3.993 2.42v-5.481h-.891v-.874h.891v-.71c0-1.222.571-1.802 1.75-1.802.239 0 .497.024.651.049v.861a3.578 3.578 0 0 0-.485-.037c-.578 0-.853.306-.853.935v.703h1.308v.874h-1.303v5.48h-1.068Zm5.589.11c-1.628 0-2.733-1.296-2.733-3.288 0-1.992 1.099-3.287 2.709-3.287.915 0 1.652.446 2.032 1.142h.024v-3.494h1.07v8.816h-1.02V60.59h-.018c-.412.733-1.143 1.185-2.064 1.185Zm.202-5.64c-1.13 0-1.842.916-1.842 2.352 0 1.442.712 2.352 1.842 2.352 1.1 0 1.837-.928 1.837-2.352 0-1.417-.737-2.352-1.837-2.352Zm7.469 5.676c-2.069 0-3.267-1.772-3.267-4.558 0-2.762 1.209-4.552 3.267-4.552s3.256 1.778 3.256 4.546c0 2.786-1.192 4.564-3.256 4.564Zm0-.96c1.383 0 2.144-1.398 2.144-3.598 0-2.17-.774-3.587-2.144-3.587-1.369 0-2.155 1.43-2.155 3.58 0 2.2.767 3.606 2.155 3.606Zm7.629.96c-2.07 0-3.267-1.772-3.267-4.558 0-2.762 1.209-4.552 3.267-4.552s3.255 1.778 3.255 4.546c0 2.786-1.192 4.564-3.255 4.564Zm0-.96c1.382 0 2.144-1.398 2.144-3.598 0-2.17-.775-3.587-2.144-3.587-1.37 0-2.156 1.43-2.156 3.58 0 2.2.767 3.606 2.156 3.606Zm7.628.96c-2.07 0-3.267-1.772-3.267-4.558 0-2.762 1.209-4.552 3.267-4.552s3.256 1.778 3.256 4.546c0 2.786-1.192 4.564-3.256 4.564Zm0-.96c1.382 0 2.144-1.398 2.144-3.598 0-2.17-.774-3.587-2.144-3.587s-2.156 1.43-2.156 3.58c0 2.2.768 3.606 2.156 3.606Zm6.923.923c-1.628 0-2.734-1.295-2.734-3.287s1.099-3.287 2.708-3.287c.915 0 1.652.446 2.034 1.142h.024v-3.494h1.069v8.816h-1.02V60.59h-.019c-.41.733-1.142 1.185-2.062 1.185Zm.202-5.64c-1.13 0-1.843.917-1.843 2.353 0 1.442.713 2.352 1.843 2.352 1.099 0 1.836-.928 1.836-2.352 0-1.417-.737-2.352-1.836-2.352Zm4.687 5.53v-5.48h-.891v-.874h.891v-.71c0-1.222.571-1.802 1.75-1.802.239 0 .497.024.651.049v.861a3.578 3.578 0 0 0-.485-.037c-.578 0-.855.306-.855.935v.703h1.309v.874h-1.302v5.48h-1.068Zm4.599-3.531 2.826-2.823h1.296l-2.771 2.743 2.857 3.611h-1.241l-2.37-2.957-.597.562v2.395h-1.068v-8.816h1.068v5.285Zm5.037 3.531v-8.816h1.068v8.816h-1.068Zm4.343-4.069v-.929h1.062c1.02 0 1.732-.653 1.732-1.545 0-.874-.596-1.467-1.72-1.467-1.02 0-1.695.58-1.793 1.503h-1.063c.123-1.497 1.241-2.456 2.905-2.456 1.585 0 2.782.947 2.782 2.273 0 1.106-.712 1.9-1.817 2.096v.024c1.338.08 2.198.904 2.198 2.145 0 1.515-1.388 2.572-3.126 2.572-1.855 0-3.04-1.02-3.12-2.48h1.062c.099.904.855 1.527 2.046 1.527 1.173 0 2.014-.66 2.014-1.583 0-1.038-.786-1.68-2.051-1.68h-1.111Zm9.851 4.07V59.83h-4.453v-.996c.756-1.393 1.794-3 3.888-5.987h1.634v6.018h1.253v.965h-1.253v1.833h-1.069Zm-3.36-2.823v.024h3.36v-5.102h-.019c-1.676 2.383-2.64 3.855-3.341 5.078Zm8.569-1.247v-.929h1.062c1.02 0 1.732-.653 1.732-1.545 0-.874-.596-1.467-1.72-1.467-1.02 0-1.695.58-1.793 1.503h-1.062c.122-1.497 1.24-2.456 2.904-2.456 1.585 0 2.782.947 2.782 2.273 0 1.106-.711 1.9-1.817 2.096v.024c1.338.08 2.199.904 2.199 2.145 0 1.515-1.389 2.572-3.127 2.572-1.854 0-3.04-1.02-3.119-2.48h1.061c.099.904.855 1.527 2.046 1.527 1.174 0 2.014-.66 2.014-1.583 0-1.038-.786-1.68-2.051-1.68h-1.111Zm9.851 4.07V59.83h-4.453v-.996c.756-1.393 1.794-3 3.888-5.987h1.634v6.018h1.253v.965h-1.253v1.833h-1.069Zm-3.36-2.823v.024h3.36v-5.102h-.018c-1.677 2.383-2.641 3.855-3.342 5.078Zm9.864 2.969c-2.069 0-3.267-1.772-3.267-4.558 0-2.762 1.21-4.552 3.267-4.552 2.058 0 3.256 1.778 3.256 4.546 0 2.786-1.192 4.564-3.256 4.564Zm0-.96c1.383 0 2.144-1.398 2.144-3.598 0-2.17-.774-3.587-2.144-3.587-1.369 0-2.155 1.43-2.155 3.58 0 2.2.768 3.606 2.155 3.606Zm8.741.813v-1.833h-4.453v-.996c.755-1.393 1.793-3 3.888-5.987h1.634v6.018h1.252v.965h-1.252v1.833h-1.069Zm-3.36-2.822v.024h3.36v-5.102h-.018c-1.677 2.383-2.642 3.855-3.342 5.078Zm8.568-1.247v-.929h1.063c1.019 0 1.732-.653 1.732-1.545 0-.874-.596-1.467-1.72-1.467-1.019 0-1.695.58-1.794 1.503h-1.062c.123-1.497 1.24-2.456 2.905-2.456 1.585 0 2.782.947 2.782 2.273 0 1.106-.712 1.9-1.818 2.096v.024c1.339.08 2.2.904 2.2 2.145 0 1.515-1.388 2.572-3.127 2.572-1.855 0-3.04-1.02-3.12-2.48h1.062c.098.904.854 1.527 2.046 1.527 1.173 0 2.014-.66 2.014-1.583 0-1.038-.786-1.68-2.052-1.68h-1.111Zm8.457 4.216c-1.51 0-2.672-.904-2.941-2.285h1.124c.234.8.952 1.326 1.83 1.326 1.474 0 2.322-1.332 2.352-3.672h-.018c-.375.873-1.346 1.441-2.476 1.441-1.688 0-2.941-1.24-2.941-2.914 0-1.741 1.32-3.012 3.139-3.012 1.332 0 2.388.715 2.929 1.98.295.678.436 1.472.436 2.431 0 2.97-1.265 4.705-3.434 4.705Zm.062-4.155c1.173 0 2.045-.83 2.045-1.955 0-1.13-.884-2.016-2.027-2.016-1.136 0-2.032.88-2.032 1.985 0 1.15.853 1.986 2.014 1.986Zm7.045 4.118c-1.627 0-2.733-1.295-2.733-3.287s1.099-3.287 2.708-3.287c.915 0 1.652.446 2.034 1.142h.024v-3.494h1.069v8.816h-1.02V60.59h-.019c-.411.733-1.142 1.185-2.063 1.185Zm.203-5.64c-1.13 0-1.843.917-1.843 2.353 0 1.442.713 2.352 1.843 2.352 1.099 0 1.836-.928 1.836-2.352 0-1.417-.737-2.352-1.836-2.352Zm4.686 5.53v-5.48h-.891v-.874h.891v-.71c0-1.222.572-1.802 1.751-1.802.239 0 .497.024.651.049v.861a3.578 3.578 0 0 0-.485-.037c-.578 0-.855.306-.855.935v.703h1.309v.874h-1.302v5.48h-1.069Zm5.736-2.42h-.024l-1.542 2.42h-1.185l2.174-3.177-2.138-3.177h1.192l1.536 2.383h.024l1.518-2.383h1.191l-2.155 3.134 2.124 3.22h-1.185l-1.53-2.42Zm6.493 2.567c-1.511 0-2.672-.904-2.942-2.285h1.123c.234.8.952 1.326 1.831 1.326 1.475 0 2.321-1.332 2.352-3.672h-.018c-.375.873-1.345 1.441-2.475 1.441-1.69 0-2.942-1.24-2.942-2.914 0-1.741 1.321-3.012 3.138-3.012 1.334 0 2.389.715 2.93 1.98.295.678.436 1.472.436 2.431 0 2.97-1.265 4.705-3.433 4.705Zm.061-4.155c1.173 0 2.045-.83 2.045-1.955 0-1.13-.884-2.016-2.026-2.016-1.137 0-2.034.88-2.034 1.985 0 1.15.855 1.986 2.015 1.986Zm7.469 4.155c-1.511 0-2.672-.904-2.942-2.285h1.124c.233.8.952 1.326 1.83 1.326 1.474 0 2.322-1.332 2.352-3.672h-.018c-.375.873-1.345 1.441-2.475 1.441-1.689 0-2.942-1.24-2.942-2.914 0-1.741 1.32-3.012 3.139-3.012 1.332 0 2.389.715 2.93 1.98.294.678.436 1.472.436 2.431 0 2.97-1.266 4.705-3.434 4.705Zm.061-4.155c1.173 0 2.046-.83 2.046-1.955 0-1.13-.885-2.016-2.028-2.016-1.136 0-2.032.88-2.032 1.985 0 1.15.853 1.986 2.014 1.986Zm6.787 4.008v-7.65h-.024l-2.346 1.68v-1.16l2.358-1.686h1.081v8.816h-1.069Zm5.552-2.42h-.024l-1.542 2.42h-1.185l2.175-3.177-2.139-3.177h1.192l1.536 2.383h.024l1.518-2.383h1.191l-2.156 3.134 2.125 3.22h-1.185l-1.53-2.42Zm6.775 2.567c-2.069 0-3.267-1.772-3.267-4.558 0-2.762 1.209-4.552 3.267-4.552s3.256 1.778 3.256 4.546c0 2.786-1.192 4.564-3.256 4.564Zm0-.96c1.383 0 2.144-1.398 2.144-3.598 0-2.17-.774-3.587-2.144-3.587-1.369 0-2.155 1.43-2.155 3.58 0 2.2.767 3.606 2.155 3.606Zm6.665.813v-7.65h-.026l-2.345 1.68v-1.16l2.358-1.686h1.081v8.816h-1.068Z" fill="#fff"/><mask id="b" style="mask-type:luminance" maskUnits="userSpaceOnUse" x="629" y="47" width="18" height="17"><path d="M646.761 47.066H629.99V63.75h16.771V47.066Z" fill="#fff"/></mask><g mask="url(#b)" fill="#5E6F8D"><path d="M636.793 60.621a2.967 2.967 0 0 1-2.971-2.954V50.54H632.6a1.919 1.919 0 0 0-1.923 1.912v9.385c0 1.055.862 1.912 1.923 1.912h8.735a1.918 1.918 0 0 0 1.921-1.912V60.62h-6.463Z"/><path d="M646.052 48.977a1.917 1.917 0 0 0-1.922-1.911h-7.337a1.917 1.917 0 0 0-1.923 1.911v8.69c0 1.056.861 1.912 1.923 1.912h7.337a1.917 1.917 0 0 0 1.922-1.912v-8.69Z"/></g><path d="M388.371 11.611v75.08" stroke="#5E6F8D"/></g><defs><clipPath id="a"><path fill="#fff" transform="translate(0 .14)" d="M0 0h775.694v98.021H0z"/></clipPath></defs></svg>