<svg width="78" height="78" viewBox="0 0 78 78" fill="none" xmlns="http://www.w3.org/2000/svg"><circle cx="39" cy="39" r="39" fill="#fff" fill-opacity=".2"/><path d="m56.655 22.75-1.537 1.537a21.765 21.765 0 0 1 0 29.375l1.537 1.538a23.964 23.964 0 0 0 0-32.487v.036Zm-32.332.132a21.765 21.765 0 0 1 29.375 0l1.538-1.537a23.964 23.964 0 0 0-32.487 0l1.574 1.537Zm-1.441 30.796a21.766 21.766 0 0 1 0-29.36l-1.537-1.538a23.963 23.963 0 0 0 0 32.486l1.537-1.588Zm30.796 1.419a21.765 21.765 0 0 1-29.376 0l-1.537 1.538a23.964 23.964 0 0 0 32.486 0l-1.573-1.538Zm-4.977-21.232c-.307-3.208-3.075-4.284-6.575-4.612v-4.418H39.42v4.336h-2.162v-4.336h-2.686v4.448h-5.489v2.896s2-.036 1.969 0a1.4 1.4 0 0 1 1.537 1.189v12.176a.948.948 0 0 1-.328.662.938.938 0 0 1-.697.235c.036.031-1.968 0-1.968 0l-.512 3.234h5.437v4.52h2.706v-4.453h2.163v4.433h2.71v-4.47c4.572-.276 7.76-1.403 8.16-5.683.322-3.444-1.297-4.981-3.885-5.601 1.573-.774 2.547-2.209 2.326-4.556Zm-3.792 9.624c0 3.362-5.76 2.978-7.595 2.978v-5.965c1.835.005 7.595-.523 7.595 2.987Zm-1.256-8.404c0 3.075-4.807 2.7-6.334 2.7v-5.422c1.527 0 6.334-.481 6.334 2.722Z" fill="#fff"/></svg>