<svg width="54" height="54" viewBox="0 0 54 54" fill="none" xmlns="http://www.w3.org/2000/svg"><circle cx="27" cy="27" r="27" fill="#fff" fill-opacity=".05"/><path fill-rule="evenodd" clip-rule="evenodd" d="M13.566 10.71c3.876 4.67 9.846 11.932 10.146 12.328.25.33.15.643-.266.874-.233.132-.716.264-.948.264a1.21 1.21 0 0 1-.799-.346c-.15-.149-.798-1.09-2.262-3.35a214.885 214.885 0 0 0-2.079-3.186c-.066-.032-.066-.032 1.963 3.565 1.28 2.261 1.696 3.07 1.696 3.169 0 .214-.066.33-.332.627-.45.495-.649 1.056-.799 2.228-.166 1.304-.615 2.228-1.896 3.796-.748.924-.864 1.089-1.047 1.469-.233.462-.3.726-.333 1.32-.033.627.033 1.023.216 1.617.166.528.35.875.799 1.551.382.594.615 1.04.615 1.205 0 .132.033.132.632 0 1.43-.33 2.611-.891 3.26-1.584.399-.43.499-.66.499-1.254 0-.38-.017-.462-.117-.694-.166-.363-.482-.66-1.164-1.122-.898-.61-1.28-1.105-1.38-1.766-.084-.56.016-.94.515-1.98.516-1.073.649-1.518.732-2.608.05-.693.133-.973.333-1.188.216-.23.399-.313.914-.38.849-.115 1.398-.33 1.83-.742.383-.347.549-.693.565-1.205l.017-.38-.216-.23C23.878 21.816 13.05 10 13 10c-.01 0 .086.117.234.298.094.116.21.258.332.412Zm5.106 23.467a.678.678 0 0 0-.216-.907c-.283-.182-.715-.1-.715.148 0 .066.033.132.133.165.15.083.166.165.05.347-.117.181-.117.346.033.462.233.181.549.082.715-.215Z" fill="#fff" fill-opacity=".33"/><path d="M23.978 17.278c-.35-.05-.366-.066-.2-.082.316-.05 1.048.016 1.564.131 1.197.281 2.278 1.007 3.426 2.278l.3.346.432-.066c1.846-.297 3.742-.066 5.322.66.433.199 1.114.595 1.198.694.033.033.083.247.116.462.116.776.067 1.353-.183 1.799-.133.247-.133.313-.05.528.067.165.266.28.45.28.398 0 .814-.627 1.014-1.501l.083-.347.15.165c.848.94 1.513 2.244 1.613 3.169l.033.247-.15-.214c-.249-.38-.482-.627-.798-.842-.565-.38-1.164-.495-2.744-.578-1.43-.082-2.245-.198-3.044-.462-1.364-.445-2.062-1.023-3.675-3.152-.716-.94-1.165-1.452-1.614-1.881-.981-.94-1.962-1.436-3.243-1.634Z" fill="#fff" fill-opacity=".33"/><path d="M36.369 19.374c.033-.627.116-1.04.3-1.42.066-.148.132-.28.149-.28.017 0-.017.116-.067.248-.133.363-.15.874-.066 1.452.116.743.166.842.965 1.65.365.38.798.858.964 1.056l.283.364-.283-.264c-.35-.33-1.147-.958-1.33-1.04-.117-.066-.133-.066-.217.016-.066.066-.083.165-.083.644-.016.743-.116 1.205-.366 1.683-.133.248-.15.198-.033-.082.083-.215.1-.314.1-1.023 0-1.436-.166-1.783-1.181-2.36a12.67 12.67 0 0 0-.931-.48c-.267-.115-.466-.214-.45-.214.034-.033 1.015.248 1.398.413.582.231.681.248.748.231.05-.05.083-.181.1-.594Zm-12.757-1.089c-.1 1.105.35 2.59 1.048 3.548.549.743 1.397 1.32 2.029 1.386.416.033.532-.099.35-.363-.267-.363-.583-.94-.666-1.188-.05-.149-.166-.61-.25-1.007-.282-1.353-.582-1.898-1.247-2.294a3.923 3.923 0 0 0-1.064-.396l-.167-.033-.033.347ZM35.52 29.012c-3.293-1.32-4.457-2.46-4.457-4.39 0-.28.017-.512.017-.512a.9.9 0 0 1 .146.108l.137.107c.665.528 1.413.76 3.492 1.056 1.215.182 1.913.314 2.545.528 2.013.66 3.26 2.014 3.56 3.846.082.528.033 1.534-.1 2.062-.117.413-.45 1.172-.533 1.189-.016 0-.05-.083-.05-.215-.033-.693-.382-1.353-.964-1.865-.699-.594-1.597-1.04-3.792-1.914Zm-2.494-.149c.05.132.133.446.166.694.266 1.55-.549 2.822-2.195 3.333-.167.066-.832.198-1.48.297-1.314.231-1.913.38-2.495.66-.416.198-.932.495-.899.529.017.016.117-.017.217-.05.748-.264 1.58-.396 2.827-.462a65.58 65.58 0 0 0 1.139-.089h.006l.12-.01c1.114-.149 1.895-.479 2.494-1.09a2.97 2.97 0 0 0 .698-1.105c.1-.28.117-.396.117-.891 0-.512 0-.61-.117-.924-.15-.413-.316-.71-.532-.958l-.15-.181.084.247Z" fill="#fff" fill-opacity=".33"/><path d="M34.706 32.214c-.433-.941-.533-1.832-.3-2.674.034-.083.067-.165.1-.165s.133.05.233.116c.2.131.615.363 1.68.94 1.347.726 2.112 1.287 2.644 1.931.466.561.749 1.205.882 1.997.083.445.033 1.518-.083 1.964-.366 1.403-1.198 2.525-2.412 3.169a2.314 2.314 0 0 1-.35.165c-.016 0 .05-.165.15-.363.4-.842.45-1.65.15-2.559-.183-.56-.566-1.237-1.33-2.376-.915-1.32-1.132-1.667-1.364-2.145Zm-8.25 3.069c-1.397.231-2.91.957-4.141 1.98l-.35.33.316.05c1.664.248 2.113.479 3.277 1.667.665.677.898.825 1.447.974.815.214 1.613-.165 1.896-.892.116-.33.1-.858-.033-1.122-.333-.643-1.314-.841-1.78-.38-.382.38-.266.974.216 1.073.1.017.1.017-.033-.05-.216-.098-.316-.23-.316-.445-.017-.511.566-.775 1.098-.544.399.181.549.412.549.808 0 .611-.533 1.09-1.148 1.007-.333-.05-.732-.247-.948-.495-.532-.594-.333-1.568.432-1.931.583-.28 1.348-.198 1.946.182.682.445.982.841 1.564 2.178.2.446.432.924.549 1.09.549.824 1.23 1.237 2.029 1.237.449 0 .781-.066 1.197-.28.3-.15.749-.446.715-.48 0-.012-.082.016-.19.052l-.092.031c-.882.33-1.78.314-2.295-.066-.333-.247-.6-.71-.732-1.303l-.006-.036a39.132 39.132 0 0 1-.16-.971c-.184-1.139-.367-1.65-.766-2.245-.415-.61-1.214-1.105-2.095-1.336-.55-.149-1.547-.182-2.146-.083Z" fill="#fff" fill-opacity=".33"/><path fill-rule="evenodd" clip-rule="evenodd" d="M24.51 26.47c.117-.429.5-.858.898-.973.266-.083.782-.033 1.031.099.483.247.832.792.749 1.188-.083.479-.865.875-1.78.875-.465 0-.632-.066-.815-.297-.116-.149-.15-.628-.083-.892Zm1.796-.71c.25.15.3.364.167.562-.1.132-.4.264-.616.264-.332 0-.682-.231-.682-.446 0-.429.682-.66 1.131-.38Z" fill="#fff" fill-opacity=".33"/></svg>