<svg width="89" height="75" viewBox="0 0 89 75" fill="none" xmlns="http://www.w3.org/2000/svg"><path d="M0 66.6h2.309c.167 1.513 1.62 2.507 3.604 2.507 1.901 0 3.27-.994 3.27-2.359 0-1.185-.825-1.893-2.779-2.38l-1.954-.476C1.683 63.215.397 61.903.397 59.777c0-2.635 2.267-4.444 5.485-4.444 3.186 0 5.37 1.81 5.443 4.444H9.047c-.136-1.524-1.379-2.444-3.197-2.444-1.817 0-3.06.93-3.06 2.285 0 1.079.793 1.714 2.737 2.2l1.66.413c3.093.74 4.378 2 4.378 4.232 0 2.856-2.246 4.644-5.819 4.644-3.343 0-5.6-1.746-5.746-4.507Zm15.113-2.105 4.44-4.771h2.653l-4.555 4.792 4.733 6.337h-2.622l-3.73-4.94-.94.941v3.999h-2.257V55.587h2.257v8.908h.02Z" fill="#fff"/><path d="M23.998 75c-.177 0-.752-.021-.919-.053v-1.851c.167.042.543.042.731.042 1.056 0 1.61-.444 1.954-1.587 0-.021.198-.677.198-.688l-3.97-11.14h2.445l2.79 9.056h.031l2.79-9.055h2.381l-4.126 11.71C27.363 74.133 26.286 75 23.998 75Zm21.69-15.657-3.249 11.51h-2.215L36.16 55.587h2.434l2.79 11.955h.083l3.187-11.955h2.173l3.197 11.955h.083l2.79-11.955h2.434l-4.075 15.266h-2.204l-3.26-11.51h-.104Zm12.992 9.891c1.577 0 2.81-1.1 2.81-2.55v-.877l-2.706.169c-1.347.095-2.11.698-2.11 1.65 0 .974.794 1.608 2.006 1.608Zm-.627 1.81c-2.152 0-3.657-1.355-3.657-3.354 0-1.947 1.474-3.142 4.085-3.29l3.01-.18v-.857c0-1.238-.826-1.978-2.205-1.978-1.306 0-2.121.634-2.32 1.629h-2.13c.125-2.01 1.817-3.491 4.533-3.491 2.664 0 4.367 1.428 4.367 3.66v7.67h-2.162v-1.83h-.053c-.637 1.237-2.026 2.02-3.468 2.02Zm7.319-.191V55.587h2.256v15.266h-2.256Zm4.018 0V55.587h2.256v15.266h-2.257Zm8.53-9.489c-1.577 0-2.685 1.216-2.8 2.898h5.495c-.052-1.703-1.117-2.898-2.695-2.898Zm2.685 6.22h2.142c-.314 2.031-2.215 3.48-4.733 3.48-3.228 0-5.182-2.21-5.182-5.723 0-3.49 1.985-5.818 5.088-5.818 3.05 0 4.952 2.179 4.952 5.554v.783H75.11v.137c0 1.936 1.149 3.216 2.956 3.216 1.285 0 2.236-.656 2.54-1.629Zm4.039-10.494h2.267v2.634H89v1.809h-2.09v6.136c0 .962.419 1.396 1.338 1.396.23 0 .595-.021.742-.053v1.81c-.251.063-.753.105-1.254.105-2.225 0-3.093-.857-3.093-3.005v-6.39h-1.598v-1.808h1.599V57.09Z" fill="#fff"/><path d="M59.108 24.333c-.236-4.26-3.686-6.736-7.806-6.36-2.637-.013-6.86-.033-9.487-.06l6.977-10.88c.22-.333-.274-.69-.527-.383L37.622 18.52c-.904.957-.104 2.653 1.206 2.583.09 0 10.42-.076 12.48-.086.804.026 1.79-.107 2.544.22 2.5.93 3.066 4.326 1.023 6.043a6112.29 6112.29 0 0 1-13.783 13.543h-.01c-.944 1.01-2.634.834-3.477-.216-1.147-1.257-.083-2.857.44-4.144.98-2.273 2.013-4.523 3.137-6.733.116-.213-.057-.5-.304-.493h-3.09a.85.85 0 0 0-.793.567c-.173.513-2.09 5.663-2.857 7.726-1.526 4.373 3.59 8.727 7.67 6.577.607-.294 1.13-.767 1.607-1.237.67-.663 11.36-11.317 11.36-11.317 2.13-2.133 4.493-3.866 4.327-7.216l.006-.004Z" fill="url(#a)"/><path d="M29.668 20.34c.237 4.26 3.687 6.737 7.807 6.36 2.637.013 6.86.033 9.487.06l-6.977 10.88c-.22.333.273.69.527.383l10.643-11.87c.903-.956.103-2.653-1.207-2.583-.09 0-10.42.077-12.48.087-.803-.027-1.79.106-2.543-.22-2.5-.93-3.067-4.327-1.023-6.044 4.14-4.083 9.616-9.463 13.783-13.543h.01c.943-1.01 2.633-.833 3.477.217 1.146 1.256.083 2.856-.44 4.143a117.447 117.447 0 0 1-3.137 6.733c-.117.214.057.5.303.494h3.09a.83.83 0 0 0 .487-.157.85.85 0 0 0 .307-.41c.173-.513 2.09-5.663 2.856-7.727 1.527-4.373-3.59-8.726-7.67-6.576-.606.293-1.13.766-1.606 1.236-.67.664-11.36 11.317-11.36 11.317-2.13 2.133-4.494 3.867-4.327 7.217l-.007.003Z" fill="url(#b)"/><defs><linearGradient id="a" x1="65" y1="-5.667" x2="44.333" y2="68" gradientUnits="userSpaceOnUse"><stop stop-color="#055DF5"/><stop offset="1" stop-color="#06F4EE"/></linearGradient><linearGradient id="b" x1="65" y1="-5.667" x2="44.333" y2="68" gradientUnits="userSpaceOnUse"><stop stop-color="#055DF5"/><stop offset="1" stop-color="#06F4EE"/></linearGradient></defs></svg>