<svg width="20" height="31" viewBox="0 0 20 31" fill="none" xmlns="http://www.w3.org/2000/svg"><path d="M19.999 16.886c-.16-2.957-2.504-4.675-5.303-4.414-1.791-.01-4.66-.023-6.444-.041l4.74-7.55c.148-.232-.187-.48-.359-.266l-7.23 8.236c-.613.664-.07 1.842.82 1.793.061 0 7.078-.053 8.478-.06.545.018 1.215-.074 1.727.153 1.698.645 2.083 3.002.695 4.193a4054.7 4054.7 0 0 1-9.362 9.398h-.007c-.64.701-1.789.579-2.362-.15-.779-.872-.056-1.982.3-2.875a82.327 82.327 0 0 1 2.13-4.673c.08-.148-.039-.346-.206-.342h-2.1a.556.556 0 0 0-.33.109.589.589 0 0 0-.208.284c-.118.357-1.42 3.93-1.94 5.362-1.038 3.035 2.438 6.056 5.21 4.564.412-.204.767-.532 1.09-.858.456-.46 7.717-7.853 7.717-7.853 1.447-1.48 3.053-2.684 2.94-5.008l.004-.003Z" fill="url(#a)"/><path d="M.001 14.114c.16 2.957 2.504 4.675 5.303 4.414 1.791.01 4.66.023 6.444.042l-4.74 7.55c-.149.23.187.478.359.265l7.23-8.237c.613-.663.07-1.84-.82-1.792-.061 0-7.078.053-8.478.06-.545-.018-1.215.074-1.727-.153-1.698-.645-2.083-3.002-.695-4.193 2.812-2.834 6.532-6.567 9.362-9.398h.007c.64-.701 1.789-.579 2.362.15.779.872.056 1.982-.3 2.875a82.287 82.287 0 0 1-2.13 4.673c-.08.148.039.347.206.342h2.1a.556.556 0 0 0 .33-.109.589.589 0 0 0 .208-.284c.118-.357 1.42-3.93 1.94-5.362C18 1.922 14.524-1.099 11.752.393c-.412.204-.767.532-1.09.858-.456.46-7.717 7.853-7.717 7.853-1.447 1.48-3.053 2.684-2.94 5.008l-.004.002Z" fill="url(#b)"/><defs><linearGradient id="a" x1="24.001" y1="-3.932" x2="9.397" y2="47.025" gradientUnits="userSpaceOnUse"><stop stop-color="#055DF5"/><stop offset="1" stop-color="#06F4EE"/></linearGradient><linearGradient id="b" x1="24.001" y1="-3.932" x2="9.397" y2="47.025" gradientUnits="userSpaceOnUse"><stop stop-color="#055DF5"/><stop offset="1" stop-color="#06F4EE"/></linearGradient></defs></svg>