<svg width="54" height="54" viewBox="0 0 54 54" fill="none" xmlns="http://www.w3.org/2000/svg"><circle cx="27" cy="27" r="27" fill="#fff" fill-opacity=".1"/><path fill-rule="evenodd" clip-rule="evenodd" d="M41.278 30.616c.016.164.037.496.047.734l.027.421h.005l.004.058a.387.387 0 0 0 .006.059c.022.126-.005.66-.036.95-.09.606-.28 1.213-.58 1.893-.043.095-.36.66-.439.781a.553.553 0 0 0-.068.121c0 .01-.01.021-.021.021-.01 0-.021.016-.021.027 0 .01-.011.026-.021.026-.011 0-.016.01-.011.021.005.01 0 .027-.016.032-.021.005-.026.016-.021.026.005.01-.005.021-.021.027-.016.005-.026.02-.021.026.01.01-.005.026-.021.037-.021.01-.032.021-.021.021.037 0-.449.654-.776 1.034a16.54 16.54 0 0 1-1.456 1.461c-3.292 2.86-8.235 4.817-11.585 4.59-3.213-.221-7.454-2.142-10.583-4.8-1.91-1.625-3.128-3.282-3.524-4.785-.126-.48-.148-.844-.105-1.61l.002-.05.003-.05c.782-.114 2.354-.235 4.087.248-1.736-.485-3.311-.362-4.097-.248.158-2.553.822-4.953 2.052-7.444.02-.036.042-.079.058-.115a54.701 54.701 0 0 1-1.361-4.785c-.77-3.292-1.277-7.186.21-8.341 0 0 2.517-.185 5.899 3.018.912.87 1.74 1.82 2.484 2.832.048-.015.095-.031.148-.052 1.319-.46 2.48-.686 3.994-.786.5-.032 2.036-.032 2.448 0 1.366.09 2.722.353 4.03.78l.227.074a21.797 21.797 0 0 1 2.405-2.854c3.25-3.186 5.677-3.007 5.677-3.007 1.403 1.119.944 4.843.221 8.03a55.072 55.072 0 0 1-1.366 4.89.2.2 0 0 1 .005.01 1.85 1.85 0 0 0 .132.253c1.161 2.074 1.773 4.031 2 6.426Zm-21.248 3.7c.06-.159 1.96-4.954 6.938-4.955-5.058.005-6.935 4.959-6.935 4.959l-.004-.004Zm17.114-2.14a11.246 11.246 0 0 0-4.023 2.14v.004a11.264 11.264 0 0 1 4.023-2.145ZM13.655 14.389c-.506 2.817 1.467 7.75 1.467 7.75.981-1.704 2.258-2.918 3.255-3.683.005 0 .01-.005.01-.005.918-.707 1.604-1.04 1.604-1.04-3.608-4.009-5.845-4.23-5.845-4.23-.248.316-.406.733-.49 1.208Zm9.47 15.236c.18-.027.337-.095.369-.159.047-.105-.08-.448-.27-.69-.279-.391-.643-.676-1.613-1.256-1.177-.707-2.142-1.193-2.791-1.393-.317-.1-.512-.137-.744-.137-.19 0-.19 0-.232.053-.08.142-.137.3-.164.464-.042.195-.047.744-.02 1.092l.015.2.148.153c.258.259.607.496 1.092.733.865.423 2.052.766 3.17.913.312.037.86.053 1.04.027Zm12.286-1.383c.248-.184.496-.438.512-.522.026-.142.037-.934.016-1.113-.042-.338-.148-.617-.243-.654-.058-.027-.242-.021-.395 0-.486.068-1.203.358-2.09.844-.538.295-1.693.997-1.978 1.203-.559.406-.918.838-1.029 1.234-.052.19-.031.248.116.322.227.11.982.09 1.736-.047 1.324-.238 2.627-.734 3.355-1.267Zm-.374-9.796.01.005a12.566 12.566 0 0 1 3.145 3.688s1.904-4.938 1.413-7.755c-.084-.475-.237-.887-.474-1.209 0 0-2.158.222-5.645 4.231 0 0 .665.333 1.55 1.04Zm-7.043 19.952c.016.01.084-.016.185-.074.136-.077.19-.107.21-.153.016-.032.013-.072.011-.143l-.005-.142-2.807-.01v.3l.159.08c.09.041.184.078.28.11l.12.037.138-.285.148.016c.079.005.147.016.147.016s.074.116.169.253c.18.269.211.295.359.28.09-.005.104-.02.387-.326l.04-.044.148-.158.142.116c.034.025.067.05.095.073.037.029.065.05.074.054Zm2.68-.47c0-.01.063-.253.142-.554l.009-.031c.075-.282.14-.523.155-.517 0-.016-.137-.022-.607-.022h-.606l-.064.096c-.052.09-.063.094-.116.084-.031-.005-.374-.01-.765-.01h-.707l-.153-.238-.158-.237-.232-.022-.01-1.107.126-.048c.438-.153.918-.49 1.182-.828.132-.185.237-.39.306-.607.047-.158.079-.554.079-1.013 0-.322-.037-.453-.164-.622-.11-.148-.2-.217-.395-.312l-.164-.079-1.466-.005c-1.245 0-1.483 0-1.573.026a.767.767 0 0 0-.543.539c-.037.116-.037.163-.032.685l.001.032c.01.498.01.54.052.654.206.57.755 1.04 1.688 1.451l.29.127.011 1.097h-.222l-.174.264-.169.263-.659-.015-.351-.01c-.239-.007-.45-.013-.535-.017l-.227-.01-.042-.138-1.32-.01v.063c0 .032.011.069.038.09.016.01.095.079.174.147l.137.122.016.169c.01.09.037.253.058.359l.042.195.164-.016.163-.01.037.152c.069.28.164.549.296.802.12.243.174.327.19.312a3.12 3.12 0 0 0 .095-.142l.09-.138-.017-.75c-.01-.416-.015-.754-.01-.759a3.52 3.52 0 0 1 .348.042c1.15.164 2.31.19 3.466.074.28-.026.918-.11 1.008-.132l.042-.01v1.461l.221.359.032-.074c.016-.042.132-.322.259-.623l.226-.553h.17c.055.005.105 0 .16-.005h.008Z" fill="#fff" fill-opacity=".33"/></svg>