<svg width="68" height="68" viewBox="0 0 68 68" fill="none" xmlns="http://www.w3.org/2000/svg"><circle cx="34" cy="34" r="34" fill="#fff" fill-opacity=".2"/><path fill-rule="evenodd" clip-rule="evenodd" d="M15.708 12.887c4.844 5.838 12.308 14.915 12.682 15.41.312.413.187.805-.333 1.093-.29.165-.894.33-1.185.33-.332 0-.728-.165-.998-.433-.187-.185-.998-1.361-2.827-4.188a266.864 266.864 0 0 0-2.6-3.98c-.082-.042-.082-.042 2.454 4.455 1.601 2.826 2.12 3.837 2.12 3.96 0 .269-.082.413-.415.785-.561.619-.81 1.32-.998 2.785-.208 1.63-.77 2.785-2.37 4.744-.936 1.156-1.081 1.362-1.31 1.836-.29.578-.374.908-.416 1.65-.041.785.042 1.28.27 2.022.209.66.437 1.094.999 1.94.478.742.769 1.3.769 1.505 0 .166.041.166.79 0 1.788-.412 3.264-1.114 4.075-1.98.499-.536.623-.825.623-1.568 0-.474-.02-.577-.145-.866-.208-.454-.603-.825-1.455-1.403-1.123-.763-1.601-1.382-1.726-2.207-.104-.702.02-1.176.645-2.476.644-1.34.81-1.898.914-3.26.063-.866.167-1.216.416-1.484.27-.29.499-.392 1.143-.475 1.06-.144 1.747-.413 2.287-.928.479-.433.686-.867.707-1.506l.021-.475-.27-.288C28.598 26.77 15.063 12 15 12c-.013 0 .106.146.291.373.118.144.262.321.416.514Zm6.382 29.335a.848.848 0 0 0-.27-1.135c-.353-.227-.894-.124-.894.186 0 .082.042.165.166.206.188.103.208.206.063.433-.146.227-.146.434.041.578.291.227.686.103.894-.268Z" fill="#fff"/><path d="M28.723 21.098c-.437-.062-.458-.083-.25-.104.395-.061 1.31.021 1.954.165 1.497.351 2.849 1.259 4.283 2.847l.374.433.54-.082c2.308-.371 4.679-.083 6.654.825.54.248 1.393.743 1.497.867.041.04.104.309.145.577.146.97.083 1.692-.229 2.249-.166.31-.166.392-.062.66.083.206.333.35.561.35.5 0 1.02-.783 1.269-1.877l.103-.433.188.206c1.06 1.176 1.892 2.806 2.016 3.961l.042.31-.187-.269c-.312-.474-.603-.784-.998-1.052-.707-.474-1.456-.619-3.43-.722-1.788-.103-2.807-.247-3.805-.577-1.705-.557-2.578-1.28-4.595-3.94-.894-1.176-1.455-1.816-2.017-2.352-1.226-1.176-2.453-1.795-4.054-2.043Z" fill="#fff"/><path d="M44.211 23.717c.042-.784.146-1.3.374-1.774.084-.185.167-.35.187-.35.021 0-.02.144-.083.309-.166.454-.187 1.093-.083 1.815.146.929.208 1.053 1.206 2.063.457.475.998 1.073 1.206 1.32l.353.454-.353-.33c-.437-.412-1.435-1.196-1.663-1.3-.146-.082-.167-.082-.27.021-.084.083-.105.207-.105.805-.02.928-.145 1.506-.457 2.104-.166.31-.187.248-.042-.103.104-.268.125-.392.125-1.28 0-1.794-.208-2.227-1.476-2.95a15.59 15.59 0 0 0-1.164-.597c-.333-.145-.582-.268-.562-.268.042-.042 1.269.309 1.747.515.727.289.852.31.935.289.063-.062.104-.227.125-.743Zm-15.946-1.361c-.125 1.382.437 3.239 1.31 4.435.686.928 1.746 1.65 2.536 1.733.52.041.666-.124.437-.454-.333-.454-.728-1.176-.832-1.485a15.929 15.929 0 0 1-.312-1.259c-.353-1.691-.727-2.372-1.559-2.867-.312-.186-.956-.433-1.33-.495l-.208-.041-.042.433ZM43.15 35.765c-4.116-1.65-5.571-3.074-5.571-5.488 0-.35.02-.639.02-.639.015 0 .084.055.184.134l.17.134c.832.66 1.767.95 4.366 1.32 1.518.227 2.391.392 3.181.66 2.516.826 4.075 2.517 4.45 4.807.103.66.04 1.919-.126 2.579-.145.516-.56 1.465-.665 1.485-.02 0-.062-.103-.062-.268-.042-.866-.478-1.692-1.206-2.331-.873-.743-1.996-1.3-4.74-2.393Zm-3.118-.185c.063.164.167.556.208.866.333 1.939-.686 3.527-2.744 4.167-.208.082-1.04.247-1.85.371-1.643.289-2.391.474-3.119.825-.52.248-1.164.62-1.123.66.021.021.146-.02.27-.062.936-.33 1.976-.495 3.535-.577.522-.035 1.102-.084 1.423-.11h.001l.007-.001.149-.013c1.393-.186 2.37-.598 3.118-1.362.416-.433.666-.825.874-1.382.124-.35.145-.495.145-1.114 0-.64 0-.763-.145-1.155-.187-.516-.395-.887-.666-1.196l-.187-.227.104.31Z" fill="#fff"/><path d="M42.132 39.767c-.54-1.176-.665-2.29-.374-3.342.041-.103.083-.206.124-.206.042 0 .167.062.292.144.25.165.769.454 2.1 1.176 1.683.908 2.64 1.609 3.305 2.413.582.702.936 1.507 1.102 2.497.104.557.041 1.898-.104 2.455-.457 1.753-1.497 3.156-3.015 3.96a2.91 2.91 0 0 1-.436.207c-.021 0 .062-.207.187-.454.499-1.052.561-2.063.187-3.198-.229-.701-.707-1.547-1.663-2.97-1.144-1.65-1.414-2.084-1.705-2.682ZM31.82 43.604c-1.746.289-3.638 1.196-5.177 2.475l-.436.413.395.062c2.079.31 2.64.598 4.096 2.083.831.846 1.122 1.032 1.808 1.218 1.019.268 2.017-.207 2.37-1.114.146-.413.125-1.073-.041-1.403-.416-.805-1.643-1.052-2.225-.475-.478.475-.332 1.218.27 1.341.125.02.125.02-.041-.062-.27-.123-.395-.289-.395-.557-.021-.64.707-.97 1.372-.68.499.227.686.515.686 1.01 0 .764-.665 1.362-1.434 1.259-.416-.062-.915-.31-1.185-.62-.666-.742-.416-1.959.54-2.413.728-.35 1.684-.247 2.432.227.853.557 1.227 1.052 1.955 2.723.25.557.54 1.155.686 1.362.686 1.031 1.538 1.547 2.536 1.547.562 0 .977-.083 1.497-.35.374-.186.936-.558.894-.599 0-.016-.103.019-.239.065l-.114.038c-1.102.413-2.225.392-2.87-.082-.415-.31-.748-.887-.914-1.63l-.008-.044-.012-.073c-.04-.227-.12-.691-.188-1.141-.229-1.424-.457-2.063-.956-2.806-.52-.763-1.518-1.382-2.62-1.67-.686-.187-1.933-.228-2.682-.104Z" fill="#fff"/><path fill-rule="evenodd" clip-rule="evenodd" d="M29.388 32.588c.145-.536.623-1.073 1.122-1.217.333-.103.977-.041 1.29.124.602.309 1.039.99.935 1.485-.104.598-1.081 1.093-2.225 1.093-.582 0-.79-.082-1.018-.371-.146-.186-.188-.784-.104-1.114Zm2.245-.887c.312.186.374.454.208.701-.125.165-.499.33-.77.33-.415 0-.852-.288-.852-.557 0-.536.853-.825 1.414-.474Z" fill="#fff"/></svg>