<svg width="112" height="30" viewBox="0 0 112 30" fill="none" xmlns="http://www.w3.org/2000/svg"><path d="M27.398 16.85h2.195c.159 1.49 1.54 2.47 3.426 2.47 1.808 0 3.109-.98 3.109-2.325 0-1.167-.785-1.866-2.642-2.346l-1.857-.469c-2.632-.667-3.853-1.96-3.853-4.056 0-2.597 2.155-4.38 5.213-4.38 3.03 0 5.105 1.783 5.174 4.38H36c-.13-1.502-1.311-2.41-3.04-2.41-1.727 0-2.91.918-2.91 2.253 0 1.064.756 1.69 2.603 2.17l1.579.406c2.94.73 4.16 1.97 4.16 4.171 0 2.816-2.134 4.578-5.53 4.578-3.179 0-5.324-1.72-5.463-4.443Zm14.366-2.076 4.22-4.703h2.523l-4.33 4.724 4.499 6.246h-2.493l-3.545-4.87-.894.929v3.941H39.6V5.994h2.145v8.78h.02Z" fill="#fff"/><path d="M50.21 25.13c-.168 0-.714-.022-.873-.053v-1.825c.159.042.516.042.695.042 1.003 0 1.53-.438 1.857-1.564 0-.021.189-.668.189-.678l-3.774-10.98h2.324l2.651 8.926h.03l2.652-8.927h2.264l-3.923 11.544c-.894 2.66-1.916 3.514-4.091 3.514ZM70.829 9.696 67.74 21.041h-2.105L61.77 5.994h2.314l2.652 11.784h.08l3.028-11.784h2.066l3.039 11.784h.08l2.65-11.784h2.315l-3.873 15.047h-2.096L70.928 9.696h-.1Zm12.349 9.75c1.5 0 2.672-1.084 2.672-2.513v-.866l-2.572.167c-1.282.094-2.007.688-2.007 1.627 0 .96.755 1.585 1.907 1.585Zm-.596 1.783c-2.045 0-3.475-1.334-3.475-3.305 0-1.92 1.4-3.098 3.883-3.243l2.86-.178v-.844c0-1.22-.785-1.95-2.096-1.95-1.241 0-2.016.625-2.205 1.606h-2.025c.119-1.982 1.728-3.442 4.31-3.442 2.532 0 4.15 1.408 4.15 3.608v7.56H85.93v-1.803h-.05c-.605 1.22-1.926 1.991-3.297 1.991Zm6.958-.188V5.994h2.145v15.047H89.54Zm3.819 0V5.994h2.145v15.047h-2.145Zm8.109-9.353c-1.5 0-2.553 1.199-2.662 2.857h5.224c-.05-1.679-1.063-2.857-2.562-2.857Zm2.552 6.131h2.036c-.298 2.003-2.106 3.431-4.499 3.431-3.069 0-4.926-2.18-4.926-5.641 0-3.442 1.887-5.736 4.837-5.736 2.9 0 4.707 2.148 4.707 5.475v.772h-7.379v.135c0 1.908 1.093 3.17 2.811 3.17 1.221 0 2.125-.646 2.413-1.606Zm3.839-10.344h2.155v2.596H112v1.784h-1.986v6.048c0 .949.397 1.376 1.271 1.376.218 0 .566-.02.705-.052v1.783c-.238.063-.715.104-1.192.104-2.115 0-2.939-.844-2.939-2.961v-6.298h-1.52V10.07h1.52V7.475Z" fill="#fff"/><path d="M18.829 16.34c-.151-2.86-2.358-4.523-4.993-4.27-1.686-.01-4.387-.023-6.067-.04l4.462-7.307c.14-.224-.175-.463-.337-.257l-6.807 7.971c-.577.642-.066 1.782.772 1.735.058 0 6.664-.052 7.982-.058.513.018 1.144-.072 1.626.147 1.599.625 1.961 2.906.655 4.059-2.648 2.742-6.15 6.355-8.815 9.095H7.3c-.603.678-1.684.56-2.223-.146-.734-.844-.053-1.918.281-2.782a80.754 80.754 0 0 1 2.006-4.522c.075-.143-.036-.336-.194-.331H5.194a.51.51 0 0 0-.311.105.569.569 0 0 0-.196.275c-.111.345-1.337 3.803-1.827 5.189-.977 2.937 2.296 5.86 4.905 4.416.388-.197.723-.514 1.028-.83.428-.446 7.265-7.6 7.265-7.6 1.362-1.432 2.873-2.596 2.767-4.846l.004-.002Z" fill="url(#a)"/><path d="M.001 13.66c.151 2.86 2.358 4.523 4.993 4.27 1.686.01 4.387.023 6.067.04l-4.462 7.307c-.14.224.175.463.337.257l6.806-7.971c.578-.642.067-1.782-.771-1.735-.058 0-6.664.052-7.982.058-.513-.018-1.144.072-1.626-.147-1.599-.625-1.961-2.906-.655-4.059 2.648-2.742 6.15-6.355 8.815-9.095h.007c.603-.678 1.684-.56 2.223.146.733.844.053 1.918-.281 2.782a80.802 80.802 0 0 1-2.006 4.522c-.075.143.036.336.194.331h1.976a.51.51 0 0 0 .311-.105.57.57 0 0 0 .196-.275c.111-.345 1.337-3.803 1.827-5.189.977-2.937-2.296-5.86-4.905-4.416-.388.197-.723.514-1.027.83-.429.446-7.266 7.6-7.266 7.6C1.41 10.243-.1 11.407.005 13.657l-.004.002Z" fill="url(#b)"/><defs><linearGradient id="a" x1="22.597" y1="-3.805" x2="8.132" y2="45.297" gradientUnits="userSpaceOnUse"><stop stop-color="#055DF5"/><stop offset="1" stop-color="#06F4EE"/></linearGradient><linearGradient id="b" x1="22.597" y1="-3.805" x2="8.132" y2="45.297" gradientUnits="userSpaceOnUse"><stop stop-color="#055DF5"/><stop offset="1" stop-color="#06F4EE"/></linearGradient></defs></svg>