<svg width="68" height="68" viewBox="0 0 68 68" fill="none" xmlns="http://www.w3.org/2000/svg"><circle cx="34" cy="34" r="34" fill="#fff" fill-opacity=".05"/><path fill-rule="evenodd" clip-rule="evenodd" d="M18 18v10.65c5.929 0 10.736-4.769 10.736-10.647L18 18Zm10.736 31.987v-21.44c0-.09 0-.18.002-.27.003-.09.005-.18.01-.27a9.01 9.01 0 0 1 .043-.532l.03-.265c.01-.088.023-.175.038-.263a8.109 8.109 0 0 1 .093-.517c.018-.085.036-.17.056-.256.02-.085.04-.17.063-.252l.068-.25c.023-.083.048-.165.076-.248.025-.082.052-.165.08-.245a6.72 6.72 0 0 1 .18-.482l.097-.238c.033-.08.069-.157.104-.235.035-.078.073-.155.108-.233l.116-.23.121-.225c.04-.075.083-.15.126-.222.043-.073.086-.148.131-.22l.136-.215.141-.213c.048-.07.096-.14.147-.207l.15-.206a9.837 9.837 0 0 1 .319-.397c.055-.065.108-.13.166-.193l.169-.19c.058-.062.116-.125.174-.185.058-.06.118-.122.179-.18.06-.06.12-.12.181-.177.06-.058.124-.115.187-.173.063-.057.126-.112.191-.167.066-.055.129-.11.194-.163.066-.055.131-.108.2-.16.068-.053.133-.105.204-.155a14.237 14.237 0 0 1 .416-.295 16.453 16.453 0 0 1 .431-.275c.073-.045.146-.088.221-.13.073-.043.15-.085.225-.125l.227-.12a9.761 9.761 0 0 1 .703-.325l.24-.098a9.97 9.97 0 0 1 .733-.257l.25-.075a9.436 9.436 0 0 1 .507-.13 9.128 9.128 0 0 1 1.044-.185c.087-.013.175-.023.266-.03.088-.01.179-.018.267-.026a9.767 9.767 0 0 1 .542-.027c.09-.003.181-.003.272-.003H50V28.56H39.36V50l-10.624-.013Z" fill="#fff" fill-opacity=".33"/></svg>