<svg width="54" height="54" viewBox="0 0 54 54" fill="none" xmlns="http://www.w3.org/2000/svg"><circle cx="27" cy="27" r="27" fill="#fff" fill-opacity=".1"/><path d="m38.782 16.168-1.026 1.026a14.516 14.516 0 0 1 0 19.592l1.026 1.025a15.982 15.982 0 0 0 0-21.667v.024Zm-21.564.089a14.516 14.516 0 0 1 19.592 0l1.025-1.025a15.982 15.982 0 0 0-21.667 0l1.05 1.025Zm-.961 20.539a14.516 14.516 0 0 1 0-19.582l-1.025-1.025a15.983 15.983 0 0 0 0 21.667l1.025-1.06Zm20.539.947a14.516 14.516 0 0 1-19.592 0l-1.025 1.025a15.982 15.982 0 0 0 21.666 0l-1.049-1.025Zm-3.319-14.161c-.205-2.14-2.05-2.858-4.385-3.076v-2.947h-1.805v2.892h-1.442V17.56h-1.791v2.967h-3.661v1.931s1.333-.024 1.313 0a.933.933 0 0 1 1.025.793v8.122a.63.63 0 0 1-.219.44.628.628 0 0 1-.465.158c.024.02-1.312 0-1.312 0l-.342 2.157h3.627v3.014h1.804v-2.97h1.443v2.957h1.808v-2.98c3.049-.186 5.175-.938 5.441-3.792.215-2.296-.864-3.322-2.59-3.735 1.049-.516 1.698-1.474 1.551-3.039Zm-2.53 6.419c0 2.242-3.841 1.986-5.065 1.986v-3.979c1.224.004 5.066-.348 5.066 1.993Zm-.837-5.606c0 2.051-3.206 1.802-4.224 1.802V22.58c1.018 0 4.224-.322 4.224 1.814Z" fill="#fff" fill-opacity=".55"/></svg>