<svg width="78" height="78" viewBox="0 0 78 78" fill="none" xmlns="http://www.w3.org/2000/svg"><circle cx="39" cy="39" r="39" fill="#fff" fill-opacity=".2"/><path fill-rule="evenodd" clip-rule="evenodd" d="M19 37.74c0-2.3 6.772-4.23 15.855-4.688v-4.11H23.767V22H54.75v7.04H43.663v4.04C52.484 33.583 59 35.483 59 37.74c0 2.266-6.567 4.172-15.44 4.666V57h-8.705V42.433c1.313.095 2.626.098 4.035.098C27.853 42.517 19 40.37 19 37.74Zm15.855-.88v-2.996c-8.9.582-13.563 2.937-14.197 3.876.725.978 6.736 2.444 18.342 2.444 11.71 0 17.617-1.466 18.342-2.444-.621-.837-5.116-3.178-13.679-3.835v5.4c-1.45.097-3.005.097-4.56 0-.753 0-1.506-.027-2.23-.052a56.17 56.17 0 0 0-1.914-.046V36.86h-.104Z" fill="#fff"/></svg>