<svg width="1432" height="1411" viewBox="0 0 1432 1411" fill="none" xmlns="http://www.w3.org/2000/svg"><path d="M1394.11 454.029v.001a514.469 514.469 0 0 1 8.97 357.097 514.482 514.482 0 0 1-225.7 276.863l-513.62 296.53a220.193 220.193 0 0 1-164.118 17.28 220.219 220.219 0 0 1-130.054-101.6 220.237 220.237 0 0 1 74.062-296.92l513.621-296.535.01-.005.008-.006a74.124 74.124 0 0 0-74.057-128.272l-.01.005-.009.005-261.115 150.755a220.23 220.23 0 0 1-167.12 22 220.243 220.243 0 0 1-155.734-269.739 220.238 220.238 0 0 1 102.613-133.73L911.931 53.267l.007-.005a73.998 73.998 0 0 0 33.705-45.517 74.003 74.003 0 0 0-109.886-81.376L331.191 217.68a368.477 368.477 0 0 0-165.385 435.392l.001.004c13.063 38.209 8.363 80.943-26.997 101.358-17.712 10.226-39.412 12.651-58.506 7.908-19.092-4.742-35.528-16.635-42.798-34.996v-.001a514.478 514.478 0 0 1-8.908-357.283A514.455 514.455 0 0 1 254.579 93.191l513.62-296.539a220.235 220.235 0 0 1 294.171 84.32 220.214 220.214 0 0 1 22.96 163.43 220.233 220.233 0 0 1-97.023 133.49L474.916 474.299l-.01.005-.009.006a74.127 74.127 0 0 0 74.058 128.272l.01-.005.009-.006 261.114-150.754a220.239 220.239 0 0 1 322.852 247.739 220.222 220.222 0 0 1-102.61 133.73L519.912 1127.98h-.007a74.008 74.008 0 0 0-25.352 101.54 74.002 74.002 0 0 0 45.518 33.7 73.973 73.973 0 0 0 56.013-8.35h.006l504.56-291.308a368.432 368.432 0 0 0 160.2-188.252 368.435 368.435 0 0 0 5.19-247.139v-.004c-13.07-38.21-8.37-80.944 26.99-101.359 17.72-10.226 39.36-12.618 58.39-7.842 19.04 4.775 35.42 16.701 42.69 35.063Z" stroke="url(#a)"/><defs><linearGradient id="a" x1="384.829" y1="17.413" x2="934.5" y2="909" gradientUnits="userSpaceOnUse"><stop stop-color="#fff" stop-opacity=".18"/><stop offset="1" stop-color="#fff" stop-opacity="0"/></linearGradient></defs></svg>