<svg width="398" height="601" viewBox="0 0 398 601" fill="none" xmlns="http://www.w3.org/2000/svg"><g clip-path="url(#a)" filter="url(#b)"><path d="M44.101 36.5c0-6.826 5.548-12.36 12.392-12.36h285.01c6.844 0 12.392 5.534 12.392 12.36v487.167c0 6.825-5.548 12.359-12.392 12.359H56.493c-6.844 0-12.392-5.534-12.392-12.359V36.5Z" fill="#151A22"/><mask id="c" style="mask-type:alpha" maskUnits="userSpaceOnUse" x="44" y="24" width="310" height="513"><path d="M44.101 36.5c0-6.826 5.548-12.36 12.392-12.36h285.01c6.844 0 12.392 5.534 12.392 12.36v487.167c0 6.825-5.548 12.359-12.392 12.359H56.493c-6.844 0-12.392-5.534-12.392-12.359V36.5Z" fill="#121212"/></mask><g mask="url(#c)"><path d="M210.989 110.498c-1.6-28.799-24.918-45.541-52.764-42.995-17.82-.09-46.365-.225-64.117-.406l47.153-73.55c1.487-2.253-1.847-4.664-3.56-2.591L65.766 71.199c-6.106 6.467-.699 17.937 8.155 17.463.609 0 70.427-.518 84.35-.585 5.429.18 12.098-.721 17.189 1.487 16.897 6.287 20.727 29.249 6.917 40.854a40028.858 40028.858 0 0 1-93.158 91.555h-.068c-6.376 6.828-17.798 5.633-23.498-1.465-7.75-8.495-.563-19.311 2.974-28.009 6.624-15.369 13.608-30.579 21.2-45.519.788-1.442-.383-3.38-2.05-3.335H66.892c-1.171 0-2.32.361-3.289 1.059a5.744 5.744 0 0 0-2.073 2.772c-1.171 3.47-14.125 38.285-19.307 52.233-10.318 29.565 24.264 58.994 51.84 44.46 4.1-1.983 7.637-5.183 10.859-8.36 4.528-4.485 76.779-76.503 76.779-76.503 14.396-14.422 30.369-26.139 29.243-48.786l.045-.022Z" fill="url(#d)"/><path d="M12.011 83.502c1.6 28.798 24.918 45.541 52.764 42.995 17.82.09 46.365.225 64.117.405l-47.153 73.551c-1.487 2.253 1.847 4.665 3.56 2.591l71.935-80.243c6.106-6.467.699-17.937-8.155-17.463-.609 0-70.427.518-84.35.585-5.43-.18-12.098.722-17.19-1.487-16.896-6.287-20.726-29.249-6.916-40.854a40021.593 40021.593 0 0 1 93.158-91.555h.068c6.376-6.828 17.798-5.633 23.498 1.465 7.75 8.495.563 19.311-2.974 28.01-6.624 15.367-13.608 30.578-21.2 45.518-.789 1.442.383 3.38 2.05 3.335h20.885c1.171 0 2.32-.36 3.289-1.06a5.74 5.74 0 0 0 2.073-2.77c1.171-3.471 14.125-38.286 19.307-52.234 10.318-29.565-24.264-58.994-51.839-44.46-4.101 1.983-7.638 5.183-10.86 8.36-4.528 4.484-76.779 76.503-76.779 76.503-14.396 14.421-30.37 26.14-29.243 48.786l-.045.022Z" fill="url(#e)"/></g><path d="M155.667 246.329h4.107c3.46 0 5.51 2.124 5.51 5.785 0 3.669-2.041 5.826-5.51 5.826h-4.107v-11.611Zm1.807 1.552v8.497h2.131c2.468 0 3.831-1.505 3.831-4.248 0-2.736-1.372-4.249-3.831-4.249h-2.131Zm12.295 8.828c1.219 0 2.171-.838 2.171-1.94v-.668l-2.09.129c-1.04.073-1.63.531-1.63 1.255 0 .741.613 1.224 1.549 1.224Zm-.483 1.376c-1.663 0-2.825-1.03-2.825-2.551 0-1.48 1.138-2.39 3.155-2.503l2.324-.136v-.652c0-.941-.637-1.505-1.703-1.505-1.008 0-1.638.483-1.791 1.239H166.8c.097-1.528 1.405-2.655 3.502-2.655 2.057 0 3.373 1.087 3.373 2.784v5.834h-1.671v-1.393h-.041c-.491.941-1.564 1.538-2.677 1.538Zm5.929-6.213c0-1.512 1.34-2.55 3.324-2.55 1.888 0 3.211 1.054 3.268 2.558h-1.638c-.081-.764-.702-1.239-1.678-1.239-.944 0-1.574.459-1.574 1.127 0 .523.419.877 1.299 1.094l1.428.331c1.71.409 2.356 1.053 2.356 2.3 0 1.545-1.444 2.607-3.526 2.607-2.008 0-3.339-1.038-3.477-2.59h1.727c.136.813.766 1.263 1.831 1.263 1.049 0 1.694-.435 1.694-1.119 0-.539-.323-.836-1.21-1.062l-1.517-.369c-1.532-.371-2.307-1.167-2.307-2.351Zm8.205 6.068v-11.611h1.726v4.562h.04c.468-.99 1.397-1.561 2.687-1.561 1.863 0 2.976 1.239 2.976 3.154v5.456h-1.75v-5.118c0-1.247-.629-1.995-1.856-1.995-1.29 0-2.08.884-2.08 2.22v4.893h-1.743Zm13.634.145c-1.243 0-2.203-.604-2.727-1.585h-.033v1.44h-1.693v-11.611h1.742v4.586h.04c.508-.981 1.477-1.578 2.679-1.578 2.137 0 3.534 1.691 3.534 4.371 0 2.687-1.388 4.377-3.542 4.377Zm-.468-7.283c-1.323 0-2.251 1.159-2.251 2.906 0 1.762.928 2.904 2.251 2.904 1.371 0 2.218-1.11 2.218-2.904 0-1.779-.847-2.906-2.218-2.906Zm9.019 7.298c-2.428 0-4.025-1.665-4.025-4.392 0-2.721 1.605-4.386 4.025-4.386 2.42 0 4.026 1.665 4.026 4.386 0 2.727-1.597 4.392-4.026 4.392Zm0-1.431c1.372 0 2.251-1.079 2.251-2.961 0-1.876-.887-2.954-2.251-2.954-1.363 0-2.25 1.078-2.25 2.954 0 1.882.887 2.961 2.25 2.961Zm8.343.04c1.217 0 2.169-.838 2.169-1.94v-.668l-2.089.129c-1.041.073-1.629.531-1.629 1.255 0 .741.612 1.224 1.549 1.224Zm-.485 1.376c-1.662 0-2.824-1.03-2.824-2.551 0-1.48 1.138-2.39 3.155-2.503l2.323-.136v-.652c0-.941-.637-1.505-1.702-1.505-1.008 0-1.637.483-1.791 1.239h-1.645c.096-1.528 1.403-2.655 3.5-2.655 2.058 0 3.373 1.087 3.373 2.784v5.834h-1.67v-1.393h-.04c-.493.941-1.565 1.538-2.679 1.538Zm6.083-.145v-8.466h1.662v1.441h.04c.282-.989 1.041-1.578 2.041-1.578.251 0 .469.042.598.065v1.617c-.137-.055-.444-.095-.783-.095-1.121 0-1.815.747-1.815 1.946v5.07h-1.743Zm8.237.145c-2.146 0-3.566-1.707-3.566-4.377 0-2.672 1.42-4.371 3.55-4.371 1.218 0 2.187.612 2.663 1.545h.032v-4.553h1.75v11.611h-1.695v-1.44h-.032c-.499.965-1.468 1.585-2.702 1.585Zm.46-7.283c-1.38 0-2.243 1.127-2.243 2.906 0 1.785.863 2.904 2.243 2.904 1.339 0 2.234-1.135 2.234-2.904 0-1.754-.895-2.906-2.234-2.906Zm-95.607-4.677-5.414 5.457a1.768 1.768 0 0 0-.509 1.239v5.903c0 .338.133.663.37.902.238.24.559.373.895.373h3.228c.335 0 .657-.133.894-.373.237-.239.371-.564.371-.902v-1.819a.422.422 0 0 1 .121-.296.459.459 0 0 1 .135-.091.438.438 0 0 1 .159-.032h2.111c.054 0 .108.012.159.032a.43.43 0 0 1 .256.387v1.819c0 .338.134.663.371.902.237.24.559.373.894.373h3.228c.336 0 .657-.133.895-.373.237-.239.37-.564.37-.902v-5.903a1.768 1.768 0 0 0-.509-1.239l-5.417-5.457a1.836 1.836 0 0 0-2.608 0Z" fill="#fff"/><path d="M155.167 299.033h1.461c.137 1.255 1.331 2.084 2.992 2.084 1.574 0 2.719-.829 2.719-1.971 0-.982-.685-1.585-2.251-1.988l-1.492-.386c-2.146-.547-3.098-1.488-3.098-3.065 0-1.931 1.694-3.284 4.114-3.284 2.316 0 3.994 1.368 4.058 3.316h-1.452c-.129-1.248-1.138-2.012-2.655-2.012-1.507 0-2.556.78-2.556 1.915 0 .877.645 1.4 2.226 1.81l1.219.322c2.412.603 3.388 1.529 3.388 3.195 0 2.123-1.678 3.452-4.357 3.452-2.468 0-4.178-1.336-4.316-3.388Zm13.514-4.104c-1.316 0-2.235 1.007-2.324 2.398h4.558c-.033-1.4-.912-2.398-2.234-2.398Zm2.201 4.901h1.38c-.242 1.464-1.662 2.543-3.493 2.543-2.405 0-3.865-1.667-3.865-4.297 0-2.6 1.485-4.362 3.8-4.362 2.267 0 3.663 1.642 3.663 4.176v.532h-6.018v.08c0 1.602.944 2.655 2.453 2.655 1.064 0 1.847-.538 2.08-1.327Zm2.905 2.397v-8.368h1.323v1.336h.032c.469-.901 1.364-1.481 2.663-1.481 1.839 0 2.904 1.183 2.904 3.083v5.43h-1.403v-5.181c0-1.353-.639-2.092-1.929-2.092-1.323 0-2.187.933-2.187 2.349v4.924h-1.403Zm11.892.146c-2.139 0-3.59-1.707-3.59-4.329 0-2.623 1.443-4.33 3.557-4.33 1.202 0 2.171.588 2.67 1.505h.033v-4.602h1.404v11.61h-1.34v-1.416h-.023c-.541.965-1.502 1.562-2.711 1.562Zm.265-7.427c-1.483 0-2.419 1.207-2.419 3.098 0 1.898.936 3.097 2.419 3.097 1.445 0 2.413-1.223 2.413-3.097 0-1.867-.968-3.098-2.413-3.098Z" fill="#5E6F8D"/><mask id="f" style="mask-type:luminance" maskUnits="userSpaceOnUse" x="125" y="288" width="18" height="18"><path d="M142.203 288.838H125.68v16.479h16.523v-16.479Z" fill="#fff"/></mask><g mask="url(#f)"><path fill-rule="evenodd" clip-rule="evenodd" d="m137.5 293.529-5.453 3.775-5.703-1.896a.969.969 0 0 1 .009-1.84l14.581-4.683a.97.97 0 0 1 1.222 1.219l-4.696 14.542a.97.97 0 0 1-1.845.009l-1.91-5.715 3.795-5.411Z" fill="#5E6F8D"/></g><path d="M165.018 346.515h-1.452v-5.286h-6.39v5.286h-1.452v-11.61h1.452v5.021h6.39v-5.021h1.452v11.61Zm2.114 0v-8.368h1.403v8.368h-1.403Zm.701-9.776a.876.876 0 0 1-.871-.869c0-.483.395-.869.871-.869.484 0 .88.386.88.869a.879.879 0 0 1-.88.869Zm2.452 3.717c0-1.431 1.284-2.454 3.131-2.454 1.734 0 3.01 1.03 3.074 2.446h-1.34c-.097-.804-.749-1.303-1.782-1.303-1.024 0-1.703.507-1.703 1.239 0 .579.444.965 1.396 1.207l1.299.313c1.694.428 2.307 1.038 2.307 2.27 0 1.457-1.379 2.487-3.339 2.487-1.841 0-3.123-.998-3.268-2.479h1.404c.153.869.814 1.335 1.952 1.335 1.137 0 1.84-.483 1.84-1.239 0-.595-.347-.916-1.291-1.167l-1.477-.378c-1.477-.378-2.203-1.134-2.203-2.277Zm8.295-4.329h1.403v2.02h1.63v1.15h-1.63v4.973c0 .764.322 1.11 1.041 1.11.161 0 .483-.023.58-.04v1.175c-.169.041-.556.064-.887.064-1.54 0-2.137-.627-2.137-2.236v-5.046h-1.251v-1.15h1.251v-2.02Zm7.768 10.534c-2.323 0-3.889-1.667-3.889-4.329 0-2.672 1.566-4.33 3.889-4.33 2.315 0 3.881 1.658 3.881 4.33 0 2.662-1.566 4.329-3.881 4.329Zm0-1.232c1.485 0 2.453-1.126 2.453-3.097 0-1.973-.968-3.098-2.453-3.098-1.485 0-2.461 1.125-2.461 3.098 0 1.971.976 3.097 2.461 3.097Zm5.301 1.086v-8.368h1.323v1.368h.032c.274-.925 1.049-1.513 2.033-1.513.242 0 .452.04.565.056v1.36c-.113-.04-.412-.08-.751-.08-1.088 0-1.799.78-1.799 1.964v5.213h-1.403Zm5.792 3.13c-.169 0-.451-.016-.605-.048v-1.174c.154.032.372.04.549.04.782 0 1.218-.379 1.541-1.352l.193-.587-3.098-8.377h1.5l2.324 6.969h.025l2.323-6.969h1.476l-3.299 8.955c-.718 1.956-1.412 2.543-2.929 2.543Zm-60.471-15.489h-6.057c-2.632 0-4.2 1.564-4.2 4.189v6.041c0 2.625 1.568 4.189 4.2 4.189h6.057c2.631 0 4.2-1.564 4.2-4.189v-6.041c0-2.625-1.569-4.189-4.2-4.189Zm-4.496 9.3-1.626 1.623a.539.539 0 0 1-.384.158.527.527 0 0 1-.383-.158l-.542-.541a.53.53 0 0 1 0-.764.546.546 0 0 1 .766 0l.159.158 1.244-1.24a.546.546 0 0 1 .766 0c.21.209.21.555 0 .764Zm0-5.046-1.626 1.622a.539.539 0 0 1-.384.158.527.527 0 0 1-.383-.158l-.542-.541a.53.53 0 0 1 0-.764.546.546 0 0 1 .766 0l.159.158 1.244-1.24a.546.546 0 0 1 .766 0c.21.209.21.556 0 .765Zm5.486 6.286h-3.795a.545.545 0 0 1-.542-.54c0-.296.246-.541.542-.541h3.795a.541.541 0 1 1 0 1.081Zm0-5.046h-3.795a.545.545 0 0 1-.542-.541c0-.296.246-.541.542-.541h3.795a.541.541 0 1 1 0 1.082Zm17.207 47.958h1.461c.137 1.256 1.331 2.085 2.992 2.085 1.574 0 2.719-.829 2.719-1.971 0-.982-.685-1.585-2.251-1.988l-1.492-.386c-2.146-.547-3.098-1.489-3.098-3.066 0-1.931 1.694-3.283 4.114-3.283 2.316 0 3.994 1.368 4.058 3.315h-1.452c-.129-1.247-1.138-2.011-2.655-2.011-1.507 0-2.556.78-2.556 1.915 0 .877.645 1.399 2.226 1.81l1.219.322c2.412.603 3.388 1.529 3.388 3.195 0 2.123-1.678 3.452-4.357 3.452-2.468 0-4.178-1.336-4.316-3.389Zm13.514-4.103c-1.316 0-2.235 1.006-2.324 2.398h4.558c-.033-1.4-.912-2.398-2.234-2.398Zm2.201 4.901h1.38c-.242 1.464-1.662 2.543-3.493 2.543-2.405 0-3.865-1.667-3.865-4.297 0-2.6 1.485-4.362 3.8-4.362 2.267 0 3.663 1.641 3.663 4.176v.532h-6.018v.08c0 1.602.944 2.655 2.452 2.655 1.065 0 1.848-.538 2.081-1.327Zm3.356-7.991h1.405v2.02h1.629v1.15h-1.629v4.973c0 .764.322 1.11 1.041 1.11.161 0 .483-.023.58-.04v1.175c-.169.04-.557.064-.887.064-1.541 0-2.139-.627-2.139-2.236v-5.046h-1.25v-1.15h1.25v-2.02Zm4.987 0h1.403v2.02h1.63v1.15h-1.63v4.973c0 .764.323 1.11 1.041 1.11.161 0 .485-.023.581-.04v1.175c-.17.04-.557.064-.887.064-1.541 0-2.138-.627-2.138-2.236v-5.046h-1.251v-1.15h1.251v-2.02Zm4.606 10.388v-8.368h1.404v8.368h-1.404Zm.702-9.776a.877.877 0 0 1-.872-.869c0-.483.396-.87.872-.87.484 0 .88.387.88.87a.879.879 0 0 1-.88.869Zm2.598 9.776v-8.368h1.323v1.336h.032c.468-.901 1.364-1.481 2.662-1.481 1.84 0 2.905 1.183 2.905 3.082v5.431h-1.404v-5.181c0-1.353-.638-2.092-1.929-2.092-1.322 0-2.186.933-2.186 2.349v4.924h-1.403Zm12.125-1.167c1.46 0 2.436-1.207 2.436-3.049 0-1.843-.976-3.065-2.436-3.065-1.443 0-2.387 1.19-2.387 3.065s.944 3.049 2.387 3.049Zm.049 4.321c-1.848 0-3.308-1.037-3.542-2.462h1.445c.273.765 1.104 1.271 2.154 1.271 1.452 0 2.33-.836 2.33-2.083v-1.32h-.032c-.516.909-1.508 1.504-2.686 1.504-2.138 0-3.542-1.681-3.542-4.28 0-2.624 1.404-4.297 3.574-4.297 1.186 0 2.17.58 2.727 1.553h.024v-1.408h1.34v8.199c0 1.995-1.477 3.323-3.792 3.323Zm5.478-9.213c0-1.432 1.283-2.454 3.13-2.454 1.734 0 3.009 1.03 3.073 2.446h-1.339c-.096-.805-.75-1.303-1.783-1.303-1.024 0-1.701.507-1.701 1.239 0 .579.443.965 1.395 1.207l1.299.313c1.694.428 2.307 1.038 2.307 2.27 0 1.457-1.38 2.487-3.34 2.487-1.839 0-3.123-.999-3.267-2.48h1.403c.154.87.815 1.336 1.953 1.336 1.137 0 1.839-.483 1.839-1.239 0-.595-.347-.916-1.291-1.167l-1.476-.378c-1.476-.378-2.202-1.134-2.202-2.277Z" fill="#5E6F8D"/><mask id="g" style="mask-type:luminance" maskUnits="userSpaceOnUse" x="125" y="377" width="18" height="17"><path d="M142.203 377.414H125.68v16.479h16.523v-16.479Z" fill="#fff"/></mask><g mask="url(#g)"><path d="M140.762 383.511a2.015 2.015 0 0 1-1.458-.98 2.003 2.003 0 0 1-.137-1.749.947.947 0 0 0-.284-1.066 7.592 7.592 0 0 0-2.272-1.313.954.954 0 0 0-1.079.298 2.025 2.025 0 0 1-2.475.57 2.016 2.016 0 0 1-.706-.57.952.952 0 0 0-1.079-.298 7.653 7.653 0 0 0-2.117 1.184.954.954 0 0 0-.299 1.097 2 2 0 0 1-.142 1.801 2 2 0 0 1-.654.662 2.025 2.025 0 0 1-.882.297.955.955 0 0 0-.837.768 7.328 7.328 0 0 0-.046 2.652.948.948 0 0 0 .841.798 2.016 2.016 0 0 1 1.824 1.906c.015.321-.048.64-.182.931a.94.94 0 0 0 .263 1.123 7.692 7.692 0 0 0 2.252 1.293.946.946 0 0 0 1.099-.345 1.997 1.997 0 0 1 1.653-.866 2.028 2.028 0 0 1 1.621.814.955.955 0 0 0 1.115.314 7.741 7.741 0 0 0 2.065-1.231.946.946 0 0 0 .279-1.086 2.005 2.005 0 0 1 .749-2.46c.26-.171.557-.279.867-.316a.958.958 0 0 0 .811-.783c.083-.429.128-.865.134-1.303 0-.461-.043-.921-.129-1.375a.943.943 0 0 0-.795-.767Zm-4.239 2.142a2.569 2.569 0 0 1-1.594 2.38 2.59 2.59 0 0 1-2.813-.559 2.573 2.573 0 0 1-.56-2.806 2.583 2.583 0 0 1 4.967.985Z" fill="#5E6F8D"/></g><path d="M148.868 102.268h2.54c.184 1.644 1.782 2.725 3.966 2.725 2.093 0 3.599-1.081 3.599-2.564 0-1.288-.908-2.058-3.058-2.587l-2.15-.517c-3.046-.736-4.46-2.161-4.46-4.472 0-2.862 2.494-4.828 6.035-4.828 3.506 0 5.909 1.965 5.989 4.828h-2.506c-.149-1.655-1.517-2.656-3.518-2.656-2 0-3.368 1.012-3.368 2.484 0 1.172.874 1.862 3.012 2.39l1.828.45c3.403.804 4.817 2.172 4.817 4.598 0 3.103-2.472 5.046-6.403 5.046-3.679 0-6.162-1.897-6.323-4.897Zm16.629-2.288 4.886-5.184h2.92l-5.012 5.207 5.208 6.886h-2.886l-4.104-5.368-1.035 1.023v4.345h-2.483V90.301h2.483v9.68h.023Z" fill="#fff"/><path d="M175.275 111.396c-.195 0-.827-.023-1.011-.058v-2.011c.184.046.598.046.805.046 1.161 0 1.77-.483 2.149-1.725 0-.023.219-.736.219-.747l-4.369-12.105h2.69l3.07 9.84h.034l3.07-9.84h2.621l-4.541 12.726c-1.035 2.931-2.219 3.874-4.737 3.874Zm23.868-17.014-3.576 12.507h-2.437l-4.472-16.588h2.679l3.069 12.99h.092l3.507-12.99h2.391l3.518 12.99h.091l3.07-12.99h2.678l-4.483 16.588h-2.426l-3.586-12.507h-.115Zm14.296 10.748c1.736 0 3.092-1.195 3.092-2.77v-.954l-2.977.184c-1.483.103-2.323.758-2.323 1.793 0 1.058.874 1.747 2.208 1.747Zm-.69 1.966c-2.368 0-4.024-1.471-4.024-3.644 0-2.115 1.621-3.414 4.495-3.575l3.311-.196v-.93c0-1.346-.908-2.15-2.426-2.15-1.437 0-2.333.69-2.552 1.77h-2.345c.138-2.184 2-3.794 4.989-3.794 2.932 0 4.806 1.552 4.806 3.978v8.334h-2.38v-1.988h-.057c-.702 1.345-2.231 2.195-3.817 2.195Zm8.054-.207V90.301h2.483v16.588h-2.483Zm4.42 0V90.301h2.484v16.588h-2.484Zm9.388-10.312c-1.736 0-2.955 1.323-3.081 3.15h6.047c-.058-1.85-1.23-3.15-2.966-3.15Zm2.954 6.76h2.357c-.345 2.207-2.437 3.782-5.208 3.782-3.552 0-5.702-2.402-5.702-6.219 0-3.794 2.184-6.323 5.599-6.323 3.357 0 5.449 2.368 5.449 6.036v.85h-8.542v.15c0 2.103 1.265 3.494 3.254 3.494 1.414 0 2.46-.712 2.793-1.77Zm4.444-11.404h2.495v2.862h2.299v1.966h-2.299v6.668c0 1.046.46 1.518 1.471 1.518.253 0 .656-.023.816-.058v1.966c-.275.069-.827.115-1.379.115-2.449 0-3.403-.931-3.403-3.265v-6.944h-1.759v-1.965h1.759v-2.863Z" fill="#fff"/><path d="M138.796 102.164c-.175-3.154-2.729-4.987-5.779-4.709-1.952-.01-5.079-.024-7.023-.044l5.165-8.055c.163-.247-.203-.51-.39-.284l-7.88 8.788c-.668.708-.076 1.964.894 1.913.066 0 7.714-.057 9.239-.065.595.02 1.325-.079 1.883.163 1.851.689 2.27 3.203.757 4.474a4417.186 4417.186 0 0 1-10.204 10.027h-.007c-.699.748-1.95.617-2.574-.161-.849-.93-.062-2.114.326-3.067a86.3 86.3 0 0 1 2.322-4.985c.086-.158-.042-.37-.225-.365h-2.287a.626.626 0 0 0-.588.419c-.128.38-1.547 4.193-2.115 5.721-1.13 3.237 2.658 6.46 5.679 4.869.449-.218.836-.568 1.189-.916.496-.491 8.41-8.378 8.41-8.378 1.577-1.579 3.327-2.863 3.203-5.343l.005-.002Z" fill="url(#h)"/><path d="M117.001 99.207c.175 3.154 2.73 4.988 5.78 4.709 1.952.01 5.078.025 7.023.044l-5.165 8.055c-.163.247.202.511.39.284l7.879-8.788c.669-.708.077-1.964-.893-1.912-.067 0-7.714.056-9.239.064-.595-.02-1.325.079-1.883-.163-1.851-.689-2.27-3.203-.758-4.474 3.065-3.023 7.12-7.006 10.204-10.026h.008c.698-.748 1.949-.618 2.574.16.849.93.061 2.115-.326 3.067a87.72 87.72 0 0 1-2.322 4.985c-.087.158.042.37.224.365h2.288a.63.63 0 0 0 .587-.42c.129-.38 1.548-4.192 2.115-5.72 1.13-3.237-2.658-6.46-5.678-4.868-.449.217-.837.567-1.19.915-.496.491-8.41 8.378-8.41 8.378-1.577 1.58-3.326 2.863-3.203 5.343l-.005.002Z" fill="url(#i)"/></g><defs><linearGradient id="d" x1="231.5" y1="97" x2="111.979" y2="288.987" gradientUnits="userSpaceOnUse"><stop stop-color="#055DF5" stop-opacity=".22"/><stop offset="1" stop-color="#06F4EE" stop-opacity="0"/></linearGradient><linearGradient id="e" x1="231.5" y1="97" x2="111.979" y2="288.987" gradientUnits="userSpaceOnUse"><stop stop-color="#055DF5" stop-opacity=".22"/><stop offset="1" stop-color="#06F4EE" stop-opacity="0"/></linearGradient><linearGradient id="h" x1="143.158" y1="79.954" x2="127.858" y2="134.491" gradientUnits="userSpaceOnUse"><stop stop-color="#055DF5"/><stop offset="1" stop-color="#06F4EE"/></linearGradient><linearGradient id="i" x1="143.158" y1="79.954" x2="127.858" y2="134.491" gradientUnits="userSpaceOnUse"><stop stop-color="#055DF5"/><stop offset="1" stop-color="#06F4EE"/></linearGradient><clipPath id="a"><path fill="#fff" transform="translate(44.101 24.14)" d="M0 0h309.794v511.886H0z"/></clipPath><filter id="b" x=".101" y=".141" width="397.794" height="599.886" filterUnits="userSpaceOnUse" color-interpolation-filters="sRGB"><feFlood flood-opacity="0" result="BackgroundImageFix"/><feColorMatrix in="SourceAlpha" values="0 0 0 0 0 0 0 0 0 0 0 0 0 0 0 0 0 0 127 0" result="hardAlpha"/><feOffset dy="20"/><feGaussianBlur stdDeviation="22"/><feComposite in2="hardAlpha" operator="out"/><feColorMatrix values="0 0 0 0 0 0 0 0 0 0 0 0 0 0 0 0 0 0 0.25 0"/><feBlend in2="BackgroundImageFix" result="effect1_dropShadow_130_338"/><feBlend in="SourceGraphic" in2="effect1_dropShadow_130_338" result="shape"/></filter></defs></svg>