<svg width="54" height="54" viewBox="0 0 54 54" fill="none" xmlns="http://www.w3.org/2000/svg"><circle cx="27" cy="27" r="27" fill="#fff" fill-opacity=".05"/><path d="M33.098 30.213c0-3.213-1.94-4.315-5.82-4.774-2.773-.367-3.327-1.101-3.327-2.387 0-1.285.924-2.111 2.772-2.111 1.663 0 2.587.55 3.049 1.928.092.275.37.459.647.459h1.478a.63.63 0 0 0 .647-.643v-.092a4.605 4.605 0 0 0-4.158-3.764v-2.203c0-.367-.277-.643-.74-.735h-1.385c-.37 0-.647.276-.74.735v2.111c-2.771.368-4.527 2.204-4.527 4.5 0 3.029 1.848 4.222 5.729 4.681 2.587.46 3.419 1.01 3.419 2.479s-1.294 2.479-3.05 2.479c-2.402 0-3.234-1.01-3.51-2.387-.093-.367-.37-.551-.647-.551h-1.571a.63.63 0 0 0-.647.643v.091c.37 2.295 1.848 3.948 4.897 4.407v2.203c0 .367.277.643.74.735h1.385c.37 0 .647-.276.74-.735V35.08c2.771-.46 4.62-2.387 4.62-4.866Z" fill="#fff" fill-opacity=".33"/><path d="M22.288 39.853c-7.207-2.57-10.903-10.558-8.223-17.627 1.386-3.856 4.435-6.793 8.223-8.17.37-.184.554-.46.554-.919v-1.285c0-.367-.185-.643-.554-.734-.093 0-.277 0-.37.091-8.777 2.755-13.582 12.027-10.81 20.749 1.663 5.14 5.636 9.088 10.81 10.74.37.184.74 0 .832-.367.092-.091.092-.183.092-.367V40.68c0-.275-.277-.643-.554-.826Zm9.794-28.644c-.37-.183-.74 0-.832.368-.092.091-.092.183-.092.367v1.285c0 .367.277.735.554.918 7.207 2.57 10.903 10.558 8.223 17.627-1.386 3.856-4.435 6.794-8.223 8.17-.37.184-.554.46-.554.919v1.285c0 .367.184.643.554.734.093 0 .277 0 .37-.091 8.777-2.755 13.582-12.027 10.81-20.748-1.663-5.233-5.729-9.181-10.81-10.834Z" fill="#fff" fill-opacity=".33"/></svg>