<svg width="78" height="78" viewBox="0 0 78 78" fill="none" xmlns="http://www.w3.org/2000/svg">
<circle cx="39" cy="39" r="39" fill="white" fill-opacity="0.2"/>
<path fill-rule="evenodd" clip-rule="evenodd" d="M19 37.7402C19 35.4391 25.7723 33.5095 34.8549 33.0523V28.9414H23.7668V22H54.7513V29.0391H43.6632V33.0802C52.484 33.5834 59 35.4831 59 37.7402C59 40.0062 52.4329 41.9119 43.5595 42.4061V57H34.8548V42.4329C36.168 42.5282 37.4811 42.5306 38.8902 42.5307C27.8531 42.5165 19 40.3712 19 37.7402ZM34.8549 36.8604V33.8635C25.9547 34.4456 21.2915 36.8011 20.658 37.7402C21.3834 38.7179 27.3938 40.1844 39 40.1844C50.7098 40.1844 56.6166 38.7179 57.342 37.7402C56.721 36.9032 52.2264 34.5615 43.6633 33.9049V39.3045C42.2125 39.4023 40.6581 39.4023 39.1037 39.3045C38.3504 39.3045 37.5971 39.2781 36.8729 39.2528C36.2023 39.2293 35.5565 39.2067 34.9587 39.2067V36.8604H34.8549Z" fill="white"/>
</svg>
