<svg width="54" height="54" viewBox="0 0 54 54" fill="none" xmlns="http://www.w3.org/2000/svg">
<circle cx="27" cy="27" r="27" fill="white" fill-opacity="0.05"/>
<path fill-rule="evenodd" clip-rule="evenodd" d="M13.5662 10.7096C17.4415 15.3801 23.4124 22.6416 23.7118 23.0377C23.9613 23.3677 23.8615 23.6813 23.4457 23.9123C23.2129 24.0444 22.7305 24.1764 22.4977 24.1764C22.2316 24.1764 21.9156 24.0444 21.6993 23.8298C21.5497 23.6813 20.901 22.7406 19.4374 20.4796C18.323 18.7468 17.375 17.311 17.3584 17.2945C17.2918 17.2615 17.2918 17.2615 19.3209 20.8592C20.6016 23.1202 21.0174 23.9288 21.0174 24.0279C21.0174 24.2424 20.9509 24.3579 20.6848 24.655C20.2357 25.1501 20.0361 25.7112 19.8864 26.8829C19.7201 28.1867 19.271 29.1109 17.9904 30.6787C17.2419 31.6029 17.1255 31.7679 16.9426 32.1475C16.7097 32.6096 16.6432 32.8737 16.6099 33.4678C16.5766 34.0949 16.6432 34.491 16.8261 35.0851C16.9924 35.6132 17.1754 35.9598 17.6245 36.6364C18.007 37.2305 18.2399 37.6761 18.2399 37.8412C18.2399 37.9732 18.2731 37.9732 18.8719 37.8412C20.3022 37.5111 21.4831 36.95 22.1318 36.2568C22.5309 35.8278 22.6307 35.5967 22.6307 35.0026C22.6307 34.623 22.6141 34.5405 22.5143 34.3095C22.348 33.9464 22.032 33.6493 21.3501 33.1872C20.4519 32.5766 20.0694 32.0815 19.9696 31.4214C19.8864 30.8602 19.9862 30.4807 20.4852 29.441C21.0008 28.3682 21.1338 27.9226 21.217 26.8334C21.2669 26.1403 21.3501 25.8597 21.5497 25.6452C21.7659 25.4141 21.9488 25.3316 22.4644 25.2656C23.3127 25.1501 23.8615 24.9355 24.294 24.523C24.6765 24.1764 24.8428 23.8298 24.8594 23.3182L24.8761 22.9386L24.6599 22.7076C23.8781 21.8164 13.0506 10 13.0007 10C12.9906 10 13.0859 10.117 13.2337 10.2983C13.3278 10.4139 13.4433 10.5555 13.5662 10.7096ZM18.6723 34.1774C18.8552 33.8639 18.7555 33.4678 18.4561 33.2697C18.1733 33.0882 17.7409 33.1707 17.7409 33.4183C17.7409 33.4843 17.7742 33.5503 17.874 33.5833C18.0236 33.6658 18.0403 33.7483 17.9238 33.9299C17.8074 34.1114 17.8074 34.2764 17.9571 34.392C18.19 34.5735 18.506 34.4745 18.6723 34.1774Z" fill="white" fill-opacity="0.33"/>
<path d="M23.978 17.278C23.6287 17.2285 23.6121 17.212 23.7784 17.1955C24.0944 17.146 24.8262 17.212 25.3418 17.3275C26.5393 17.6081 27.6204 18.3342 28.768 19.605L29.0674 19.9515L29.4998 19.8855C31.346 19.5885 33.2421 19.8195 34.8221 20.5457C35.2546 20.7437 35.9365 21.1398 36.0196 21.2388C36.0529 21.2718 36.1028 21.4863 36.1361 21.7009C36.2525 22.4765 36.2026 23.0542 35.9531 23.4998C35.82 23.7473 35.82 23.8133 35.9032 24.0279C35.9697 24.1929 36.1693 24.3084 36.3523 24.3084C36.7514 24.3084 37.1672 23.6813 37.3668 22.8066L37.45 22.46L37.5997 22.6251C38.4479 23.5658 39.1132 24.8695 39.213 25.7937L39.2463 26.0413L39.0966 25.8267C38.8471 25.4472 38.6142 25.1996 38.2982 24.9851C37.7327 24.6055 37.134 24.49 35.5539 24.4074C34.1236 24.3249 33.3086 24.2094 32.5103 23.9453C31.1464 23.4998 30.4479 22.9221 28.8346 20.7932C28.1194 19.8525 27.6703 19.3409 27.2212 18.9118C26.2399 17.9711 25.2586 17.476 23.978 17.278Z" fill="white" fill-opacity="0.33"/>
<path d="M36.3689 19.3739C36.4021 18.7468 36.4853 18.3342 36.6682 17.9546C36.7348 17.8061 36.8013 17.6741 36.8179 17.6741C36.8346 17.6741 36.8013 17.7896 36.7514 17.9216C36.6183 18.2847 36.6017 18.7963 36.6849 19.3739C36.8013 20.1166 36.8512 20.2156 37.6495 21.0242C38.0154 21.4038 38.4479 21.8824 38.6142 22.0805L38.8969 22.4435L38.6142 22.1795C38.2649 21.8494 37.4666 21.2223 37.2836 21.1398C37.1672 21.0738 37.1506 21.0738 37.0674 21.1563C37.0009 21.2223 36.9842 21.3213 36.9842 21.7999C36.9676 22.5426 36.8678 23.0046 36.6183 23.4832C36.4853 23.7308 36.4686 23.6813 36.5851 23.4007C36.6682 23.1862 36.6849 23.0872 36.6849 22.3775C36.6849 20.9417 36.5185 20.5952 35.504 20.0175C35.2545 19.869 34.8221 19.6545 34.5726 19.5389C34.3065 19.4234 34.1069 19.3244 34.1235 19.3244C34.1568 19.2914 35.1381 19.5719 35.5206 19.737C36.1027 19.968 36.2025 19.9845 36.2691 19.968C36.319 19.9185 36.3522 19.7865 36.3689 19.3739Z" fill="white" fill-opacity="0.33"/>
<path d="M23.612 18.2847C23.5122 19.3904 23.9613 20.8757 24.6599 21.8329C25.2087 22.5756 26.057 23.1532 26.689 23.2192C27.1048 23.2522 27.2212 23.1202 27.0382 22.8561C26.7721 22.4931 26.4561 21.9154 26.373 21.6679C26.3231 21.5194 26.2066 21.0573 26.1235 20.6612C25.8407 19.3079 25.5414 18.7633 24.8761 18.3672C24.6266 18.2187 24.111 18.0206 23.8116 17.9711L23.6453 17.9381L23.612 18.2847Z" fill="white" fill-opacity="0.33"/>
<path d="M35.5206 29.0119C32.2275 27.6916 31.0632 26.5529 31.0632 24.622C31.0632 24.3414 31.0799 24.1104 31.0799 24.1104C31.091 24.1104 31.1464 24.1544 31.2264 24.2179C31.2665 24.2497 31.3127 24.2864 31.3626 24.3249C32.0279 24.853 32.7763 25.0841 34.8554 25.3811C36.0695 25.5627 36.768 25.6947 37.4001 25.9092C39.4126 26.5694 40.66 27.9226 40.9593 29.7545C41.0425 30.2826 40.9926 31.2893 40.8596 31.8174C40.7431 32.23 40.4105 32.9892 40.3273 33.0057C40.3107 33.0057 40.2774 32.9232 40.2774 32.7911C40.2442 32.098 39.8949 31.4379 39.3128 30.9263C38.6142 30.3321 37.7161 29.8865 35.5206 29.0119Z" fill="white" fill-opacity="0.33"/>
<path d="M33.0258 28.8633C33.0757 28.9954 33.1588 29.3089 33.1921 29.5565C33.4582 31.1078 32.6432 32.3786 30.9967 32.8902C30.8303 32.9562 30.1651 33.0882 29.5164 33.1872C28.2025 33.4183 27.6037 33.5668 27.0216 33.8474C26.6058 34.0454 26.0902 34.3425 26.1234 34.3755C26.1401 34.392 26.2398 34.359 26.3396 34.326C27.0881 34.0619 27.9197 33.9299 29.1671 33.8639C29.5846 33.8363 30.0487 33.7971 30.306 33.7754L30.3064 33.7753L30.3118 33.7749C30.3595 33.7708 30.3998 33.7674 30.4312 33.7648C31.5455 33.6163 32.3272 33.2862 32.926 32.6756C33.2586 32.3291 33.4582 32.0155 33.6245 31.5699C33.7243 31.2893 33.741 31.1738 33.741 30.6787C33.741 30.1671 33.741 30.0681 33.6245 29.7545C33.4748 29.3419 33.3085 29.0449 33.0923 28.7973L32.9426 28.6158L33.0258 28.8633Z" fill="white" fill-opacity="0.33"/>
<path d="M34.7056 32.2135C34.2732 31.2728 34.1734 30.3816 34.4062 29.54C34.4395 29.4574 34.4728 29.3749 34.506 29.3749C34.5393 29.3749 34.6391 29.4244 34.7389 29.4905C34.9385 29.6225 35.3543 29.8535 36.4187 30.4311C37.7659 31.1573 38.531 31.7184 39.0632 32.362C39.5289 32.9232 39.8117 33.5668 39.9447 34.3589C40.0279 34.8045 39.978 35.8773 39.8616 36.3228C39.4957 37.7256 38.6641 38.8479 37.4499 39.4915C37.267 39.5905 37.1173 39.6565 37.1006 39.6565C37.084 39.6565 37.1505 39.4915 37.2503 39.2935C37.6495 38.4518 37.6994 37.6431 37.4 36.7354C37.2171 36.1743 36.8345 35.4977 36.0695 34.3589C35.1547 33.0387 34.9385 32.6921 34.7056 32.2135Z" fill="white" fill-opacity="0.33"/>
<path d="M26.4561 35.2831C25.059 35.5142 23.5455 36.2403 22.3147 37.2635L21.9654 37.5936L22.2814 37.6431C23.9446 37.8907 24.3937 38.1217 25.558 39.31C26.2233 39.9866 26.4561 40.1351 27.005 40.2837C27.8199 40.4982 28.6183 40.1186 28.901 39.3925C29.0174 39.0624 29.0008 38.5343 28.8678 38.2702C28.5351 37.6266 27.5538 37.4286 27.0881 37.8907C26.7056 38.2702 26.822 38.8644 27.3043 38.9634C27.4041 38.9799 27.4041 38.9799 27.2711 38.9139C27.0549 38.8149 26.9551 38.6828 26.9551 38.4683C26.9384 37.9567 27.5206 37.6926 28.0528 37.9237C28.452 38.1052 28.6016 38.3363 28.6016 38.7323C28.6016 39.343 28.0694 39.8216 27.454 39.739C27.1214 39.6895 26.7222 39.4915 26.506 39.2439C25.9738 38.6498 26.1734 37.6761 26.9384 37.313C27.5206 37.0325 28.2856 37.115 28.8844 37.4946C29.5663 37.9402 29.8657 38.3363 30.4478 39.673C30.6474 40.1186 30.8802 40.5972 30.9967 40.7622C31.5455 41.5874 32.2274 42 33.0258 42C33.4749 42 33.8075 41.934 34.2233 41.7194C34.5227 41.5709 34.9717 41.2739 34.9385 41.2408C34.9385 41.2278 34.8559 41.2558 34.7476 41.2925C34.7185 41.3024 34.6875 41.3129 34.6557 41.3234C33.7742 41.6534 32.8761 41.6369 32.3605 41.2573C32.0279 41.0098 31.7617 40.5477 31.6287 39.9536C31.6272 39.9447 31.6252 39.9328 31.6226 39.9182C31.6198 39.9019 31.6164 39.8823 31.6124 39.8596L31.6124 39.8594C31.5808 39.6782 31.5162 39.3071 31.4624 38.9469C31.2794 37.8081 31.0965 37.2965 30.6973 36.7024C30.2815 36.0918 29.4831 35.5967 28.6016 35.3657C28.0528 35.2171 27.0549 35.1841 26.4561 35.2831Z" fill="white" fill-opacity="0.33"/>
<path fill-rule="evenodd" clip-rule="evenodd" d="M24.5102 26.4703C24.6266 26.0413 25.0091 25.6122 25.4083 25.4966C25.6744 25.4141 26.19 25.4636 26.4395 25.5957C26.9218 25.8432 27.2711 26.3878 27.1879 26.7839C27.1048 27.2625 26.3231 27.6586 25.4083 27.6586C24.9426 27.6586 24.7763 27.5926 24.5933 27.3615C24.4769 27.213 24.4436 26.7344 24.5102 26.4703ZM26.3064 25.7607C26.5559 25.9092 26.6058 26.1238 26.4727 26.3218C26.373 26.4538 26.0736 26.5859 25.8574 26.5859C25.5247 26.5859 25.1754 26.3548 25.1754 26.1403C25.1754 25.7112 25.8574 25.4801 26.3064 25.7607Z" fill="white" fill-opacity="0.33"/>
</svg>
