<svg width="54" height="54" viewBox="0 0 54 54" fill="none" xmlns="http://www.w3.org/2000/svg">
<circle cx="27" cy="27" r="27" fill="white" fill-opacity="0.05"/>
<path d="M33.0981 30.2132C33.0981 27 31.1578 25.8984 27.2771 25.4394C24.5053 25.0721 23.9509 24.3377 23.9509 23.0523C23.9509 21.7669 24.8749 20.9408 26.7228 20.9408C28.3859 20.9408 29.3099 21.4917 29.7718 22.8688C29.8643 23.1442 30.1415 23.3277 30.4187 23.3277H31.8969C32.2665 23.3277 32.5437 23.0523 32.5437 22.6852V22.5933C32.1741 20.5735 30.5109 19.0129 28.3859 18.8294V16.626C28.3859 16.2587 28.1087 15.9833 27.6468 15.8914H26.2609C25.8912 15.8914 25.614 16.1669 25.5215 16.626V18.7375C22.7496 19.1048 20.9943 20.9408 20.9943 23.2361C20.9943 26.2657 22.8421 27.459 26.7228 27.9182C29.3099 28.3771 30.1415 28.928 30.1415 30.3969C30.1415 31.8659 28.8478 32.8757 27.0924 32.8757C24.69 32.8757 23.8584 31.8657 23.5812 30.4886C23.489 30.1215 23.2118 29.9377 22.9346 29.9377H21.3637C20.9943 29.9377 20.7171 30.2132 20.7171 30.5805V30.6723C21.0865 32.9673 22.5649 34.6199 25.614 35.079V37.2824C25.614 37.6494 25.8912 37.9249 26.3531 38.0167H27.739C28.1087 38.0167 28.3859 37.7413 28.4784 37.2824V35.079C31.2503 34.6199 33.0981 32.6919 33.0981 30.2132Z" fill="white" fill-opacity="0.33"/>
<path d="M22.2877 39.8528C15.0808 37.2824 11.3849 29.2953 14.0645 22.226C15.4505 18.3702 18.4996 15.4325 22.2877 14.0554C22.6574 13.8719 22.8421 13.5964 22.8421 13.1373V11.852C22.8421 11.4848 22.6574 11.2093 22.2877 11.1177C22.1953 11.1177 22.0105 11.1177 21.9181 11.2093C13.1405 13.9635 8.3358 23.2361 11.1077 31.9576C12.7708 37.0986 16.744 41.0463 21.9181 42.6988C22.2877 42.8824 22.6574 42.6988 22.7496 42.3315C22.8421 42.2399 22.8421 42.148 22.8421 41.9645V40.679C22.8421 40.4036 22.5649 40.0365 22.2877 39.8528ZM32.0818 11.2093C31.7122 11.0258 31.3425 11.2093 31.2503 11.5766C31.1578 11.6685 31.1578 11.7602 31.1578 11.9439V13.2291C31.1578 13.5964 31.435 13.9635 31.7122 14.1473C38.9191 16.7177 42.615 24.7048 39.9354 31.774C38.5494 35.6299 35.5004 38.5676 31.7122 39.9447C31.3425 40.1282 31.1578 40.4036 31.1578 40.8628V42.148C31.1578 42.5153 31.3425 42.7907 31.7122 42.8824C31.8046 42.8824 31.9894 42.8824 32.0818 42.7907C40.8594 40.0365 45.6641 30.764 42.8922 22.0425C41.2291 16.8096 37.1635 12.8618 32.0818 11.2093Z" fill="white" fill-opacity="0.33"/>
</svg>
