<svg width="54" height="54" viewBox="0 0 54 54" fill="none" xmlns="http://www.w3.org/2000/svg">
<circle cx="27" cy="27" r="27" fill="white" fill-opacity="0.1"/>
<path d="M38.7818 16.1684L37.7564 17.1938C40.2032 19.8695 41.5601 23.364 41.5601 26.9898C41.5601 30.6156 40.2032 34.1101 37.7564 36.7858L38.7818 37.8112C41.5029 34.8597 43.0136 30.9923 43.0136 26.9778C43.0136 22.9634 41.5029 19.096 38.7818 16.1444V16.1684Z" fill="white" fill-opacity="0.55"/>
<path d="M17.2177 16.2572C19.8935 13.8104 23.388 12.4535 27.0137 12.4535C30.6395 12.4535 34.134 13.8104 36.8097 16.2572L37.8351 15.2318C34.8836 12.5107 31.0162 11 27.0018 11C22.9873 11 19.1199 12.5107 16.1684 15.2318L17.2177 16.2572Z" fill="white" fill-opacity="0.55"/>
<path d="M16.2572 36.796C13.8133 34.1209 12.4582 30.6285 12.4582 27.0051C12.4582 23.3817 13.8133 19.8894 16.2572 17.2142L15.2318 16.1888C12.5107 19.1404 11 23.0078 11 27.0222C11 31.0366 12.5107 34.9041 15.2318 37.8556L16.2572 36.796Z" fill="white" fill-opacity="0.55"/>
<path d="M36.796 37.7428C34.1203 40.1896 30.6258 41.5465 27 41.5465C23.3742 41.5465 19.8797 40.1896 17.204 37.7428L16.1786 38.7682C19.1301 41.4893 22.9975 43 27.012 43C31.0264 43 34.8938 41.4893 37.8453 38.7682L36.796 37.7428Z" fill="white" fill-opacity="0.55"/>
<path d="M33.4771 23.582C33.2721 21.4423 31.4263 20.7245 29.0918 20.5058V17.5595H27.2871V20.4511C26.812 20.4511 26.3267 20.4511 25.8447 20.4511V17.5595H24.0537V20.5263H20.393V22.4575C20.393 22.4575 21.726 22.4335 21.7055 22.4575C21.9459 22.431 22.1871 22.4989 22.3784 22.6468C22.5697 22.7948 22.6961 23.0112 22.7309 23.2504V31.3716C22.7258 31.456 22.7038 31.5385 22.6662 31.6142C22.6286 31.69 22.5763 31.7574 22.5122 31.8126C22.4493 31.8687 22.3757 31.9116 22.2958 31.9387C22.2159 31.9657 22.1314 31.9763 22.0473 31.9698C22.0712 31.9903 20.7348 31.9698 20.7348 31.9698L20.393 34.1265H24.0195V37.1412H25.8242V34.171H27.2666V37.1276H29.0747V34.1471C32.1236 33.9625 34.2496 33.2105 34.5162 30.3565C34.7315 28.0596 33.6515 27.0342 31.9254 26.6206C32.9747 26.1045 33.6241 25.1474 33.4771 23.582ZM30.9478 30.001C30.9478 32.2432 27.106 31.9869 25.8823 31.9869V28.0083C27.106 28.0117 30.9478 27.6597 30.9478 30.001ZM30.1104 24.3955C30.1104 26.4463 26.9043 26.1968 25.8857 26.1968V22.5805C26.9043 22.5805 30.1104 22.2592 30.1104 24.3955Z" fill="white" fill-opacity="0.55"/>
</svg>
