<svg width="68" height="68" viewBox="0 0 68 68" fill="none" xmlns="http://www.w3.org/2000/svg">
<circle cx="34" cy="34" r="34" fill="white" fill-opacity="0.05"/>
<path fill-rule="evenodd" clip-rule="evenodd" d="M18 18V28.65C23.9286 28.65 28.7356 23.8814 28.7356 18.0025L18 18Z" fill="white" fill-opacity="0.33"/>
<path fill-rule="evenodd" clip-rule="evenodd" d="M28.7356 49.9875V28.5475C28.7356 28.4575 28.7356 28.3674 28.7381 28.2774C28.7406 28.1874 28.7431 28.0974 28.7482 28.0073C28.7532 27.9173 28.7583 27.8273 28.7658 27.7398C28.7734 27.6498 28.7809 27.5622 28.791 27.4747C28.8011 27.3872 28.8112 27.2972 28.8213 27.2097C28.8314 27.1221 28.844 27.0346 28.8591 26.9471C28.8717 26.8596 28.8868 26.7721 28.9019 26.687C28.9171 26.5995 28.9347 26.5145 28.9523 26.4295C28.97 26.3445 28.9876 26.2594 29.0078 26.1744C29.028 26.0894 29.0481 26.0044 29.0708 25.9219C29.0935 25.8393 29.1162 25.7543 29.1389 25.6718C29.1616 25.5893 29.1868 25.5068 29.2145 25.4242C29.2397 25.3417 29.2674 25.2592 29.2952 25.1792C29.3229 25.0967 29.3506 25.0166 29.3809 24.9366C29.4111 24.8566 29.4414 24.7766 29.4741 24.6966C29.5069 24.6166 29.5397 24.539 29.5724 24.459C29.6052 24.379 29.6405 24.3015 29.6758 24.224C29.7111 24.1464 29.7489 24.0689 29.7842 23.9914C29.822 23.9139 29.8598 23.8389 29.9001 23.7614C29.9404 23.6863 29.9808 23.6113 30.0211 23.5363C30.0614 23.4613 30.1043 23.3863 30.1471 23.3137C30.19 23.2412 30.2328 23.1662 30.2782 23.0937C30.3236 23.0212 30.369 22.9487 30.4143 22.8786C30.4597 22.8086 30.5076 22.7361 30.5555 22.6661C30.6034 22.5961 30.6513 22.5261 30.7017 22.4585C30.7521 22.3885 30.8025 22.321 30.8529 22.2535C30.9033 22.186 30.9563 22.1185 31.0092 22.0534C31.0622 21.9859 31.1151 21.9209 31.1705 21.8559C31.226 21.7909 31.2789 21.7259 31.3369 21.6634C31.3924 21.6008 31.4503 21.5358 31.5058 21.4733C31.5638 21.4108 31.6217 21.3483 31.6797 21.2883C31.7377 21.2283 31.7982 21.1657 31.8587 21.1082C31.9192 21.0482 31.9797 20.9882 32.0402 20.9307C32.1007 20.8732 32.1637 20.8157 32.2267 20.7581C32.2897 20.7006 32.3527 20.6456 32.4183 20.5906C32.4838 20.5356 32.5468 20.4806 32.6124 20.4281C32.6779 20.3731 32.7434 20.3205 32.8115 20.268C32.8796 20.2155 32.9451 20.163 33.0157 20.113C33.0837 20.063 33.1518 20.013 33.2224 19.963C33.293 19.9129 33.361 19.8654 33.4316 19.8179C33.5022 19.7704 33.5727 19.7229 33.6458 19.6779C33.7164 19.6329 33.7895 19.5879 33.8626 19.5429C33.9357 19.4979 34.0088 19.4553 34.0844 19.4128C34.1575 19.3703 34.2332 19.3278 34.3088 19.2878C34.3844 19.2478 34.46 19.2078 34.5356 19.1678C34.6113 19.1278 34.6894 19.0903 34.7675 19.0527C34.8457 19.0152 34.9238 18.9802 35.002 18.9452C35.0801 18.9102 35.1583 18.8752 35.2389 18.8427C35.3196 18.8102 35.3977 18.7777 35.4784 18.7452C35.559 18.7127 35.6397 18.6827 35.7204 18.6527C35.801 18.6226 35.8842 18.5951 35.9649 18.5676C36.0455 18.5401 36.1287 18.5126 36.2119 18.4876C36.2951 18.4626 36.3783 18.4376 36.4614 18.4126C36.5446 18.3876 36.6303 18.3651 36.7135 18.3451C36.7992 18.3226 36.8824 18.3026 36.9681 18.2826C37.0538 18.2626 37.1395 18.2451 37.2252 18.2276C37.3109 18.21 37.3991 18.1925 37.4848 18.1775C37.5705 18.1625 37.6588 18.1475 37.747 18.135C37.8352 18.1225 37.9234 18.11 38.0117 18.0975C38.0999 18.085 38.1881 18.075 38.2789 18.0675C38.3671 18.0575 38.4578 18.05 38.546 18.0425C38.6368 18.035 38.725 18.03 38.8158 18.025C38.9065 18.02 38.9972 18.0175 39.088 18.015C39.1787 18.0125 39.2695 18.0125 39.3602 18.0125H50V28.56H39.3602V50L28.7356 49.9875Z" fill="white" fill-opacity="0.33"/>
</svg>
