<svg width="68" height="68" viewBox="0 0 68 68" fill="none" xmlns="http://www.w3.org/2000/svg">
<circle cx="34" cy="34" r="34" fill="white" fill-opacity="0.2"/>
<path fill-rule="evenodd" clip-rule="evenodd" d="M15.7078 12.8871C20.5519 18.7251 28.0156 27.802 28.3898 28.2971C28.7016 28.7097 28.5769 29.1016 28.0571 29.3904C27.7661 29.5555 27.1632 29.7205 26.8721 29.7205C26.5395 29.7205 26.1444 29.5555 25.8742 29.2873C25.6871 29.1016 24.8762 27.9257 23.0467 25.0995C21.6538 22.9335 20.4687 21.1387 20.4479 21.1181C20.3648 21.0768 20.3648 21.0768 22.9012 25.574C24.502 28.4002 25.0218 29.411 25.0218 29.5348C25.0218 29.803 24.9386 29.9474 24.606 30.3187C24.0446 30.9376 23.7952 31.639 23.608 33.1037C23.4001 34.7334 22.8388 35.8886 21.238 37.8484C20.3024 39.0036 20.1569 39.2099 19.9282 39.6844C19.6371 40.262 19.554 40.5921 19.5124 41.3347C19.4708 42.1186 19.554 42.6137 19.7827 43.3564C19.9906 44.0165 20.2193 44.4497 20.7806 45.2955C21.2588 46.0382 21.5498 46.5952 21.5498 46.8015C21.5498 46.9665 21.5914 46.9665 22.3398 46.8015C24.1278 46.3889 25.6039 45.6875 26.4147 44.8211C26.9137 44.2847 27.0384 43.9959 27.0384 43.2532C27.0384 42.7788 27.0176 42.6756 26.8929 42.3868C26.685 41.933 26.29 41.5616 25.4376 40.984C24.3149 40.2207 23.8367 39.6019 23.712 38.7767C23.608 38.0753 23.7328 37.6008 24.3565 36.3012C25.001 34.9603 25.1673 34.4033 25.2713 33.0418C25.3336 32.1754 25.4376 31.8247 25.6871 31.5565C25.9573 31.2677 26.186 31.1645 26.8305 31.082C27.8908 30.9376 28.5769 30.6694 29.1174 30.1537C29.5956 29.7205 29.8035 29.2873 29.8243 28.6478L29.8451 28.1733L29.5748 27.8845C28.5977 26.7705 15.0633 12 15.0009 12C14.9882 12 15.1074 12.1463 15.2921 12.3729C15.4098 12.5173 15.5541 12.6944 15.7078 12.8871ZM22.0904 42.2218C22.3191 41.8298 22.1943 41.3347 21.8201 41.0872C21.4667 40.8603 20.9261 40.9634 20.9261 41.2728C20.9261 41.3554 20.9677 41.4379 21.0924 41.4791C21.2796 41.5823 21.3003 41.6854 21.1548 41.9123C21.0093 42.1393 21.0093 42.3456 21.1964 42.49C21.4875 42.7169 21.8825 42.5931 22.0904 42.2218Z" fill="white"/>
<path d="M28.7225 21.0975C28.2859 21.0356 28.2651 21.015 28.473 20.9943C28.868 20.9325 29.7828 21.015 30.4273 21.1594C31.9241 21.5101 33.2755 22.4178 34.71 24.0062L35.0842 24.4394L35.6248 24.3569C37.9325 23.9856 40.3026 24.2744 42.2776 25.1821C42.8182 25.4296 43.6706 25.9247 43.7745 26.0485C43.8161 26.0898 43.8785 26.3579 43.9201 26.6261C44.0656 27.5957 44.0032 28.3177 43.6914 28.8747C43.5251 29.1841 43.5251 29.2666 43.629 29.5348C43.7122 29.7411 43.9616 29.8855 44.1903 29.8855C44.6893 29.8855 45.2091 29.1016 45.4585 28.0083L45.5625 27.5751L45.7496 27.7813C46.8099 28.9572 47.6415 30.5869 47.7662 31.7422L47.8078 32.0516L47.6207 31.7834C47.3089 31.3089 47.0178 30.9995 46.6228 30.7313C45.9159 30.2569 45.1675 30.1124 43.1924 30.0093C41.4045 29.9062 40.3857 29.7618 39.3878 29.4317C37.683 28.8747 36.8098 28.1527 34.7932 25.4915C33.8992 24.3156 33.3379 23.6761 32.7765 23.1398C31.5499 21.9639 30.3233 21.345 28.7225 21.0975Z" fill="white"/>
<path d="M44.2111 23.7174C44.2527 22.9335 44.3566 22.4177 44.5853 21.9433C44.6685 21.7576 44.7516 21.5926 44.7724 21.5926C44.7932 21.5926 44.7516 21.737 44.6892 21.902C44.5229 22.3559 44.5021 22.9954 44.6061 23.7174C44.7516 24.6457 44.814 24.7695 45.8119 25.7803C46.2693 26.2548 46.8098 26.853 47.0177 27.1006L47.3712 27.5544L47.0177 27.2244C46.5811 26.8118 45.5832 26.0279 45.3545 25.9247C45.209 25.8422 45.1882 25.8422 45.0843 25.9453C45.0011 26.0279 44.9803 26.1516 44.9803 26.7499C44.9595 27.6782 44.8348 28.2558 44.5229 28.8541C44.3566 29.1635 44.3358 29.1016 44.4813 28.7509C44.5853 28.4827 44.6061 28.359 44.6061 27.4719C44.6061 25.6772 44.3982 25.2439 43.13 24.5219C42.8181 24.3363 42.2776 24.0681 41.9657 23.9237C41.6331 23.7793 41.3836 23.6555 41.4044 23.6555C41.446 23.6142 42.6726 23.9649 43.1508 24.1712C43.8784 24.46 44.0032 24.4807 44.0863 24.46C44.1487 24.3981 44.1903 24.2331 44.2111 23.7174Z" fill="white"/>
<path d="M28.265 22.3559C28.1403 23.738 28.7016 25.5947 29.5748 26.7912C30.2609 27.7195 31.3212 28.4415 32.1112 28.524C32.631 28.5653 32.7765 28.4002 32.5478 28.0702C32.2152 27.6163 31.8202 26.8943 31.7162 26.5849C31.6538 26.3992 31.5083 25.8216 31.4043 25.3265C31.0509 23.6349 30.6767 22.9541 29.8451 22.459C29.5332 22.2734 28.8887 22.0258 28.5145 21.9639L28.3066 21.9227L28.265 22.3559Z" fill="white"/>
<path d="M43.1508 35.7648C39.0343 34.1145 37.579 32.6911 37.579 30.2775C37.579 29.9268 37.5998 29.638 37.5998 29.638C37.6137 29.638 37.683 29.693 37.783 29.7724C37.8331 29.8121 37.8909 29.858 37.9533 29.9061C38.7849 30.5663 39.7204 30.8551 42.3192 31.2264C43.8369 31.4533 44.7101 31.6184 45.5001 31.8865C48.0157 32.7117 49.575 34.4033 49.9492 36.6932C50.0531 37.3533 49.9908 38.6117 49.8244 39.2718C49.6789 39.7875 49.2631 40.7365 49.1592 40.7571C49.1384 40.7571 49.0968 40.654 49.0968 40.4889C49.0552 39.6225 48.6186 38.7973 47.891 38.1578C47.0178 37.4152 45.8951 36.8582 43.1508 35.7648Z" fill="white"/>
<path d="M40.0322 35.5792C40.0946 35.7442 40.1985 36.1362 40.2401 36.4456C40.5728 38.3848 39.554 39.9732 37.4958 40.6127C37.2879 40.6952 36.4563 40.8603 35.6455 40.984C34.0031 41.2728 33.2546 41.4585 32.527 41.8092C32.0072 42.0568 31.3627 42.4281 31.4043 42.4693C31.4251 42.49 31.5498 42.4487 31.6745 42.4075C32.6101 42.0774 33.6496 41.9123 35.2089 41.8298C35.7308 41.7953 36.3109 41.7463 36.6325 41.7192L36.633 41.7192L36.6397 41.7186C36.6993 41.7136 36.7498 41.7093 36.789 41.7061C38.1819 41.5204 39.159 41.1078 39.9075 40.3445C40.3233 39.9113 40.5728 39.5194 40.7807 38.9624C40.9054 38.6117 40.9262 38.4673 40.9262 37.8484C40.9262 37.2089 40.9262 37.0851 40.7807 36.6932C40.5936 36.1774 40.3857 35.8061 40.1154 35.4967L39.9283 35.2697L40.0322 35.5792Z" fill="white"/>
<path d="M42.132 39.7669C41.5915 38.591 41.4667 37.477 41.7578 36.425C41.7994 36.3218 41.841 36.2187 41.8825 36.2187C41.9241 36.2187 42.0489 36.2805 42.1736 36.3631C42.4231 36.5281 42.9428 36.8169 44.2734 37.5389C45.9574 38.4466 46.9138 39.148 47.579 39.9525C48.1612 40.6539 48.5146 41.4585 48.6809 42.4487C48.7849 43.0057 48.7225 44.3466 48.577 44.9036C48.1196 46.657 47.0801 48.0598 45.5624 48.8644C45.3337 48.9881 45.1466 49.0707 45.1258 49.0707C45.105 49.0707 45.1882 48.8644 45.3129 48.6168C45.8119 47.5647 45.8743 46.5539 45.5 45.4193C45.2713 44.7179 44.7932 43.8721 43.8368 42.4487C42.6934 40.7983 42.4231 40.3651 42.132 39.7669Z" fill="white"/>
<path d="M31.8201 43.6039C30.0738 43.8927 28.1818 44.8004 26.6434 46.0794L26.2068 46.492L26.6018 46.5539C28.6808 46.8633 29.2421 47.1521 30.6975 48.6374C31.5291 49.4832 31.8201 49.6689 32.5062 49.8546C33.5249 50.1227 34.5228 49.6483 34.8763 48.7406C35.0218 48.328 35.001 47.6679 34.8347 47.3378C34.4189 46.5333 33.1923 46.2857 32.6102 46.8633C32.132 47.3378 32.2775 48.0805 32.8804 48.2042C33.0052 48.2249 33.0052 48.2249 32.8388 48.1423C32.5686 48.0186 32.4438 47.8535 32.4438 47.5854C32.423 46.9458 33.1507 46.6158 33.816 46.9046C34.3149 47.1315 34.5021 47.4203 34.5021 47.9154C34.5021 48.6787 33.8368 49.2769 33.0675 49.1738C32.6517 49.1119 32.1528 48.8644 31.8825 48.5549C31.2172 47.8123 31.4667 46.5951 32.423 46.1413C33.1507 45.7906 34.107 45.8938 34.8555 46.3682C35.7079 46.9252 36.0821 47.4203 36.8098 49.0913C37.0592 49.6483 37.3503 50.2465 37.4958 50.4528C38.1819 51.4843 39.0343 52 40.0322 52C40.5936 52 41.0094 51.9175 41.5291 51.6493C41.9034 51.4636 42.4647 51.0923 42.4231 51.0511C42.4231 51.0348 42.3198 51.0698 42.1845 51.1156C42.1481 51.128 42.1093 51.1411 42.0697 51.1542C40.9678 51.5668 39.8451 51.5462 39.2006 51.0717C38.7848 50.7622 38.4522 50.1846 38.2859 49.442C38.284 49.4308 38.2814 49.416 38.2783 49.3978C38.2748 49.3774 38.2705 49.3528 38.2655 49.3246L38.2655 49.3243C38.226 49.0977 38.1452 48.6339 38.078 48.1836C37.8493 46.7602 37.6206 46.1207 37.1216 45.378C36.6019 44.6147 35.6039 43.9959 34.5021 43.7071C33.816 43.5214 32.5686 43.4801 31.8201 43.6039Z" fill="white"/>
<path fill-rule="evenodd" clip-rule="evenodd" d="M29.3877 32.5879C29.5332 32.0516 30.0114 31.5152 30.5104 31.3708C30.843 31.2677 31.4875 31.3296 31.7993 31.4946C32.4023 31.804 32.8389 32.4848 32.7349 32.9799C32.631 33.5781 31.6538 34.0732 30.5104 34.0732C29.9282 34.0732 29.7203 33.9907 29.4916 33.7019C29.3461 33.5162 29.3045 32.918 29.3877 32.5879ZM31.633 31.7009C31.9449 31.8865 32.0073 32.1547 31.8409 32.4023C31.7162 32.5673 31.342 32.7323 31.0717 32.7323C30.6559 32.7323 30.2193 32.4435 30.2193 32.1754C30.2193 31.639 31.0717 31.3502 31.633 31.7009Z" fill="white"/>
</svg>
