<svg width="54" height="54" viewBox="0 0 54 54" fill="none" xmlns="http://www.w3.org/2000/svg">
<circle cx="27" cy="27" r="27" fill="white" fill-opacity="0.1"/>
<path fill-rule="evenodd" clip-rule="evenodd" d="M41.2778 30.6163C41.2936 30.7799 41.3147 31.1122 41.3252 31.3496C41.3358 31.5076 41.3463 31.6656 41.3516 31.7711C41.3534 31.7713 41.3551 31.7715 41.3569 31.7717C41.3589 31.7938 41.3602 31.8129 41.3612 31.8292C41.3629 31.8556 41.3642 31.8747 41.3674 31.8877C41.3886 32.0143 41.3622 32.5472 41.3305 32.8373C41.2408 33.444 41.0509 34.0507 40.7502 34.7312C40.708 34.8262 40.3915 35.3907 40.3123 35.512C40.286 35.5489 40.2596 35.5912 40.2438 35.6334C40.2438 35.6439 40.2332 35.6545 40.2227 35.6545C40.2121 35.6545 40.2016 35.6703 40.2016 35.6808C40.2016 35.6914 40.191 35.7072 40.1805 35.7072C40.1699 35.7072 40.1646 35.7178 40.1699 35.7283C40.1752 35.7389 40.1699 35.7547 40.1541 35.76C40.133 35.7652 40.1277 35.7758 40.133 35.7863C40.1383 35.7969 40.1277 35.8074 40.1119 35.8127C40.096 35.818 40.0855 35.8338 40.0908 35.8391C40.1013 35.8496 40.0855 35.8655 40.0697 35.876C40.0486 35.8866 40.038 35.8971 40.0486 35.8971C40.0855 35.8971 39.6001 36.5513 39.2731 36.9311C38.8194 37.4481 38.334 37.9335 37.817 38.3924C34.5251 41.2518 29.5819 43.209 26.232 42.9821C23.0192 42.7606 18.7777 40.8403 15.6493 38.1814C13.7396 36.5566 12.5209 34.9001 12.1253 33.3965C11.9987 32.9165 11.9775 32.5525 12.0198 31.7875C12.0198 31.7717 12.0211 31.7545 12.0224 31.7374C12.0237 31.7202 12.025 31.7031 12.025 31.6873C12.8074 31.5729 14.3791 31.4517 16.1119 31.9354C14.3759 31.4496 12.801 31.5728 12.0145 31.6873C12.1727 29.1339 12.8375 26.7336 14.0667 24.2435C14.0878 24.2066 14.1089 24.1644 14.1247 24.1275C13.8926 23.4364 13.2701 21.5214 12.7636 19.3426C11.9934 16.0506 11.4869 12.1573 12.9746 11.002C12.9746 11.002 15.491 10.8173 18.8726 14.0196C19.7853 14.89 20.6136 15.8396 21.3574 16.8525L21.3575 16.8525C21.4049 16.8367 21.4524 16.8209 21.5051 16.7998C22.824 16.3408 23.9846 16.1139 25.4987 16.0137C25.9999 15.9821 27.535 15.9821 27.9465 16.0137C29.3129 16.1034 30.6687 16.3672 31.977 16.7945L32.2039 16.8683C32.9213 15.8502 33.7285 14.8953 34.6095 14.0143C37.8592 10.8279 40.286 11.0072 40.286 11.0072C41.6893 12.1257 41.2303 15.8502 40.5075 19.0366C39.9747 21.3842 39.3047 23.4364 39.1412 23.927C39.1428 23.9302 39.1444 23.9339 39.1461 23.9379C39.1501 23.9471 39.1549 23.9582 39.1623 23.9692C39.1887 24.0325 39.2309 24.1116 39.2783 24.1908C40.439 26.264 41.0509 28.2213 41.2778 30.6163ZM20.0295 34.3157C20.0909 34.1572 21.9892 29.3621 26.9685 29.3608C21.9095 29.3656 20.0333 34.3197 20.0333 34.3197C20.032 34.3184 20.0308 34.3171 20.0295 34.3157ZM37.1438 32.1755C35.8756 32.5461 34.4773 33.1976 33.121 34.3161C33.1215 34.3185 33.1218 34.3197 33.1218 34.3197C34.4776 33.2006 35.8756 32.5474 37.1438 32.1755ZM13.6552 14.3889C13.1487 17.206 15.1218 22.1386 15.1218 22.1386C16.103 20.4346 17.3797 19.2212 18.3767 18.4563C18.382 18.4563 18.3873 18.451 18.3873 18.451C19.3052 17.7441 19.9911 17.4117 19.9911 17.4117C16.3826 13.4023 14.1458 13.1808 14.1458 13.1808C13.8978 13.4973 13.7396 13.9141 13.6552 14.3889ZM23.1247 29.6245C23.3041 29.5982 23.4623 29.5296 23.494 29.4663C23.5415 29.3608 23.4149 29.0179 23.2249 28.7752C22.9453 28.3848 22.5813 28.0999 21.6106 27.5196C20.4342 26.8127 19.4688 26.3273 18.8199 26.1269C18.5034 26.0266 18.3082 25.9897 18.076 25.9897C17.8861 25.9897 17.8861 25.9897 17.8439 26.0425C17.7648 26.1849 17.7068 26.3432 17.6804 26.5067C17.6382 26.7019 17.6329 27.2506 17.6593 27.5987L17.6751 27.7992L17.8228 27.9522C18.0813 28.2107 18.4295 28.4481 18.9149 28.6855C19.78 29.1075 20.967 29.4505 22.0854 29.5982C22.3967 29.6351 22.9453 29.6509 23.1247 29.6245ZM35.4114 28.2424C35.6593 28.0577 35.9073 27.8045 35.9231 27.7201C35.9495 27.5776 35.96 26.7863 35.9389 26.6069C35.8967 26.2693 35.7912 25.9897 35.6963 25.9528C35.6382 25.9264 35.4536 25.9317 35.3006 25.9528C34.8153 26.0214 34.0978 26.3115 33.2115 26.7969C32.6734 27.0923 31.5181 27.7939 31.2332 27.9997C30.674 28.4059 30.3152 28.8385 30.2045 29.2342C30.1517 29.4241 30.1728 29.4821 30.3205 29.556C30.5474 29.6667 31.3018 29.6456 32.0562 29.5085C33.3803 29.2711 34.6834 28.7752 35.4114 28.2424ZM35.0368 18.4457L35.0474 18.451C36.3241 19.4639 37.395 20.7195 38.1916 22.1386C38.1916 22.1386 40.096 17.2007 39.6054 14.3836C39.521 13.9088 39.368 13.4973 39.1306 13.1755C39.1306 13.1755 36.9729 13.3971 33.4858 17.4064C33.4858 17.4064 34.1505 17.7388 35.0368 18.4457ZM27.994 38.3977C28.0098 38.4083 28.0784 38.3819 28.1787 38.3239C28.3145 38.2467 28.369 38.2165 28.3898 38.1709C28.4046 38.1385 28.4024 38.0985 28.4002 38.0284L28.395 37.886L25.5884 37.8754V38.1761L25.7466 38.2553C25.8363 38.2975 25.9313 38.3344 26.0262 38.3661L26.1476 38.403L26.2847 38.1181L26.4325 38.1339C26.5116 38.1392 26.5802 38.1498 26.5802 38.1498C26.5802 38.1498 26.654 38.2658 26.749 38.403C26.9284 38.672 26.96 38.6984 27.1077 38.6826C27.1986 38.6776 27.2122 38.6628 27.495 38.3566C27.5078 38.3428 27.5211 38.3284 27.535 38.3133L27.6828 38.1551L27.8252 38.2711C27.8592 38.296 27.8922 38.3219 27.92 38.3438C27.9571 38.3728 27.985 38.3947 27.994 38.3977ZM30.674 37.9282C30.674 37.9177 30.7373 37.675 30.8164 37.3743L30.8249 37.3427C30.9004 37.0607 30.9647 36.8205 30.98 36.8256C30.98 36.8098 30.8428 36.8045 30.3733 36.8045H29.7666L29.7033 36.8995C29.6505 36.9892 29.64 36.9944 29.5872 36.9839C29.5556 36.9786 29.2127 36.9733 28.8223 36.9733H28.1153L27.9624 36.7359L27.8041 36.4985L27.572 36.4774L27.5614 35.3696L27.688 35.3221C28.1259 35.1691 28.606 34.8315 28.8698 34.4938C29.0016 34.3092 29.1072 34.1035 29.1757 33.8872C29.2232 33.7289 29.2549 33.3332 29.2549 32.8743C29.2549 32.5525 29.2179 32.4206 29.0913 32.2517C28.9805 32.104 28.8909 32.0355 28.6957 31.9405L28.5321 31.8614L27.0655 31.8561C25.8205 31.8561 25.5831 31.8561 25.4934 31.8825C25.2296 31.951 25.0239 32.1568 24.95 32.4206C24.9131 32.5366 24.9131 32.5841 24.9184 33.1064L24.919 33.1385C24.929 33.6357 24.9298 33.6785 24.9711 33.7922C25.1769 34.362 25.7255 34.8315 26.6593 35.243L26.9495 35.3696L26.96 36.4669H26.7384L26.5644 36.7307L26.3955 36.9944L25.7361 36.9786C25.6199 36.9752 25.4992 36.9718 25.3849 36.9685C25.1463 36.9618 24.9354 36.9558 24.8498 36.9522L24.623 36.9417L24.5808 36.8045L23.2619 36.794V36.8573C23.2619 36.8889 23.2724 36.9259 23.2988 36.947C23.3146 36.9575 23.3936 37.026 23.4727 37.0945L23.4729 37.0947L23.6101 37.216L23.6259 37.3848C23.6364 37.4745 23.6628 37.6381 23.6839 37.7436L23.7261 37.9388L23.8897 37.9229L24.0532 37.9124L24.0901 38.0654C24.1587 38.345 24.2537 38.614 24.3856 38.8672C24.5069 39.1099 24.5597 39.1943 24.5755 39.1785C24.5755 39.1759 24.5873 39.1587 24.6051 39.133C24.623 39.1073 24.6467 39.073 24.6704 39.0361L24.7601 38.8989L24.7443 38.1498C24.7337 37.733 24.7285 37.3954 24.7337 37.3901C24.739 37.3848 24.8973 37.4059 25.0819 37.4323C26.232 37.5958 27.3926 37.6222 28.5479 37.5062C28.8275 37.4798 29.4659 37.3954 29.5556 37.3743L29.5978 37.3637V38.825L29.8193 39.1838L29.851 39.1099C29.8668 39.0677 29.9829 38.7881 30.1095 38.4874L30.3363 37.9335H30.5052C30.5608 37.9385 30.6115 37.9339 30.6667 37.9289L30.674 37.9282Z" fill="white" fill-opacity="0.33"/>
</svg>
