<svg width="68" height="68" viewBox="0 0 68 68" fill="none" xmlns="http://www.w3.org/2000/svg">
<circle cx="34" cy="34" r="34" fill="white" fill-opacity="0.1"/>
<path fill-rule="evenodd" clip-rule="evenodd" d="M48.2778 36.6163C48.2936 36.7799 48.3147 37.1122 48.3252 37.3496C48.3358 37.5076 48.3463 37.6656 48.3516 37.7711C48.3534 37.7713 48.3551 37.7715 48.3569 37.7717C48.3589 37.7938 48.3602 37.8129 48.3612 37.8292C48.3629 37.8556 48.3642 37.8747 48.3674 37.8877C48.3886 38.0143 48.3622 38.5472 48.3305 38.8373C48.2408 39.444 48.0509 40.0507 47.7502 40.7312C47.708 40.8262 47.3915 41.3907 47.3123 41.512C47.286 41.5489 47.2596 41.5912 47.2438 41.6334C47.2438 41.6439 47.2332 41.6545 47.2227 41.6545C47.2121 41.6545 47.2016 41.6703 47.2016 41.6808C47.2016 41.6914 47.191 41.7072 47.1805 41.7072C47.1699 41.7072 47.1646 41.7178 47.1699 41.7283C47.1752 41.7389 47.1699 41.7547 47.1541 41.76C47.133 41.7652 47.1277 41.7758 47.133 41.7863C47.1383 41.7969 47.1277 41.8074 47.1119 41.8127C47.096 41.818 47.0855 41.8338 47.0908 41.8391C47.1013 41.8496 47.0855 41.8655 47.0697 41.876C47.0486 41.8866 47.038 41.8971 47.0486 41.8971C47.0855 41.8971 46.6001 42.5513 46.2731 42.9311C45.8194 43.4481 45.334 43.9335 44.817 44.3924C41.5251 47.2518 36.5819 49.209 33.232 48.9821C30.0192 48.7606 25.7777 46.8403 22.6493 44.1814C20.7396 42.5566 19.5209 40.9001 19.1253 39.3965C18.9987 38.9165 18.9775 38.5525 19.0198 37.7875C19.0198 37.7717 19.0211 37.7545 19.0224 37.7374C19.0237 37.7202 19.025 37.7031 19.025 37.6873C19.8074 37.5729 21.3791 37.4517 23.1119 37.9354C21.3759 37.4496 19.801 37.5728 19.0145 37.6873C19.1727 35.1339 19.8375 32.7336 21.0667 30.2435C21.0878 30.2066 21.1089 30.1644 21.1247 30.1275C20.8926 29.4364 20.2701 27.5214 19.7636 25.3426C18.9934 22.0506 18.4869 18.1573 19.9746 17.002C19.9746 17.002 22.491 16.8173 25.8726 20.0196C26.7853 20.89 27.6136 21.8396 28.3574 22.8525L28.3575 22.8525C28.4049 22.8367 28.4524 22.8209 28.5051 22.7998C29.824 22.3408 30.9846 22.1139 32.4987 22.0137C32.9999 21.9821 34.535 21.9821 34.9465 22.0137C36.3129 22.1034 37.6687 22.3672 38.977 22.7945L39.2039 22.8683C39.9213 21.8502 40.7285 20.8953 41.6095 20.0143C44.8592 16.8279 47.286 17.0072 47.286 17.0072C48.6893 18.1257 48.2303 21.8502 47.5075 25.0366C46.9747 27.3842 46.3047 29.4364 46.1412 29.927C46.1428 29.9302 46.1444 29.9339 46.1461 29.9379C46.1501 29.9471 46.1549 29.9582 46.1623 29.9692C46.1887 30.0325 46.2309 30.1116 46.2783 30.1908C47.439 32.264 48.0509 34.2213 48.2778 36.6163ZM27.0295 40.3157C27.0909 40.1572 28.9892 35.3621 33.9685 35.3608C28.9095 35.3656 27.0333 40.3197 27.0333 40.3197C27.032 40.3184 27.0308 40.3171 27.0295 40.3157ZM44.1438 38.1755C42.8756 38.5461 41.4773 39.1976 40.121 40.3161C40.1215 40.3185 40.1218 40.3197 40.1218 40.3197C41.4776 39.2006 42.8756 38.5474 44.1438 38.1755ZM20.6552 20.3889C20.1487 23.206 22.1218 28.1386 22.1218 28.1386C23.103 26.4346 24.3797 25.2212 25.3767 24.4563C25.382 24.4563 25.3873 24.451 25.3873 24.451C26.3052 23.7441 26.9911 23.4117 26.9911 23.4117C23.3826 19.4023 21.1458 19.1808 21.1458 19.1808C20.8978 19.4973 20.7396 19.9141 20.6552 20.3889ZM30.1247 35.6245C30.3041 35.5982 30.4623 35.5296 30.494 35.4663C30.5415 35.3608 30.4149 35.0179 30.2249 34.7752C29.9453 34.3848 29.5813 34.0999 28.6106 33.5196C27.4342 32.8127 26.4688 32.3273 25.8199 32.1269C25.5034 32.0266 25.3082 31.9897 25.076 31.9897C24.8861 31.9897 24.8861 31.9897 24.8439 32.0425C24.7648 32.1849 24.7068 32.3432 24.6804 32.5067C24.6382 32.7019 24.6329 33.2506 24.6593 33.5987L24.6751 33.7992L24.8228 33.9522C25.0813 34.2107 25.4295 34.4481 25.9149 34.6855C26.78 35.1075 27.967 35.4505 29.0854 35.5982C29.3967 35.6351 29.9453 35.6509 30.1247 35.6245ZM42.4114 34.2424C42.6593 34.0577 42.9073 33.8045 42.9231 33.7201C42.9495 33.5776 42.96 32.7863 42.9389 32.6069C42.8967 32.2693 42.7912 31.9897 42.6963 31.9528C42.6382 31.9264 42.4536 31.9317 42.3006 31.9528C41.8153 32.0214 41.0978 32.3115 40.2115 32.7969C39.6734 33.0923 38.5181 33.7939 38.2332 33.9997C37.674 34.4059 37.3152 34.8385 37.2045 35.2342C37.1517 35.4241 37.1728 35.4821 37.3205 35.556C37.5474 35.6667 38.3018 35.6456 39.0562 35.5085C40.3803 35.2711 41.6834 34.7752 42.4114 34.2424ZM42.0368 24.4457L42.0474 24.451C43.3241 25.4639 44.395 26.7195 45.1916 28.1386C45.1916 28.1386 47.096 23.2007 46.6054 20.3836C46.521 19.9088 46.368 19.4973 46.1306 19.1755C46.1306 19.1755 43.9729 19.3971 40.4858 23.4064C40.4858 23.4064 41.1505 23.7388 42.0368 24.4457ZM34.994 44.3977C35.0098 44.4083 35.0784 44.3819 35.1787 44.3239C35.3145 44.2467 35.369 44.2165 35.3898 44.1709C35.4046 44.1385 35.4024 44.0985 35.4002 44.0284L35.395 43.886L32.5884 43.8754V44.1761L32.7466 44.2553C32.8363 44.2975 32.9313 44.3344 33.0262 44.3661L33.1476 44.403L33.2847 44.1181L33.4325 44.1339C33.5116 44.1392 33.5802 44.1498 33.5802 44.1498C33.5802 44.1498 33.654 44.2658 33.749 44.403C33.9284 44.672 33.96 44.6984 34.1077 44.6826C34.1986 44.6776 34.2122 44.6628 34.495 44.3566C34.5078 44.3428 34.5211 44.3284 34.535 44.3133L34.6828 44.1551L34.8252 44.2711C34.8592 44.296 34.8922 44.3219 34.92 44.3438C34.9571 44.3728 34.985 44.3947 34.994 44.3977ZM37.674 43.9282C37.674 43.9177 37.7373 43.675 37.8164 43.3743L37.8249 43.3427C37.9004 43.0607 37.9647 42.8205 37.98 42.8256C37.98 42.8098 37.8428 42.8045 37.3733 42.8045H36.7666L36.7033 42.8995C36.6505 42.9892 36.64 42.9944 36.5872 42.9839C36.5556 42.9786 36.2127 42.9733 35.8223 42.9733H35.1153L34.9624 42.7359L34.8041 42.4985L34.572 42.4774L34.5614 41.3696L34.688 41.3221C35.1259 41.1691 35.606 40.8315 35.8698 40.4938C36.0016 40.3092 36.1072 40.1035 36.1757 39.8872C36.2232 39.7289 36.2549 39.3332 36.2549 38.8743C36.2549 38.5525 36.2179 38.4206 36.0913 38.2517C35.9805 38.104 35.8909 38.0355 35.6957 37.9405L35.5321 37.8614L34.0655 37.8561C32.8205 37.8561 32.5831 37.8561 32.4934 37.8825C32.2296 37.951 32.0239 38.1568 31.95 38.4206C31.9131 38.5366 31.9131 38.5841 31.9184 39.1064L31.919 39.1385C31.929 39.6357 31.9298 39.6785 31.9711 39.7922C32.1769 40.362 32.7255 40.8315 33.6593 41.243L33.9495 41.3696L33.96 42.4669H33.7384L33.5644 42.7307L33.3955 42.9944L32.7361 42.9786C32.6199 42.9752 32.4992 42.9718 32.3849 42.9685C32.1463 42.9618 31.9354 42.9558 31.8498 42.9522L31.623 42.9417L31.5808 42.8045L30.2619 42.794V42.8573C30.2619 42.8889 30.2724 42.9259 30.2988 42.947C30.3146 42.9575 30.3936 43.026 30.4727 43.0945L30.4729 43.0947L30.6101 43.216L30.6259 43.3848C30.6364 43.4745 30.6628 43.6381 30.6839 43.7436L30.7261 43.9388L30.8897 43.9229L31.0532 43.9124L31.0901 44.0654C31.1587 44.345 31.2537 44.614 31.3856 44.8672C31.5069 45.1099 31.5597 45.1943 31.5755 45.1785C31.5755 45.1759 31.5873 45.1587 31.6051 45.133C31.623 45.1073 31.6467 45.073 31.6704 45.0361L31.7601 44.8989L31.7443 44.1498C31.7337 43.733 31.7285 43.3954 31.7337 43.3901C31.739 43.3848 31.8973 43.4059 32.0819 43.4323C33.232 43.5958 34.3926 43.6222 35.5479 43.5062C35.8275 43.4798 36.4659 43.3954 36.5556 43.3743L36.5978 43.3637V44.825L36.8193 45.1838L36.851 45.1099C36.8668 45.0677 36.9829 44.7881 37.1095 44.4874L37.3363 43.9335H37.5052C37.5608 43.9385 37.6115 43.9339 37.6667 43.9289L37.674 43.9282Z" fill="white" fill-opacity="0.55"/>
</svg>
