<svg width="78" height="78" viewBox="0 0 78 78" fill="none" xmlns="http://www.w3.org/2000/svg">
<circle cx="39" cy="39" r="39" fill="white" fill-opacity="0.2"/>
<path d="M56.655 22.7493L55.1176 24.2867C58.7862 28.2986 60.8206 33.5381 60.8206 38.9745C60.8206 44.4108 58.7862 49.6504 55.1176 53.6622L56.655 55.1997C60.7349 50.7743 63 44.9756 63 38.9565C63 32.9375 60.7349 27.1388 56.655 22.7134V22.7493Z" fill="white"/>
<path d="M24.3226 22.8824C28.3345 19.2138 33.574 17.1794 39.0104 17.1794C44.4467 17.1794 49.6863 19.2138 53.6982 22.8824L55.2356 21.345C50.8102 17.2651 45.0115 15 38.9925 15C32.9734 15 27.1747 17.2651 22.7493 21.345L24.3226 22.8824Z" fill="white"/>
<path d="M22.8824 53.6776C19.2182 49.6666 17.1864 44.4302 17.1864 38.9975C17.1864 33.5647 19.2182 28.3284 22.8824 24.3174L21.345 22.78C17.2651 27.2053 15 33.004 15 39.0231C15 45.0422 17.2651 50.8409 21.345 55.2663L22.8824 53.6776Z" fill="white"/>
<path d="M53.6775 55.0972C49.6657 58.7658 44.4261 60.8002 38.9898 60.8002C33.5534 60.8002 28.3139 58.7658 24.302 55.0972L22.7646 56.6346C27.19 60.7145 32.9886 62.9796 39.0077 62.9796C45.0268 62.9796 50.8255 60.7145 55.2509 56.6346L53.6775 55.0972Z" fill="white"/>
<path d="M48.7014 33.865C48.3939 30.6568 45.6265 29.5806 42.1262 29.2526V24.835H39.4203V29.1706C38.708 29.1706 37.9802 29.1706 37.2576 29.1706V24.835H34.5722V29.2834H29.0835V32.1789C29.0835 32.1789 31.0822 32.143 31.0515 32.1789C31.4118 32.1393 31.7735 32.2411 32.0603 32.4628C32.3471 32.6846 32.5366 33.0091 32.5889 33.3679V45.5445C32.5812 45.671 32.5482 45.7947 32.4919 45.9082C32.4355 46.0218 32.357 46.1229 32.2609 46.2056C32.1666 46.2898 32.0563 46.3541 31.9365 46.3946C31.8167 46.4351 31.69 46.451 31.5639 46.4413C31.5998 46.4721 29.596 46.4413 29.596 46.4413L29.0835 49.6751H34.521V54.1952H37.2269V49.7417H39.3896V54.1747H42.1006V49.7058C46.6719 49.4291 49.8596 48.3016 50.2593 44.0224C50.5822 40.5785 48.9627 39.041 46.3747 38.4209C47.948 37.6471 48.9217 36.2121 48.7014 33.865ZM44.909 43.4894C44.909 46.8513 39.1487 46.4669 37.314 46.4669V40.5016C39.1487 40.5068 44.909 39.9789 44.909 43.4894ZM43.6534 35.0847C43.6534 38.1596 38.8463 37.7855 37.3191 37.7855V32.3634C38.8463 32.3634 43.6534 31.8817 43.6534 35.0847Z" fill="white"/>
</svg>
