<svg width="17" height="17" viewBox="0 0 17 17" fill="none" xmlns="http://www.w3.org/2000/svg">
<path d="M11.7533 2.30689L13.4095 0.650661L12.7589 0L10.941 1.8179C10.1996 1.45116 9.37939 1.22639 8.5 1.22639C7.62061 1.22639 6.8004 1.45116 6.05902 1.8179L4.24112 0L3.59046 0.650661L5.24669 2.30689C3.87834 3.3085 2.97925 4.91741 2.97925 6.74717V7.53584H14.0208V6.74717C14.0207 4.91741 13.1217 3.3085 11.7533 2.30689ZM6.13396 5.95847C5.69624 5.95847 5.34529 5.60356 5.34529 5.1698C5.34529 4.73604 5.69624 4.38113 6.13396 4.38113C6.57167 4.38113 6.92262 4.73604 6.92262 5.1698C6.92262 5.60356 6.57167 5.95847 6.13396 5.95847ZM10.866 5.95847C10.4283 5.95847 10.0774 5.60356 10.0774 5.1698C10.0774 4.73604 10.4283 4.38113 10.866 4.38113C11.3038 4.38113 11.6547 4.73604 11.6547 5.1698C11.6547 5.60356 11.3038 5.95847 10.866 5.95847Z" fill="white"/>
<path d="M2.97925 11.4792C2.97925 14.5275 5.45176 17 8.5 17C11.5482 17 14.0207 14.5275 14.0207 11.4792V8.32452H2.97925V11.4792Z" fill="white"/>
</svg>
