<svg width="1432" height="1411" viewBox="0 0 1432 1411" fill="none" xmlns="http://www.w3.org/2000/svg">
<path d="M1394.11 454.029L1394.11 454.03C1439.65 568.171 1442.84 694.844 1403.08 811.127C1363.33 927.409 1283.26 1025.62 1177.38 1087.99L663.76 1384.52C613.362 1411.34 554.521 1417.53 499.642 1401.8C444.762 1386.07 398.133 1349.65 369.588 1300.2C341.042 1250.76 332.811 1192.17 346.629 1136.77C360.446 1081.38 395.231 1033.52 443.65 1003.28L957.271 706.745L957.281 706.74L957.289 706.734C973.423 696.484 984.973 680.397 989.527 661.832C994.082 643.268 991.288 623.662 981.731 607.108C972.173 590.554 956.591 578.332 938.237 572.994C919.882 567.656 900.176 569.615 883.232 578.462L883.222 578.467L883.213 578.472L622.098 729.227C571.514 758.432 511.399 766.346 454.978 751.227C398.558 736.109 350.454 699.196 321.248 648.61C292.042 598.025 284.127 537.909 299.244 481.488C314.362 425.067 351.273 376.963 401.857 347.758L911.931 53.2668L911.938 53.2624C928.765 43.1598 940.889 26.7865 945.643 7.74452C950.397 -11.2975 947.392 -31.4484 937.29 -48.2753C927.187 -65.1022 910.814 -77.2267 891.772 -81.9814C872.731 -86.7358 852.582 -83.7322 835.757 -73.6314L331.191 217.68C257.708 260.112 201.121 326.607 170.989 405.932C140.858 485.257 139.026 572.552 165.806 653.072L165.807 653.076C178.87 691.285 174.17 734.019 138.81 754.434C121.098 764.66 99.398 767.085 80.304 762.342C61.2122 757.6 44.7763 745.707 37.5063 727.346L37.5058 727.345C-8.06312 613.141 -11.2232 486.393 28.5978 370.062C68.4185 253.731 148.586 155.51 254.579 93.1906L768.199 -203.348C818.597 -230.16 877.437 -236.354 932.315 -220.626C987.196 -204.896 1033.82 -168.47 1062.37 -119.028C1090.92 -69.5858 1099.15 -10.9911 1085.33 44.4016C1071.51 99.7915 1036.73 147.651 988.307 177.892L474.916 474.299L474.906 474.304L474.897 474.31C458.764 484.56 447.214 500.647 442.66 519.211C438.105 537.775 440.899 557.382 450.456 573.936C460.013 590.49 475.596 602.712 493.95 608.049C512.305 613.387 532.011 611.428 548.955 602.582L548.965 602.577L548.974 602.571L810.088 451.817C860.673 422.612 920.788 414.698 977.209 429.816C1033.63 444.935 1081.73 481.847 1110.94 532.433C1140.14 583.019 1148.06 643.135 1132.94 699.556C1117.83 755.976 1080.91 804.081 1030.33 833.286L519.912 1127.98L519.905 1127.98C503.078 1138.08 490.954 1154.46 486.2 1173.5C481.446 1192.54 484.45 1212.69 494.553 1229.52C504.656 1246.34 521.029 1258.47 540.071 1263.22C559.111 1267.98 579.259 1264.97 596.084 1254.87C596.086 1254.87 596.088 1254.87 596.09 1254.87L1100.65 963.562C1174.14 921.13 1230.72 854.635 1260.85 775.31C1290.99 695.985 1292.82 608.691 1266.04 528.171L1266.04 528.167C1252.97 489.957 1257.67 447.223 1293.03 426.808C1310.75 416.582 1332.39 414.19 1351.42 418.966C1370.46 423.741 1386.84 435.667 1394.11 454.029Z" stroke="url(#paint0_linear_202_5763)"/>
<defs>
<linearGradient id="paint0_linear_202_5763" x1="384.829" y1="17.4135" x2="934.5" y2="909" gradientUnits="userSpaceOnUse">
<stop stop-color="white" stop-opacity="0.18"/>
<stop offset="1" stop-color="white" stop-opacity="0"/>
</linearGradient>
</defs>
</svg>
