<svg width="776" height="99" viewBox="0 0 776 99" fill="none" xmlns="http://www.w3.org/2000/svg">
<g clip-path="url(#clip0_130_396)">
<path d="M763.115 98.1614H12.5788C5.63173 98.1614 0 92.559 0 85.6481V12.654C0 5.74312 5.63173 0.140739 12.5788 0.140739H763.115C770.062 0.140739 775.694 5.74312 775.694 12.654V85.6481C775.694 92.559 770.062 98.1614 763.115 98.1614Z" fill="#161B24"/>
<path d="M37.2266 27.5563L35.1813 34.5522H34.1372L31.7234 25.7355H32.878L34.6531 32.9331H34.7023L36.6984 25.7355H37.8163L39.8124 32.9331H39.8615L41.6365 25.7355H42.7913L40.3774 34.5522H39.3333L37.2881 27.5563H37.2266ZM45.0085 33.7579C46.0158 33.7579 46.7897 33.0553 46.7897 32.1387V31.6194L45.0822 31.7233C44.2223 31.7782 43.731 32.1571 43.731 32.7558C43.731 33.3607 44.2408 33.7579 45.0085 33.7579ZM44.769 34.6622C43.4976 34.6622 42.6438 33.8984 42.6438 32.7558C42.6438 31.6683 43.4853 30.984 44.9594 30.8984L46.7897 30.7946V30.263C46.7897 29.4871 46.2737 29.0227 45.3893 29.0227C44.5663 29.0227 44.0503 29.4076 43.9152 30.0309H42.8834C42.9571 28.9311 43.9029 28.0879 45.4139 28.0879C46.9125 28.0879 47.8584 28.8943 47.8584 30.1591V34.5522H46.845V33.4586H46.8204C46.4396 34.1856 45.6289 34.6622 44.769 34.6622ZM49.2711 34.5522V25.7355H50.3397V34.5522H49.2711ZM51.8384 34.5522V25.7355H52.9072V34.5522H51.8384ZM56.9118 29.0104C55.9106 29.0104 55.2104 29.7742 55.1429 30.8312H58.613C58.5885 29.7681 57.919 29.0104 56.9118 29.0104ZM58.5885 32.7314H59.6387C59.4546 33.8434 58.3735 34.6622 56.9793 34.6622C55.1489 34.6622 54.0373 33.3975 54.0373 31.3995C54.0373 29.426 55.1674 28.0879 56.9301 28.0879C58.656 28.0879 59.7186 29.3343 59.7186 31.2589V31.6622H55.1367V31.7233C55.1367 32.9392 55.8553 33.7396 57.0039 33.7396C57.8146 33.7396 58.4104 33.3302 58.5885 32.7314ZM61.1436 26.6642H62.2123V28.1978H63.4529V29.0715H62.2123V32.8475C62.2123 33.428 62.458 33.6907 63.0046 33.6907C63.1275 33.6907 63.3731 33.6723 63.4468 33.6601V34.5522C63.3178 34.5828 63.023 34.6011 62.7712 34.6011C61.5981 34.6011 61.1436 34.1245 61.1436 32.9026V29.0715H60.1916V28.1978H61.1436V26.6642ZM70.3504 34.6622C69.4169 34.6622 68.6859 34.2101 68.2744 33.4769H68.2499V34.5522H67.2303V25.7355H68.2989V29.261H68.3236C68.7227 28.5339 69.4659 28.0879 70.3689 28.0879C71.978 28.0879 73.0652 29.3832 73.0652 31.375C73.0652 33.3729 71.9842 34.6622 70.3504 34.6622ZM70.1416 29.0227C69.0606 29.0227 68.2929 29.9636 68.2929 31.375C68.2929 32.7925 69.0606 33.7274 70.1416 33.7274C71.2717 33.7274 71.972 32.8292 71.972 31.375C71.972 29.9331 71.2717 29.0227 70.1416 29.0227ZM76.259 33.7579C77.2663 33.7579 78.0402 33.0553 78.0402 32.1387V31.6194L76.3327 31.7233C75.4729 31.7782 74.9814 32.1571 74.9814 32.7558C74.9814 33.3607 75.4913 33.7579 76.259 33.7579ZM76.0195 34.6622C74.7481 34.6622 73.8943 33.8984 73.8943 32.7558C73.8943 31.6683 74.7358 30.984 76.2099 30.8984L78.0402 30.7946V30.263C78.0402 29.4871 77.5242 29.0227 76.6399 29.0227C75.8168 29.0227 75.3008 29.4076 75.1657 30.0309H74.1339C74.2076 28.9311 75.1535 28.0879 76.6644 28.0879C78.163 28.0879 79.109 28.8943 79.109 30.1591V34.5522H78.0955V33.4586H78.0709C77.6901 34.1856 76.8794 34.6622 76.0195 34.6622ZM80.5216 34.5522V25.7355H81.5903V34.5522H80.5216ZM85.1404 33.7579C86.1477 33.7579 86.9216 33.0553 86.9216 32.1387V31.6194L85.2141 31.7233C84.3542 31.7782 83.8628 32.1571 83.8628 32.7558C83.8628 33.3607 84.3726 33.7579 85.1404 33.7579ZM84.9008 34.6622C83.6294 34.6622 82.7757 33.8984 82.7757 32.7558C82.7757 31.6683 83.6171 30.984 85.0912 30.8984L86.9216 30.7946V30.263C86.9216 29.4871 86.4056 29.0227 85.5211 29.0227C84.6982 29.0227 84.1822 29.4076 84.0471 30.0309H83.0152C83.0889 28.9311 84.0348 28.0879 85.5458 28.0879C87.0444 28.0879 87.9902 28.8943 87.9902 30.1591V34.5522H86.9768V33.4586H86.9523C86.5715 34.1856 85.7608 34.6622 84.9008 34.6622ZM89.3476 34.5522V28.1978H90.355V29.2121H90.3795C90.7357 28.5278 91.4175 28.0879 92.4064 28.0879C93.8067 28.0879 94.6175 28.986 94.6175 30.428V34.5522H93.5487V30.6174C93.5487 29.5909 93.0635 29.0288 92.0809 29.0288C91.0735 29.0288 90.4164 29.7375 90.4164 30.8129V34.5522H89.3476ZM101.288 30.2813H100.244C100.09 29.5909 99.5496 29.0227 98.6098 29.0227C97.5042 29.0227 96.7549 29.9331 96.7549 31.375C96.7549 32.8536 97.5165 33.7274 98.6221 33.7274C99.4942 33.7274 100.065 33.2691 100.25 32.5054H101.3C101.134 33.7701 100.065 34.6622 98.6159 34.6622C96.847 34.6622 95.6677 33.4219 95.6677 31.375C95.6677 29.3709 96.8409 28.0879 98.6036 28.0879C100.201 28.0879 101.153 29.1388 101.288 30.2813ZM104.844 29.0104C103.843 29.0104 103.143 29.7742 103.075 30.8312H106.546C106.521 29.7681 105.851 29.0104 104.844 29.0104ZM106.521 32.7314H107.571C107.386 33.8434 106.306 34.6622 104.911 34.6622C103.081 34.6622 101.969 33.3975 101.969 31.3995C101.969 29.426 103.1 28.0879 104.862 28.0879C106.589 28.0879 107.651 29.3343 107.651 31.2589V31.6622H103.069V31.7233C103.069 32.9392 103.787 33.7396 104.936 33.7396C105.747 33.7396 106.342 33.3302 106.521 32.7314Z" fill="#5E6F8D"/>
<path d="M191.626 58.426C191.257 58.0492 191.042 57.9118 190.806 57.9118C190.366 57.9118 190.12 58.2223 190.085 58.8232H189.266C189.261 57.7387 189.854 57.0716 190.827 57.0716C191.262 57.0716 191.646 57.2651 192.091 57.7081C192.45 58.0798 192.67 58.2172 192.899 58.2172C193.34 58.2172 193.591 57.9067 193.627 57.3058H194.44C194.445 58.3904 193.857 59.0574 192.885 59.0574C192.45 59.0574 192.07 58.869 191.626 58.426ZM199.139 61.6643V60.1369H195.429V59.3069C196.058 58.146 196.922 56.8069 198.668 54.317H200.029V59.3324H201.073V60.1369H200.029V61.6643H199.139ZM196.34 59.3119V59.3324H199.139V55.0808H199.124C197.726 57.0665 196.922 58.2937 196.34 59.3119ZM204.559 61.7865C202.834 61.7865 201.837 60.31 201.837 57.9881C201.837 55.6867 202.845 54.1948 204.559 54.1948C206.274 54.1948 207.272 55.6765 207.272 57.983C207.272 60.3048 206.279 61.7865 204.559 61.7865ZM204.559 60.9871C205.711 60.9871 206.346 59.8211 206.346 57.9881C206.346 56.1806 205.7 54.9993 204.559 54.9993C203.418 54.9993 202.763 56.1908 202.763 57.983C202.763 59.816 203.403 60.9871 204.559 60.9871ZM208.859 61.7152C208.532 61.7152 208.275 61.4607 208.275 61.1348C208.275 60.8089 208.532 60.5543 208.859 60.5543C209.187 60.5543 209.443 60.8089 209.443 61.1348C209.443 61.4607 209.187 61.7152 208.859 61.7152ZM213.373 61.7865C211.648 61.7865 210.65 60.31 210.65 57.9881C210.65 55.6867 211.659 54.1948 213.373 54.1948C215.087 54.1948 216.086 55.6765 216.086 57.983C216.086 60.3048 215.093 61.7865 213.373 61.7865ZM213.373 60.9871C214.524 60.9871 215.16 59.8211 215.16 57.9881C215.16 56.1806 214.515 54.9993 213.373 54.9993C212.232 54.9993 211.577 56.1908 211.577 57.983C211.577 59.816 212.216 60.9871 213.373 60.9871ZM218.927 61.6643V55.2895H218.906L216.951 56.6898V55.7224L218.917 54.317H219.817V61.6643H218.927ZM228.534 60.8395V61.6643H223.957V54.317H228.534V55.1419H224.879V57.4994H228.344V58.314H224.879V60.8395H228.534ZM232.541 61.6643H231.62V55.1419H229.291V54.317H234.87V55.1419H232.541V61.6643ZM241.739 61.6643H240.817V58.3191H236.764V61.6643H235.842V54.317H236.764V57.4943H240.817V54.317H241.739V61.6643Z" fill="#5E6F8D"/>
<path d="M32.4707 51.2774C32.4707 48.6297 34.6102 46.6948 37.548 46.6948C40.3632 46.6948 42.4616 48.4769 42.4616 50.8089C42.4616 52.5198 41.5404 53.7927 39.3805 55.9922L35.685 59.6888V59.7397H42.6971V61.6643H32.5936V60.1165L37.9268 54.7092C39.7285 52.8456 40.1993 52.0717 40.1993 50.921C40.1993 49.6175 39.0119 48.5788 37.4764 48.5788C35.859 48.5788 34.6409 49.7397 34.6409 51.2672V51.2977H32.4707V51.2774ZM50.1187 61.9393C46.5768 61.9393 44.4782 58.9861 44.4782 54.3018C44.4782 49.6481 46.5972 46.6948 50.1187 46.6948C53.6503 46.6948 55.7386 49.6378 55.7386 54.2916C55.7386 58.976 53.6606 61.9393 50.1187 61.9393ZM50.1187 60.0248C52.2274 60.0248 53.4251 57.8558 53.4251 54.3018C53.4251 50.7988 52.207 48.6094 50.1187 48.6094C48.0304 48.6094 46.802 50.8089 46.802 54.3018C46.802 57.8456 48.01 60.0248 50.1187 60.0248ZM58.8608 64.6888H57.1001L58.0214 59.312H60.253L58.8608 64.6888ZM69.2204 55.0146V53.2224H71.0015C72.5984 53.2224 73.6937 52.2244 73.6937 50.8394C73.6937 49.4749 72.752 48.5686 71.0015 48.5686C69.4045 48.5686 68.34 49.4851 68.2069 50.9311H66.0469C66.2209 48.3547 68.1762 46.6948 71.1038 46.6948C73.8984 46.6948 75.9356 48.2733 75.9356 50.534C75.9356 52.367 74.7277 53.6807 72.8953 54.0064V54.0472C75.1167 54.2 76.5497 55.5543 76.5497 57.6114C76.5497 60.1776 74.2056 61.9393 71.1244 61.9393C67.9408 61.9393 65.8934 60.198 65.7501 57.6623H67.951C68.0943 59.0676 69.2612 60.035 71.1244 60.035C72.926 60.035 74.2158 59.0166 74.2158 57.5808C74.2158 55.9922 73.0079 55.0146 71.063 55.0146H69.2204ZM84.0839 61.9393C80.542 61.9393 78.4436 58.9861 78.4436 54.3018C78.4436 49.6481 80.5626 46.6948 84.0839 46.6948C87.6156 46.6948 89.7039 49.6378 89.7039 54.2916C89.7039 58.976 87.6259 61.9393 84.0839 61.9393ZM84.0839 60.0248C86.1928 60.0248 87.3904 57.8558 87.3904 54.3018C87.3904 50.7988 86.1722 48.6094 84.0839 48.6094C81.9957 48.6094 80.7673 50.8089 80.7673 54.3018C80.7673 57.8456 81.9752 60.0248 84.0839 60.0248ZM91.4748 51.2774C91.4748 48.6297 93.6143 46.6948 96.5523 46.6948C99.3673 46.6948 101.466 48.4769 101.466 50.8089C101.466 52.5198 100.545 53.7927 98.3846 55.9922L94.6891 59.6888V59.7397H101.701V61.6643H91.5977V60.1165L96.931 54.7092C98.7327 52.8456 99.2036 52.0717 99.2036 50.921C99.2036 49.6175 98.0161 48.5788 96.4806 48.5788C94.8631 48.5788 93.645 49.7397 93.645 51.2672V51.2977H91.4748V51.2774ZM105.345 61.7763C104.598 61.7763 104.005 61.1857 104.005 60.4423C104.005 59.6989 104.598 59.1083 105.345 59.1083C106.093 59.1083 106.686 59.6989 106.686 60.4423C106.686 61.1857 106.093 61.7763 105.345 61.7763ZM112.337 55.0146V53.2224H114.118C115.716 53.2224 116.811 52.2244 116.811 50.8394C116.811 49.4749 115.869 48.5686 114.118 48.5686C112.522 48.5686 111.457 49.4851 111.324 50.9311H109.164C109.338 48.3547 111.293 46.6948 114.221 46.6948C117.015 46.6948 119.052 48.2733 119.052 50.534C119.052 52.367 117.845 53.6807 116.012 54.0064V54.0472C118.234 54.2 119.666 55.5543 119.666 57.6114C119.666 60.1776 117.323 61.9393 114.241 61.9393C111.057 61.9393 109.01 60.198 108.867 57.6623H111.068C111.211 59.0676 112.378 60.035 114.241 60.035C116.043 60.035 117.333 59.0166 117.333 57.5808C117.333 55.9922 116.125 55.0146 114.18 55.0146H112.337ZM127.109 61.9393C124.16 61.9393 122.001 60.147 121.868 57.5808H124.059C124.222 59.0371 125.481 60.035 127.129 60.035C128.993 60.035 130.282 58.7418 130.282 56.8986C130.282 55.0554 128.993 53.7316 127.15 53.7316C125.87 53.7316 124.764 54.312 124.192 55.2794H122.093L122.871 46.9698H131.664V48.8944H124.714L124.304 53.4057H124.355C125 52.479 126.207 51.9189 127.651 51.9189C130.486 51.9189 132.524 53.9861 132.524 56.8375C132.524 59.8517 130.292 61.9393 127.109 61.9393ZM141.153 46.9698V56.3079C141.153 58.4057 142.484 59.8822 144.839 59.8822C147.193 59.8822 148.534 58.4057 148.534 56.3079V46.9698H150.817V56.5014C150.817 59.6684 148.544 61.9088 144.839 61.9088C141.133 61.9088 138.861 59.6684 138.861 56.5014V46.9698H141.153ZM152.885 57.5706H155.147C155.311 59.0269 156.733 59.9841 158.679 59.9841C160.541 59.9841 161.883 59.0269 161.883 57.7132C161.883 56.5727 161.074 55.8904 159.16 55.422L157.246 54.9637C154.533 54.312 153.274 53.0493 153.274 51.0024C153.274 48.4668 155.495 46.7254 158.648 46.7254C161.77 46.7254 163.909 48.4668 163.982 51.0024H161.75C161.617 49.536 160.399 48.65 158.617 48.65C156.836 48.65 155.618 49.5462 155.618 50.8496C155.618 51.8884 156.396 52.4993 158.3 52.9678L159.927 53.3649C162.958 54.0778 164.216 55.2896 164.216 57.4383C164.216 60.1878 162.016 61.9088 158.515 61.9088C155.239 61.9088 153.028 60.2284 152.885 57.5706ZM166.274 46.9698H171.485C175.876 46.9698 178.477 49.6582 178.477 54.2916C178.477 58.9352 175.887 61.6643 171.485 61.6643H166.274V46.9698ZM168.568 48.9352V59.6888H171.27C174.402 59.6888 176.132 57.7845 176.132 54.312C176.132 50.8496 174.392 48.9352 171.27 48.9352H168.568Z" fill="white"/>
<path d="M449.904 34.5522H448.798V30.7579L445.653 25.7355H446.913L449.332 29.6948H449.369L451.789 25.7355H453.048L449.904 30.7579V34.5522ZM455.377 34.6622C453.607 34.6622 452.416 33.3975 452.416 31.375C452.416 29.3465 453.607 28.0879 455.377 28.0879C457.14 28.0879 458.33 29.3465 458.33 31.375C458.33 33.3975 457.14 34.6622 455.377 34.6622ZM455.377 33.7274C456.507 33.7274 457.243 32.872 457.243 31.375C457.243 29.8781 456.507 29.0227 455.377 29.0227C454.247 29.0227 453.503 29.8781 453.503 31.375C453.503 32.872 454.247 33.7274 455.377 33.7274ZM464.657 28.1978V34.5522H463.644V33.5197H463.619C463.238 34.2528 462.575 34.6622 461.593 34.6622C460.197 34.6622 459.381 33.764 459.381 32.322V28.1978H460.45V32.1327C460.45 33.1652 460.935 33.7212 461.924 33.7212C462.962 33.7212 463.588 33.0125 463.588 31.931V28.1978H464.657ZM466.045 34.5522V28.1978H467.053V29.2365H467.077C467.286 28.5339 467.876 28.0879 468.625 28.0879C468.809 28.0879 468.969 28.1184 469.055 28.1306V29.1632C468.969 29.1326 468.742 29.1021 468.484 29.1021C467.654 29.1021 467.114 29.6948 467.114 30.5929V34.5522H466.045ZM474.613 33.7579C475.62 33.7579 476.395 33.0553 476.395 32.1387V31.6194L474.687 31.7233C473.826 31.7782 473.336 32.1571 473.336 32.7558C473.336 33.3607 473.845 33.7579 474.613 33.7579ZM474.374 34.6622C473.102 34.6622 472.249 33.8984 472.249 32.7558C472.249 31.6683 473.09 30.984 474.564 30.8984L476.395 30.7946V30.263C476.395 29.4871 475.878 29.0227 474.994 29.0227C474.171 29.0227 473.655 29.4076 473.519 30.0309H472.488C472.561 28.9311 473.508 28.0879 475.018 28.0879C476.517 28.0879 477.463 28.8943 477.463 30.1591V34.5522H476.449V33.4586H476.425C476.045 34.1856 475.233 34.6622 474.374 34.6622ZM481.241 34.6622C479.613 34.6622 478.507 33.3669 478.507 31.375C478.507 29.3832 479.606 28.0879 481.216 28.0879C482.131 28.0879 482.868 28.5339 483.249 29.2304H483.273V25.7355H484.342V34.5522H483.322V33.4769H483.304C482.893 34.2101 482.162 34.6622 481.241 34.6622ZM481.443 29.0227C480.313 29.0227 479.6 29.9392 479.6 31.375C479.6 32.8169 480.313 33.7274 481.443 33.7274C482.543 33.7274 483.279 32.7987 483.279 31.375C483.279 29.9576 482.543 29.0227 481.443 29.0227ZM485.786 34.5522V28.1978H486.793V29.2365H486.817C487.026 28.5339 487.616 28.0879 488.366 28.0879C488.549 28.0879 488.709 28.1184 488.795 28.1306V29.1632C488.709 29.1326 488.482 29.1021 488.224 29.1021C487.395 29.1021 486.854 29.6948 486.854 30.5929V34.5522H485.786ZM491.921 29.0104C490.92 29.0104 490.22 29.7742 490.153 30.8312H493.622C493.598 29.7681 492.929 29.0104 491.921 29.0104ZM493.598 32.7314H494.649C494.464 33.8434 493.383 34.6622 491.989 34.6622C490.159 34.6622 489.047 33.3975 489.047 31.3995C489.047 29.426 490.177 28.0879 491.94 28.0879C493.665 28.0879 494.728 29.3343 494.728 31.2589V31.6622H490.146V31.7233C490.146 32.9392 490.865 33.7396 492.013 33.7396C492.824 33.7396 493.42 33.3302 493.598 32.7314ZM495.699 29.9514C495.699 28.8638 496.675 28.0879 498.082 28.0879C499.402 28.0879 500.373 28.8699 500.422 29.9453H499.402C499.329 29.3343 498.831 28.9554 498.045 28.9554C497.265 28.9554 496.749 29.3404 496.749 29.8964C496.749 30.3363 497.087 30.6296 497.811 30.8129L498.801 31.0512C500.09 31.375 500.557 31.8393 500.557 32.7742C500.557 33.8802 499.506 34.6622 498.015 34.6622C496.614 34.6622 495.637 33.9046 495.527 32.7803H496.595C496.712 33.4402 497.216 33.7945 498.082 33.7945C498.947 33.7945 499.482 33.428 499.482 32.8536C499.482 32.4015 499.218 32.1571 498.5 31.9677L497.375 31.6805C496.251 31.3933 495.699 30.819 495.699 29.9514ZM501.559 29.9514C501.559 28.8638 502.535 28.0879 503.941 28.0879C505.262 28.0879 506.233 28.8699 506.281 29.9453H505.262C505.188 29.3343 504.691 28.9554 503.905 28.9554C503.125 28.9554 502.608 29.3404 502.608 29.8964C502.608 30.3363 502.946 30.6296 503.671 30.8129L504.66 31.0512C505.95 31.375 506.416 31.8393 506.416 32.7742C506.416 33.8802 505.366 34.6622 503.874 34.6622C502.474 34.6622 501.497 33.9046 501.386 32.7803H502.455C502.571 33.4402 503.075 33.7945 503.941 33.7945C504.807 33.7945 505.342 33.428 505.342 32.8536C505.342 32.4015 505.078 32.1571 504.358 31.9677L503.235 31.6805C502.111 31.3933 501.559 30.819 501.559 29.9514Z" fill="#5E6F8D"/>
<path d="M448.454 59.2448H448.43L446.888 61.6643H445.702L447.877 58.4871L445.74 55.3099H446.931L448.467 57.6928H448.492L450.009 55.3099H451.2L449.044 58.4444L451.169 61.6643H449.983L448.454 59.2448ZM452.447 61.6643V56.1836H451.556V55.3099H452.447V54.6012C452.447 53.3792 453.018 52.7987 454.197 52.7987C454.436 52.7987 454.694 52.8232 454.848 52.8476V53.7091C454.719 53.6908 454.541 53.6724 454.363 53.6724C453.785 53.6724 453.51 53.978 453.51 54.6073V55.3099H454.818V56.1836H453.515V61.6643H452.447ZM458.036 61.7744C456.408 61.7744 455.303 60.479 455.303 58.4871C455.303 56.4953 456.402 55.2 458.012 55.2C458.927 55.2 459.664 55.646 460.044 56.3425H460.068V52.8476H461.138V61.6643H460.118V60.589H460.1C459.688 61.3222 458.957 61.7744 458.036 61.7744ZM458.238 56.1348C457.108 56.1348 456.396 57.0513 456.396 58.4871C456.396 59.9291 457.108 60.8395 458.238 60.8395C459.338 60.8395 460.075 59.9108 460.075 58.4871C460.075 57.0697 459.338 56.1348 458.238 56.1348ZM465.707 61.811C463.638 61.811 462.44 60.0391 462.44 57.2529C462.44 54.4912 463.649 52.701 465.707 52.701C467.765 52.701 468.963 54.479 468.963 57.2468C468.963 60.0329 467.771 61.811 465.707 61.811ZM465.707 60.8517C467.09 60.8517 467.851 59.4525 467.851 57.2529C467.851 55.0839 467.077 53.6664 465.707 53.6664C464.338 53.6664 463.552 55.0961 463.552 57.2468C463.552 59.4464 464.319 60.8517 465.707 60.8517ZM473.336 61.811C471.266 61.811 470.069 60.0391 470.069 57.2529C470.069 54.4912 471.278 52.701 473.336 52.701C475.394 52.701 476.591 54.479 476.591 57.2468C476.591 60.0329 475.399 61.811 473.336 61.811ZM473.336 60.8517C474.718 60.8517 475.48 59.4525 475.48 57.2529C475.48 55.0839 474.705 53.6664 473.336 53.6664C471.966 53.6664 471.18 55.0961 471.18 57.2468C471.18 59.4464 471.947 60.8517 473.336 60.8517ZM480.964 61.811C478.894 61.811 477.697 60.0391 477.697 57.2529C477.697 54.4912 478.906 52.701 480.964 52.701C483.022 52.701 484.22 54.479 484.22 57.2468C484.22 60.0329 483.028 61.811 480.964 61.811ZM480.964 60.8517C482.346 60.8517 483.108 59.4525 483.108 57.2529C483.108 55.0839 482.334 53.6664 480.964 53.6664C479.594 53.6664 478.808 55.0961 478.808 57.2468C478.808 59.4464 479.576 60.8517 480.964 60.8517ZM487.887 61.7744C486.259 61.7744 485.153 60.479 485.153 58.4871C485.153 56.4953 486.252 55.2 487.861 55.2C488.776 55.2 489.513 55.646 489.895 56.3425H489.919V52.8476H490.988V61.6643H489.968V60.589H489.949C489.539 61.3222 488.807 61.7744 487.887 61.7744ZM488.089 56.1348C486.959 56.1348 486.246 57.0513 486.246 58.4871C486.246 59.9291 486.959 60.8395 488.089 60.8395C489.188 60.8395 489.925 59.9108 489.925 58.4871C489.925 57.0697 489.188 56.1348 488.089 56.1348ZM492.776 61.6643V56.1836H491.885V55.3099H492.776V54.6012C492.776 53.3792 493.347 52.7987 494.526 52.7987C494.765 52.7987 495.023 52.8232 495.177 52.8476V53.7091C495.048 53.6908 494.87 53.6724 494.692 53.6724C494.114 53.6724 493.837 53.978 493.837 54.6073V55.3099H495.146V56.1836H493.844V61.6643H492.776ZM497.375 58.1328L500.201 55.3099H501.497L498.726 58.0533L501.583 61.6643H500.342L497.972 58.7071L497.375 59.2692V61.6643H496.307V52.8476H497.375V58.1328ZM502.412 61.6643V52.8476H503.48V61.6643H502.412ZM506.755 57.5951V56.6663H507.817C508.837 56.6663 509.549 56.0126 509.549 55.1205C509.549 54.2468 508.953 53.6542 507.829 53.6542C506.809 53.6542 506.134 54.2346 506.036 55.1572H504.973C505.096 53.6602 506.214 52.701 507.878 52.701C509.463 52.701 510.66 53.648 510.66 54.9739C510.66 56.0798 509.948 56.874 508.843 57.0697V57.0941C510.181 57.1735 511.041 57.9984 511.041 59.2386C511.041 60.754 509.653 61.811 507.915 61.811C506.06 61.811 504.875 60.7906 504.795 59.3303H505.857C505.956 60.2346 506.712 60.8579 507.903 60.8579C509.076 60.8579 509.917 60.198 509.917 59.2753C509.917 58.2366 509.131 57.5951 507.866 57.5951H506.755ZM516.606 61.6643V59.8314H512.153V58.8354C512.909 57.4424 513.947 55.8354 516.041 52.8476H517.675V58.866H518.928V59.8314H517.675V61.6643H516.606ZM513.246 58.8416V58.866H516.606V53.7641H516.587C514.911 56.147 513.947 57.6195 513.246 58.8416ZM521.815 57.5951V56.6663H522.877C523.897 56.6663 524.609 56.0126 524.609 55.1205C524.609 54.2468 524.013 53.6542 522.889 53.6542C521.869 53.6542 521.194 54.2346 521.096 55.1572H520.034C520.156 53.6602 521.274 52.701 522.938 52.701C524.523 52.701 525.72 53.648 525.72 54.9739C525.72 56.0798 525.009 56.874 523.903 57.0697V57.0941C525.241 57.1735 526.102 57.9984 526.102 59.2386C526.102 60.754 524.713 61.811 522.975 61.811C521.121 61.811 519.935 60.7906 519.856 59.3303H520.917C521.016 60.2346 521.772 60.8579 522.963 60.8579C524.137 60.8579 524.977 60.198 524.977 59.2753C524.977 58.2366 524.191 57.5951 522.926 57.5951H521.815ZM531.666 61.6643V59.8314H527.213V58.8354C527.969 57.4424 529.007 55.8354 531.101 52.8476H532.735V58.866H533.988V59.8314H532.735V61.6643H531.666ZM528.306 58.8416V58.866H531.666V53.7641H531.648C529.971 56.147 529.007 57.6195 528.306 58.8416ZM538.17 61.811C536.101 61.811 534.903 60.0391 534.903 57.2529C534.903 54.4912 536.113 52.701 538.17 52.701C540.228 52.701 541.426 54.479 541.426 57.2468C541.426 60.0329 540.234 61.811 538.17 61.811ZM538.17 60.8517C539.553 60.8517 540.314 59.4525 540.314 57.2529C540.314 55.0839 539.54 53.6664 538.17 53.6664C536.801 53.6664 536.015 55.0961 536.015 57.2468C536.015 59.4464 536.783 60.8517 538.17 60.8517ZM546.911 61.6643V59.8314H542.458V58.8354C543.213 57.4424 544.251 55.8354 546.346 52.8476H547.98V58.866H549.232V59.8314H547.98V61.6643H546.911ZM543.551 58.8416V58.866H546.911V53.7641H546.893C545.216 56.147 544.251 57.6195 543.551 58.8416ZM552.119 57.5951V56.6663H553.182C554.201 56.6663 554.914 56.0126 554.914 55.1205C554.914 54.2468 554.318 53.6542 553.194 53.6542C552.175 53.6542 551.499 54.2346 551.4 55.1572H550.338C550.461 53.6602 551.578 52.701 553.243 52.701C554.828 52.701 556.025 53.648 556.025 54.9739C556.025 56.0798 555.313 56.874 554.207 57.0697V57.0941C555.546 57.1735 556.407 57.9984 556.407 59.2386C556.407 60.754 555.019 61.811 553.28 61.811C551.425 61.811 550.24 60.7906 550.16 59.3303H551.222C551.32 60.2346 552.076 60.8579 553.268 60.8579C554.441 60.8579 555.282 60.198 555.282 59.2753C555.282 58.2366 554.496 57.5951 553.23 57.5951H552.119ZM560.576 61.811C559.066 61.811 557.904 60.9067 557.635 59.5258H558.759C558.993 60.3263 559.711 60.8517 560.589 60.8517C562.063 60.8517 562.911 59.5198 562.941 57.1796H562.935C562.929 57.1796 562.929 57.1796 562.923 57.1796C562.548 58.0533 561.577 58.6215 560.447 58.6215C558.759 58.6215 557.506 57.3813 557.506 55.7071C557.506 53.9658 558.826 52.6948 560.645 52.6948C561.977 52.6948 563.033 53.4098 563.574 54.6745C563.869 55.3528 564.01 56.147 564.01 57.1063C564.01 60.0758 562.745 61.811 560.576 61.811ZM560.638 57.6561C561.811 57.6561 562.683 56.8252 562.683 55.7009C562.683 54.5707 561.799 53.6847 560.656 53.6847C559.52 53.6847 558.624 54.5645 558.624 55.6705C558.624 56.8191 559.477 57.6561 560.638 57.6561ZM567.683 61.7744C566.056 61.7744 564.95 60.479 564.95 58.4871C564.95 56.4953 566.049 55.2 567.658 55.2C568.573 55.2 569.31 55.646 569.692 56.3425H569.716V52.8476H570.785V61.6643H569.765V60.589H569.746C569.335 61.3222 568.604 61.7744 567.683 61.7744ZM567.886 56.1348C566.756 56.1348 566.043 57.0513 566.043 58.4871C566.043 59.9291 566.756 60.8395 567.886 60.8395C568.985 60.8395 569.722 59.9108 569.722 58.4871C569.722 57.0697 568.985 56.1348 567.886 56.1348ZM572.572 61.6643V56.1836H571.681V55.3099H572.572V54.6012C572.572 53.3792 573.144 52.7987 574.323 52.7987C574.562 52.7987 574.82 52.8232 574.974 52.8476V53.7091C574.845 53.6908 574.667 53.6724 574.489 53.6724C573.911 53.6724 573.634 53.978 573.634 54.6073V55.3099H574.943V56.1836H573.641V61.6643H572.572ZM578.308 59.2448H578.284L576.742 61.6643H575.557L577.731 58.4871L575.593 55.3099H576.785L578.321 57.6928H578.345L579.863 55.3099H581.054L578.899 58.4444L581.023 61.6643H579.838L578.308 59.2448ZM584.801 61.811C583.29 61.811 582.129 60.9067 581.859 59.5258H582.982C583.216 60.3263 583.934 60.8517 584.813 60.8517C586.288 60.8517 587.134 59.5198 587.165 57.1796H587.16C587.153 57.1796 587.153 57.1796 587.147 57.1796C586.772 58.0533 585.802 58.6215 584.672 58.6215C582.982 58.6215 581.73 57.3813 581.73 55.7071C581.73 53.9658 583.051 52.6948 584.868 52.6948C586.202 52.6948 587.257 53.4098 587.798 54.6745C588.093 55.3528 588.234 56.147 588.234 57.1063C588.234 60.0758 586.969 61.811 584.801 61.811ZM584.862 57.6561C586.035 57.6561 586.907 56.8252 586.907 55.7009C586.907 54.5707 586.023 53.6847 584.881 53.6847C583.744 53.6847 582.847 54.5645 582.847 55.6705C582.847 56.8191 583.702 57.6561 584.862 57.6561ZM592.331 61.811C590.82 61.811 589.659 60.9067 589.389 59.5258H590.513C590.746 60.3263 591.465 60.8517 592.343 60.8517C593.817 60.8517 594.665 59.5198 594.695 57.1796H594.689C594.683 57.1796 594.683 57.1796 594.677 57.1796C594.302 58.0533 593.332 58.6215 592.202 58.6215C590.513 58.6215 589.26 57.3813 589.26 55.7071C589.26 53.9658 590.58 52.6948 592.399 52.6948C593.731 52.6948 594.788 53.4098 595.329 54.6745C595.623 55.3528 595.765 56.147 595.765 57.1063C595.765 60.0758 594.499 61.811 592.331 61.811ZM592.392 57.6561C593.565 57.6561 594.438 56.8252 594.438 55.7009C594.438 54.5707 593.553 53.6847 592.41 53.6847C591.274 53.6847 590.378 54.5645 590.378 55.6705C590.378 56.8191 591.231 57.6561 592.392 57.6561ZM599.179 61.6643V54.0147H599.155L596.809 55.6949V54.534L599.167 52.8476H600.248V61.6643H599.179ZM604.731 59.2448H604.707L603.165 61.6643H601.98L604.155 58.4871L602.016 55.3099H603.208L604.744 57.6928H604.768L606.286 55.3099H607.477L605.321 58.4444L607.446 61.6643H606.261L604.731 59.2448ZM611.506 61.811C609.437 61.811 608.239 60.0391 608.239 57.2529C608.239 54.4912 609.448 52.701 611.506 52.701C613.564 52.701 614.762 54.479 614.762 57.2468C614.762 60.0329 613.57 61.811 611.506 61.811ZM611.506 60.8517C612.889 60.8517 613.65 59.4525 613.65 57.2529C613.65 55.0839 612.876 53.6664 611.506 53.6664C610.137 53.6664 609.351 55.0961 609.351 57.2468C609.351 59.4464 610.118 60.8517 611.506 60.8517ZM618.171 61.6643V54.0147H618.145L615.8 55.6949V54.534L618.158 52.8476H619.239V61.6643H618.171Z" fill="white"/>
<mask id="mask0_130_396" style="mask-type:luminance" maskUnits="userSpaceOnUse" x="629" y="47" width="18" height="17">
<path d="M646.761 47.0656H629.99V63.7499H646.761V47.0656Z" fill="white"/>
</mask>
<g mask="url(#mask0_130_396)">
<path d="M636.793 60.6215C635.155 60.6215 633.822 59.2957 633.822 57.6669V50.5414H632.6C631.539 50.5414 630.677 51.3985 630.677 52.4531V61.838C630.677 62.8927 631.539 63.7498 632.6 63.7498H641.335C642.394 63.7498 643.256 62.8927 643.256 61.838V60.6215H636.793Z" fill="#5E6F8D"/>
<path d="M646.052 48.9774C646.052 47.9214 645.191 47.0656 644.13 47.0656H636.793C635.731 47.0656 634.87 47.9214 634.87 48.9774V57.667C634.87 58.723 635.731 59.5788 636.793 59.5788H644.13C645.191 59.5788 646.052 58.723 646.052 57.667V48.9774Z" fill="#5E6F8D"/>
</g>
<path d="M388.371 11.6113V86.6909" stroke="#5E6F8D"/>
</g>
<defs>
<clipPath id="clip0_130_396">
<rect width="775.694" height="98.0206" fill="white" transform="translate(0 0.140747)"/>
</clipPath>
</defs>
</svg>
