<svg width="776" height="202" viewBox="0 0 776 202" fill="none" xmlns="http://www.w3.org/2000/svg">
<g clip-path="url(#clip0_130_361)">
<path d="M763.115 0.711487H12.5788C5.63173 0.711487 0 6.3326 0 13.2666V189.038C0 195.972 5.63173 201.593 12.5788 201.593H763.115C770.062 201.593 775.694 195.972 775.694 189.038V13.2666C775.694 6.3326 770.062 0.711487 763.115 0.711487Z" fill="#161B24"/>
<path d="M0 13.2666C0 6.3326 5.63173 0.711487 12.5788 0.711487H763.115C770.062 0.711487 775.694 6.3326 775.694 13.2666V37.3306H0V13.2666Z" fill="#1B212C"/>
<path d="M33.4002 23.7292H32.3069V14.883H33.3817L38.2339 21.8288H38.2892V14.883H39.3825V23.7292H38.3076L33.4554 16.808H33.4002V23.7292ZM42.8588 22.9323C43.8662 22.9323 44.64 22.2273 44.64 21.3077V20.7866L42.9325 20.8908C42.0727 20.946 41.5814 21.3261 41.5814 21.9268C41.5814 22.5338 42.0911 22.9323 42.8588 22.9323ZM42.6193 23.8396C41.3479 23.8396 40.4942 23.0732 40.4942 21.9268C40.4942 20.8357 41.3357 20.149 42.8097 20.0632L44.64 19.959V19.4256C44.64 18.6471 44.1242 18.1812 43.2397 18.1812C42.4166 18.1812 41.9008 18.5674 41.7656 19.1927H40.7338C40.8074 18.0893 41.7533 17.2433 43.2642 17.2433C44.7629 17.2433 45.7088 18.0524 45.7088 19.3214V23.7292H44.6953V22.6319H44.6707C44.29 23.3614 43.4792 23.8396 42.6193 23.8396ZM47.0661 23.7292V17.3535H48.0734V18.3712H48.098C48.399 17.6969 49.05 17.2433 49.9099 17.2433C50.782 17.2433 51.4269 17.6847 51.7033 18.457H51.728C52.0842 17.6969 52.8334 17.2433 53.7302 17.2433C54.9954 17.2433 55.8123 18.0647 55.8123 19.3276V23.7292H54.7436V19.5727C54.7436 18.7023 54.2584 18.1873 53.417 18.1873C52.5694 18.1873 51.9736 18.8126 51.9736 19.6771V23.7292H50.9049V19.4563C50.9049 18.69 50.3889 18.1873 49.5967 18.1873C48.7491 18.1873 48.1348 18.8494 48.1348 19.7322V23.7292H47.0661ZM59.7371 18.1689C58.7359 18.1689 58.0357 18.9353 57.9682 19.9958H61.4384C61.4139 18.9291 60.7444 18.1689 59.7371 18.1689ZM61.4139 21.9023H62.4641C62.2799 23.0181 61.1989 23.8396 59.8046 23.8396C57.9743 23.8396 56.8626 22.5706 56.8626 20.566C56.8626 18.5858 57.9927 17.2433 59.7556 17.2433C61.4814 17.2433 62.544 18.4938 62.544 20.4249V20.8295H57.962V20.8908C57.962 22.1108 58.6807 22.9139 59.8292 22.9139C60.64 22.9139 61.2358 22.5031 61.4139 21.9023Z" fill="#5E6F8D"/>
<path d="M82.9908 68.7183H79.4346V59.8721H82.9724C84.5447 59.8721 85.5766 60.7427 85.5766 62.0791C85.5766 63.0171 84.8826 63.8569 83.9981 64.004V64.0531C85.2019 64.1879 86.0127 65.0401 86.0127 66.2171C86.0127 67.7743 84.8764 68.7183 82.9908 68.7183ZM80.8104 60.994V63.6362H82.352C83.5436 63.6362 84.2008 63.1457 84.2008 62.2691C84.2008 61.4477 83.6357 60.994 82.6407 60.994H80.8104ZM80.8104 67.5964H82.7082C83.9489 67.5964 84.6061 67.0876 84.6061 66.1312C84.6061 65.175 83.9306 64.6845 82.6284 64.6845H80.8104V67.5964ZM87.0813 68.7183V62.2691H88.408V68.7183H87.0813ZM87.7447 61.325C87.3209 61.325 86.9769 60.9878 86.9769 60.571C86.9769 60.148 87.3209 59.8108 87.7447 59.8108C88.1747 59.8108 88.5186 60.148 88.5186 60.571C88.5186 60.9878 88.1747 61.325 87.7447 61.325ZM90.1524 60.7427H91.4852V62.2691H92.7136V63.3174H91.4852V66.873C91.4852 67.4309 91.7309 67.6823 92.2714 67.6823C92.4065 67.6823 92.6215 67.67 92.7074 67.6517V68.6999C92.5601 68.7367 92.2652 68.7612 91.9704 68.7612C90.6621 68.7612 90.1524 68.2647 90.1524 67.0202V63.3174H89.2126V62.2691H90.1524V60.7427ZM99.1934 64.4883H97.9282C97.7931 63.8017 97.2771 63.2561 96.4111 63.2561C95.3854 63.2561 94.7098 64.1083 94.7098 65.4938C94.7098 66.9099 95.3915 67.7313 96.4233 67.7313C97.2402 67.7313 97.7746 67.2838 97.9282 66.5359H99.2057C99.0645 67.9092 97.965 68.841 96.4111 68.841C94.5623 68.841 93.3585 67.5781 93.3585 65.4938C93.3585 63.4461 94.5623 62.1526 96.3988 62.1526C98.0633 62.1526 99.0767 63.2193 99.1934 64.4883ZM102.922 68.841C101.073 68.841 99.8567 67.5719 99.8567 65.4938C99.8567 63.4216 101.079 62.1526 102.922 62.1526C104.764 62.1526 105.986 63.4216 105.986 65.4938C105.986 67.5719 104.77 68.841 102.922 68.841ZM102.922 67.7497C103.966 67.7497 104.635 66.9283 104.635 65.4938C104.635 64.0653 103.96 63.2439 102.922 63.2439C101.884 63.2439 101.208 64.0653 101.208 65.4938C101.208 66.9283 101.884 67.7497 102.922 67.7497ZM107.055 68.7183V62.2691H108.382V68.7183H107.055ZM107.719 61.325C107.294 61.325 106.95 60.9878 106.95 60.571C106.95 60.148 107.294 59.8108 107.719 59.8108C108.149 59.8108 108.492 60.148 108.492 60.571C108.492 60.9878 108.149 61.325 107.719 61.325ZM109.739 68.7183V62.2691H111.004V63.3481H111.035C111.386 62.6125 112.073 62.1588 113.068 62.1588C114.494 62.1588 115.31 63.0661 115.31 64.5435V68.7183H113.977V64.801C113.977 63.8324 113.523 63.299 112.601 63.299C111.667 63.299 111.066 63.9611 111.066 64.9604V68.7183H109.739Z" fill="white"/>
<path d="M119.64 65.2424C119.64 63.0968 120.205 61.368 121.415 59.8721H122.582C121.698 60.9021 121.004 63.2193 121.004 65.2363C121.004 67.2532 121.698 69.5766 122.582 70.6066H121.415C120.205 69.1045 119.64 67.3758 119.64 65.2424ZM127.189 68.7184H123.632V59.8721H127.17C128.742 59.8721 129.775 60.7427 129.775 62.0791C129.775 63.0171 129.081 63.8569 128.196 64.004V64.0531C129.399 64.188 130.211 65.0401 130.211 66.2172C130.211 67.7743 129.074 68.7184 127.189 68.7184ZM125.008 60.994V63.6363H126.55C127.741 63.6363 128.398 63.1458 128.398 62.2691C128.398 61.4477 127.833 60.994 126.839 60.994H125.008ZM125.008 67.5965H126.906C128.147 67.5965 128.804 67.0877 128.804 66.1313C128.804 65.175 128.128 64.6845 126.826 64.6845H125.008V67.5965ZM134.971 68.7184H133.594V61.0554H130.88V59.8721H137.679V61.0554H134.971V68.7184ZM142.015 68.8655C139.528 68.8655 137.955 67.1122 137.955 64.2922C137.955 61.4906 139.54 59.725 142.015 59.725C144.023 59.725 145.541 60.9572 145.774 62.8025H144.411C144.165 61.6684 143.219 60.9266 142.015 60.9266C140.406 60.9266 139.362 62.2446 139.362 64.2922C139.362 66.3581 140.394 67.6639 142.021 67.6639C143.256 67.6639 144.135 67.0325 144.411 65.9658H145.78C145.443 67.7926 144.055 68.8655 142.015 68.8655ZM149.38 65.2424C149.38 67.9214 148.508 69.4908 147.604 70.6066H146.437C147.052 69.8954 148.016 67.8846 148.016 65.2363C148.016 62.5879 147.045 60.5772 146.437 59.8721H147.604C148.508 60.9818 149.38 62.5512 149.38 65.2424Z" fill="#FF7816"/>
<path d="M282.719 68.8839C280.741 68.8839 279.365 67.8233 279.365 66.3274C279.365 65.1995 280.163 64.2983 281.337 64.0531V64.0224C280.354 63.7527 279.722 62.9864 279.722 62.0362C279.722 60.6936 280.981 59.7066 282.719 59.7066C284.463 59.7066 285.709 60.6875 285.709 62.0423C285.709 62.9802 285.083 63.7405 284.1 64.0224V64.0531C285.279 64.2983 286.072 65.2056 286.072 66.3274C286.072 67.8295 284.684 68.8839 282.719 68.8839ZM282.719 67.7804C283.849 67.7804 284.647 67.1305 284.647 66.2294C284.647 65.3159 283.849 64.6662 282.719 64.6662C281.589 64.6662 280.783 65.3221 280.783 66.2294C280.783 67.1305 281.589 67.7804 282.719 67.7804ZM282.719 63.5627C283.67 63.5627 284.353 62.9864 284.353 62.1833C284.353 61.3741 283.677 60.7979 282.719 60.7979C281.754 60.7979 281.084 61.3741 281.084 62.1833C281.084 62.9864 281.754 63.5627 282.719 63.5627ZM287.786 68.7184L291.723 61.0614V61.0308H287.049V59.8721H293.08V61.0614L289.229 68.7184H287.786ZM296.777 62.4653C296.777 60.8714 298.062 59.7066 299.824 59.7066C301.513 59.7066 302.772 60.7794 302.772 62.1833C302.772 63.2132 302.219 63.9795 300.923 65.3037L298.706 67.5291V67.5597H302.914V68.7184H296.851V67.7865L300.051 64.5312C301.132 63.4094 301.415 62.9435 301.415 62.2508C301.415 61.4661 300.702 60.8407 299.781 60.8407C298.811 60.8407 298.079 61.5397 298.079 62.4592V62.4776H296.777V62.4653ZM304.062 62.4653C304.062 60.8714 305.346 59.7066 307.109 59.7066C308.798 59.7066 310.057 60.7794 310.057 62.1833C310.057 63.2132 309.504 63.9795 308.207 65.3037L305.99 67.5291V67.5597H310.198V68.7184H304.136V67.7865L307.335 64.5312C308.417 63.4094 308.699 62.9435 308.699 62.2508C308.699 61.4661 307.986 60.8407 307.066 60.8407C306.095 60.8407 305.364 61.5397 305.364 62.4592V62.4776H304.062V62.4653ZM311.347 62.4653C311.347 60.8714 312.63 59.7066 314.393 59.7066C316.082 59.7066 317.341 60.7794 317.341 62.1833C317.341 63.2132 316.788 63.9795 315.493 65.3037L313.275 67.5291V67.5597H317.482V68.7184H311.42V67.7865L314.621 64.5312C315.701 63.4094 315.983 62.9435 315.983 62.2508C315.983 61.4661 315.271 60.8407 314.35 60.8407C313.379 60.8407 312.649 61.5397 312.649 62.4592V62.4776H311.347V62.4653ZM319.669 68.7858C319.22 68.7858 318.864 68.4302 318.864 67.9827C318.864 67.5351 319.22 67.1796 319.669 67.1796C320.117 67.1796 320.474 67.5351 320.474 67.9827C320.474 68.4302 320.117 68.7858 319.669 68.7858ZM326.272 68.7184V66.9712H321.837V65.7696C322.599 64.3412 323.606 62.7534 325.602 59.8721H327.592V65.8186H328.808V66.9712H327.592V68.7184H326.272ZM323.121 65.8064V65.8371H326.284V60.9327H326.259C324.723 63.1458 323.827 64.5252 323.121 65.8064ZM334.084 68.7184V66.9712H329.649V65.7696C330.411 64.3412 331.418 62.7534 333.414 59.8721H335.405V65.8186H336.621V66.9712H335.405V68.7184H334.084ZM330.933 65.8064V65.8371H334.097V60.9327H334.072C332.536 63.1458 331.64 64.5252 330.933 65.8064ZM341.744 59.8721V65.4938C341.744 66.7566 342.541 67.6455 343.954 67.6455C345.367 67.6455 346.171 66.7566 346.171 65.4938V59.8721H347.541V65.6102C347.541 67.5168 346.178 68.8655 343.954 68.8655C341.731 68.8655 340.367 67.5168 340.367 65.6102V59.8721H341.744ZM348.781 66.2539H350.139C350.237 67.1305 351.092 67.7068 352.258 67.7068C353.376 67.7068 354.181 67.1305 354.181 66.3398C354.181 65.6531 353.696 65.2424 352.547 64.9604L351.399 64.6845C349.771 64.2922 349.015 63.532 349.015 62.2998C349.015 60.7733 350.349 59.725 352.24 59.725C354.113 59.725 355.397 60.7733 355.44 62.2998H354.101C354.021 61.417 353.29 60.8836 352.222 60.8836C351.153 60.8836 350.422 61.4231 350.422 62.2078C350.422 62.8331 350.888 63.201 352.031 63.483L353.008 63.722C354.826 64.1512 355.581 64.8807 355.581 66.1743C355.581 67.8294 354.261 68.8655 352.16 68.8655C350.194 68.8655 348.867 67.8539 348.781 66.2539ZM356.815 59.8721H359.942C362.577 59.8721 364.137 61.4906 364.137 64.2799C364.137 67.0754 362.583 68.7184 359.942 68.7184H356.815V59.8721ZM358.191 61.0553V67.5291H359.813C361.693 67.5291 362.73 66.3827 362.73 64.2922C362.73 62.2078 361.686 61.0553 359.813 61.0553H358.191Z" fill="white"/>
<path d="M449.388 68.8839C447.41 68.8839 446.035 67.8233 446.035 66.3274C446.035 65.1995 446.832 64.2983 448.006 64.0531V64.0224C447.023 63.7527 446.391 62.9864 446.391 62.0362C446.391 60.6936 447.65 59.7066 449.388 59.7066C451.132 59.7066 452.379 60.6875 452.379 62.0423C452.379 62.9802 451.753 63.7405 450.77 64.0224V64.0531C451.949 64.2983 452.741 65.2056 452.741 66.3274C452.741 67.8295 451.353 68.8839 449.388 68.8839ZM449.388 67.7804C450.518 67.7804 451.317 67.1306 451.317 66.2294C451.317 65.3159 450.518 64.6662 449.388 64.6662C448.258 64.6662 447.453 65.3221 447.453 66.2294C447.453 67.1306 448.258 67.7804 449.388 67.7804ZM449.388 63.5627C450.34 63.5627 451.022 62.9864 451.022 62.1833C451.022 61.3741 450.346 60.7979 449.388 60.7979C448.424 60.7979 447.754 61.3741 447.754 62.1833C447.754 62.9864 448.424 63.5627 449.388 63.5627ZM454.713 70.539H453.656L454.21 67.3022H455.548L454.713 70.539ZM458.964 64.7152V63.6363H460.032C460.99 63.6363 461.647 63.0355 461.647 62.2017C461.647 61.3802 461.082 60.8346 460.032 60.8346C459.074 60.8346 458.435 61.3864 458.356 62.2569H457.059C457.164 60.7059 458.337 59.7066 460.094 59.7066C461.77 59.7066 462.993 60.6568 462.993 62.0178C462.993 63.1213 462.268 63.912 461.168 64.1083V64.1328C462.501 64.2248 463.361 65.0401 463.361 66.2785C463.361 67.8233 461.954 68.8839 460.106 68.8839C458.195 68.8839 456.967 67.8355 456.881 66.3091H458.202C458.287 67.1551 458.988 67.7375 460.106 67.7375C461.187 67.7375 461.961 67.1245 461.961 66.2601C461.961 65.3037 461.236 64.7152 460.068 64.7152H458.964ZM467.882 68.8839C465.756 68.8839 464.497 67.1061 464.497 64.2861C464.497 61.4844 465.769 59.7066 467.882 59.7066C470 59.7066 471.253 61.4783 471.253 64.2799C471.253 67.0999 470.007 68.8839 467.882 68.8839ZM467.882 67.7313C469.147 67.7313 469.865 66.4256 469.865 64.2861C469.865 62.1771 469.135 60.8592 467.882 60.8592C466.628 60.8592 465.891 62.1833 465.891 64.2861C465.891 66.4194 466.617 67.7313 467.882 67.7313ZM474.417 64.7152V63.6363H475.485C476.444 63.6363 477.1 63.0355 477.1 62.2017C477.1 61.3802 476.535 60.8346 475.485 60.8346C474.527 60.8346 473.888 61.3864 473.809 62.2569H472.513C472.617 60.7059 473.79 59.7066 475.547 59.7066C477.224 59.7066 478.446 60.6568 478.446 62.0178C478.446 63.1213 477.721 63.912 476.621 64.1083V64.1328C477.954 64.2248 478.814 65.0401 478.814 66.2785C478.814 67.8233 477.407 68.8839 475.559 68.8839C473.649 68.8839 472.421 67.8355 472.335 66.3091H473.655C473.741 67.1551 474.441 67.7375 475.559 67.7375C476.64 67.7375 477.414 67.1245 477.414 66.2601C477.414 65.3037 476.689 64.7152 475.523 64.7152H474.417ZM483.335 68.8839C481.209 68.8839 479.95 67.1061 479.95 64.2861C479.95 61.4844 481.222 59.7066 483.335 59.7066C485.454 59.7066 486.707 61.4783 486.707 64.2799C486.707 67.0999 485.46 68.8839 483.335 68.8839ZM483.335 67.7313C484.6 67.7313 485.318 66.4256 485.318 64.2861C485.318 62.1771 484.588 60.8592 483.335 60.8592C482.081 60.8592 481.344 62.1833 481.344 64.2861C481.344 66.4194 482.07 67.7313 483.335 67.7313ZM492.155 68.7184V66.9712H487.72V65.7696C488.482 64.3412 489.489 62.7534 491.485 59.8721H493.476V65.8186H494.692V66.9712H493.476V68.7184H492.155ZM489.004 65.8064V65.8371H492.167V60.9327H492.142C490.607 63.1458 489.71 64.5252 489.004 65.8064ZM497.682 64.7152V63.6363H498.751C499.71 63.6363 500.367 63.0355 500.367 62.2017C500.367 61.3802 499.802 60.8346 498.751 60.8346C497.793 60.8346 497.154 61.3864 497.074 62.2569H495.779C495.882 60.7059 497.056 59.7066 498.812 59.7066C500.489 59.7066 501.712 60.6568 501.712 62.0178C501.712 63.1213 500.987 63.912 499.888 64.1083V64.1328C501.22 64.2248 502.081 65.0401 502.081 66.2785C502.081 67.8233 500.674 68.8839 498.825 68.8839C496.915 68.8839 495.686 67.8355 495.6 66.3091H496.921C497.007 67.1551 497.707 67.7375 498.825 67.7375C499.906 67.7375 500.68 67.1245 500.68 66.2601C500.68 65.3037 499.955 64.7152 498.788 64.7152H497.682ZM507.584 68.7184V66.9712H503.149V65.7696C503.911 64.3412 504.918 62.7534 506.914 59.8721H508.904V65.8186H510.12V66.9712H508.904V68.7184H507.584ZM504.433 65.8064V65.8371H507.595V60.9327H507.571C506.036 63.1458 505.139 64.5252 504.433 65.8064ZM517.423 68.7184H513.867V59.8721H517.405C518.977 59.8721 520.009 60.7427 520.009 62.0791C520.009 63.0171 519.315 63.8569 518.43 64.004V64.0531C519.634 64.1879 520.445 65.0401 520.445 66.2172C520.445 67.7743 519.308 68.7184 517.423 68.7184ZM515.242 60.994V63.6363H516.784C517.976 63.6363 518.633 63.1458 518.633 62.2691C518.633 61.4477 518.068 60.994 517.073 60.994H515.242ZM515.242 67.5964H517.141C518.381 67.5964 519.038 67.0877 519.038 66.1313C519.038 65.175 518.363 64.6845 517.061 64.6845H515.242V67.5964ZM525.205 68.7184H523.829V61.0553H521.115V59.8721H527.913V61.0553H525.205V68.7184ZM532.25 68.8655C529.762 68.8655 528.19 67.1121 528.19 64.2922C528.19 61.4906 529.774 59.725 532.25 59.725C534.258 59.725 535.775 60.9572 536.009 62.8025H534.645C534.4 61.6683 533.453 60.9265 532.25 60.9265C530.641 60.9265 529.597 62.2446 529.597 64.2922C529.597 66.3581 530.628 67.6639 532.256 67.6639C533.49 67.6639 534.368 67.0325 534.645 65.9657H536.015C535.677 67.7926 534.289 68.8655 532.25 68.8655Z" fill="#FF7816"/>
<path d="M615.099 68.7184V61.2331H615.069L612.753 62.876V61.5274L615.087 59.8721H616.444V68.7184H615.099ZM618.532 62.4653C618.532 60.8714 619.816 59.7066 621.58 59.7066C623.268 59.7066 624.527 60.7794 624.527 62.1833C624.527 63.2132 623.975 63.9795 622.678 65.3037L620.461 67.5291V67.5597H624.669V68.7184H618.607V67.7865L621.806 64.5312C622.888 63.4094 623.17 62.9435 623.17 62.2508C623.17 61.4661 622.457 60.8407 621.537 60.8407C620.566 60.8407 619.834 61.5397 619.834 62.4592V62.4776H618.532V62.4653ZM627.82 64.7152V63.6363H628.888C629.846 63.6363 630.503 63.0355 630.503 62.2017C630.503 61.3802 629.938 60.8346 628.888 60.8346C627.93 60.8346 627.291 61.3864 627.212 62.2569H625.915C626.02 60.7059 627.193 59.7066 628.95 59.7066C630.626 59.7066 631.848 60.6568 631.848 62.0178C631.848 63.1213 631.124 63.912 630.024 64.1083V64.1328C631.358 64.2248 632.217 65.0401 632.217 66.2785C632.217 67.8233 630.81 68.8839 628.962 68.8839C627.051 68.8839 625.823 67.8355 625.737 66.3091H627.058C627.144 67.1551 627.844 67.7375 628.962 67.7375C630.043 67.7375 630.817 67.1245 630.817 66.2601C630.817 65.3037 630.092 64.7152 628.925 64.7152H627.82ZM640.275 68.7184V66.9712H635.841V65.7696C636.603 64.3412 637.61 62.7534 639.606 59.8721H641.596V65.8186H642.812V66.9712H641.596V68.7184H640.275ZM637.125 65.8064V65.8371H640.287V60.9327H640.263C638.728 63.1458 637.83 64.5252 637.125 65.8064ZM645.803 64.7152V63.6363H646.871C647.83 63.6363 648.487 63.0355 648.487 62.2017C648.487 61.3802 647.922 60.8346 646.871 60.8346C645.913 60.8346 645.275 61.3864 645.195 62.2569H643.9C644.003 60.7059 645.176 59.7066 646.933 59.7066C648.61 59.7066 649.833 60.6568 649.833 62.0178C649.833 63.1213 649.107 63.912 648.008 64.1083V64.1328C649.341 64.2248 650.201 65.0401 650.201 66.2785C650.201 67.8233 648.794 68.8839 646.946 68.8839C645.036 68.8839 643.807 67.8355 643.721 66.3091H645.041C645.127 67.1551 645.827 67.7375 646.946 67.7375C648.027 67.7375 648.8 67.1245 648.8 66.2601C648.8 65.3037 648.076 64.7152 646.909 64.7152H645.803ZM655.704 68.7184V66.9712H651.27V65.7696C652.031 64.3412 653.038 62.7534 655.035 59.8721H657.025V65.8186H658.241V66.9712H657.025V68.7184H655.704ZM652.553 65.8064V65.8371H655.716V60.9327H655.692C654.157 63.1458 653.259 64.5252 652.553 65.8064ZM660.268 68.7858C659.819 68.7858 659.463 68.4302 659.463 67.9827C659.463 67.5351 659.819 67.1796 660.268 67.1796C660.715 67.1796 661.072 67.5351 661.072 67.9827C661.072 68.4302 660.715 68.7858 660.268 68.7858ZM666.871 68.7184V66.9712H662.436V65.7696C663.198 64.3412 664.205 62.7534 666.201 59.8721H668.19V65.8186H669.407V66.9712H668.19V68.7184H666.871ZM663.72 65.8064V65.8371H666.882V60.9327H666.858C665.322 63.1458 664.426 64.5252 663.72 65.8064ZM673.7 68.8839C671.575 68.8839 670.316 67.1061 670.316 64.2861C670.316 61.4844 671.588 59.7066 673.7 59.7066C675.819 59.7066 677.072 61.4783 677.072 64.2799C677.072 67.0999 675.826 68.8839 673.7 68.8839ZM673.7 67.7313C674.965 67.7313 675.684 66.4256 675.684 64.2861C675.684 62.1771 674.954 60.8592 673.7 60.8592C672.447 60.8592 671.71 62.1833 671.71 64.2861C671.71 66.4194 672.435 67.7313 673.7 67.7313ZM682.367 59.8721V65.4938C682.367 66.7566 683.165 67.6455 684.577 67.6455C685.99 67.6455 686.794 66.7566 686.794 65.4938V59.8721H688.164V65.6102C688.164 67.5168 686.801 68.8655 684.577 68.8655C682.354 68.8655 680.99 67.5168 680.99 65.6102V59.8721H682.367ZM689.406 66.2539H690.763C690.861 67.1305 691.715 67.7068 692.882 67.7068C693.999 67.7068 694.804 67.1305 694.804 66.3398C694.804 65.6531 694.319 65.2424 693.17 64.9604L692.022 64.6845C690.394 64.2922 689.638 63.532 689.638 62.2998C689.638 60.7733 690.972 59.725 692.863 59.725C694.737 59.725 696.02 60.7733 696.063 62.2998H694.724C694.645 61.417 693.913 60.8836 692.845 60.8836C691.776 60.8836 691.045 61.4231 691.045 62.2078C691.045 62.8331 691.512 63.201 692.654 63.483L693.631 63.722C695.449 64.1512 696.205 64.8807 696.205 66.1743C696.205 67.8294 694.884 68.8655 692.783 68.8655C690.818 68.8655 689.492 67.8539 689.406 66.2539ZM697.439 59.8721H700.565C703.2 59.8721 704.76 61.4906 704.76 64.2799C704.76 67.0754 703.207 68.7184 700.565 68.7184H697.439V59.8721ZM698.815 61.0553V67.5291H700.436C702.316 67.5291 703.353 66.3827 703.353 64.2922C703.353 62.2078 702.309 61.0553 700.436 61.0553H698.815Z" fill="white"/>
<path d="M63.9425 64.5333C63.9425 73.7787 56.4335 81.2735 47.1707 81.2735C37.9079 81.2735 30.3989 73.7787 30.3989 64.5333C30.3989 55.2879 37.9079 47.7932 47.1707 47.7932C56.4335 47.7932 63.9425 55.2879 63.9425 64.5333Z" fill="#FF7816" fill-opacity="0.44"/>
<path d="M42.6631 67.3118C42.5798 67.5121 42.3683 67.8135 41.8917 67.6984C41.9086 67.723 40.6686 67.4035 40.6686 67.4035L39.833 69.2709L42.0232 69.7998C42.4305 69.8994 42.8299 70.0029 43.223 70.0999L42.5264 72.8117L44.2077 73.2177L44.8975 70.5356C45.3567 70.6572 45.8025 70.7684 46.2387 70.8731L45.5513 73.5436L47.2344 73.9497L47.9309 71.243C50.8009 71.7706 52.959 71.5573 53.8674 69.0407C54.5993 67.0156 53.8309 65.8466 52.321 65.0836C53.4206 64.8379 54.249 64.137 54.4699 62.6886C54.7752 60.71 53.2212 59.6457 51.0961 58.9357L51.7855 56.255L50.1024 55.849L49.4313 58.4585C48.9887 58.3513 48.5343 58.2503 48.0828 58.1508L48.7586 55.5243L47.0766 55.117L46.3869 57.7965C46.0205 57.7163 45.661 57.6361 45.312 57.5521L45.3139 57.543L42.9929 56.9818L42.5451 58.725C42.5451 58.725 43.7939 59.0018 43.7675 59.0185C44.4492 59.184 44.5724 59.6212 44.5519 59.9678L42.6631 67.3118ZM50.6244 67.9157C50.1044 69.9421 46.5852 68.8468 45.4443 68.5726L46.3685 64.9801C47.5094 65.2568 51.1681 65.8026 50.6244 67.9157ZM51.145 62.6589C50.6704 64.5016 47.7415 63.5653 46.7914 63.3365L47.6294 60.079C48.5795 60.3078 51.6393 60.7359 51.145 62.6589Z" fill="white"/>
<path d="M59.7494 64.5333C59.7494 71.4673 54.1177 77.0884 47.1706 77.0884C40.2235 77.0884 34.5918 71.4673 34.5918 64.5333C34.5918 57.5993 40.2235 51.9782 47.1706 51.9782C54.1177 51.9782 59.7494 57.5993 59.7494 64.5333Z" fill="#FF7816"/>
<path d="M43.7898 66.6172C43.7273 66.7675 43.5687 66.9934 43.2113 66.9071C43.224 66.9256 42.2939 66.686 42.2939 66.686L41.6672 68.0865L43.3098 68.4832C43.6154 68.5579 43.915 68.6355 44.2097 68.7082L43.6873 70.742L44.9482 71.0466L45.4656 69.0351C45.81 69.1262 46.1444 69.2097 46.4715 69.2882L45.956 71.291L47.2183 71.5956L47.7407 69.5656C49.8932 69.9613 51.5117 69.8012 52.193 67.9139C52.7419 66.395 52.1657 65.5183 51.0332 64.946C51.858 64.7617 52.4792 64.2361 52.645 63.1497C52.8739 61.6658 51.7084 60.8676 50.1145 60.3352L50.6316 58.3246L49.3692 58.02L48.866 59.9773C48.534 59.8967 48.1932 59.8211 47.8545 59.7465L48.3615 57.7766L47.0999 57.4711L46.5826 59.4806C46.3079 59.4206 46.0383 59.3604 45.7765 59.2973L45.778 59.2906L44.0372 58.8696L43.7013 60.177C43.7013 60.177 44.6379 60.3846 44.618 60.3972C45.1293 60.5213 45.2218 60.8492 45.2064 61.1091L43.7898 66.6172ZM49.7608 67.0701C49.3707 68.5899 46.7315 67.7684 45.8757 67.5628L46.5689 64.8684C47.4246 65.076 50.1685 65.4853 49.7608 67.0701ZM50.1512 63.1275C49.7953 64.5096 47.5986 63.8073 46.8861 63.6357L47.5145 61.1925C48.2271 61.3642 50.5219 61.6852 50.1512 63.1275Z" fill="white"/>
<path d="M85.0607 176.34V177.529H79.4346V168.683H85.0607V169.867H80.8104V172.453H84.8334V173.593H80.8104V176.34H85.0607ZM86.7005 169.554H88.0334V171.08H89.2618V172.129H88.0334V175.684C88.0334 176.242 88.2791 176.494 88.8195 176.494C88.9546 176.494 89.1696 176.481 89.2556 176.462V177.511C89.1082 177.548 88.8134 177.572 88.5186 177.572C87.2104 177.572 86.7005 177.075 86.7005 175.831V172.129H85.7609V171.08H86.7005V169.554ZM90.4042 177.529V168.683H91.7185V172.159H91.7492C92.1055 171.405 92.8118 170.969 93.7946 170.969C95.2133 170.969 96.061 171.914 96.061 173.373V177.529H94.7281V173.63C94.7281 172.68 94.2491 172.11 93.3155 172.11C92.3328 172.11 91.7309 172.785 91.7309 173.803V177.529H90.4042ZM100.047 172.03C99.1197 172.03 98.4686 172.735 98.401 173.711H101.632C101.601 172.723 100.975 172.03 100.047 172.03ZM101.626 175.635H102.885C102.7 176.812 101.583 177.652 100.102 177.652C98.2045 177.652 97.0559 176.371 97.0559 174.335C97.0559 172.313 98.2229 170.964 100.047 170.964C101.841 170.964 102.958 172.227 102.958 174.182V174.635H98.395V174.716C98.395 175.838 99.0705 176.579 100.133 176.579C100.889 176.579 101.448 176.2 101.626 175.635ZM103.99 177.529V171.08H105.255V172.178H105.286C105.501 171.423 106.078 170.976 106.84 170.976C107.03 170.976 107.197 171.007 107.294 171.025V172.257C107.19 172.214 106.957 172.184 106.699 172.184C105.846 172.184 105.317 172.754 105.317 173.668V177.529H103.99ZM110.538 172.03C109.61 172.03 108.959 172.735 108.892 173.711H112.122C112.092 172.723 111.465 172.03 110.538 172.03ZM112.116 175.635H113.375C113.191 176.812 112.073 177.652 110.593 177.652C108.695 177.652 107.547 176.371 107.547 174.335C107.547 172.313 108.714 170.964 110.538 170.964C112.331 170.964 113.449 172.227 113.449 174.182V174.635H108.885V174.716C108.885 175.838 109.562 176.579 110.623 176.579C111.379 176.579 111.938 176.2 112.116 175.635ZM120.021 171.08V177.529H118.749V176.438H118.719C118.363 177.21 117.705 177.645 116.717 177.645C115.31 177.645 114.451 176.732 114.451 175.255V171.08H115.777V174.997C115.777 175.979 116.244 176.505 117.159 176.505C118.117 176.505 118.694 175.844 118.694 174.838V171.08H120.021ZM121.335 177.529V171.08H122.601V172.165H122.631C122.92 171.448 123.595 170.969 124.468 170.969C125.365 170.969 126.016 171.43 126.274 172.233H126.304C126.636 171.448 127.397 170.969 128.319 170.969C129.597 170.969 130.432 171.816 130.432 173.097V177.529H129.099V173.415C129.099 172.582 128.65 172.103 127.864 172.103C127.078 172.103 126.531 172.686 126.531 173.501V177.529H125.23V173.318C125.23 172.576 124.757 172.103 124.007 172.103C123.221 172.103 122.662 172.717 122.662 173.544V177.529H121.335Z" fill="white"/>
<path d="M134.762 174.054C134.762 171.908 135.327 170.179 136.537 168.683H137.704C136.819 169.713 136.125 172.03 136.125 174.047C136.125 176.065 136.819 178.387 137.704 179.418H136.537C135.327 177.915 134.762 176.187 134.762 174.054ZM144.38 176.34V177.529H138.754V168.683H144.38V169.867H140.13V172.453H144.153V173.593H140.13V176.34H144.38ZM149.367 177.529H147.992V169.867H145.277V168.683H152.076V169.867H149.367V177.529ZM160.503 177.529H159.127V173.612H154.576V177.529H153.2V168.683H154.576V172.423H159.127V168.683H160.503V177.529ZM164.489 174.054C164.489 176.732 163.617 178.301 162.714 179.418H161.547C162.161 178.706 163.125 176.695 163.125 174.047C163.125 171.399 162.155 169.388 161.547 168.683H162.714C163.617 169.792 164.489 171.362 164.489 174.054Z" fill="#5F6DB6"/>
<path d="M282.719 177.695C280.741 177.695 279.365 176.635 279.365 175.139C279.365 174.011 280.163 173.109 281.337 172.864V172.834C280.354 172.564 279.722 171.797 279.722 170.847C279.722 169.505 280.981 168.518 282.719 168.518C284.463 168.518 285.709 169.498 285.709 170.853C285.709 171.792 285.083 172.551 284.1 172.834V172.864C285.279 173.109 286.072 174.017 286.072 175.139C286.072 176.64 284.684 177.695 282.719 177.695ZM282.719 176.592C283.849 176.592 284.647 175.941 284.647 175.04C284.647 174.127 283.849 173.477 282.719 173.477C281.589 173.477 280.783 174.133 280.783 175.04C280.783 175.941 281.589 176.592 282.719 176.592ZM282.719 172.373C283.67 172.373 284.353 171.797 284.353 170.994C284.353 170.185 283.677 169.609 282.719 169.609C281.754 169.609 281.084 170.185 281.084 170.994C281.084 171.797 281.754 172.373 282.719 172.373ZM287.786 177.529L291.723 169.873V169.841H287.049V168.683H293.08V169.873L289.229 177.529H287.786ZM296.777 171.276C296.777 169.682 298.062 168.518 299.824 168.518C301.513 168.518 302.772 169.59 302.772 170.994C302.772 172.024 302.219 172.791 300.923 174.114L298.706 176.34V176.371H302.914V177.529H296.851V176.597L300.051 173.342C301.132 172.221 301.415 171.754 301.415 171.061C301.415 170.277 300.702 169.652 299.781 169.652C298.811 169.652 298.079 170.351 298.079 171.271V171.288H296.777V171.276ZM304.062 171.276C304.062 169.682 305.346 168.518 307.109 168.518C308.798 168.518 310.057 169.59 310.057 170.994C310.057 172.024 309.504 172.791 308.207 174.114L305.99 176.34V176.371H310.198V177.529H304.136V176.597L307.335 173.342C308.417 172.221 308.699 171.754 308.699 171.061C308.699 170.277 307.986 169.652 307.066 169.652C306.095 169.652 305.364 170.351 305.364 171.271V171.288H304.062V171.276ZM311.347 171.276C311.347 169.682 312.63 168.518 314.393 168.518C316.082 168.518 317.341 169.59 317.341 170.994C317.341 172.024 316.788 172.791 315.493 174.114L313.275 176.34V176.371H317.482V177.529H311.42V176.597L314.621 173.342C315.701 172.221 315.983 171.754 315.983 171.061C315.983 170.277 315.271 169.652 314.35 169.652C313.379 169.652 312.649 170.351 312.649 171.271V171.288H311.347V171.276ZM319.669 177.596C319.22 177.596 318.864 177.242 318.864 176.794C318.864 176.346 319.22 175.99 319.669 175.99C320.117 175.99 320.474 176.346 320.474 176.794C320.474 177.242 320.117 177.596 319.669 177.596ZM326.272 177.529V175.782H321.837V174.581C322.599 173.152 323.606 171.565 325.602 168.683H327.592V174.63H328.808V175.782H327.592V177.529H326.272ZM323.121 174.618V174.648H326.284V169.744H326.259C324.723 171.957 323.827 173.336 323.121 174.618ZM334.084 177.529V175.782H329.649V174.581C330.411 173.152 331.418 171.565 333.414 168.683H335.405V174.63H336.621V175.782H335.405V177.529H334.084ZM330.933 174.618V174.648H334.097V169.744H334.072C332.536 171.957 331.64 173.336 330.933 174.618ZM341.744 168.683V174.305C341.744 175.568 342.541 176.457 343.954 176.457C345.367 176.457 346.171 175.568 346.171 174.305V168.683H347.541V174.421C347.541 176.328 346.178 177.677 343.954 177.677C341.731 177.677 340.367 176.328 340.367 174.421V168.683H341.744ZM348.781 175.065H350.139C350.237 175.941 351.092 176.518 352.258 176.518C353.376 176.518 354.181 175.941 354.181 175.151C354.181 174.464 353.696 174.054 352.547 173.771L351.399 173.496C349.771 173.104 349.015 172.343 349.015 171.111C349.015 169.584 350.349 168.536 352.24 168.536C354.113 168.536 355.397 169.584 355.44 171.111H354.101C354.021 170.227 353.29 169.695 352.222 169.695C351.153 169.695 350.422 170.234 350.422 171.018C350.422 171.644 350.888 172.012 352.031 172.294L353.008 172.533C354.826 172.962 355.581 173.692 355.581 174.985C355.581 176.64 354.261 177.677 352.16 177.677C350.194 177.677 348.867 176.665 348.781 175.065ZM356.815 168.683H359.942C362.577 168.683 364.137 170.302 364.137 173.091C364.137 175.887 362.583 177.529 359.942 177.529H356.815V168.683ZM358.191 169.867V176.34H359.813C361.693 176.34 362.73 175.194 362.73 173.104C362.73 171.018 361.686 169.867 359.813 169.867H358.191Z" fill="white"/>
<path d="M449.388 177.695C447.41 177.695 446.035 176.635 446.035 175.139C446.035 174.011 446.832 173.109 448.006 172.864V172.834C447.023 172.564 446.391 171.797 446.391 170.847C446.391 169.505 447.65 168.518 449.388 168.518C451.132 168.518 452.379 169.498 452.379 170.853C452.379 171.792 451.753 172.551 450.77 172.834V172.864C451.949 173.109 452.741 174.017 452.741 175.139C452.741 176.64 451.353 177.695 449.388 177.695ZM449.388 176.592C450.518 176.592 451.317 175.941 451.317 175.04C451.317 174.127 450.518 173.477 449.388 173.477C448.258 173.477 447.453 174.133 447.453 175.04C447.453 175.941 448.258 176.592 449.388 176.592ZM449.388 172.373C450.34 172.373 451.022 171.797 451.022 170.994C451.022 170.185 450.346 169.609 449.388 169.609C448.424 169.609 447.754 170.185 447.754 170.994C447.754 171.797 448.424 172.373 449.388 172.373ZM454.713 179.35H453.656L454.21 176.113H455.548L454.713 179.35ZM458.964 173.526V172.448H460.032C460.99 172.448 461.647 171.846 461.647 171.012C461.647 170.191 461.082 169.646 460.032 169.646C459.074 169.646 458.435 170.197 458.356 171.068H457.059C457.164 169.517 458.337 168.518 460.094 168.518C461.77 168.518 462.993 169.468 462.993 170.829C462.993 171.932 462.268 172.723 461.168 172.919V172.944C462.501 173.036 463.361 173.851 463.361 175.089C463.361 176.635 461.954 177.695 460.106 177.695C458.195 177.695 456.967 176.646 456.881 175.12H458.202C458.287 175.966 458.988 176.548 460.106 176.548C461.187 176.548 461.961 175.936 461.961 175.071C461.961 174.114 461.236 173.526 460.068 173.526H458.964ZM467.882 177.695C465.756 177.695 464.497 175.917 464.497 173.097C464.497 170.295 465.769 168.518 467.882 168.518C470 168.518 471.253 170.289 471.253 173.091C471.253 175.911 470.007 177.695 467.882 177.695ZM467.882 176.543C469.147 176.543 469.865 175.237 469.865 173.097C469.865 170.988 469.135 169.67 467.882 169.67C466.628 169.67 465.891 170.994 465.891 173.097C465.891 175.231 466.617 176.543 467.882 176.543ZM474.417 173.526V172.448H475.485C476.444 172.448 477.1 171.846 477.1 171.012C477.1 170.191 476.535 169.646 475.485 169.646C474.527 169.646 473.888 170.197 473.809 171.068H472.513C472.617 169.517 473.79 168.518 475.547 168.518C477.224 168.518 478.446 169.468 478.446 170.829C478.446 171.932 477.721 172.723 476.621 172.919V172.944C477.954 173.036 478.814 173.851 478.814 175.089C478.814 176.635 477.407 177.695 475.559 177.695C473.649 177.695 472.421 176.646 472.335 175.12H473.655C473.741 175.966 474.441 176.548 475.559 176.548C476.64 176.548 477.414 175.936 477.414 175.071C477.414 174.114 476.689 173.526 475.523 173.526H474.417ZM483.335 177.695C481.209 177.695 479.95 175.917 479.95 173.097C479.95 170.295 481.222 168.518 483.335 168.518C485.454 168.518 486.707 170.289 486.707 173.091C486.707 175.911 485.46 177.695 483.335 177.695ZM483.335 176.543C484.6 176.543 485.318 175.237 485.318 173.097C485.318 170.988 484.588 169.67 483.335 169.67C482.081 169.67 481.344 170.994 481.344 173.097C481.344 175.231 482.07 176.543 483.335 176.543ZM492.155 177.529V175.782H487.72V174.581C488.482 173.152 489.489 171.565 491.485 168.683H493.476V174.63H494.692V175.782H493.476V177.529H492.155ZM489.004 174.618V174.648H492.167V169.744H492.142C490.607 171.957 489.71 173.336 489.004 174.618ZM497.682 173.526V172.448H498.751C499.71 172.448 500.367 171.846 500.367 171.012C500.367 170.191 499.802 169.646 498.751 169.646C497.793 169.646 497.154 170.197 497.074 171.068H495.779C495.882 169.517 497.056 168.518 498.812 168.518C500.489 168.518 501.712 169.468 501.712 170.829C501.712 171.932 500.987 172.723 499.888 172.919V172.944C501.22 173.036 502.081 173.851 502.081 175.089C502.081 176.635 500.674 177.695 498.825 177.695C496.915 177.695 495.686 176.646 495.6 175.12H496.921C497.007 175.966 497.707 176.548 498.825 176.548C499.906 176.548 500.68 175.936 500.68 175.071C500.68 174.114 499.955 173.526 498.788 173.526H497.682ZM507.584 177.529V175.782H503.149V174.581C503.911 173.152 504.918 171.565 506.914 168.683H508.904V174.63H510.12V175.782H508.904V177.529H507.584ZM504.433 174.618V174.648H507.595V169.744H507.571C506.036 171.957 505.139 173.336 504.433 174.618ZM519.493 176.34V177.529H513.867V168.683H519.493V169.867H515.242V172.453H519.265V173.593H515.242V176.34H519.493ZM524.48 177.529H523.104V169.867H520.389V168.683H527.189V169.867H524.48V177.529ZM535.616 177.529H534.239V173.612H529.688V177.529H528.313V168.683H529.688V172.423H534.239V168.683H535.616V177.529Z" fill="#5F6DB6"/>
<path d="M615.099 177.529V170.044H615.069L612.753 171.687V170.338L615.087 168.683H616.444V177.529H615.099ZM618.532 171.276C618.532 169.682 619.816 168.518 621.58 168.518C623.268 168.518 624.527 169.59 624.527 170.994C624.527 172.024 623.975 172.791 622.678 174.114L620.461 176.34V176.371H624.669V177.529H618.607V176.597L621.806 173.342C622.888 172.221 623.17 171.754 623.17 171.061C623.17 170.277 622.457 169.652 621.537 169.652C620.566 169.652 619.834 170.351 619.834 171.271V171.288H618.532V171.276ZM627.82 173.526V172.448H628.888C629.846 172.448 630.503 171.846 630.503 171.012C630.503 170.191 629.938 169.646 628.888 169.646C627.93 169.646 627.291 170.197 627.212 171.068H625.915C626.02 169.517 627.193 168.518 628.95 168.518C630.626 168.518 631.848 169.468 631.848 170.829C631.848 171.932 631.124 172.723 630.024 172.919V172.944C631.358 173.036 632.217 173.851 632.217 175.089C632.217 176.635 630.81 177.695 628.962 177.695C627.051 177.695 625.823 176.646 625.737 175.12H627.058C627.144 175.966 627.844 176.548 628.962 176.548C630.043 176.548 630.817 175.936 630.817 175.071C630.817 174.114 630.092 173.526 628.925 173.526H627.82ZM640.275 177.529V175.782H635.841V174.581C636.603 173.152 637.61 171.565 639.606 168.683H641.596V174.63H642.812V175.782H641.596V177.529H640.275ZM637.125 174.618V174.648H640.287V169.744H640.263C638.728 171.957 637.83 173.336 637.125 174.618ZM645.803 173.526V172.448H646.871C647.83 172.448 648.487 171.846 648.487 171.012C648.487 170.191 647.922 169.646 646.871 169.646C645.913 169.646 645.275 170.197 645.195 171.068H643.9C644.003 169.517 645.176 168.518 646.933 168.518C648.61 168.518 649.833 169.468 649.833 170.829C649.833 171.932 649.107 172.723 648.008 172.919V172.944C649.341 173.036 650.201 173.851 650.201 175.089C650.201 176.635 648.794 177.695 646.946 177.695C645.036 177.695 643.807 176.646 643.721 175.12H645.041C645.127 175.966 645.827 176.548 646.946 176.548C648.027 176.548 648.8 175.936 648.8 175.071C648.8 174.114 648.076 173.526 646.909 173.526H645.803ZM655.704 177.529V175.782H651.27V174.581C652.031 173.152 653.038 171.565 655.035 168.683H657.025V174.63H658.241V175.782H657.025V177.529H655.704ZM652.553 174.618V174.648H655.716V169.744H655.692C654.157 171.957 653.259 173.336 652.553 174.618ZM660.268 177.596C659.819 177.596 659.463 177.242 659.463 176.794C659.463 176.346 659.819 175.99 660.268 175.99C660.715 175.99 661.072 176.346 661.072 176.794C661.072 177.242 660.715 177.596 660.268 177.596ZM666.871 177.529V175.782H662.436V174.581C663.198 173.152 664.205 171.565 666.201 168.683H668.19V174.63H669.407V175.782H668.19V177.529H666.871ZM663.72 174.618V174.648H666.882V169.744H666.858C665.322 171.957 664.426 173.336 663.72 174.618ZM673.7 177.695C671.575 177.695 670.316 175.917 670.316 173.097C670.316 170.295 671.588 168.518 673.7 168.518C675.819 168.518 677.072 170.289 677.072 173.091C677.072 175.911 675.826 177.695 673.7 177.695ZM673.7 176.543C674.965 176.543 675.684 175.237 675.684 173.097C675.684 170.988 674.954 169.67 673.7 169.67C672.447 169.67 671.71 170.994 671.71 173.097C671.71 175.231 672.435 176.543 673.7 176.543ZM682.367 168.683V174.305C682.367 175.568 683.165 176.457 684.577 176.457C685.99 176.457 686.794 175.568 686.794 174.305V168.683H688.164V174.421C688.164 176.328 686.801 177.677 684.577 177.677C682.354 177.677 680.99 176.328 680.99 174.421V168.683H682.367ZM689.406 175.065H690.763C690.861 175.941 691.715 176.518 692.882 176.518C693.999 176.518 694.804 175.941 694.804 175.151C694.804 174.464 694.319 174.054 693.17 173.771L692.022 173.496C690.394 173.104 689.638 172.343 689.638 171.111C689.638 169.584 690.972 168.536 692.863 168.536C694.737 168.536 696.02 169.584 696.063 171.111H694.724C694.645 170.227 693.913 169.695 692.845 169.695C691.776 169.695 691.045 170.234 691.045 171.018C691.045 171.644 691.512 172.012 692.654 172.294L693.631 172.533C695.449 172.962 696.205 173.692 696.205 174.985C696.205 176.64 694.884 177.677 692.783 177.677C690.818 177.677 689.492 176.665 689.406 175.065ZM697.439 168.683H700.565C703.2 168.683 704.76 170.302 704.76 173.091C704.76 175.887 703.207 177.529 700.565 177.529H697.439V168.683ZM698.815 169.867V176.34H700.436C702.316 176.34 703.353 175.194 703.353 173.104C703.353 171.018 702.309 169.867 700.436 169.867H698.815Z" fill="white"/>
<path d="M775.694 91.7361H0V146.142H775.694V91.7361Z" fill="#1B212C"/>
<path d="M83.0093 123.124H81.6335V115.461H78.9187V114.278H85.7179V115.461H83.0093V123.124ZM89.3847 117.625C88.4572 117.625 87.8062 118.33 87.7387 119.305H90.9693C90.9386 118.317 90.3121 117.625 89.3847 117.625ZM90.9631 121.229H92.2223C92.038 122.406 90.9202 123.246 89.4399 123.246C87.5421 123.246 86.3936 121.966 86.3936 119.93C86.3936 117.907 87.5605 116.559 89.3847 116.559C91.1781 116.559 92.296 117.821 92.296 119.777V120.23H87.7325V120.31C87.7325 121.432 88.4081 122.174 89.4707 122.174C90.2261 122.174 90.785 121.794 90.9631 121.229ZM93.7147 115.148H95.0476V116.675H96.276V117.723H95.0476V121.278C95.0476 121.837 95.2933 122.088 95.8338 122.088C95.9689 122.088 96.1839 122.075 96.2698 122.057V123.105C96.1224 123.143 95.8277 123.167 95.5328 123.167C94.2246 123.167 93.7147 122.67 93.7147 121.426V117.723H92.7751V116.675H93.7147V115.148ZM97.4184 123.124V114.278H98.7329V117.753H98.7636C99.1198 116.999 99.8261 116.564 100.809 116.564C102.228 116.564 103.075 117.509 103.075 118.967V123.124H101.742V119.224C101.742 118.274 101.263 117.704 100.33 117.704C99.347 117.704 98.7451 118.379 98.7451 119.397V123.124H97.4184ZM107.062 117.625C106.134 117.625 105.483 118.33 105.415 119.305H108.646C108.615 118.317 107.989 117.625 107.062 117.625ZM108.64 121.229H109.899C109.715 122.406 108.597 123.246 107.117 123.246C105.219 123.246 104.07 121.966 104.07 119.93C104.07 117.907 105.238 116.559 107.062 116.559C108.855 116.559 109.973 117.821 109.973 119.777V120.23H105.41V120.31C105.41 121.432 106.085 122.174 107.148 122.174C107.903 122.174 108.462 121.794 108.64 121.229ZM111.004 123.124V116.675H112.27V117.772H112.301C112.516 117.018 113.093 116.57 113.854 116.57C114.045 116.57 114.211 116.601 114.309 116.619V117.852C114.204 117.809 113.972 117.778 113.713 117.778C112.859 117.778 112.331 118.349 112.331 119.262V123.124H111.004Z" fill="white"/>
<path d="M118.178 119.648C118.178 117.502 118.743 115.774 119.954 114.278H121.12C120.236 115.307 119.542 117.625 119.542 119.642C119.542 121.659 120.236 123.982 121.12 125.012H119.954C118.743 123.51 118.178 121.781 118.178 119.648ZM123.546 114.278V119.899C123.546 121.162 124.345 122.051 125.758 122.051C127.17 122.051 127.975 121.162 127.975 119.899V114.278H129.345V120.015C129.345 121.923 127.981 123.271 125.758 123.271C123.534 123.271 122.171 121.923 122.171 120.015V114.278H123.546ZM130.585 120.66H131.942C132.041 121.536 132.894 122.112 134.062 122.112C135.179 122.112 135.984 121.536 135.984 120.746C135.984 120.058 135.499 119.648 134.35 119.366L133.201 119.091C131.574 118.698 130.819 117.938 130.819 116.705C130.819 115.179 132.151 114.13 134.043 114.13C135.916 114.13 137.2 115.179 137.243 116.705H135.904C135.824 115.822 135.093 115.289 134.024 115.289C132.956 115.289 132.225 115.828 132.225 116.613C132.225 117.239 132.692 117.607 133.834 117.888L134.81 118.128C136.629 118.557 137.384 119.286 137.384 120.579C137.384 122.235 136.064 123.271 133.963 123.271C131.998 123.271 130.671 122.26 130.585 120.66ZM138.619 114.278H141.745C144.38 114.278 145.94 115.896 145.94 118.686C145.94 121.481 144.386 123.124 141.745 123.124H138.619V114.278ZM139.995 115.461V121.934H141.617C143.496 121.934 144.534 120.789 144.534 118.698C144.534 116.613 143.49 115.461 141.617 115.461H139.995ZM150.301 123.124H148.925V115.461H146.21V114.278H153.01V115.461H150.301V123.124ZM156.492 119.648C156.492 122.327 155.62 123.896 154.717 125.012H153.55C154.164 124.301 155.128 122.29 155.128 119.642C155.128 116.994 154.158 114.983 153.55 114.278H154.717C155.62 115.387 156.492 116.956 156.492 119.648Z" fill="#1ACD8D"/>
<path d="M282.719 123.289C280.741 123.289 279.365 122.229 279.365 120.733C279.365 119.605 280.163 118.703 281.337 118.459V118.428C280.354 118.158 279.722 117.391 279.722 116.441C279.722 115.099 280.981 114.112 282.719 114.112C284.463 114.112 285.709 115.093 285.709 116.448C285.709 117.386 285.083 118.146 284.1 118.428V118.459C285.279 118.703 286.072 119.612 286.072 120.733C286.072 122.235 284.684 123.289 282.719 123.289ZM282.719 122.186C283.849 122.186 284.647 121.536 284.647 120.635C284.647 119.721 283.849 119.072 282.719 119.072C281.589 119.072 280.783 119.728 280.783 120.635C280.783 121.536 281.589 122.186 282.719 122.186ZM282.719 117.968C283.67 117.968 284.353 117.391 284.353 116.589C284.353 115.779 283.677 115.204 282.719 115.204C281.754 115.204 281.084 115.779 281.084 116.589C281.084 117.391 281.754 117.968 282.719 117.968ZM287.786 123.124L291.723 115.467V115.436H287.049V114.278H293.08V115.467L289.229 123.124H287.786ZM296.777 116.87C296.777 115.277 298.062 114.112 299.824 114.112C301.513 114.112 302.772 115.185 302.772 116.589C302.772 117.618 302.219 118.385 300.923 119.709L298.706 121.934V121.966H302.914V123.124H296.851V122.192L300.051 118.937C301.132 117.815 301.415 117.349 301.415 116.656C301.415 115.871 300.702 115.247 299.781 115.247C298.811 115.247 298.079 115.945 298.079 116.865V116.883H296.777V116.87ZM307.367 123.289C305.241 123.289 303.982 121.512 303.982 118.692C303.982 115.89 305.253 114.112 307.367 114.112C309.485 114.112 310.738 115.884 310.738 118.686C310.738 121.505 309.492 123.289 307.367 123.289ZM307.367 122.137C308.632 122.137 309.35 120.832 309.35 118.692C309.35 116.583 308.619 115.264 307.367 115.264C306.113 115.264 305.376 116.589 305.376 118.692C305.376 120.825 306.102 122.137 307.367 122.137ZM315.203 123.289C313.079 123.289 311.82 121.512 311.82 118.692C311.82 115.89 313.091 114.112 315.203 114.112C317.323 114.112 318.576 115.884 318.576 118.686C318.576 121.505 317.329 123.289 315.203 123.289ZM315.203 122.137C316.469 122.137 317.188 120.832 317.188 118.692C317.188 116.583 316.457 115.264 315.203 115.264C313.951 115.264 313.214 116.589 313.214 118.692C313.214 120.825 313.938 122.137 315.203 122.137ZM320.504 123.191C320.056 123.191 319.699 122.836 319.699 122.388C319.699 121.941 320.056 121.585 320.504 121.585C320.953 121.585 321.308 121.941 321.308 122.388C321.308 122.836 320.953 123.191 320.504 123.191ZM326.001 123.289C323.876 123.289 322.616 121.512 322.616 118.692C322.616 115.89 323.888 114.112 326.001 114.112C328.12 114.112 329.373 115.884 329.373 118.686C329.373 121.505 328.126 123.289 326.001 123.289ZM326.001 122.137C327.266 122.137 327.986 120.832 327.986 118.692C327.986 116.583 327.254 115.264 326.001 115.264C324.749 115.264 324.012 116.589 324.012 118.692C324.012 120.825 324.736 122.137 326.001 122.137ZM333.839 123.289C331.713 123.289 330.454 121.512 330.454 118.692C330.454 115.89 331.726 114.112 333.839 114.112C335.957 114.112 337.21 115.884 337.21 118.686C337.21 121.505 335.964 123.289 333.839 123.289ZM333.839 122.137C335.104 122.137 335.822 120.832 335.822 118.692C335.822 116.583 335.092 115.264 333.839 115.264C332.585 115.264 331.848 116.589 331.848 118.692C331.848 120.825 332.574 122.137 333.839 122.137ZM342.505 114.278V119.899C342.505 121.162 343.303 122.051 344.716 122.051C346.128 122.051 346.933 121.162 346.933 119.899V114.278H348.302V120.015C348.302 121.923 346.94 123.271 344.716 123.271C342.492 123.271 341.129 121.923 341.129 120.015V114.278H342.505ZM349.544 120.66H350.901C351 121.536 351.853 122.112 353.019 122.112C354.138 122.112 354.942 121.536 354.942 120.746C354.942 120.058 354.457 119.648 353.309 119.366L352.16 119.091C350.532 118.698 349.777 117.938 349.777 116.705C349.777 115.179 351.11 114.13 353.002 114.13C354.875 114.13 356.159 115.179 356.202 116.705H354.862C354.783 115.822 354.052 115.289 352.983 115.289C351.915 115.289 351.183 115.828 351.183 116.613C351.183 117.239 351.65 117.607 352.793 117.888L353.769 118.128C355.588 118.557 356.342 119.286 356.342 120.579C356.342 122.235 355.023 123.271 352.922 123.271C350.957 123.271 349.63 122.26 349.544 120.66ZM357.577 114.278H360.703C363.338 114.278 364.898 115.896 364.898 118.686C364.898 121.481 363.345 123.124 360.703 123.124H357.577V114.278ZM358.954 115.461V121.934H360.574C362.454 121.934 363.492 120.789 363.492 118.698C363.492 116.613 362.448 115.461 360.574 115.461H358.954Z" fill="white"/>
<path d="M449.388 123.289C447.41 123.289 446.035 122.229 446.035 120.733C446.035 119.605 446.832 118.703 448.006 118.459V118.428C447.023 118.158 446.391 117.391 446.391 116.441C446.391 115.099 447.65 114.112 449.388 114.112C451.132 114.112 452.379 115.093 452.379 116.448C452.379 117.386 451.753 118.146 450.77 118.428V118.459C451.949 118.703 452.741 119.612 452.741 120.733C452.741 122.235 451.353 123.289 449.388 123.289ZM449.388 122.186C450.518 122.186 451.317 121.536 451.317 120.635C451.317 119.721 450.518 119.072 449.388 119.072C448.258 119.072 447.453 119.728 447.453 120.635C447.453 121.536 448.258 122.186 449.388 122.186ZM449.388 117.968C450.34 117.968 451.022 117.391 451.022 116.589C451.022 115.779 450.346 115.204 449.388 115.204C448.424 115.204 447.754 115.779 447.754 116.589C447.754 117.391 448.424 117.968 449.388 117.968ZM454.455 123.124L458.392 115.467V115.436H453.718V114.278H459.75V115.467L455.899 123.124H454.455ZM463.447 116.87C463.447 115.277 464.731 114.112 466.493 114.112C468.183 114.112 469.442 115.185 469.442 116.589C469.442 117.618 468.888 118.385 467.593 119.709L465.376 121.934V121.966H469.583V123.124H463.52V122.192L466.721 118.937C467.801 117.815 468.084 117.349 468.084 116.656C468.084 115.871 467.371 115.247 466.45 115.247C465.48 115.247 464.749 115.945 464.749 116.865V116.883H463.447V116.87ZM474.036 123.289C471.91 123.289 470.651 121.512 470.651 118.692C470.651 115.89 471.923 114.112 474.036 114.112C476.155 114.112 477.407 115.884 477.407 118.686C477.407 121.505 476.161 123.289 474.036 123.289ZM474.036 122.137C475.301 122.137 476.019 120.832 476.019 118.692C476.019 116.583 475.289 115.264 474.036 115.264C472.782 115.264 472.046 116.589 472.046 118.692C472.046 120.825 472.771 122.137 474.036 122.137ZM481.873 123.289C479.748 123.289 478.489 121.512 478.489 118.692C478.489 115.89 479.761 114.112 481.873 114.112C483.992 114.112 485.245 115.884 485.245 118.686C485.245 121.505 483.999 123.289 481.873 123.289ZM481.873 122.137C483.138 122.137 483.857 120.832 483.857 118.692C483.857 116.583 483.126 115.264 481.873 115.264C480.62 115.264 479.883 116.589 479.883 118.692C479.883 120.825 480.608 122.137 481.873 122.137ZM487.118 124.944H486.062L486.615 121.707H487.954L487.118 124.944ZM492.671 123.289C490.546 123.289 489.286 121.512 489.286 118.692C489.286 115.89 490.557 114.112 492.671 114.112C494.789 114.112 496.043 115.884 496.043 118.686C496.043 121.505 494.795 123.289 492.671 123.289ZM492.671 122.137C493.936 122.137 494.655 120.832 494.655 118.692C494.655 116.583 493.923 115.264 492.671 115.264C491.418 115.264 490.681 116.589 490.681 118.692C490.681 120.825 491.405 122.137 492.671 122.137ZM500.508 123.289C498.382 123.289 497.124 121.512 497.124 118.692C497.124 115.89 498.395 114.112 500.508 114.112C502.627 114.112 503.879 115.884 503.879 118.686C503.879 121.505 502.633 123.289 500.508 123.289ZM500.508 122.137C501.774 122.137 502.492 120.832 502.492 118.692C502.492 116.583 501.761 115.264 500.508 115.264C499.255 115.264 498.518 116.589 498.518 118.692C498.518 120.825 499.243 122.137 500.508 122.137ZM509.174 114.278V119.899C509.174 121.162 509.973 122.051 511.386 122.051C512.798 122.051 513.603 121.162 513.603 119.899V114.278H514.972V120.015C514.972 121.923 513.609 123.271 511.386 123.271C509.162 123.271 507.799 121.923 507.799 120.015V114.278H509.174ZM516.213 120.66H517.57C517.669 121.536 518.522 122.112 519.689 122.112C520.807 122.112 521.611 121.536 521.611 120.746C521.611 120.058 521.126 119.648 519.978 119.366L518.829 119.091C517.201 118.698 516.447 117.938 516.447 116.705C516.447 115.179 517.779 114.13 519.671 114.13C521.544 114.13 522.828 115.179 522.871 116.705H521.532C521.452 115.822 520.721 115.289 519.652 115.289C518.584 115.289 517.852 115.828 517.852 116.613C517.852 117.239 518.32 117.607 519.463 117.888L520.438 118.128C522.257 118.557 523.012 119.286 523.012 120.579C523.012 122.235 521.692 123.271 519.591 123.271C517.626 123.271 516.299 122.26 516.213 120.66ZM524.247 114.278H527.373C530.008 114.278 531.568 115.896 531.568 118.686C531.568 121.481 530.014 123.124 527.373 123.124H524.247V114.278ZM525.623 115.461V121.934H527.244C529.123 121.934 530.162 120.789 530.162 118.698C530.162 116.613 529.118 115.461 527.244 115.461H525.623ZM535.929 123.124H534.553V115.461H531.838V114.278H538.638V115.461H535.929V123.124Z" fill="#1ACD8D"/>
<path d="M615.099 123.124V115.639H615.069L612.753 117.282V115.933L615.087 114.278H616.444V123.124H615.099ZM618.532 116.87C618.532 115.277 619.816 114.112 621.58 114.112C623.268 114.112 624.527 115.185 624.527 116.589C624.527 117.618 623.975 118.385 622.678 119.709L620.461 121.934V121.966H624.669V123.124H618.607V122.192L621.806 118.937C622.888 117.815 623.17 117.349 623.17 116.656C623.17 115.871 622.457 115.247 621.537 115.247C620.566 115.247 619.834 115.945 619.834 116.865V116.883H618.532V116.87ZM627.82 119.121V118.042H628.888C629.846 118.042 630.503 117.441 630.503 116.607C630.503 115.785 629.938 115.24 628.888 115.24C627.93 115.24 627.291 115.792 627.212 116.662H625.915C626.02 115.112 627.193 114.112 628.95 114.112C630.626 114.112 631.848 115.062 631.848 116.424C631.848 117.526 631.124 118.317 630.024 118.514V118.538C631.358 118.63 632.217 119.445 632.217 120.684C632.217 122.229 630.81 123.289 628.962 123.289C627.051 123.289 625.823 122.241 625.737 120.714H627.058C627.144 121.561 627.844 122.142 628.962 122.142C630.043 122.142 630.817 121.53 630.817 120.665C630.817 119.709 630.092 119.121 628.925 119.121H627.82ZM640.275 123.124V121.377H635.841V120.175C636.603 118.746 637.61 117.159 639.606 114.278H641.596V120.225H642.812V121.377H641.596V123.124H640.275ZM637.125 120.212V120.242H640.287V115.339H640.263C638.728 117.551 637.83 118.93 637.125 120.212ZM645.803 119.121V118.042H646.871C647.83 118.042 648.487 117.441 648.487 116.607C648.487 115.785 647.922 115.24 646.871 115.24C645.913 115.24 645.275 115.792 645.195 116.662H643.9C644.003 115.112 645.176 114.112 646.933 114.112C648.61 114.112 649.833 115.062 649.833 116.424C649.833 117.526 649.107 118.317 648.008 118.514V118.538C649.341 118.63 650.201 119.445 650.201 120.684C650.201 122.229 648.794 123.289 646.946 123.289C645.036 123.289 643.807 122.241 643.721 120.714H645.041C645.127 121.561 645.827 122.142 646.946 122.142C648.027 122.142 648.8 121.53 648.8 120.665C648.8 119.709 648.076 119.121 646.909 119.121H645.803ZM655.704 123.124V121.377H651.27V120.175C652.031 118.746 653.038 117.159 655.035 114.278H657.025V120.225H658.241V121.377H657.025V123.124H655.704ZM652.553 120.212V120.242H655.716V115.339H655.692C654.157 117.551 653.259 118.93 652.553 120.212ZM660.268 123.191C659.819 123.191 659.463 122.836 659.463 122.388C659.463 121.941 659.819 121.585 660.268 121.585C660.715 121.585 661.072 121.941 661.072 122.388C661.072 122.836 660.715 123.191 660.268 123.191ZM666.871 123.124V121.377H662.436V120.175C663.198 118.746 664.205 117.159 666.201 114.278H668.19V120.225H669.407V121.377H668.19V123.124H666.871ZM663.72 120.212V120.242H666.882V115.339H666.858C665.322 117.551 664.426 118.93 663.72 120.212ZM673.7 123.289C671.575 123.289 670.316 121.512 670.316 118.692C670.316 115.89 671.588 114.112 673.7 114.112C675.819 114.112 677.072 115.884 677.072 118.686C677.072 121.505 675.826 123.289 673.7 123.289ZM673.7 122.137C674.965 122.137 675.684 120.832 675.684 118.692C675.684 116.583 674.954 115.264 673.7 115.264C672.447 115.264 671.71 116.589 671.71 118.692C671.71 120.825 672.435 122.137 673.7 122.137ZM682.367 114.278V119.899C682.367 121.162 683.165 122.051 684.577 122.051C685.99 122.051 686.794 121.162 686.794 119.899V114.278H688.164V120.015C688.164 121.923 686.801 123.271 684.577 123.271C682.354 123.271 680.99 121.923 680.99 120.015V114.278H682.367ZM689.406 120.66H690.763C690.861 121.536 691.715 122.112 692.882 122.112C693.999 122.112 694.804 121.536 694.804 120.746C694.804 120.058 694.319 119.648 693.17 119.366L692.022 119.091C690.394 118.698 689.638 117.938 689.638 116.705C689.638 115.179 690.972 114.13 692.863 114.13C694.737 114.13 696.02 115.179 696.063 116.705H694.724C694.645 115.822 693.913 115.289 692.845 115.289C691.776 115.289 691.045 115.828 691.045 116.613C691.045 117.239 691.512 117.607 692.654 117.888L693.631 118.128C695.449 118.557 696.205 119.286 696.205 120.579C696.205 122.235 694.884 123.271 692.783 123.271C690.818 123.271 689.492 122.26 689.406 120.66ZM697.439 114.278H700.565C703.2 114.278 704.76 115.896 704.76 118.686C704.76 121.481 703.207 123.124 700.565 123.124H697.439V114.278ZM698.815 115.461V121.934H700.436C702.316 121.934 703.353 120.789 703.353 118.698C703.353 116.613 702.309 115.461 700.436 115.461H698.815Z" fill="white"/>
<path d="M63.9425 118.939C63.9425 128.185 56.4335 135.679 47.1707 135.679C37.9079 135.679 30.3989 128.185 30.3989 118.939C30.3989 109.693 37.9079 102.199 47.1707 102.199C56.4335 102.199 63.9425 109.693 63.9425 118.939Z" fill="#1ACD8D" fill-opacity="0.44"/>
<path d="M49.1346 116.138V113.977H54.2137V110.569H40.114V113.977H45.2083V116.138C40.9409 116.337 37.7366 117.165 37.7366 118.158C37.7366 119.151 40.9379 119.975 45.2083 120.179V127.309H49.1346V120.179C53.402 119.982 56.6048 119.153 56.6048 118.158C56.6048 117.163 53.4051 116.337 49.1346 116.138ZM47.1714 119.533C42.5507 119.533 38.8042 118.843 38.8042 118.01C38.8042 117.293 41.5334 116.692 45.2052 116.531V118.971C45.8358 118.999 46.4937 119.015 47.1684 119.015C47.8431 119.015 48.5026 118.999 49.1315 118.971V116.531C52.8019 116.692 55.5311 117.293 55.5311 118.01C55.5388 118.851 51.7922 119.533 47.1714 119.533Z" fill="white"/>
<path d="M59.7494 118.939C59.7494 125.872 54.1177 131.494 47.1706 131.494C40.2235 131.494 34.5918 125.872 34.5918 118.939C34.5918 112.005 40.2235 106.384 47.1706 106.384C54.1177 106.384 59.7494 112.005 59.7494 118.939Z" fill="#1ACD8D"/>
<path d="M48.6434 116.838V115.218H52.4528V112.661H41.878V115.218H45.6988V116.838C42.4983 116.988 40.095 117.609 40.095 118.353C40.095 119.098 42.496 119.716 45.6988 119.869V125.216H48.6434V119.869C51.844 119.721 54.2462 119.099 54.2462 118.353C54.2462 117.607 51.8463 116.988 48.6434 116.838ZM47.1711 119.385C43.7056 119.385 40.8957 118.867 40.8957 118.242C40.8957 117.704 42.9426 117.254 45.6965 117.133V118.963C46.1694 118.984 46.6628 118.995 47.1689 118.995C47.6749 118.995 48.1694 118.984 48.6412 118.963V117.133C51.394 117.254 53.4409 117.704 53.4409 118.242C53.4466 118.873 50.6367 119.385 47.1711 119.385Z" fill="white"/>
<path d="M279.69 14.883H282.854C284.518 14.883 285.691 16.0478 285.691 17.7214C285.691 19.4012 284.506 20.572 282.841 20.572H280.796V23.7292H279.69V14.883ZM280.796 15.8639V19.5912H282.564C283.831 19.5912 284.555 18.8984 284.555 17.7214C284.555 16.5505 283.836 15.8639 282.564 15.8639H280.796ZM286.797 23.7292V17.3535H287.805V18.3957H287.829C288.037 17.6907 288.627 17.2433 289.377 17.2433C289.56 17.2433 289.721 17.2739 289.807 17.2861V18.3222C289.721 18.2915 289.493 18.2608 289.235 18.2608C288.406 18.2608 287.865 18.8555 287.865 19.7567V23.7292H286.797ZM290.733 23.7292V17.3535H291.803V23.7292H290.733ZM291.268 16.2808C290.906 16.2808 290.604 15.9804 290.604 15.6186C290.604 15.2509 290.906 14.9565 291.268 14.9565C291.637 14.9565 291.938 15.2509 291.938 15.6186C291.938 15.9804 291.637 16.2808 291.268 16.2808ZM298.552 19.4441H297.508C297.355 18.7513 296.814 18.1812 295.875 18.1812C294.769 18.1812 294.02 19.0946 294.02 20.5414C294.02 22.025 294.782 22.9016 295.886 22.9016C296.76 22.9016 297.33 22.4418 297.514 21.6755H298.565C298.399 22.9445 297.33 23.8396 295.881 23.8396C294.112 23.8396 292.933 22.5951 292.933 20.5414C292.933 18.5306 294.106 17.2433 295.869 17.2433C297.465 17.2433 298.418 18.2977 298.552 19.4441ZM302.109 18.1689C301.108 18.1689 300.407 18.9353 300.34 19.9958H303.81C303.786 18.9291 303.116 18.1689 302.109 18.1689ZM303.786 21.9023H304.836C304.652 23.0181 303.571 23.8396 302.176 23.8396C300.346 23.8396 299.235 22.5706 299.235 20.566C299.235 18.5858 300.365 17.2433 302.128 17.2433C303.853 17.2433 304.916 18.4938 304.916 20.4249V20.8295H300.334V20.8908C300.334 22.1108 301.052 22.9139 302.201 22.9139C303.011 22.9139 303.608 22.5031 303.786 21.9023Z" fill="#5E6F8D"/>
<path d="M455.094 23.7292H454.062V16.9122H454.019L451.194 23.6679H450.26L447.435 16.9122H447.392V23.7292H446.36V14.883H447.644L450.702 22.264H450.752L453.81 14.883H455.094V23.7292ZM457.176 26.114C457.047 26.114 456.833 26.1017 456.715 26.0771V25.1822C456.833 25.2066 456.998 25.2128 457.133 25.2128C457.729 25.2128 458.06 24.9247 458.306 24.1829L458.453 23.7354L456.095 17.3535H457.237L459.007 22.6626H459.024L460.794 17.3535H461.918L459.406 24.1767C458.859 25.6665 458.33 26.114 457.176 26.114ZM468.858 23.7292H465.511V14.883H468.87C470.387 14.883 471.413 15.7658 471.413 17.09C471.413 18.0095 470.737 18.8678 469.884 19.0211V19.0701C471.087 19.2234 471.861 20.0694 471.861 21.2465C471.861 22.8035 470.744 23.7292 468.858 23.7292ZM466.617 15.8578V18.6962H468.275C469.583 18.6962 470.295 18.1751 470.295 17.2187C470.295 16.3421 469.693 15.8578 468.619 15.8578H466.617ZM466.617 22.7545H468.692C470.025 22.7545 470.725 22.215 470.725 21.1912C470.725 20.1674 470 19.6464 468.587 19.6464H466.617V22.7545ZM475.055 22.9323C476.062 22.9323 476.837 22.2273 476.837 21.3077V20.7866L475.129 20.8908C474.269 20.946 473.778 21.3261 473.778 21.9268C473.778 22.5338 474.288 22.9323 475.055 22.9323ZM474.816 23.8396C473.545 23.8396 472.69 23.0732 472.69 21.9268C472.69 20.8357 473.532 20.149 475.006 20.0632L476.837 19.959V19.4256C476.837 18.6471 476.32 18.1812 475.437 18.1812C474.613 18.1812 474.097 18.5674 473.962 19.1927H472.93C473.004 18.0893 473.95 17.2433 475.461 17.2433C476.96 17.2433 477.905 18.0524 477.905 19.3214V23.7292H476.892V22.6319H476.867C476.487 23.3614 475.676 23.8396 474.816 23.8396ZM479.318 23.7292V14.883H480.386V23.7292H479.318ZM483.937 22.9323C484.944 22.9323 485.718 22.2273 485.718 21.3077V20.7866L484.01 20.8908C483.151 20.946 482.659 21.3261 482.659 21.9268C482.659 22.5338 483.169 22.9323 483.937 22.9323ZM483.697 23.8396C482.426 23.8396 481.572 23.0732 481.572 21.9268C481.572 20.8357 482.414 20.149 483.887 20.0632L485.718 19.959V19.4256C485.718 18.6471 485.202 18.1812 484.317 18.1812C483.494 18.1812 482.979 18.5674 482.843 19.1927H481.812C481.885 18.0893 482.831 17.2433 484.342 17.2433C485.84 17.2433 486.787 18.0524 486.787 19.3214V23.7292H485.773V22.6319H485.748C485.368 23.3614 484.557 23.8396 483.697 23.8396ZM488.144 23.7292V17.3535H489.152V18.3712H489.176C489.532 17.6847 490.214 17.2433 491.203 17.2433C492.604 17.2433 493.414 18.1444 493.414 19.5912V23.7292H492.345V19.7813C492.345 18.7513 491.86 18.1873 490.877 18.1873C489.87 18.1873 489.213 18.8984 489.213 19.9774V23.7292H488.144ZM500.084 19.4441H499.04C498.887 18.7513 498.346 18.1812 497.407 18.1812C496.301 18.1812 495.551 19.0946 495.551 20.5414C495.551 22.025 496.313 22.9016 497.418 22.9016C498.29 22.9016 498.862 22.4418 499.046 21.6755H500.096C499.931 22.9445 498.862 23.8396 497.412 23.8396C495.643 23.8396 494.464 22.5951 494.464 20.5414C494.464 18.5306 495.637 17.2433 497.4 17.2433C498.997 17.2433 499.949 18.2977 500.084 19.4441ZM503.64 18.1689C502.639 18.1689 501.939 18.9353 501.871 19.9958H505.342C505.317 18.9291 504.648 18.1689 503.64 18.1689ZM505.317 21.9024H506.367C506.183 23.0181 505.102 23.8396 503.708 23.8396C501.877 23.8396 500.766 22.5706 500.766 20.566C500.766 18.5858 501.896 17.2433 503.658 17.2433C505.385 17.2433 506.448 18.4938 506.448 20.4249V20.8295H501.865V20.8908C501.865 22.1108 502.584 22.9139 503.733 22.9139C504.543 22.9139 505.139 22.5031 505.317 21.9024Z" fill="#5E6F8D"/>
<path d="M616.684 23.7292H615.591L612.323 14.883H613.484L616.119 22.3867H616.156L618.79 14.883H619.952L616.684 23.7292ZM621.984 22.9323C622.991 22.9323 623.765 22.2273 623.765 21.3077V20.7866L622.059 20.8908C621.198 20.946 620.707 21.3261 620.707 21.9268C620.707 22.5338 621.217 22.9323 621.984 22.9323ZM621.745 23.8396C620.474 23.8396 619.619 23.0732 619.619 21.9268C619.619 20.8357 620.461 20.149 621.935 20.0632L623.765 19.959V19.4256C623.765 18.6471 623.249 18.1812 622.366 18.1812C621.542 18.1812 621.026 18.5674 620.891 19.1927H619.859C619.933 18.0893 620.879 17.2433 622.39 17.2433C623.889 17.2433 624.834 18.0524 624.834 19.3214V23.7292H623.821V22.6319H623.796C623.416 23.3614 622.605 23.8396 621.745 23.8396ZM626.247 23.7292V14.883H627.315V23.7292H626.247ZM634.004 17.3535V23.7292H632.991V22.6932H632.966C632.586 23.4288 631.922 23.8396 630.939 23.8396C629.545 23.8396 628.728 22.9384 628.728 21.4916V17.3535H629.797V21.3016C629.797 22.3376 630.282 22.8955 631.271 22.8955C632.309 22.8955 632.936 22.1843 632.936 21.0992V17.3535H634.004ZM637.954 18.1689C636.953 18.1689 636.253 18.9353 636.185 19.9958H639.655C639.63 18.9291 638.961 18.1689 637.954 18.1689ZM639.63 21.9023H640.68C640.496 23.0181 639.415 23.8396 638.021 23.8396C636.191 23.8396 635.079 22.5706 635.079 20.566C635.079 18.5858 636.21 17.2433 637.972 17.2433C639.698 17.2433 640.76 18.4938 640.76 20.4249V20.8295H636.178V20.8908C636.178 22.1108 636.897 22.9139 638.046 22.9139C638.856 22.9139 639.452 22.5031 639.63 21.9023Z" fill="#5E6F8D"/>
<path d="M63.9425 173.344C63.9425 182.59 56.4335 190.084 47.1707 190.084C37.9079 190.084 30.3989 182.59 30.3989 173.344C30.3989 164.098 37.9079 156.604 47.1707 156.604C56.4335 156.604 63.9425 164.098 63.9425 173.344Z" fill="#5F6DB6" fill-opacity="0.44"/>
<path d="M59.7494 173.344C59.7494 180.278 54.1177 185.899 47.1706 185.899C40.2235 185.899 34.5918 180.278 34.5918 173.344C34.5918 166.411 40.2235 160.789 47.1706 160.789C54.1177 160.789 59.7494 166.411 59.7494 173.344Z" fill="#5F6DB6"/>
<path d="M42.9775 173.035L47.2803 166.02L51.5832 173.035L47.2803 175.537L42.9775 173.035Z" fill="white"/>
<path d="M47.2804 176.325L51.4454 173.744L47.2804 179.654L43.0171 173.744L47.2804 176.325Z" fill="white"/>
</g>
<defs>
<clipPath id="clip0_130_361">
<rect width="775.694" height="200.882" fill="white" transform="translate(0 0.711487)"/>
</clipPath>
</defs>
</svg>
