<svg width="398" height="601" viewBox="0 0 398 601" fill="none" xmlns="http://www.w3.org/2000/svg">
<g clip-path="url(#clip0_130_338)" filter="url(#filter0_d_130_338)">
<path d="M44.1013 36.5002C44.1013 29.6743 49.6493 24.1407 56.4931 24.1407H341.503C348.347 24.1407 353.895 29.6742 353.895 36.5002V523.667C353.895 530.492 348.347 536.026 341.503 536.026H56.4931C49.6493 536.026 44.1013 530.492 44.1013 523.667V36.5002Z" fill="#151A22"/>
<mask id="mask0_130_338" style="mask-type:alpha" maskUnits="userSpaceOnUse" x="44" y="24" width="310" height="513">
<path d="M44.1013 36.5002C44.1013 29.6743 49.6493 24.1407 56.4931 24.1407H341.503C348.347 24.1407 353.895 29.6742 353.895 36.5002V523.667C353.895 530.492 348.347 536.026 341.503 536.026H56.4931C49.6493 536.026 44.1013 530.492 44.1013 523.667V36.5002Z" fill="#121212"/>
</mask>
<g mask="url(#mask0_130_338)">
<path d="M210.989 110.498C209.389 81.6995 186.071 64.9568 158.225 67.5032C140.405 67.413 111.86 67.2778 94.1075 67.0975L141.261 -6.45303C142.748 -8.70642 139.414 -11.1175 137.701 -9.04443L65.7659 71.1987C59.6605 77.6659 65.0675 89.1357 73.9214 88.6625C74.5297 88.6625 144.348 88.1442 158.271 88.0766C163.7 88.2569 170.369 87.3555 175.46 89.5638C192.357 95.8508 196.187 118.813 182.377 130.418C154.396 158.022 117.38 194.391 89.2187 221.973H89.1511C82.7754 228.801 71.3531 227.606 65.6532 220.508C57.9032 212.013 65.09 201.197 68.6271 192.499C75.2506 177.13 82.2347 161.92 89.827 146.98C90.6155 145.538 89.444 143.6 87.7768 143.645H66.8923C65.7208 143.645 64.5718 144.006 63.6031 144.704C62.6343 145.403 61.9134 146.372 61.5304 147.476C60.3589 150.946 47.4046 185.761 42.2229 199.709C31.9046 229.274 66.4868 258.703 94.0625 244.169C98.1628 242.186 101.7 238.986 104.922 235.809C109.45 231.324 181.701 159.306 181.701 159.306C196.097 144.884 212.07 133.167 210.944 110.52L210.989 110.498Z" fill="url(#paint0_linear_130_338)"/>
<path d="M12.0113 83.5022C13.6109 112.3 36.9285 129.043 64.7745 126.497C82.5951 126.587 111.14 126.722 128.892 126.902L81.739 200.453C80.252 202.706 83.5864 205.118 85.2986 203.044L157.234 122.801C163.34 116.334 157.933 104.864 149.079 105.338C148.47 105.338 78.6525 105.856 64.7295 105.923C59.2999 105.743 52.6313 106.645 47.5397 104.436C30.6429 98.1492 26.8129 75.1872 40.6233 63.5823C68.6045 35.9783 105.62 -0.391426 133.781 -27.9729H133.849C140.225 -34.8007 151.647 -33.6064 157.347 -26.5082C165.097 -18.0129 157.91 -7.19666 154.373 1.50142C147.749 16.8695 140.765 32.0799 133.173 47.0199C132.384 48.462 133.556 50.3999 135.223 50.3549H156.108C157.279 50.3549 158.428 49.9943 159.397 49.2958C160.366 48.5972 161.087 47.6283 161.47 46.5241C162.641 43.0539 175.595 8.23905 180.777 -5.70942C191.095 -35.2739 156.513 -64.7031 128.938 -50.1688C124.837 -48.1858 121.3 -44.986 118.078 -41.8087C113.55 -37.3245 41.2992 34.6938 41.2992 34.6938C26.903 49.1155 10.9299 60.8331 12.0563 83.4797L12.0113 83.5022Z" fill="url(#paint1_linear_130_338)"/>
</g>
<path d="M155.667 246.329H159.774C163.234 246.329 165.284 248.453 165.284 252.114C165.284 255.783 163.243 257.94 159.774 257.94H155.667V246.329ZM157.474 247.881V256.378H159.605C162.073 256.378 163.436 254.873 163.436 252.13C163.436 249.394 162.064 247.881 159.605 247.881H157.474ZM169.769 256.709C170.988 256.709 171.94 255.871 171.94 254.769V254.101L169.85 254.23C168.81 254.303 168.22 254.761 168.22 255.485C168.22 256.226 168.833 256.709 169.769 256.709ZM169.286 258.085C167.623 258.085 166.461 257.055 166.461 255.534C166.461 254.054 167.599 253.144 169.616 253.031L171.94 252.895V252.243C171.94 251.302 171.303 250.738 170.237 250.738C169.229 250.738 168.599 251.221 168.446 251.977H166.8C166.897 250.449 168.205 249.322 170.302 249.322C172.359 249.322 173.675 250.409 173.675 252.106V257.94H172.004V256.547H171.963C171.472 257.488 170.399 258.085 169.286 258.085ZM175.215 251.872C175.215 250.36 176.555 249.322 178.539 249.322C180.427 249.322 181.75 250.376 181.807 251.88H180.169C180.088 251.116 179.467 250.641 178.491 250.641C177.547 250.641 176.917 251.1 176.917 251.768C176.917 252.291 177.336 252.645 178.216 252.862L179.644 253.193C181.354 253.602 182 254.246 182 255.493C182 257.038 180.556 258.1 178.474 258.1C176.466 258.1 175.135 257.062 174.997 255.51H176.724C176.86 256.323 177.49 256.773 178.555 256.773C179.604 256.773 180.249 256.338 180.249 255.654C180.249 255.115 179.926 254.818 179.039 254.592L177.522 254.223C175.99 253.852 175.215 253.056 175.215 251.872ZM183.42 257.94V246.329H185.146V250.891H185.186C185.654 249.901 186.583 249.33 187.873 249.33C189.736 249.33 190.849 250.569 190.849 252.484V257.94H189.099V252.822C189.099 251.575 188.47 250.827 187.243 250.827C185.953 250.827 185.163 251.711 185.163 253.047V257.94H183.42ZM197.054 258.085C195.811 258.085 194.851 257.481 194.327 256.5H194.294V257.94H192.601V246.329H194.343V250.915H194.383C194.891 249.934 195.86 249.337 197.062 249.337C199.199 249.337 200.596 251.028 200.596 253.708C200.596 256.395 199.208 258.085 197.054 258.085ZM196.586 250.802C195.263 250.802 194.335 251.961 194.335 253.708C194.335 255.47 195.263 256.612 196.586 256.612C197.957 256.612 198.804 255.502 198.804 253.708C198.804 251.929 197.957 250.802 196.586 250.802ZM205.605 258.1C203.177 258.1 201.58 256.435 201.58 253.708C201.58 250.987 203.185 249.322 205.605 249.322C208.025 249.322 209.631 250.987 209.631 253.708C209.631 256.435 208.034 258.1 205.605 258.1ZM205.605 256.669C206.977 256.669 207.856 255.59 207.856 253.708C207.856 251.832 206.969 250.754 205.605 250.754C204.242 250.754 203.355 251.832 203.355 253.708C203.355 255.59 204.242 256.669 205.605 256.669ZM213.948 256.709C215.165 256.709 216.117 255.871 216.117 254.769V254.101L214.028 254.23C212.987 254.303 212.399 254.761 212.399 255.485C212.399 256.226 213.011 256.709 213.948 256.709ZM213.463 258.085C211.801 258.085 210.639 257.055 210.639 255.534C210.639 254.054 211.777 253.144 213.794 253.031L216.117 252.895V252.243C216.117 251.302 215.48 250.738 214.415 250.738C213.407 250.738 212.778 251.221 212.624 251.977H210.979C211.075 250.449 212.382 249.322 214.479 249.322C216.537 249.322 217.852 250.409 217.852 252.106V257.94H216.182V256.547H216.142C215.649 257.488 214.577 258.085 213.463 258.085ZM219.546 257.94V249.474H221.208V250.915H221.248C221.53 249.926 222.289 249.337 223.289 249.337C223.54 249.337 223.758 249.379 223.887 249.402V251.019C223.75 250.964 223.443 250.924 223.104 250.924C221.983 250.924 221.289 251.671 221.289 252.87V257.94H219.546ZM227.783 258.085C225.637 258.085 224.217 256.378 224.217 253.708C224.217 251.036 225.637 249.337 227.767 249.337C228.985 249.337 229.954 249.949 230.43 250.882H230.462V246.329H232.212V257.94H230.517V256.5H230.485C229.986 257.465 229.017 258.085 227.783 258.085ZM228.243 250.802C226.863 250.802 226 251.929 226 253.708C226 255.493 226.863 256.612 228.243 256.612C229.582 256.612 230.477 255.477 230.477 253.708C230.477 251.954 229.582 250.802 228.243 250.802Z" fill="white"/>
<path d="M132.636 246.125L127.222 251.582C127.061 251.744 126.933 251.938 126.845 252.15C126.758 252.363 126.713 252.591 126.713 252.821V258.724C126.713 259.062 126.846 259.387 127.083 259.626C127.321 259.866 127.642 259.999 127.978 259.999H131.206C131.541 259.999 131.863 259.866 132.1 259.626C132.337 259.387 132.471 259.062 132.471 258.724V256.905C132.471 256.851 132.481 256.796 132.502 256.745C132.523 256.694 132.554 256.648 132.592 256.609C132.631 256.571 132.677 256.54 132.727 256.518C132.778 256.498 132.832 256.486 132.886 256.486H134.997C135.051 256.486 135.105 256.498 135.156 256.518C135.206 256.54 135.252 256.571 135.291 256.609C135.329 256.648 135.36 256.694 135.381 256.745C135.402 256.796 135.412 256.851 135.412 256.905V258.724C135.412 259.062 135.546 259.387 135.783 259.626C136.02 259.866 136.342 259.999 136.677 259.999H139.905C140.241 259.999 140.562 259.866 140.8 259.626C141.037 259.387 141.17 259.062 141.17 258.724V252.821C141.17 252.591 141.125 252.363 141.038 252.15C140.95 251.938 140.822 251.744 140.661 251.582L135.244 246.125C134.898 245.776 134.429 245.58 133.94 245.58C133.451 245.58 132.982 245.776 132.636 246.125Z" fill="white"/>
<path d="M155.167 299.033H156.628C156.765 300.288 157.959 301.117 159.62 301.117C161.194 301.117 162.339 300.288 162.339 299.146C162.339 298.164 161.654 297.561 160.088 297.158L158.596 296.772C156.45 296.225 155.498 295.284 155.498 293.707C155.498 291.776 157.192 290.423 159.612 290.423C161.928 290.423 163.606 291.791 163.67 293.739H162.218C162.089 292.491 161.08 291.727 159.563 291.727C158.056 291.727 157.007 292.507 157.007 293.642C157.007 294.519 157.652 295.042 159.233 295.452L160.452 295.774C162.864 296.377 163.84 297.303 163.84 298.969C163.84 301.092 162.162 302.421 159.483 302.421C157.015 302.421 155.305 301.085 155.167 299.033ZM168.681 294.929C167.365 294.929 166.446 295.936 166.357 297.327H170.915C170.882 295.927 170.003 294.929 168.681 294.929ZM170.882 299.83H172.262C172.02 301.294 170.6 302.373 168.769 302.373C166.364 302.373 164.904 300.706 164.904 298.076C164.904 295.476 166.389 293.714 168.704 293.714C170.971 293.714 172.367 295.356 172.367 297.89V298.422H166.349V298.502C166.349 300.104 167.293 301.157 168.802 301.157C169.866 301.157 170.649 300.619 170.882 299.83ZM173.787 302.227V293.859H175.11V295.195H175.142C175.611 294.294 176.506 293.714 177.805 293.714C179.644 293.714 180.709 294.897 180.709 296.797V302.227H179.306V297.046C179.306 295.693 178.667 294.954 177.377 294.954C176.054 294.954 175.19 295.887 175.19 297.303V302.227H173.787ZM185.679 302.373C183.54 302.373 182.089 300.666 182.089 298.044C182.089 295.421 183.532 293.714 185.646 293.714C186.848 293.714 187.817 294.302 188.316 295.219H188.349V290.617H189.753V302.227H188.413V300.811H188.39C187.849 301.776 186.888 302.373 185.679 302.373ZM185.944 294.946C184.461 294.946 183.525 296.153 183.525 298.044C183.525 299.942 184.461 301.141 185.944 301.141C187.389 301.141 188.357 299.918 188.357 298.044C188.357 296.177 187.389 294.946 185.944 294.946Z" fill="#5E6F8D"/>
<mask id="mask1_130_338" style="mask-type:luminance" maskUnits="userSpaceOnUse" x="125" y="288" width="18" height="18">
<path d="M142.203 288.838H125.68V305.317H142.203V288.838Z" fill="white"/>
</mask>
<g mask="url(#mask1_130_338)">
<path fill-rule="evenodd" clip-rule="evenodd" d="M137.5 293.529L132.047 297.304L126.344 295.408C125.946 295.275 125.678 294.904 125.68 294.484C125.683 294.066 125.954 293.696 126.353 293.568L140.934 288.885C141.281 288.773 141.661 288.865 141.918 289.121C142.176 289.379 142.267 289.758 142.156 290.104L137.46 304.646C137.332 305.044 136.961 305.315 136.541 305.317C136.122 305.319 135.748 305.053 135.615 304.655L133.705 298.94L137.5 293.529Z" fill="#5E6F8D"/>
</g>
<path d="M165.018 346.515H163.566V341.229H157.176V346.515H155.724V334.905H157.176V339.926H163.566V334.905H165.018V346.515ZM167.132 346.515V338.147H168.535V346.515H167.132ZM167.833 336.739C167.357 336.739 166.962 336.345 166.962 335.87C166.962 335.387 167.357 335.001 167.833 335.001C168.317 335.001 168.713 335.387 168.713 335.87C168.713 336.345 168.317 336.739 167.833 336.739ZM170.285 340.456C170.285 339.025 171.569 338.002 173.416 338.002C175.15 338.002 176.426 339.032 176.49 340.448H175.15C175.053 339.644 174.401 339.145 173.368 339.145C172.344 339.145 171.665 339.652 171.665 340.384C171.665 340.963 172.109 341.349 173.061 341.591L174.36 341.904C176.054 342.332 176.667 342.942 176.667 344.174C176.667 345.631 175.288 346.661 173.328 346.661C171.487 346.661 170.205 345.663 170.06 344.182H171.464C171.617 345.051 172.278 345.517 173.416 345.517C174.553 345.517 175.256 345.034 175.256 344.278C175.256 343.683 174.909 343.362 173.965 343.111L172.488 342.733C171.011 342.355 170.285 341.599 170.285 340.456ZM178.58 336.127H179.983V338.147H181.613V339.297H179.983V344.27C179.983 345.034 180.305 345.38 181.024 345.38C181.185 345.38 181.507 345.357 181.604 345.34V346.515C181.435 346.556 181.048 346.579 180.717 346.579C179.177 346.579 178.58 345.952 178.58 344.343V339.297H177.329V338.147H178.58V336.127ZM186.348 346.661C184.025 346.661 182.459 344.994 182.459 342.332C182.459 339.66 184.025 338.002 186.348 338.002C188.663 338.002 190.229 339.66 190.229 342.332C190.229 344.994 188.663 346.661 186.348 346.661ZM186.348 345.429C187.833 345.429 188.801 344.303 188.801 342.332C188.801 340.359 187.833 339.234 186.348 339.234C184.863 339.234 183.887 340.359 183.887 342.332C183.887 344.303 184.863 345.429 186.348 345.429ZM191.649 346.515V338.147H192.972V339.515H193.004C193.278 338.59 194.053 338.002 195.037 338.002C195.279 338.002 195.489 338.042 195.602 338.058V339.418C195.489 339.378 195.19 339.338 194.851 339.338C193.763 339.338 193.052 340.118 193.052 341.302V346.515H191.649ZM197.441 349.645C197.272 349.645 196.99 349.629 196.836 349.597V348.423C196.99 348.455 197.208 348.463 197.385 348.463C198.167 348.463 198.603 348.084 198.926 347.111L199.119 346.524L196.021 338.147H197.521L199.845 345.116H199.87L202.193 338.147H203.669L200.37 347.102C199.652 349.058 198.958 349.645 197.441 349.645Z" fill="#5E6F8D"/>
<path d="M136.97 334.156H130.913C128.281 334.156 126.713 335.72 126.713 338.345V344.386C126.713 347.011 128.281 348.575 130.913 348.575H136.97C139.601 348.575 141.17 347.011 141.17 344.386V338.345C141.17 335.72 139.601 334.156 136.97 334.156ZM132.474 343.456L130.848 345.079C130.739 345.187 130.602 345.237 130.464 345.237C130.327 345.237 130.183 345.187 130.081 345.079L129.539 344.538C129.322 344.329 129.322 343.983 129.539 343.774C129.749 343.565 130.089 343.565 130.305 343.774L130.464 343.932L131.708 342.692C131.917 342.483 132.257 342.483 132.474 342.692C132.684 342.901 132.684 343.247 132.474 343.456ZM132.474 338.41L130.848 340.032C130.739 340.14 130.602 340.19 130.464 340.19C130.327 340.19 130.183 340.14 130.081 340.032L129.539 339.491C129.322 339.282 129.322 338.936 129.539 338.727C129.749 338.518 130.089 338.518 130.305 338.727L130.464 338.885L131.708 337.645C131.917 337.436 132.257 337.436 132.474 337.645C132.684 337.854 132.684 338.201 132.474 338.41ZM137.96 344.696H134.165C133.869 344.696 133.623 344.451 133.623 344.156C133.623 343.86 133.869 343.615 134.165 343.615H137.96C138.264 343.615 138.503 343.86 138.503 344.156C138.503 344.451 138.264 344.696 137.96 344.696ZM137.96 339.65H134.165C133.869 339.65 133.623 339.405 133.623 339.109C133.623 338.813 133.869 338.568 134.165 338.568H137.96C138.264 338.568 138.503 338.813 138.503 339.109C138.503 339.405 138.264 339.65 137.96 339.65Z" fill="#5E6F8D"/>
<path d="M155.167 387.608H156.628C156.765 388.864 157.959 389.693 159.62 389.693C161.194 389.693 162.339 388.864 162.339 387.722C162.339 386.74 161.654 386.137 160.088 385.734L158.596 385.348C156.45 384.801 155.498 383.859 155.498 382.282C155.498 380.351 157.192 378.999 159.612 378.999C161.928 378.999 163.606 380.367 163.67 382.314H162.218C162.089 381.067 161.08 380.303 159.563 380.303C158.056 380.303 157.007 381.083 157.007 382.218C157.007 383.095 157.652 383.617 159.233 384.028L160.452 384.35C162.864 384.953 163.84 385.879 163.84 387.545C163.84 389.668 162.162 390.997 159.483 390.997C157.015 390.997 155.305 389.661 155.167 387.608ZM168.681 383.505C167.365 383.505 166.446 384.511 166.357 385.903H170.915C170.882 384.503 170.003 383.505 168.681 383.505ZM170.882 388.406H172.262C172.02 389.87 170.6 390.949 168.769 390.949C166.364 390.949 164.904 389.282 164.904 386.652C164.904 384.052 166.389 382.29 168.704 382.29C170.971 382.29 172.367 383.931 172.367 386.466V386.998H166.349V387.078C166.349 388.68 167.293 389.733 168.801 389.733C169.866 389.733 170.649 389.195 170.882 388.406ZM174.238 380.415H175.643V382.435H177.272V383.585H175.643V388.558C175.643 389.322 175.965 389.668 176.684 389.668C176.845 389.668 177.167 389.645 177.264 389.628V390.803C177.095 390.843 176.707 390.867 176.377 390.867C174.836 390.867 174.238 390.24 174.238 388.631V383.585H172.988V382.435H174.238V380.415ZM179.225 380.415H180.628V382.435H182.258V383.585H180.628V388.558C180.628 389.322 180.951 389.668 181.669 389.668C181.83 389.668 182.154 389.645 182.25 389.628V390.803C182.08 390.843 181.693 390.867 181.363 390.867C179.822 390.867 179.225 390.24 179.225 388.631V383.585H177.974V382.435H179.225V380.415ZM183.831 390.803V382.435H185.235V390.803H183.831ZM184.533 381.027C184.057 381.027 183.661 380.633 183.661 380.158C183.661 379.675 184.057 379.288 184.533 379.288C185.017 379.288 185.413 379.675 185.413 380.158C185.413 380.633 185.017 381.027 184.533 381.027ZM187.131 390.803V382.435H188.454V383.771H188.486C188.954 382.87 189.85 382.29 191.148 382.29C192.988 382.29 194.053 383.473 194.053 385.372V390.803H192.649V385.622C192.649 384.269 192.011 383.53 190.72 383.53C189.398 383.53 188.534 384.463 188.534 385.879V390.803H187.131ZM199.256 389.636C200.716 389.636 201.692 388.429 201.692 386.587C201.692 384.744 200.716 383.522 199.256 383.522C197.813 383.522 196.869 384.712 196.869 386.587C196.869 388.462 197.813 389.636 199.256 389.636ZM199.305 393.957C197.457 393.957 195.997 392.92 195.763 391.495H197.208C197.481 392.26 198.312 392.766 199.362 392.766C200.814 392.766 201.692 391.93 201.692 390.683V389.363H201.66C201.144 390.272 200.152 390.867 198.974 390.867C196.836 390.867 195.432 389.186 195.432 386.587C195.432 383.963 196.836 382.29 199.006 382.29C200.192 382.29 201.176 382.87 201.733 383.843H201.757V382.435H203.097V390.634C203.097 392.629 201.62 393.957 199.305 393.957ZM204.783 384.744C204.783 383.312 206.066 382.29 207.913 382.29C209.647 382.29 210.922 383.32 210.986 384.736H209.647C209.551 383.931 208.897 383.433 207.864 383.433C206.84 383.433 206.163 383.94 206.163 384.672C206.163 385.251 206.606 385.637 207.558 385.879L208.857 386.192C210.551 386.62 211.164 387.23 211.164 388.462C211.164 389.919 209.784 390.949 207.824 390.949C205.985 390.949 204.701 389.95 204.557 388.469H205.96C206.114 389.339 206.775 389.805 207.913 389.805C209.05 389.805 209.752 389.322 209.752 388.566C209.752 387.971 209.405 387.65 208.461 387.399L206.985 387.021C205.509 386.643 204.783 385.887 204.783 384.744Z" fill="#5E6F8D"/>
<mask id="mask2_130_338" style="mask-type:luminance" maskUnits="userSpaceOnUse" x="125" y="377" width="18" height="17">
<path d="M142.203 377.414H125.68V393.893H142.203V377.414Z" fill="white"/>
</mask>
<g mask="url(#mask2_130_338)">
<path d="M140.762 383.511C140.461 383.468 140.173 383.357 139.921 383.187C139.668 383.017 139.458 382.792 139.304 382.531C139.151 382.268 139.059 381.974 139.035 381.672C139.011 381.369 139.056 381.065 139.167 380.782C139.237 380.596 139.247 380.395 139.196 380.203C139.145 380.012 139.036 379.841 138.883 379.716C138.207 379.15 137.439 378.705 136.611 378.403C136.422 378.333 136.217 378.324 136.023 378.378C135.829 378.431 135.657 378.545 135.532 378.701C135.343 378.942 135.101 379.137 134.826 379.271C134.55 379.405 134.248 379.475 133.941 379.475C133.635 379.475 133.332 379.405 133.057 379.271C132.781 379.137 132.54 378.942 132.351 378.701C132.226 378.545 132.054 378.431 131.86 378.378C131.666 378.324 131.461 378.333 131.272 378.403C130.508 378.683 129.793 379.082 129.155 379.587C128.994 379.714 128.878 379.889 128.825 380.087C128.771 380.283 128.782 380.493 128.856 380.684C128.975 380.974 129.024 381.289 128.999 381.602C128.975 381.915 128.877 382.218 128.714 382.485C128.551 382.754 128.327 382.981 128.06 383.147C127.793 383.313 127.491 383.415 127.178 383.444C126.974 383.466 126.783 383.552 126.633 383.69C126.482 383.828 126.38 384.011 126.341 384.212C126.245 384.686 126.197 385.169 126.197 385.653C126.196 386.059 126.229 386.464 126.295 386.864C126.327 387.071 126.428 387.26 126.58 387.405C126.732 387.55 126.928 387.639 127.136 387.662C127.456 387.692 127.765 387.798 128.036 387.971C128.306 388.144 128.531 388.38 128.692 388.658C128.853 388.935 128.945 389.248 128.96 389.568C128.975 389.889 128.912 390.208 128.778 390.499C128.69 390.689 128.669 390.902 128.716 391.106C128.764 391.309 128.878 391.491 129.041 391.622C129.713 392.177 130.474 392.615 131.293 392.915C131.397 392.951 131.507 392.97 131.618 392.971C131.77 392.971 131.919 392.934 132.054 392.864C132.189 392.794 132.305 392.693 132.392 392.57C132.576 392.302 132.823 392.083 133.111 391.933C133.399 391.782 133.719 391.703 134.045 391.704C134.36 391.704 134.67 391.779 134.952 391.92C135.233 392.061 135.478 392.266 135.666 392.518C135.791 392.686 135.968 392.808 136.17 392.864C136.372 392.921 136.587 392.909 136.781 392.832C137.53 392.531 138.227 392.116 138.846 391.601C139.002 391.473 139.113 391.299 139.163 391.103C139.213 390.908 139.2 390.702 139.125 390.515C139.004 390.229 138.951 389.917 138.971 389.606C138.99 389.295 139.082 388.994 139.239 388.725C139.396 388.456 139.613 388.226 139.874 388.055C140.134 387.884 140.431 387.776 140.741 387.739C140.942 387.711 141.129 387.621 141.275 387.48C141.421 387.34 141.518 387.156 141.552 386.956C141.635 386.527 141.68 386.091 141.686 385.653C141.686 385.192 141.643 384.732 141.557 384.278C141.522 384.084 141.427 383.905 141.284 383.767C141.141 383.629 140.959 383.539 140.762 383.511ZM136.523 385.653C136.523 386.162 136.372 386.661 136.088 387.084C135.804 387.507 135.401 387.837 134.929 388.033C134.458 388.227 133.938 388.278 133.438 388.179C132.937 388.079 132.477 387.834 132.116 387.474C131.755 387.114 131.509 386.656 131.409 386.156C131.31 385.657 131.361 385.138 131.556 384.668C131.752 384.197 132.083 383.795 132.507 383.512C132.932 383.23 133.431 383.079 133.941 383.079C134.626 383.079 135.283 383.349 135.767 383.833C136.251 384.316 136.523 384.971 136.523 385.653Z" fill="#5E6F8D"/>
</g>
<path d="M148.868 102.268H151.408C151.592 103.912 153.19 104.993 155.374 104.993C157.467 104.993 158.973 103.912 158.973 102.429C158.973 101.141 158.065 100.371 155.915 99.8423L153.765 99.325C150.719 98.5892 149.305 97.1637 149.305 94.853C149.305 91.9905 151.799 90.0247 155.34 90.0247C158.846 90.0247 161.249 91.9905 161.329 94.853H158.823C158.674 93.1976 157.306 92.1974 155.305 92.1974C153.305 92.1974 151.937 93.2091 151.937 94.6806C151.937 95.8532 152.811 96.5429 154.949 97.0718L156.777 97.5201C160.18 98.3248 161.594 99.6929 161.594 102.119C161.594 105.222 159.122 107.165 155.191 107.165C151.512 107.165 149.029 105.268 148.868 102.268Z" fill="white"/>
<path d="M165.497 99.9803L170.383 94.7955H173.303L168.291 100.003L173.499 106.889H170.613L166.509 101.521L165.474 102.544V106.889H162.991V90.3006H165.474V99.9803H165.497Z" fill="white"/>
<path d="M175.275 111.396C175.08 111.396 174.448 111.373 174.264 111.338V109.327C174.448 109.373 174.862 109.373 175.069 109.373C176.23 109.373 176.839 108.89 177.218 107.648C177.218 107.625 177.437 106.912 177.437 106.901L173.068 94.7955H175.758L178.828 104.636H178.862L181.932 94.7955H184.553L180.012 107.522C178.977 110.453 177.793 111.396 175.275 111.396Z" fill="white"/>
<path d="M199.143 94.3817L195.567 106.889H193.13L188.658 90.3006H191.337L194.406 103.291H194.498L198.005 90.3006H200.396L203.914 103.291H204.005L207.075 90.3006H209.753L205.27 106.889H202.844L199.258 94.3817H199.143Z" fill="white"/>
<path d="M213.439 105.13C215.175 105.13 216.531 103.935 216.531 102.36V101.406L213.554 101.59C212.071 101.693 211.231 102.348 211.231 103.383C211.231 104.441 212.105 105.13 213.439 105.13ZM212.749 107.096C210.381 107.096 208.725 105.625 208.725 103.452C208.725 101.337 210.346 100.038 213.22 99.8768L216.531 99.6814V98.7502C216.531 97.4051 215.623 96.6004 214.105 96.6004C212.668 96.6004 211.772 97.2902 211.553 98.3708H209.208C209.346 96.1866 211.208 94.5771 214.197 94.5771C217.129 94.5771 219.003 96.1291 219.003 98.5548V106.889H216.623V104.901H216.566C215.864 106.246 214.335 107.096 212.749 107.096Z" fill="white"/>
<path d="M220.803 106.889V90.3006H223.286V106.889H220.803Z" fill="white"/>
<path d="M225.223 106.889V90.3006H227.707V106.889H225.223Z" fill="white"/>
<path d="M234.611 96.5774C232.875 96.5774 231.656 97.8995 231.53 99.7273H237.577C237.519 97.8765 236.347 96.5774 234.611 96.5774ZM237.565 103.337H239.922C239.577 105.544 237.485 107.119 234.714 107.119C231.162 107.119 229.012 104.717 229.012 100.9C229.012 97.1062 231.196 94.5771 234.611 94.5771C237.968 94.5771 240.06 96.9453 240.06 100.613V101.463H231.518V101.613C231.518 103.716 232.783 105.107 234.772 105.107C236.186 105.107 237.232 104.395 237.565 103.337Z" fill="white"/>
<path d="M242.009 91.933H244.504V94.7955H246.803V96.7614H244.504V103.429C244.504 104.475 244.964 104.947 245.975 104.947C246.228 104.947 246.631 104.924 246.791 104.889V106.855C246.516 106.924 245.964 106.97 245.412 106.97C242.963 106.97 242.009 106.039 242.009 103.705V96.7614H240.25V94.7955H242.009V91.933Z" fill="white"/>
<path d="M138.796 102.164C138.621 99.01 136.067 97.1765 133.017 97.4553C131.065 97.4455 127.938 97.4307 125.994 97.4109L131.159 89.3562C131.322 89.1094 130.956 88.8454 130.769 89.0724L122.889 97.8601C122.221 98.5683 122.813 99.8244 123.783 99.7726C123.849 99.7726 131.497 99.7158 133.022 99.7084C133.617 99.7281 134.347 99.6294 134.905 99.8713C136.756 100.56 137.175 103.074 135.662 104.345C132.597 107.368 128.543 111.351 125.458 114.372H125.451C124.752 115.12 123.501 114.989 122.877 114.211C122.028 113.281 122.815 112.097 123.203 111.144C123.928 109.461 124.693 107.795 125.525 106.159C125.611 106.001 125.483 105.789 125.3 105.794H123.013C122.884 105.794 122.759 105.833 122.652 105.91C122.546 105.986 122.467 106.092 122.425 106.213C122.297 106.593 120.878 110.406 120.31 111.934C119.18 115.171 122.968 118.394 125.989 116.803C126.438 116.585 126.825 116.235 127.178 115.887C127.674 115.396 135.588 107.509 135.588 107.509C137.165 105.93 138.915 104.646 138.791 102.166L138.796 102.164Z" fill="url(#paint2_linear_130_338)"/>
<path d="M117.001 99.2075C117.176 102.361 119.731 104.195 122.781 103.916C124.733 103.926 127.859 103.941 129.804 103.96L124.639 112.015C124.476 112.262 124.841 112.526 125.029 112.299L132.908 103.511C133.577 102.803 132.985 101.547 132.015 101.599C131.948 101.599 124.301 101.655 122.776 101.663C122.181 101.643 121.451 101.742 120.893 101.5C119.042 100.811 118.623 98.2969 120.135 97.026C123.2 94.003 127.255 90.02 130.339 86.9995H130.347C131.045 86.2517 132.296 86.3825 132.921 87.1599C133.77 88.0902 132.982 89.2747 132.595 90.2273C131.869 91.9103 131.104 93.576 130.273 95.2122C130.186 95.3701 130.315 95.5823 130.497 95.5774H132.785C132.913 95.5774 133.039 95.5379 133.145 95.4614C133.251 95.3849 133.33 95.2788 133.372 95.1579C133.501 94.7778 134.92 90.9652 135.487 89.4376C136.617 86.1999 132.829 82.977 129.809 84.5687C129.36 84.7859 128.972 85.1363 128.619 85.4843C128.123 85.9754 120.209 93.8623 120.209 93.8623C118.632 95.4417 116.883 96.7249 117.006 99.205L117.001 99.2075Z" fill="url(#paint3_linear_130_338)"/>
</g>
<defs>
<filter id="filter0_d_130_338" x="0.101318" y="0.140747" width="397.794" height="599.886" filterUnits="userSpaceOnUse" color-interpolation-filters="sRGB">
<feFlood flood-opacity="0" result="BackgroundImageFix"/>
<feColorMatrix in="SourceAlpha" type="matrix" values="0 0 0 0 0 0 0 0 0 0 0 0 0 0 0 0 0 0 127 0" result="hardAlpha"/>
<feOffset dy="20"/>
<feGaussianBlur stdDeviation="22"/>
<feComposite in2="hardAlpha" operator="out"/>
<feColorMatrix type="matrix" values="0 0 0 0 0 0 0 0 0 0 0 0 0 0 0 0 0 0 0.25 0"/>
<feBlend mode="normal" in2="BackgroundImageFix" result="effect1_dropShadow_130_338"/>
<feBlend mode="normal" in="SourceGraphic" in2="effect1_dropShadow_130_338" result="shape"/>
</filter>
<linearGradient id="paint0_linear_130_338" x1="231.5" y1="97" x2="111.979" y2="288.987" gradientUnits="userSpaceOnUse">
<stop stop-color="#055DF5" stop-opacity="0.22"/>
<stop offset="1" stop-color="#06F4EE" stop-opacity="0"/>
</linearGradient>
<linearGradient id="paint1_linear_130_338" x1="231.5" y1="97" x2="111.979" y2="288.987" gradientUnits="userSpaceOnUse">
<stop stop-color="#055DF5" stop-opacity="0.22"/>
<stop offset="1" stop-color="#06F4EE" stop-opacity="0"/>
</linearGradient>
<linearGradient id="paint2_linear_130_338" x1="143.158" y1="79.954" x2="127.858" y2="134.491" gradientUnits="userSpaceOnUse">
<stop stop-color="#055DF5"/>
<stop offset="1" stop-color="#06F4EE"/>
</linearGradient>
<linearGradient id="paint3_linear_130_338" x1="143.158" y1="79.954" x2="127.858" y2="134.491" gradientUnits="userSpaceOnUse">
<stop stop-color="#055DF5"/>
<stop offset="1" stop-color="#06F4EE"/>
</linearGradient>
<clipPath id="clip0_130_338">
<rect width="309.794" height="511.886" fill="white" transform="translate(44.1013 24.1407)"/>
</clipPath>
</defs>
</svg>
